<svg width="17" height="12" viewBox="0 0 17 12" fill="none" xmlns="http://www.w3.org/2000/svg">
<path d="M10.2649 10.7988L10.2645 10.7982C9.81504 10.1069 9.20002 9.53882 8.47529 9.14558C7.75056 8.75234 6.93908 8.54636 6.11453 8.54636C5.28999 8.54636 4.47851 8.75234 3.75378 9.14558C3.02914 9.53877 2.41418 10.1067 1.96474 10.7979C1.92582 10.8594 1.87509 10.9125 1.81547 10.9543C1.75577 10.9961 1.68835 11.0256 1.61713 11.0411C1.54591 11.0567 1.47232 11.0579 1.40063 11.0447C1.32894 11.0315 1.26058 11.0043 1.19953 10.9644C1.13848 10.9246 1.08595 10.8731 1.045 10.8128C1.00405 10.7525 0.975498 10.6846 0.960996 10.6132C0.946494 10.5418 0.946335 10.4682 0.960528 10.3967C0.974696 10.3253 1.00288 10.2575 1.04345 10.1971C1.04352 10.197 1.0436 10.1968 1.04367 10.1967L1.08516 10.2246C1.77781 9.15847 2.79146 8.34084 3.97886 7.88932L10.2649 10.7988ZM10.2649 10.7988C10.3456 10.9187 10.4702 11.002 10.6118 11.0308C10.7534 11.0595 10.9007 11.0314 11.0217 10.9524C11.1428 10.8735 11.2279 10.7501 11.2586 10.6089C11.2894 10.4677 11.2634 10.3201 11.1862 10.1979L11.1858 10.1974C10.4936 9.13194 9.48354 8.31263 8.30004 7.85488C8.93977 7.40513 9.42587 6.76838 9.69078 6.03095C9.96658 5.26321 9.98799 4.42709 9.75184 3.64623C9.51569 2.86538 9.03451 2.18125 8.37948 1.69501C7.72444 1.20878 6.93031 0.946246 6.11453 0.946246C5.29875 0.946246 4.50463 1.20878 3.84959 1.69501C3.19455 2.18125 2.71338 2.86538 2.47723 3.64623C2.24108 4.42709 2.26249 5.26321 2.53829 6.03095C2.8032 6.76838 3.2893 7.40513 3.92903 7.85488L10.2649 10.7988ZM16.5256 10.9584L16.5256 10.9584C16.4034 11.0381 16.2546 11.0659 16.1119 11.0359C15.9692 11.0059 15.8442 10.9204 15.7645 10.7982L15.7645 10.7981C15.3156 10.1064 14.7006 9.53815 13.9758 9.14508C13.2509 8.75201 12.4392 8.54667 11.6146 8.54777H11.6145C11.4687 8.54777 11.3288 8.48982 11.2256 8.38668C11.1225 8.28353 11.0645 8.14364 11.0645 7.99777C11.0645 7.8519 11.1225 7.712 11.2256 7.60886C11.3288 7.50573 11.4686 7.44778 11.6145 7.44777C12.0121 7.44739 12.4047 7.3592 12.7643 7.1895C13.1239 7.01979 13.4416 6.77276 13.6946 6.46606C13.9476 6.15935 14.1298 5.80054 14.2281 5.41527C14.3264 5.02999 14.3384 4.62776 14.2632 4.23731C14.1881 3.84687 14.0276 3.47784 13.7933 3.15661C13.5589 2.83537 13.2566 2.56985 12.9077 2.37903C12.5589 2.1882 12.1722 2.07678 11.7753 2.05272C11.3787 2.02867 10.9816 2.09248 10.6124 2.23958C10.5452 2.26856 10.4728 2.2838 10.3995 2.28442C10.326 2.28504 10.2532 2.27093 10.1852 2.2429C10.1173 2.21488 10.0556 2.17353 10.0039 2.12128C9.95222 2.06903 9.91152 2.00695 9.88422 1.93871C9.85692 1.87046 9.84358 1.79744 9.84498 1.72395C9.84638 1.65046 9.8625 1.578 9.89238 1.51085C9.92226 1.4437 9.9653 1.38321 10.019 1.33297C10.0724 1.28289 10.1354 1.24399 10.2041 1.21858C11.0764 0.870898 12.0464 0.85846 12.9273 1.18368C13.8084 1.50897 14.5378 2.14904 14.9748 2.98039C15.4118 3.81174 15.5254 4.77548 15.2938 5.68567C15.0701 6.56469 14.5397 7.33363 13.7999 7.85483C14.9834 8.31256 15.9936 9.13187 16.6858 10.1973L16.5256 10.9584ZM16.5256 10.9584C16.6478 10.8787 16.7333 10.7538 16.7633 10.611C16.7933 10.4683 16.7655 10.3196 16.6858 10.1974L16.5256 10.9584ZM3.41453 4.74771C3.41454 4.21372 3.5729 3.69173 3.86957 3.24773C4.16624 2.80372 4.58793 2.45765 5.08129 2.25329C5.57465 2.04894 6.11753 1.99547 6.64128 2.09965C7.16503 2.20383 7.64612 2.46098 8.02372 2.83858C8.40132 3.21618 8.65847 3.69728 8.76265 4.22102C8.86683 4.74477 8.81336 5.28765 8.60901 5.78101C8.40465 6.27437 8.05859 6.69606 7.61457 6.99274C7.17058 7.28941 6.64858 7.44776 6.11459 7.44777C5.39874 7.44696 4.71244 7.16223 4.20626 6.65604C3.70008 6.14986 3.41534 5.46356 3.41453 4.74771Z" fill="black" stroke="black" stroke-width="0.1"/>
</svg>
