<svg width="15" height="16" viewBox="0 0 15 16" fill="none" xmlns="http://www.w3.org/2000/svg">
<path fill-rule="evenodd" clip-rule="evenodd" d="M2.07692 0.49942H2.01923C1.755 0.49942 1.52769 0.49942 1.32692 0.546728C1.01612 0.620995 0.731942 0.779858 0.505881 1.00572C0.27982 1.23157 0.120701 1.51561 0.0461538 1.82634C-4.29841e-08 2.02711 0 2.25327 0 2.51865V5.40327C0 5.6675 8.59682e-09 5.8948 0.0473077 6.09557C0.121575 6.40638 0.280438 6.69055 0.506295 6.91662C0.732153 7.14268 1.01619 7.3018 1.32692 7.37634C1.52769 7.4225 1.75385 7.4225 2.01923 7.4225H4.90385C5.16808 7.4225 5.39538 7.4225 5.59615 7.37519C5.90696 7.30092 6.19113 7.14206 6.4172 6.9162C6.64326 6.69034 6.80238 6.40631 6.87692 6.09557C6.92308 5.8948 6.92308 5.66865 6.92308 5.40327V2.51865C6.92308 2.25442 6.92308 2.02711 6.87577 1.82634C6.8015 1.51554 6.64264 1.23136 6.41678 1.0053C6.19092 0.779241 5.90689 0.620121 5.59615 0.545574C5.39538 0.49942 5.16923 0.49942 4.90385 0.49942H4.84615H2.07692ZM1.59577 1.66942C1.64538 1.65788 1.72269 1.65327 2.07692 1.65327H4.84615C5.20154 1.65327 5.27769 1.65673 5.32731 1.66942C5.43096 1.69421 5.52572 1.74722 5.60107 1.82258C5.67643 1.89793 5.72944 1.99269 5.75423 2.09634C5.76577 2.1448 5.76923 2.22096 5.76923 2.57634V5.34557C5.76923 5.70096 5.76577 5.77711 5.75308 5.82673C5.72829 5.93038 5.67528 6.02514 5.59992 6.10049C5.52456 6.17585 5.4298 6.22886 5.32615 6.25365C5.27885 6.26404 5.20269 6.26865 4.84615 6.26865H2.07692C1.72154 6.26865 1.64538 6.26519 1.59577 6.2525C1.49212 6.22771 1.39736 6.1747 1.322 6.09934C1.24664 6.02398 1.19363 5.92922 1.16885 5.82557C1.15846 5.77827 1.15385 5.70211 1.15385 5.34557V2.57634C1.15385 2.22096 1.15731 2.1448 1.17 2.09519C1.19479 1.99154 1.2478 1.89678 1.32316 1.82142C1.39851 1.74606 1.49327 1.69305 1.59692 1.66827M10.1538 0.49942H10.0962C9.83192 0.49942 9.60462 0.49942 9.40385 0.546728C9.09304 0.620995 8.80887 0.779858 8.5828 1.00572C8.35674 1.23157 8.19762 1.51561 8.12308 1.82634C8.07692 2.02711 8.07692 2.25327 8.07692 2.51865V5.40327C8.07692 5.6675 8.07692 5.8948 8.12423 6.09557C8.1985 6.40638 8.35736 6.69055 8.58322 6.91662C8.80908 7.14268 9.09311 7.3018 9.40385 7.37634C9.60462 7.4225 9.83077 7.4225 10.0962 7.4225H12.9808C13.245 7.4225 13.4723 7.4225 13.6731 7.37519C13.9839 7.30092 14.2681 7.14206 14.4941 6.9162C14.7202 6.69034 14.8793 6.40631 14.9538 6.09557C15 5.8948 15 5.66865 15 5.40327V2.51865C15 2.25442 15 2.02711 14.9527 1.82634C14.8784 1.51554 14.7196 1.23136 14.4937 1.0053C14.2678 0.779241 13.9838 0.620121 13.6731 0.545574C13.4723 0.49942 13.2462 0.49942 12.9808 0.49942H12.9231H10.1538ZM9.67269 1.66942C9.72231 1.65788 9.79962 1.65327 10.1538 1.65327H12.9231C13.2785 1.65327 13.3546 1.65673 13.4042 1.66942C13.5079 1.69421 13.6026 1.74722 13.678 1.82258C13.7534 1.89793 13.8064 1.99269 13.8312 2.09634C13.8427 2.1448 13.8462 2.22096 13.8462 2.57634V5.34557C13.8462 5.70096 13.8415 5.77711 13.83 5.82673C13.8052 5.93038 13.7522 6.02514 13.6768 6.10049C13.6015 6.17585 13.5067 6.22886 13.4031 6.25365C13.3546 6.26519 13.2785 6.26865 12.9231 6.26865H10.1538C9.79846 6.26865 9.72231 6.26519 9.67269 6.2525C9.56904 6.22771 9.47428 6.1747 9.39893 6.09934C9.32357 6.02398 9.27055 5.92922 9.24577 5.82557C9.23538 5.77827 9.23077 5.70211 9.23077 5.34557V2.57634C9.23077 2.22096 9.23423 2.1448 9.24692 2.09519C9.27171 1.99154 9.32472 1.89678 9.40008 1.82142C9.47544 1.74606 9.5702 1.69305 9.67385 1.66827M2.01923 8.57634H4.90385C5.16808 8.57634 5.39538 8.57634 5.59615 8.62365C5.90696 8.69792 6.19113 8.85678 6.4172 9.08264C6.64326 9.3085 6.80238 9.59253 6.87692 9.90327C6.92308 10.104 6.92308 10.3302 6.92308 10.5956V13.4802C6.92308 13.7444 6.92308 13.9717 6.87577 14.1725C6.8015 14.4833 6.64264 14.7675 6.41678 14.9935C6.19092 15.2196 5.90689 15.3787 5.59615 15.4533C5.39538 15.4994 5.16923 15.4994 4.90385 15.4994H2.01923C1.755 15.4994 1.52769 15.4994 1.32692 15.4521C1.01612 15.3778 0.731942 15.219 0.505881 14.9931C0.27982 14.7673 0.120701 14.4832 0.0461538 14.1725C-4.29841e-08 13.9717 0 13.7456 0 13.4802V10.5956C0 10.3313 8.59682e-09 10.104 0.0473077 9.90327C0.121575 9.59246 0.280438 9.30829 0.506295 9.08222C0.732153 8.85616 1.01619 8.69704 1.32692 8.6225C1.52769 8.57634 1.75385 8.57634 2.01923 8.57634ZM2.07692 9.73019C1.72154 9.73019 1.64538 9.73365 1.59577 9.74634C1.49212 9.77113 1.39736 9.82414 1.322 9.8995C1.24664 9.97486 1.19363 10.0696 1.16885 10.1733C1.15846 10.2206 1.15385 10.2967 1.15385 10.6533V13.4225C1.15385 13.7779 1.15731 13.854 1.17 13.9037C1.19479 14.0073 1.2478 14.1021 1.32316 14.1774C1.39851 14.2528 1.49327 14.3058 1.59692 14.3306C1.64538 14.3421 1.72154 14.3456 2.07692 14.3456H4.84615C5.20154 14.3456 5.27769 14.341 5.32731 14.3294C5.43096 14.3046 5.52572 14.2516 5.60107 14.1763C5.67643 14.1009 5.72944 14.0061 5.75423 13.9025C5.76577 13.854 5.76923 13.7779 5.76923 13.4225V10.6533C5.76923 10.2979 5.76577 10.2217 5.75308 10.1721C5.72829 10.0685 5.67528 9.9737 5.59992 9.89835C5.52456 9.82299 5.4298 9.76997 5.32615 9.74519C5.27885 9.7348 5.20269 9.73019 4.84615 9.73019H2.07692ZM10.1538 8.57634H10.0962C9.83192 8.57634 9.60462 8.57634 9.40385 8.62365C9.09304 8.69792 8.80887 8.85678 8.5828 9.08264C8.35674 9.3085 8.19762 9.59253 8.12308 9.90327C8.07692 10.104 8.07692 10.3302 8.07692 10.5956V13.4802C8.07692 13.7444 8.07692 13.9717 8.12423 14.1725C8.1985 14.4833 8.35736 14.7675 8.58322 14.9935C8.80908 15.2196 9.09311 15.3787 9.40385 15.4533C9.60462 15.5006 9.83192 15.5006 10.0962 15.5006H12.9808C13.245 15.5006 13.4723 15.5006 13.6731 15.4533C13.9837 15.3788 14.2676 15.2199 14.4934 14.994C14.7193 14.7682 14.8782 14.4842 14.9527 14.1737C15 13.9729 15 13.7456 15 13.4813V10.5956C15 10.3313 15 10.104 14.9527 9.90327C14.8784 9.59246 14.7196 9.30829 14.4937 9.08222C14.2678 8.85616 13.9838 8.69704 13.6731 8.6225C13.4723 8.57634 13.2462 8.57634 12.9808 8.57634H12.9231H10.1538ZM9.67269 9.74634C9.72231 9.73481 9.79962 9.73019 10.1538 9.73019H12.9231C13.2785 9.73019 13.3546 9.73365 13.4042 9.74634C13.5079 9.77113 13.6026 9.82414 13.678 9.8995C13.7534 9.97486 13.8064 10.0696 13.8312 10.1733C13.8427 10.2217 13.8462 10.2979 13.8462 10.6533V13.4225C13.8462 13.7779 13.8415 13.854 13.83 13.9037C13.8052 14.0073 13.7522 14.1021 13.6768 14.1774C13.6015 14.2528 13.5067 14.3058 13.4031 14.3306C13.3546 14.3421 13.2785 14.3456 12.9231 14.3456H10.1538C9.79846 14.3456 9.72231 14.341 9.67269 14.3294C9.56904 14.3046 9.47428 14.2516 9.39893 14.1763C9.32357 14.1009 9.27055 14.0061 9.24577 13.9025C9.23538 13.8552 9.23077 13.779 9.23077 13.4225V10.6533C9.23077 10.2979 9.23423 10.2217 9.24692 10.1721C9.27171 10.0685 9.32472 9.9737 9.40008 9.89835C9.47544 9.82299 9.5702 9.76997 9.67385 9.74519" fill="black"/>
</svg>
