<svg width="15" height="22" viewBox="0 0 15 22" fill="none" xmlns="http://www.w3.org/2000/svg">
<path d="M6.99925 16.3672L6.99922 16.3671L5.37472 14.8091C5.30665 14.7439 5.22295 14.6972 5.13164 14.6736C5.04033 14.65 4.94449 14.6503 4.85332 14.6744C4.76211 14.6985 4.67864 14.7457 4.61093 14.8113C4.54322 14.877 4.49354 14.959 4.46668 15.0495L4.46666 15.0495L3.9597 16.7617L2.02815 18.2746C2.02806 18.2746 2.02798 18.2747 2.0279 18.2748C1.8656 18.3995 1.72961 18.5551 1.62778 18.7327C1.5259 18.9103 1.46023 19.1064 1.43457 19.3096C1.40891 19.5128 1.42376 19.719 1.47828 19.9164C1.5328 20.1138 1.62589 20.2984 1.75219 20.4597C1.87848 20.6209 2.03547 20.7555 2.21408 20.8556C2.3927 20.9558 2.58939 21.0196 2.79281 21.0434C2.99622 21.0671 3.20232 21.0502 3.39919 20.9939C3.59598 20.9375 3.77966 20.8427 3.93961 20.7149C3.93968 20.7149 3.93975 20.7148 3.93982 20.7148L6.26093 18.8971L6.26095 18.8971C6.51441 18.6984 6.69969 18.4257 6.79105 18.1169L7.14555 16.9199L7.09761 16.9057L7.14555 16.9199C7.17418 16.8232 7.17568 16.7205 7.14987 16.623C7.12407 16.5255 7.07196 16.437 6.99925 16.3672ZM4.96405 17.2424L5.2652 16.2276L5.99602 16.9287L5.73668 17.8045C5.73668 17.8045 5.73668 17.8045 5.73667 17.8045C5.71 17.8941 5.65605 17.9732 5.58233 18.0308L5.58227 18.0309L3.26171 19.8486C3.26156 19.8488 3.2614 19.8489 3.26125 19.849C3.16714 19.919 3.0494 19.9495 2.93312 19.934C2.81664 19.9184 2.71087 19.8579 2.63841 19.7654C2.56595 19.6729 2.53254 19.5557 2.54533 19.4389C2.55811 19.3223 2.61592 19.2153 2.70645 19.1407C2.70659 19.1406 2.70673 19.1404 2.70686 19.1403L4.77595 17.5191C4.86585 17.4486 4.93159 17.3519 4.96404 17.2424C4.96404 17.2424 4.96404 17.2424 4.96405 17.2424ZM10.6044 4.52152C10.3325 4.79345 9.96367 4.94622 9.57911 4.94622C9.19454 4.94622 8.82573 4.79345 8.5538 4.52152C8.28187 4.24959 8.12911 3.88078 8.12911 3.49622C8.12911 3.11165 8.28187 2.74284 8.5538 2.47091C8.82573 2.19898 9.19454 2.04622 9.57911 2.04622C9.96367 2.04622 10.3325 2.19898 10.6044 2.47091C10.8763 2.74284 11.0291 3.11165 11.0291 3.49622C11.0291 3.88078 10.8763 4.24959 10.6044 4.52152ZM9.57911 6.04622C10.2554 6.04622 10.904 5.77756 11.3822 5.29934C11.8604 4.82112 12.1291 4.17252 12.1291 3.49622C12.1291 2.81991 11.8604 2.17131 11.3822 1.69309C10.904 1.21488 10.2554 0.946216 9.57911 0.946216C8.9028 0.946216 8.2542 1.21488 7.77598 1.69309C7.29777 2.17131 7.02911 2.81991 7.02911 3.49622C7.02911 4.17252 7.29777 4.82112 7.77598 5.29934C8.2542 5.77756 8.9028 6.04622 9.57911 6.04622Z" fill="black" stroke="black" stroke-width="0.1"/>
<path d="M10.9033 9.61217L10.9033 9.61226C11.1458 10.0947 11.3216 10.3739 11.4746 10.5522C11.6048 10.7031 11.7137 10.7774 11.8543 10.8321L11.8545 10.8322C12.022 10.8982 12.3021 10.9603 12.8086 10.9757C12.8086 10.9757 12.8086 10.9757 12.8087 10.9757L12.8071 11.0257C13.1775 11.0368 13.5283 11.1945 13.7824 11.4643C14.0364 11.734 14.173 12.0936 14.1619 12.464C14.1508 12.8343 13.9931 13.1851 13.7233 13.4392C13.4536 13.6933 13.094 13.8298 12.7236 13.8187L10.9033 9.61217ZM10.9033 9.61217C10.7373 9.28354 10.5642 8.90829 10.3544 8.45346L10.3316 8.40382C10.2415 8.20807 10.1443 7.99817 10.04 7.77411C9.75776 7.16825 9.30763 6.58528 8.64009 6.2403M10.9033 9.61217L8.64009 6.2403M4.74076 10.9338L4.59895 12.1861L4.59894 12.1861C4.57454 12.4039 4.5998 12.6243 4.67281 12.8309C4.74582 13.0374 4.86468 13.2247 5.02048 13.3788L5.02051 13.3788L8.94247 17.2489L10.0726 20.1275L10.0726 20.1275L4.74076 10.9338ZM4.74076 10.9338C4.34658 11.4756 4.01417 12.1158 3.77577 12.8619L4.74076 10.9338ZM9.20531 12.3493C9.2294 12.3788 9.25386 12.4079 9.27868 12.4368L9.20531 12.3493ZM9.20531 12.3493L9.02926 13.2684L11.1937 15.404L9.20531 12.3493ZM11.5247 15.9054L11.5247 15.9055L12.7667 19.0705L12.7201 19.0887L11.5247 15.9054ZM11.5247 15.9054C11.4506 15.717 11.3383 15.5461 11.1938 15.4041L11.5247 15.9054ZM1.0185 11.982L1.0185 11.982C1.90672 9.19979 3.91594 7.10291 6.41089 6.13893L6.41177 6.1385L6.41666 6.13605L6.41677 6.13633L6.43023 6.13134L1.0185 11.982ZM1.0185 11.982C0.901817 12.3477 0.935162 12.7447 1.1112 13.0857C1.28724 13.4268 1.59155 13.6839 1.95718 13.8006C2.32282 13.9173 2.71983 13.8839 3.06088 13.7079C3.40193 13.5319 3.65908 13.2276 3.77576 12.8619L1.0185 11.982ZM2.06677 12.3164L2.06676 12.3164C2.0529 12.3598 2.04773 12.4056 2.05154 12.451C2.05535 12.4964 2.06807 12.5406 2.08897 12.5811C2.10987 12.6216 2.13854 12.6576 2.17335 12.687C2.20816 12.7164 2.24842 12.7387 2.29184 12.7526C2.33526 12.7664 2.38098 12.7716 2.42639 12.7678C2.47181 12.764 2.51603 12.7513 2.55653 12.7304C2.59703 12.7095 2.63302 12.6808 2.66244 12.646C2.69186 12.6112 2.71414 12.5709 2.728 12.5275L2.77563 12.5427L2.728 12.5275C3.228 10.9616 4.09915 9.776 5.124 8.93899L5.12402 8.93898C5.20868 8.8699 5.312 8.8276 5.4208 8.81748C5.5296 8.80736 5.63895 8.82988 5.73489 8.88216C5.83084 8.93444 5.90904 9.01412 5.95952 9.11103C6.01 9.20794 6.03047 9.31769 6.01832 9.42628L6.01832 9.42633L5.69234 12.3096C5.69233 12.3097 5.69233 12.3097 5.69232 12.3098C5.68664 12.362 5.69277 12.4147 5.71025 12.4642C5.72773 12.5137 5.75613 12.5587 5.79334 12.5957C5.79336 12.5957 5.79338 12.5958 5.7934 12.5958L9.79825 16.5476C9.85352 16.6022 9.89556 16.6657 9.92412 16.7378L9.92418 16.738L11.0967 19.726L11.097 19.7268L11.097 19.7268C11.1131 19.77 11.1376 19.8096 11.1691 19.8433C11.2006 19.8769 11.2385 19.904 11.2806 19.9228C11.3227 19.9416 11.3681 19.9519 11.4142 19.9529C11.4603 19.954 11.5061 19.9459 11.5491 19.9291C11.592 19.9122 11.6311 19.887 11.6642 19.8548C11.6972 19.8227 11.7236 19.7843 11.7416 19.7419C11.7597 19.6994 11.7691 19.6538 11.7693 19.6077C11.7695 19.5616 11.7606 19.5159 11.7429 19.4733L11.7426 19.4725L11.7426 19.4725L10.5006 16.3075L10.5006 16.3074C10.4828 16.2621 10.4559 16.221 10.4214 16.1867L8.04752 13.8448L8.04752 13.8448L8.08263 13.8092C8.0241 13.7515 7.98071 13.6802 7.95629 13.6017C7.93187 13.5233 7.92718 13.44 7.94263 13.3592L2.06677 12.3164ZM2.06677 12.3164C2.85578 9.84298 4.63112 8.00577 6.80765 7.16486L6.81502 7.1621C6.81504 7.16209 6.81506 7.16208 6.81508 7.16207C7.27916 6.99001 7.73487 7.01022 8.13516 7.21713C8.52763 7.42015 8.83101 7.78419 9.04282 8.23835L9.04283 8.23837C9.14631 8.45997 9.2428 8.66843 9.33231 8.86374L9.33448 8.86895L9.33446 8.86896L9.3351 8.87037C9.52353 9.28572 9.7188 9.69794 9.9208 10.1069L9.92096 10.1072C10.175 10.6122 10.3982 10.9871 10.6402 11.2683C10.8761 11.5434 11.1306 11.7305 11.4539 11.8568C11.7843 11.9862 12.2026 12.0581 12.7756 12.0752V12.0752L12.7765 12.0752C12.8227 12.0758 12.8682 12.0855 12.9105 12.1038C12.9528 12.1221 12.991 12.1487 13.023 12.182C13.0549 12.2153 13.0798 12.2546 13.0964 12.2976C13.1129 12.3407 13.1207 12.3866 13.1193 12.4327C13.118 12.4788 13.1074 12.5241 13.0883 12.5661C13.0691 12.608 13.0419 12.6458 13.008 12.6771C12.9741 12.7084 12.9344 12.7326 12.891 12.7483C12.8477 12.7641 12.8016 12.771 12.7556 12.7688L12.7546 12.7687C12.1401 12.7503 11.634 12.6728 11.2013 12.5037C10.7622 12.3319 10.4162 12.0735 10.1131 11.7206L10.113 11.7206C9.85861 11.4248 9.63565 11.062 9.4114 10.635C9.35841 10.5339 9.27529 10.4518 9.17356 10.4001C9.07182 10.3484 8.95651 10.3296 8.84361 10.3463C8.73071 10.363 8.62581 10.4145 8.54347 10.4935C8.46112 10.5725 8.4054 10.6752 8.38402 10.7873L2.06677 12.3164ZM8.64009 6.2403C7.93784 5.87669 7.15607 5.86196 6.43027 6.13133L8.64009 6.2403Z" fill="black" stroke="black" stroke-width="0.1"/>
</svg>
