<svg width="15" height="16" viewBox="0 0 15 16" fill="none" xmlns="http://www.w3.org/2000/svg">
<path fill-rule="evenodd" clip-rule="evenodd" d="M2.34883 1.51332C1.96791 1.56187 1.82218 1.64358 1.73057 1.73038C1.63897 1.81718 1.55274 1.95527 1.5015 2.31622C1.44744 2.69701 1.4459 3.2101 1.4459 3.98644V10.4081C1.4459 11.5625 1.44744 12.3596 1.53253 12.9592C1.61483 13.5391 1.76316 13.8303 1.97849 14.0342C2.19358 14.2382 2.50157 14.3793 3.11355 14.4573C3.74627 14.5379 4.58745 14.5394 5.80574 14.5394H9.19426C10.4125 14.5394 11.2537 14.5379 11.8864 14.4573C12.4984 14.3793 12.8058 14.2387 13.0209 14.0347C13.2363 13.8309 13.3852 13.5391 13.4675 12.9592C13.5526 12.3596 13.5541 11.5625 13.5541 10.4081V3.98644C13.5541 3.2101 13.5526 2.69701 13.4985 2.31622C13.4473 1.95527 13.361 1.81718 13.2694 1.73038C13.1778 1.64358 13.0321 1.56187 12.6512 1.51332C12.2493 1.46209 11.7078 1.46063 10.8885 1.46063H4.11148C3.29217 1.46063 2.75069 1.46209 2.34883 1.51332ZM4.06238 0.0905479C4.07869 0.0905485 4.09506 0.0905492 4.11148 0.0905492L10.9376 0.0905479C11.6945 0.0905179 12.3343 0.0904926 12.8439 0.155464C13.3855 0.224504 13.887 0.377992 14.2918 0.761583C14.6966 1.14517 14.8586 1.62035 14.9315 2.13355C15.0001 2.61652 15 3.22269 15 3.93993L15 10.4575C15 11.5506 15 12.4402 14.9005 13.1418C14.7966 13.8734 14.5727 14.5023 14.0436 15.0032C13.515 15.5046 12.8513 15.7168 12.0792 15.8151C11.3388 15.9095 10.3999 15.9095 9.2464 15.9095H5.7536C4.60008 15.9095 3.66121 15.9095 2.92084 15.8151C2.14875 15.7168 1.48503 15.5046 0.956378 15.0032C0.427288 14.5023 0.203367 13.8734 0.0995318 13.1418C-3.84086e-05 12.4402 -2.02531e-05 11.5506 2.03937e-06 10.4575L2.72883e-06 3.98644C2.72883e-06 3.97088 2.03937e-06 3.95537 1.34991e-06 3.93992C-3.02503e-05 3.22268 -5.70239e-05 2.61651 0.0685094 2.13355C0.141369 1.62035 0.303352 1.14517 0.708168 0.761583C1.11299 0.377992 1.61446 0.224504 2.15606 0.155464C2.66574 0.0904926 3.30546 0.0905179 4.06238 0.0905479Z" fill="black"/>
<path fill-rule="evenodd" clip-rule="evenodd" d="M4.23566 4.78915C4.23566 4.41081 4.55933 4.10411 4.95861 4.10411H10.0414C10.4407 4.10411 10.7643 4.41081 10.7643 4.78915C10.7643 5.16749 10.4407 5.47419 10.0414 5.47419H4.95861C4.55933 5.47419 4.23566 5.16749 4.23566 4.78915ZM4.23566 8C4.23566 7.62166 4.55933 7.31496 4.95861 7.31496H10.0414C10.4407 7.31496 10.7643 7.62166 10.7643 8C10.7643 8.37834 10.4407 8.68504 10.0414 8.68504H4.95861C4.55933 8.68504 4.23566 8.37834 4.23566 8ZM4.95861 12.1312C5.35788 12.1312 5.68156 12.4379 5.68156 12.8163V15.2244C5.68156 15.6027 5.35788 15.9095 4.95861 15.9095C4.55933 15.9095 4.23566 15.6027 4.23566 15.2244V12.8163C4.23566 12.4379 4.55933 12.1312 4.95861 12.1312ZM10.0414 12.1312C10.4407 12.1312 10.7643 12.4379 10.7643 12.8163V15.2244C10.7643 15.6027 10.4407 15.9095 10.0414 15.9095C9.64212 15.9095 9.31844 15.6027 9.31844 15.2244V12.8163C9.31844 12.4379 9.64212 12.1312 10.0414 12.1312Z" fill="black"/>
</svg>
