<svg width="247" height="204" viewBox="0 0 247 204" fill="none" xmlns="http://www.w3.org/2000/svg">
<path opacity="0.25" d="M27.384 193.874H25.928L20.072 184.994V193.874H18.616V182.706H20.072L25.928 191.57V182.706H27.384V193.874ZM33.69 194.018C32.8687 194.018 32.122 193.831 31.45 193.458C30.7887 193.084 30.266 192.556 29.882 191.874C29.5087 191.18 29.322 190.38 29.322 189.474C29.322 188.578 29.514 187.788 29.898 187.106C30.2927 186.412 30.826 185.884 31.498 185.522C32.17 185.148 32.922 184.962 33.754 184.962C34.586 184.962 35.338 185.148 36.01 185.522C36.682 185.884 37.21 186.407 37.594 187.09C37.9887 187.772 38.186 188.567 38.186 189.474C38.186 190.38 37.9834 191.18 37.578 191.874C37.1834 192.556 36.6447 193.084 35.962 193.458C35.2794 193.831 34.522 194.018 33.69 194.018ZM33.69 192.738C34.2127 192.738 34.7034 192.615 35.162 192.37C35.6207 192.124 35.9887 191.756 36.266 191.266C36.554 190.775 36.698 190.178 36.698 189.474C36.698 188.77 36.5594 188.172 36.282 187.682C36.0047 187.191 35.642 186.828 35.194 186.594C34.746 186.348 34.2607 186.226 33.738 186.226C33.2047 186.226 32.714 186.348 32.266 186.594C31.8287 186.828 31.4767 187.191 31.21 187.682C30.9434 188.172 30.81 188.77 30.81 189.474C30.81 190.188 30.938 190.791 31.194 191.282C31.4607 191.772 31.8127 192.14 32.25 192.386C32.6874 192.62 33.1674 192.738 33.69 192.738ZM48.638 184.946C49.7047 184.946 50.5687 185.271 51.23 185.922C51.8914 186.562 52.222 187.49 52.222 188.706V193.874H50.782V188.914C50.782 188.039 50.5634 187.372 50.126 186.914C49.6887 186.444 49.0914 186.21 48.334 186.21C47.566 186.21 46.9527 186.45 46.494 186.93C46.046 187.41 45.822 188.108 45.822 189.026V193.874H44.366V185.106H45.822V186.354C46.11 185.906 46.4994 185.559 46.99 185.314C47.4914 185.068 48.0407 184.946 48.638 184.946ZM62.6004 189.154C62.6004 189.431 62.5844 189.724 62.5524 190.034H55.5444C55.5977 190.898 55.8911 191.575 56.4244 192.066C56.9684 192.546 57.6244 192.786 58.3924 192.786C59.0217 192.786 59.5444 192.642 59.9604 192.354C60.3871 192.055 60.6857 191.66 60.8564 191.17H62.4244C62.1897 192.012 61.7204 192.7 61.0164 193.234C60.3124 193.756 59.4377 194.018 58.3924 194.018C57.5604 194.018 56.8137 193.831 56.1524 193.458C55.5017 193.084 54.9897 192.556 54.6164 191.874C54.2431 191.18 54.0564 190.38 54.0564 189.474C54.0564 188.567 54.2377 187.772 54.6004 187.09C54.9631 186.407 55.4697 185.884 56.1204 185.522C56.7817 185.148 57.5391 184.962 58.3924 184.962C59.2244 184.962 59.9604 185.143 60.6004 185.506C61.2404 185.868 61.7311 186.37 62.0724 187.01C62.4244 187.639 62.6004 188.354 62.6004 189.154ZM61.0964 188.85C61.0964 188.295 60.9737 187.82 60.7284 187.426C60.4831 187.02 60.1471 186.716 59.7204 186.514C59.3044 186.3 58.8404 186.194 58.3284 186.194C57.5924 186.194 56.9631 186.428 56.4404 186.898C55.9284 187.367 55.6351 188.018 55.5604 188.85H61.0964ZM76.2023 185.106L73.4663 193.874H71.9623L69.8503 186.914L67.7383 193.874H66.2343L63.4823 185.106H64.9703L66.9863 192.466L69.1623 185.106H70.6503L72.7783 192.482L74.7623 185.106H76.2023ZM92.4569 184.946C93.1396 184.946 93.7476 185.09 94.2809 185.378C94.8142 185.655 95.2356 186.076 95.5449 186.642C95.8542 187.207 96.0089 187.895 96.0089 188.706V193.874H94.5689V188.914C94.5689 188.039 94.3502 187.372 93.9129 186.914C93.4862 186.444 92.9049 186.21 92.1689 186.21C91.4116 186.21 90.8089 186.455 90.3609 186.946C89.9129 187.426 89.6889 188.124 89.6889 189.042V193.874H88.2489V188.914C88.2489 188.039 88.0302 187.372 87.5929 186.914C87.1662 186.444 86.5849 186.21 85.8489 186.21C85.0916 186.21 84.4889 186.455 84.0409 186.946C83.5929 187.426 83.3689 188.124 83.3689 189.042V193.874H81.9129V185.106H83.3689V186.37C83.6569 185.911 84.0409 185.559 84.5209 185.314C85.0116 185.068 85.5502 184.946 86.1369 184.946C86.8729 184.946 87.5236 185.111 88.0889 185.442C88.6542 185.772 89.0756 186.258 89.3529 186.898C89.5982 186.279 90.0036 185.799 90.5689 185.458C91.1342 185.116 91.7636 184.946 92.4569 184.946ZM106.397 189.154C106.397 189.431 106.381 189.724 106.349 190.034H99.3413C99.3946 190.898 99.6879 191.575 100.221 192.066C100.765 192.546 101.421 192.786 102.189 192.786C102.819 192.786 103.341 192.642 103.757 192.354C104.184 192.055 104.483 191.66 104.653 191.17H106.221C105.987 192.012 105.517 192.7 104.813 193.234C104.109 193.756 103.235 194.018 102.189 194.018C101.357 194.018 100.611 193.831 99.9493 193.458C99.2986 193.084 98.7866 192.556 98.4133 191.874C98.0399 191.18 97.8533 190.38 97.8533 189.474C97.8533 188.567 98.0346 187.772 98.3973 187.09C98.76 186.407 99.2666 185.884 99.9173 185.522C100.579 185.148 101.336 184.962 102.189 184.962C103.021 184.962 103.757 185.143 104.397 185.506C105.037 185.868 105.528 186.37 105.869 187.01C106.221 187.639 106.397 188.354 106.397 189.154ZM104.893 188.85C104.893 188.295 104.771 187.82 104.525 187.426C104.28 187.02 103.944 186.716 103.517 186.514C103.101 186.3 102.637 186.194 102.125 186.194C101.389 186.194 100.76 186.428 100.237 186.898C99.7253 187.367 99.432 188.018 99.3573 188.85H104.893ZM111.423 194.018C110.751 194.018 110.148 193.906 109.615 193.682C109.082 193.447 108.66 193.127 108.351 192.722C108.042 192.306 107.871 191.831 107.839 191.298H109.343C109.386 191.735 109.588 192.092 109.951 192.37C110.324 192.647 110.81 192.786 111.407 192.786C111.962 192.786 112.399 192.663 112.719 192.418C113.039 192.172 113.199 191.863 113.199 191.49C113.199 191.106 113.028 190.823 112.687 190.642C112.346 190.45 111.818 190.263 111.103 190.082C110.452 189.911 109.919 189.74 109.503 189.57C109.098 189.388 108.746 189.127 108.447 188.786C108.159 188.434 108.015 187.975 108.015 187.41C108.015 186.962 108.148 186.551 108.415 186.178C108.682 185.804 109.06 185.511 109.551 185.298C110.042 185.074 110.602 184.962 111.231 184.962C112.202 184.962 112.986 185.207 113.583 185.698C114.18 186.188 114.5 186.86 114.543 187.714H113.087C113.055 187.255 112.868 186.887 112.527 186.61C112.196 186.332 111.748 186.194 111.183 186.194C110.66 186.194 110.244 186.306 109.935 186.53C109.626 186.754 109.471 187.047 109.471 187.41C109.471 187.698 109.562 187.938 109.743 188.13C109.935 188.311 110.17 188.46 110.447 188.578C110.735 188.684 111.13 188.807 111.631 188.946C112.26 189.116 112.772 189.287 113.167 189.458C113.562 189.618 113.898 189.863 114.175 190.194C114.463 190.524 114.612 190.956 114.623 191.49C114.623 191.97 114.49 192.402 114.223 192.786C113.956 193.17 113.578 193.474 113.087 193.698C112.607 193.911 112.052 194.018 111.423 194.018ZM119.783 194.018C119.111 194.018 118.508 193.906 117.975 193.682C117.441 193.447 117.02 193.127 116.711 192.722C116.401 192.306 116.231 191.831 116.199 191.298H117.703C117.745 191.735 117.948 192.092 118.311 192.37C118.684 192.647 119.169 192.786 119.767 192.786C120.321 192.786 120.759 192.663 121.079 192.418C121.399 192.172 121.559 191.863 121.559 191.49C121.559 191.106 121.388 190.823 121.047 190.642C120.705 190.45 120.177 190.263 119.463 190.082C118.812 189.911 118.279 189.74 117.863 189.57C117.457 189.388 117.105 189.127 116.807 188.786C116.519 188.434 116.375 187.975 116.375 187.41C116.375 186.962 116.508 186.551 116.775 186.178C117.041 185.804 117.42 185.511 117.911 185.298C118.401 185.074 118.961 184.962 119.591 184.962C120.561 184.962 121.345 185.207 121.943 185.698C122.54 186.188 122.86 186.86 122.903 187.714H121.447C121.415 187.255 121.228 186.887 120.887 186.61C120.556 186.332 120.108 186.194 119.543 186.194C119.02 186.194 118.604 186.306 118.295 186.53C117.985 186.754 117.831 187.047 117.831 187.41C117.831 187.698 117.921 187.938 118.103 188.13C118.295 188.311 118.529 188.46 118.807 188.578C119.095 188.684 119.489 188.807 119.991 188.946C120.62 189.116 121.132 189.287 121.527 189.458C121.921 189.618 122.257 189.863 122.535 190.194C122.823 190.524 122.972 190.956 122.983 191.49C122.983 191.97 122.849 192.402 122.583 192.786C122.316 193.17 121.937 193.474 121.447 193.698C120.967 193.911 120.412 194.018 119.783 194.018ZM124.494 189.458C124.494 188.562 124.675 187.778 125.038 187.106C125.401 186.423 125.897 185.895 126.526 185.522C127.166 185.148 127.875 184.962 128.654 184.962C129.422 184.962 130.089 185.127 130.654 185.458C131.219 185.788 131.641 186.204 131.918 186.706V185.106H133.39V193.874H131.918V192.242C131.63 192.754 131.198 193.18 130.622 193.522C130.057 193.852 129.395 194.018 128.638 194.018C127.859 194.018 127.155 193.826 126.526 193.442C125.897 193.058 125.401 192.519 125.038 191.826C124.675 191.132 124.494 190.343 124.494 189.458ZM131.918 189.474C131.918 188.812 131.785 188.236 131.518 187.746C131.251 187.255 130.889 186.882 130.43 186.626C129.982 186.359 129.486 186.226 128.942 186.226C128.398 186.226 127.902 186.354 127.454 186.61C127.006 186.866 126.649 187.239 126.382 187.73C126.115 188.22 125.982 188.796 125.982 189.458C125.982 190.13 126.115 190.716 126.382 191.218C126.649 191.708 127.006 192.087 127.454 192.354C127.902 192.61 128.398 192.738 128.942 192.738C129.486 192.738 129.982 192.61 130.43 192.354C130.889 192.087 131.251 191.708 131.518 191.218C131.785 190.716 131.918 190.135 131.918 189.474ZM139.466 184.962C140.224 184.962 140.885 185.127 141.45 185.458C142.026 185.788 142.453 186.204 142.73 186.706V185.106H144.202V194.066C144.202 194.866 144.032 195.575 143.69 196.194C143.349 196.823 142.858 197.314 142.218 197.666C141.589 198.018 140.853 198.194 140.01 198.194C138.858 198.194 137.898 197.922 137.13 197.378C136.362 196.834 135.909 196.092 135.77 195.154H137.21C137.37 195.687 137.701 196.114 138.202 196.434C138.704 196.764 139.306 196.93 140.01 196.93C140.81 196.93 141.461 196.679 141.962 196.178C142.474 195.676 142.73 194.972 142.73 194.066V192.226C142.442 192.738 142.016 193.164 141.45 193.506C140.885 193.847 140.224 194.018 139.466 194.018C138.688 194.018 137.978 193.826 137.338 193.442C136.709 193.058 136.213 192.519 135.85 191.826C135.488 191.132 135.306 190.343 135.306 189.458C135.306 188.562 135.488 187.778 135.85 187.106C136.213 186.423 136.709 185.895 137.338 185.522C137.978 185.148 138.688 184.962 139.466 184.962ZM142.73 189.474C142.73 188.812 142.597 188.236 142.33 187.746C142.064 187.255 141.701 186.882 141.242 186.626C140.794 186.359 140.298 186.226 139.754 186.226C139.21 186.226 138.714 186.354 138.266 186.61C137.818 186.866 137.461 187.239 137.194 187.73C136.928 188.22 136.794 188.796 136.794 189.458C136.794 190.13 136.928 190.716 137.194 191.218C137.461 191.708 137.818 192.087 138.266 192.354C138.714 192.61 139.21 192.738 139.754 192.738C140.298 192.738 140.794 192.61 141.242 192.354C141.701 192.087 142.064 191.708 142.33 191.218C142.597 190.716 142.73 190.135 142.73 189.474ZM154.663 189.154C154.663 189.431 154.647 189.724 154.615 190.034H147.607C147.66 190.898 147.954 191.575 148.487 192.066C149.031 192.546 149.687 192.786 150.455 192.786C151.084 192.786 151.607 192.642 152.023 192.354C152.45 192.055 152.748 191.66 152.919 191.17H154.487C154.252 192.012 153.783 192.7 153.079 193.234C152.375 193.756 151.5 194.018 150.455 194.018C149.623 194.018 148.876 193.831 148.215 193.458C147.564 193.084 147.052 192.556 146.679 191.874C146.306 191.18 146.119 190.38 146.119 189.474C146.119 188.567 146.3 187.772 146.663 187.09C147.026 186.407 147.532 185.884 148.183 185.522C148.844 185.148 149.602 184.962 150.455 184.962C151.287 184.962 152.023 185.143 152.663 185.506C153.303 185.868 153.794 186.37 154.135 187.01C154.487 187.639 154.663 188.354 154.663 189.154ZM153.159 188.85C153.159 188.295 153.036 187.82 152.791 187.426C152.546 187.02 152.21 186.716 151.783 186.514C151.367 186.3 150.903 186.194 150.391 186.194C149.655 186.194 149.026 186.428 148.503 186.898C147.991 187.367 147.698 188.018 147.623 188.85H153.159ZM159.689 194.018C159.017 194.018 158.414 193.906 157.881 193.682C157.347 193.447 156.926 193.127 156.617 192.722C156.307 192.306 156.137 191.831 156.105 191.298H157.609C157.651 191.735 157.854 192.092 158.217 192.37C158.59 192.647 159.075 192.786 159.673 192.786C160.227 192.786 160.665 192.663 160.985 192.418C161.305 192.172 161.465 191.863 161.465 191.49C161.465 191.106 161.294 190.823 160.953 190.642C160.611 190.45 160.083 190.263 159.369 190.082C158.718 189.911 158.185 189.74 157.769 189.57C157.363 189.388 157.011 189.127 156.713 188.786C156.425 188.434 156.281 187.975 156.281 187.41C156.281 186.962 156.414 186.551 156.681 186.178C156.947 185.804 157.326 185.511 157.817 185.298C158.307 185.074 158.867 184.962 159.497 184.962C160.467 184.962 161.251 185.207 161.849 185.698C162.446 186.188 162.766 186.86 162.809 187.714H161.353C161.321 187.255 161.134 186.887 160.793 186.61C160.462 186.332 160.014 186.194 159.449 186.194C158.926 186.194 158.51 186.306 158.201 186.53C157.891 186.754 157.737 187.047 157.737 187.41C157.737 187.698 157.827 187.938 158.009 188.13C158.201 188.311 158.435 188.46 158.713 188.578C159.001 188.684 159.395 188.807 159.897 188.946C160.526 189.116 161.038 189.287 161.433 189.458C161.827 189.618 162.163 189.863 162.441 190.194C162.729 190.524 162.878 190.956 162.889 191.49C162.889 191.97 162.755 192.402 162.489 192.786C162.222 193.17 161.843 193.474 161.353 193.698C160.873 193.911 160.318 194.018 159.689 194.018ZM170.986 186.306V191.474C170.986 191.9 171.076 192.204 171.258 192.386C171.439 192.556 171.754 192.642 172.202 192.642H173.274V193.874H171.962C171.151 193.874 170.543 193.687 170.138 193.314C169.732 192.94 169.53 192.327 169.53 191.474V186.306H168.394V185.106H169.53V182.898H170.986V185.106H173.274V186.306H170.986ZM178.862 194.018C178.041 194.018 177.294 193.831 176.622 193.458C175.961 193.084 175.438 192.556 175.054 191.874C174.681 191.18 174.494 190.38 174.494 189.474C174.494 188.578 174.686 187.788 175.07 187.106C175.465 186.412 175.998 185.884 176.67 185.522C177.342 185.148 178.094 184.962 178.926 184.962C179.758 184.962 180.51 185.148 181.182 185.522C181.854 185.884 182.382 186.407 182.766 187.09C183.161 187.772 183.358 188.567 183.358 189.474C183.358 190.38 183.155 191.18 182.75 191.874C182.355 192.556 181.817 193.084 181.134 193.458C180.451 193.831 179.694 194.018 178.862 194.018ZM178.862 192.738C179.385 192.738 179.875 192.615 180.334 192.37C180.793 192.124 181.161 191.756 181.438 191.266C181.726 190.775 181.87 190.178 181.87 189.474C181.87 188.77 181.731 188.172 181.454 187.682C181.177 187.191 180.814 186.828 180.366 186.594C179.918 186.348 179.433 186.226 178.91 186.226C178.377 186.226 177.886 186.348 177.438 186.594C177.001 186.828 176.649 187.191 176.382 187.682C176.115 188.172 175.982 188.77 175.982 189.474C175.982 190.188 176.11 190.791 176.366 191.282C176.633 191.772 176.985 192.14 177.422 192.386C177.859 192.62 178.339 192.738 178.862 192.738ZM190.994 186.53C191.25 186.028 191.613 185.639 192.082 185.362C192.562 185.084 193.143 184.946 193.826 184.946V186.45H193.442C191.81 186.45 190.994 187.335 190.994 189.106V193.874H189.538V185.106H190.994V186.53ZM203.507 189.154C203.507 189.431 203.491 189.724 203.459 190.034H196.451C196.504 190.898 196.797 191.575 197.331 192.066C197.875 192.546 198.531 192.786 199.299 192.786C199.928 192.786 200.451 192.642 200.867 192.354C201.293 192.055 201.592 191.66 201.763 191.17H203.331C203.096 192.012 202.627 192.7 201.923 193.234C201.219 193.756 200.344 194.018 199.299 194.018C198.467 194.018 197.72 193.831 197.059 193.458C196.408 193.084 195.896 192.556 195.523 191.874C195.149 191.18 194.963 190.38 194.963 189.474C194.963 188.567 195.144 187.772 195.507 187.09C195.869 186.407 196.376 185.884 197.027 185.522C197.688 185.148 198.445 184.962 199.299 184.962C200.131 184.962 200.867 185.143 201.507 185.506C202.147 185.868 202.637 186.37 202.979 187.01C203.331 187.639 203.507 188.354 203.507 189.154ZM202.003 188.85C202.003 188.295 201.88 187.82 201.635 187.426C201.389 187.02 201.053 186.716 200.627 186.514C200.211 186.3 199.747 186.194 199.235 186.194C198.499 186.194 197.869 186.428 197.347 186.898C196.835 187.367 196.541 188.018 196.467 188.85H202.003ZM204.885 189.458C204.885 188.562 205.066 187.778 205.429 187.106C205.791 186.423 206.287 185.895 206.917 185.522C207.557 185.148 208.266 184.962 209.045 184.962C209.813 184.962 210.479 185.127 211.045 185.458C211.61 185.788 212.031 186.204 212.309 186.706V185.106H213.781V193.874H212.309V192.242C212.021 192.754 211.589 193.18 211.013 193.522C210.447 193.852 209.786 194.018 209.029 194.018C208.25 194.018 207.546 193.826 206.917 193.442C206.287 193.058 205.791 192.519 205.429 191.826C205.066 191.132 204.885 190.343 204.885 189.458ZM212.309 189.474C212.309 188.812 212.175 188.236 211.909 187.746C211.642 187.255 211.279 186.882 210.821 186.626C210.373 186.359 209.877 186.226 209.333 186.226C208.789 186.226 208.293 186.354 207.845 186.61C207.397 186.866 207.039 187.239 206.773 187.73C206.506 188.22 206.373 188.796 206.373 189.458C206.373 190.13 206.506 190.716 206.773 191.218C207.039 191.708 207.397 192.087 207.845 192.354C208.293 192.61 208.789 192.738 209.333 192.738C209.877 192.738 210.373 192.61 210.821 192.354C211.279 192.087 211.642 191.708 211.909 191.218C212.175 190.716 212.309 190.135 212.309 189.474ZM215.697 189.458C215.697 188.562 215.878 187.778 216.241 187.106C216.604 186.423 217.1 185.895 217.729 185.522C218.369 185.148 219.084 184.962 219.873 184.962C220.556 184.962 221.19 185.122 221.777 185.442C222.364 185.751 222.812 186.162 223.121 186.674V182.034H224.593V193.874H223.121V192.226C222.833 192.748 222.406 193.18 221.841 193.522C221.276 193.852 220.614 194.018 219.857 194.018C219.078 194.018 218.369 193.826 217.729 193.442C217.1 193.058 216.604 192.519 216.241 191.826C215.878 191.132 215.697 190.343 215.697 189.458ZM223.121 189.474C223.121 188.812 222.988 188.236 222.721 187.746C222.454 187.255 222.092 186.882 221.633 186.626C221.185 186.359 220.689 186.226 220.145 186.226C219.601 186.226 219.105 186.354 218.657 186.61C218.209 186.866 217.852 187.239 217.585 187.73C217.318 188.22 217.185 188.796 217.185 189.458C217.185 190.13 217.318 190.716 217.585 191.218C217.852 191.708 218.209 192.087 218.657 192.354C219.105 192.61 219.601 192.738 220.145 192.738C220.689 192.738 221.185 192.61 221.633 192.354C222.092 192.087 222.454 191.708 222.721 191.218C222.988 190.716 223.121 190.135 223.121 189.474ZM227.518 193.97C227.24 193.97 227.006 193.874 226.814 193.682C226.622 193.49 226.526 193.255 226.526 192.978C226.526 192.7 226.622 192.466 226.814 192.274C227.006 192.082 227.24 191.986 227.518 191.986C227.784 191.986 228.008 192.082 228.19 192.274C228.382 192.466 228.478 192.7 228.478 192.978C228.478 193.255 228.382 193.49 228.19 193.682C228.008 193.874 227.784 193.97 227.518 193.97Z" fill="black"/>
<g opacity="0.12">
<mask id="path-2-inside-1_215_278" fill="white">
<path fill-rule="evenodd" clip-rule="evenodd" d="M102.162 0.354065C96.246 0.354065 90.5721 2.70429 86.3886 6.88772C82.2052 11.0712 79.855 16.7451 79.855 22.6614V55.4977H54.888C45.8485 55.4977 38.5145 62.8317 38.5145 71.8712V110.775C38.5145 119.855 45.8439 127.193 54.888 127.193H61.1341V138.124C61.1341 138.886 61.5228 139.595 62.1649 140.004C62.807 140.414 63.6138 140.468 64.3047 140.147L92.188 127.193H109.898C118.942 127.193 126.271 119.855 126.271 110.775V104.056H129.73L171.912 123.154C172.602 123.466 173.404 123.407 174.041 122.996C174.678 122.585 175.063 121.879 175.063 121.121V104.061H185.743C191.66 104.061 197.334 101.711 201.517 97.5271C205.7 93.3437 208.051 87.6697 208.051 81.7534V22.6614C208.051 16.7451 205.7 11.0712 201.517 6.88772C197.334 2.70429 191.66 0.354065 185.743 0.354065H102.162ZM121.81 104.056H102.162C96.246 104.056 90.5721 101.706 86.3886 97.5226C82.2052 93.3392 79.855 87.6652 79.855 81.749V59.9591H54.888C48.3125 59.9591 42.9759 65.2957 42.9759 71.8712V110.775C42.9759 117.4 48.317 122.732 54.888 122.732H63.3648C64.5968 122.732 65.5955 123.731 65.5955 124.963V134.628L90.7552 122.94C91.0497 122.803 91.3704 122.732 91.6951 122.732H109.898C116.469 122.732 121.81 117.4 121.81 110.775V104.056ZM89.5434 10.0425C92.8901 6.69571 97.4293 4.81553 102.162 4.81553H185.743C190.476 4.81553 195.015 6.69571 198.362 10.0425C201.709 13.3892 203.589 17.9284 203.589 22.6614V81.7534C203.589 86.4864 201.709 91.0256 198.362 94.3724C195.015 97.7191 190.476 99.5993 185.743 99.5993H172.832C171.6 99.5993 170.601 100.598 170.601 101.83V117.663L131.132 99.7934C130.842 99.6625 130.529 99.5948 130.211 99.5948H102.162C97.4293 99.5948 92.8901 97.7146 89.5434 94.3679C86.1966 91.0211 84.3164 86.482 84.3164 81.749V22.6614C84.3164 17.9284 86.1966 13.3892 89.5434 10.0425Z"/>
</mask>
<path fill-rule="evenodd" clip-rule="evenodd" d="M102.162 0.354065C96.246 0.354065 90.5721 2.70429 86.3886 6.88772C82.2052 11.0712 79.855 16.7451 79.855 22.6614V55.4977H54.888C45.8485 55.4977 38.5145 62.8317 38.5145 71.8712V110.775C38.5145 119.855 45.8439 127.193 54.888 127.193H61.1341V138.124C61.1341 138.886 61.5228 139.595 62.1649 140.004C62.807 140.414 63.6138 140.468 64.3047 140.147L92.188 127.193H109.898C118.942 127.193 126.271 119.855 126.271 110.775V104.056H129.73L171.912 123.154C172.602 123.466 173.404 123.407 174.041 122.996C174.678 122.585 175.063 121.879 175.063 121.121V104.061H185.743C191.66 104.061 197.334 101.711 201.517 97.5271C205.7 93.3437 208.051 87.6697 208.051 81.7534V22.6614C208.051 16.7451 205.7 11.0712 201.517 6.88772C197.334 2.70429 191.66 0.354065 185.743 0.354065H102.162ZM121.81 104.056H102.162C96.246 104.056 90.5721 101.706 86.3886 97.5226C82.2052 93.3392 79.855 87.6652 79.855 81.749V59.9591H54.888C48.3125 59.9591 42.9759 65.2957 42.9759 71.8712V110.775C42.9759 117.4 48.317 122.732 54.888 122.732H63.3648C64.5968 122.732 65.5955 123.731 65.5955 124.963V134.628L90.7552 122.94C91.0497 122.803 91.3704 122.732 91.6951 122.732H109.898C116.469 122.732 121.81 117.4 121.81 110.775V104.056ZM89.5434 10.0425C92.8901 6.69571 97.4293 4.81553 102.162 4.81553H185.743C190.476 4.81553 195.015 6.69571 198.362 10.0425C201.709 13.3892 203.589 17.9284 203.589 22.6614V81.7534C203.589 86.4864 201.709 91.0256 198.362 94.3724C195.015 97.7191 190.476 99.5993 185.743 99.5993H172.832C171.6 99.5993 170.601 100.598 170.601 101.83V117.663L131.132 99.7934C130.842 99.6625 130.529 99.5948 130.211 99.5948H102.162C97.4293 99.5948 92.8901 97.7146 89.5434 94.3679C86.1966 91.0211 84.3164 86.482 84.3164 81.749V22.6614C84.3164 17.9284 86.1966 13.3892 89.5434 10.0425Z" fill="black"/>
<path d="M86.3886 6.88772L85.6815 6.18062V6.18062L86.3886 6.88772ZM79.855 55.4977V56.4977C80.4072 56.4977 80.855 56.0499 80.855 55.4977H79.855ZM61.1341 127.193H62.1341C62.1341 126.641 61.6864 126.193 61.1341 126.193V127.193ZM62.1649 140.004L62.7028 139.161H62.7028L62.1649 140.004ZM64.3047 140.147L64.726 141.054L64.726 141.054L64.3047 140.147ZM92.188 127.193V126.193C92.0424 126.193 91.8986 126.225 91.7666 126.286L92.188 127.193ZM126.271 104.056V103.056C125.719 103.056 125.271 103.504 125.271 104.056H126.271ZM129.73 104.056L130.142 103.145C130.013 103.087 129.872 103.056 129.73 103.056V104.056ZM171.912 123.154L172.324 122.243V122.243L171.912 123.154ZM174.041 122.996L173.499 122.156L173.499 122.156L174.041 122.996ZM175.063 104.061V103.061C174.51 103.061 174.063 103.508 174.063 104.061H175.063ZM201.517 97.5271L200.81 96.82L201.517 97.5271ZM201.517 6.88772L202.224 6.18062V6.18061L201.517 6.88772ZM121.81 104.056H122.81C122.81 103.504 122.362 103.056 121.81 103.056V104.056ZM86.3886 97.5226L85.6815 98.2297L86.3886 97.5226ZM79.855 59.9591H80.855C80.855 59.4068 80.4072 58.9591 79.855 58.9591V59.9591ZM65.5955 134.628H64.5955C64.5955 134.969 64.7698 135.287 65.0576 135.471C65.3455 135.655 65.7072 135.679 66.0169 135.535L65.5955 134.628ZM90.7552 122.94L90.3339 122.033L90.7552 122.94ZM89.5434 10.0425L90.2505 10.7496V10.7496L89.5434 10.0425ZM198.362 10.0425L199.069 9.33535V9.33535L198.362 10.0425ZM198.362 94.3724L199.069 95.0795L198.362 94.3724ZM170.601 117.663L170.189 118.574C170.498 118.714 170.858 118.687 171.143 118.503C171.429 118.319 171.601 118.002 171.601 117.663H170.601ZM131.132 99.7934L130.719 100.704L130.719 100.704L131.132 99.7934ZM89.5434 94.3679L90.2505 93.6608H90.2505L89.5434 94.3679ZM87.0957 7.59483C91.0916 3.59893 96.5112 1.35406 102.162 1.35406V-0.645935C95.9808 -0.645935 90.0525 1.80965 85.6815 6.18062L87.0957 7.59483ZM80.855 22.6614C80.855 17.0103 83.0998 11.5907 87.0957 7.59483L85.6815 6.18062C81.3105 10.5516 78.855 16.4799 78.855 22.6614H80.855ZM80.855 55.4977V22.6614H78.855V55.4977H80.855ZM54.888 56.4977H79.855V54.4977H54.888V56.4977ZM39.5145 71.8712C39.5145 63.3839 46.4008 56.4977 54.888 56.4977V54.4977C45.2962 54.4977 37.5145 62.2794 37.5145 71.8712H39.5145ZM39.5145 110.775V71.8712H37.5145V110.775H39.5145ZM54.888 126.193C46.3983 126.193 39.5145 119.305 39.5145 110.775H37.5145C37.5145 120.405 45.2895 128.193 54.888 128.193V126.193ZM61.1341 126.193H54.888V128.193H61.1341V126.193ZM62.1341 138.124V127.193H60.1341V138.124H62.1341ZM62.7028 139.161C62.3485 138.935 62.1341 138.544 62.1341 138.124H60.1341C60.1341 139.227 60.697 140.254 61.627 140.847L62.7028 139.161ZM63.8833 139.24C63.5022 139.417 63.0571 139.387 62.7028 139.161L61.627 140.847C62.557 141.441 63.7255 141.519 64.726 141.054L63.8833 139.24ZM91.7666 126.286L63.8833 139.24L64.726 141.054L92.6093 128.1L91.7666 126.286ZM109.898 126.193H92.188V128.193H109.898V126.193ZM125.271 110.775C125.271 119.305 118.388 126.193 109.898 126.193V128.193C119.496 128.193 127.271 120.405 127.271 110.775H125.271ZM125.271 104.056V110.775H127.271V104.056H125.271ZM129.73 103.056H126.271V105.056H129.73V103.056ZM172.324 122.243L130.142 103.145L129.318 104.967L171.499 124.065L172.324 122.243ZM173.499 122.156C173.148 122.382 172.705 122.415 172.324 122.243L171.499 124.065C172.499 124.517 173.661 124.431 174.583 123.836L173.499 122.156ZM174.063 121.121C174.063 121.54 173.85 121.929 173.499 122.156L174.583 123.836C175.505 123.241 176.063 122.219 176.063 121.121H174.063ZM174.063 104.061V121.121H176.063V104.061H174.063ZM185.743 103.061H175.063V105.061H185.743V103.061ZM200.81 96.82C196.814 100.816 191.394 103.061 185.743 103.061V105.061C191.925 105.061 197.853 102.605 202.224 98.2342L200.81 96.82ZM207.051 81.7534C207.051 87.4045 204.806 92.8241 200.81 96.82L202.224 98.2342C206.595 93.8632 209.051 87.9349 209.051 81.7534H207.051ZM207.051 22.6614V81.7534H209.051V22.6614H207.051ZM200.81 7.59483C204.806 11.5907 207.051 17.0103 207.051 22.6614H209.051C209.051 16.4799 206.595 10.5516 202.224 6.18062L200.81 7.59483ZM185.743 1.35406C191.394 1.35406 196.814 3.59893 200.81 7.59483L202.224 6.18061C197.853 1.80965 191.925 -0.645935 185.743 -0.645935V1.35406ZM102.162 1.35406H185.743V-0.645935H102.162V1.35406ZM121.81 103.056H102.162V105.056H121.81V103.056ZM102.162 103.056C96.5112 103.056 91.0916 100.811 87.0957 96.8155L85.6815 98.2297C90.0525 102.601 95.9808 105.056 102.162 105.056V103.056ZM87.0957 96.8155C83.0998 92.8196 80.855 87.4 80.855 81.749H78.855C78.855 87.9305 81.3105 93.8588 85.6815 98.2297L87.0957 96.8155ZM80.855 81.749V59.9591H78.855V81.749H80.855ZM79.855 58.9591H54.888V60.9591H79.855V58.9591ZM54.888 58.9591C47.7602 58.9591 41.9759 64.7434 41.9759 71.8712H43.9759C43.9759 65.8479 48.8648 60.9591 54.888 60.9591V58.9591ZM41.9759 71.8712V110.775H43.9759V71.8712H41.9759ZM41.9759 110.775C41.9759 117.95 47.7628 123.732 54.888 123.732V121.732C48.8713 121.732 43.9759 116.85 43.9759 110.775H41.9759ZM54.888 123.732H63.3648V121.732H54.888V123.732ZM63.3648 123.732C64.0445 123.732 64.5955 124.283 64.5955 124.963H66.5955C66.5955 123.178 65.1491 121.732 63.3648 121.732V123.732ZM64.5955 124.963V134.628H66.5955V124.963H64.5955ZM66.0169 135.535L91.1766 123.846L90.3339 122.033L65.1742 133.721L66.0169 135.535ZM91.1766 123.846C91.339 123.771 91.516 123.732 91.6951 123.732V121.732C91.2249 121.732 90.7603 121.835 90.3339 122.033L91.1766 123.846ZM91.6951 123.732H109.898V121.732H91.6951V123.732ZM109.898 123.732C117.023 123.732 122.81 117.95 122.81 110.775H120.81C120.81 116.85 115.915 121.732 109.898 121.732V123.732ZM122.81 110.775V104.056H120.81V110.775H122.81ZM102.162 3.81553C97.164 3.81553 92.3705 5.80106 88.8362 9.33535L90.2505 10.7496C93.4097 7.59035 97.6945 5.81553 102.162 5.81553V3.81553ZM185.743 3.81553H102.162V5.81553H185.743V3.81553ZM199.069 9.33535C195.535 5.80106 190.742 3.81553 185.743 3.81553V5.81553C190.211 5.81553 194.496 7.59035 197.655 10.7496L199.069 9.33535ZM204.589 22.6614C204.589 17.6631 202.604 12.8696 199.069 9.33535L197.655 10.7496C200.814 13.9088 202.589 18.1936 202.589 22.6614H204.589ZM204.589 81.7534V22.6614H202.589V81.7534H204.589ZM199.069 95.0795C202.604 91.5452 204.589 86.7517 204.589 81.7534H202.589C202.589 86.2212 200.814 90.506 197.655 93.6652L199.069 95.0795ZM185.743 100.599C190.742 100.599 195.535 98.6137 199.069 95.0795L197.655 93.6652C194.496 96.8245 190.211 98.5993 185.743 98.5993V100.599ZM172.832 100.599H185.743V98.5993H172.832V100.599ZM171.601 101.83C171.601 101.15 172.152 100.599 172.832 100.599V98.5993C171.048 98.5993 169.601 100.046 169.601 101.83H171.601ZM171.601 117.663V101.83H169.601V117.663H171.601ZM130.719 100.704L170.189 118.574L171.014 116.752L131.544 98.8824L130.719 100.704ZM130.211 100.595C130.387 100.595 130.56 100.632 130.719 100.704L131.544 98.8824C131.125 98.6929 130.671 98.5948 130.211 98.5948V100.595ZM102.162 100.595H130.211V98.5948H102.162V100.595ZM88.8362 95.075C92.3705 98.6093 97.164 100.595 102.162 100.595V98.5948C97.6945 98.5948 93.4097 96.82 90.2505 93.6608L88.8362 95.075ZM83.3164 81.749C83.3164 86.7472 85.302 91.5407 88.8362 95.075L90.2505 93.6608C87.0912 90.5016 85.3164 86.2168 85.3164 81.749H83.3164ZM83.3164 22.6614V81.749H85.3164V22.6614H83.3164ZM88.8362 9.33535C85.302 12.8696 83.3164 17.6631 83.3164 22.6614H85.3164C85.3164 18.1936 87.0912 13.9088 90.2505 10.7496L88.8362 9.33535Z" fill="white" mask="url(#path-2-inside-1_215_278)"/>
</g>
<path opacity="0.12" fill-rule="evenodd" clip-rule="evenodd" d="M147.93 30.078H105.407V28.078H147.93V30.078Z" fill="black"/>
<path opacity="0.12" fill-rule="evenodd" clip-rule="evenodd" d="M147.93 45.5549H105.407V43.5549H147.93V45.5549Z" fill="black"/>
<path opacity="0.12" fill-rule="evenodd" clip-rule="evenodd" d="M133.63 61.0319H105.407V59.0319H133.63V61.0319Z" fill="black"/>
</svg>
