<svg width="17" height="16" viewBox="0 0 17 16" fill="none" xmlns="http://www.w3.org/2000/svg">
<path d="M2.60121 8C3.37209 7.42184 4.32564 7.14115 5.2868 7.20946C6.24797 7.27777 7.15224 7.69049 7.8336 8.37185C8.51496 9.05321 8.92769 9.95749 8.99599 10.9187C9.0643 11.8798 8.78361 12.8334 8.20546 13.6042M2.60121 8C2.10373 8.37257 1.69998 8.85601 1.42202 9.41192C1.14406 9.96783 0.999565 10.5809 1 11.2024C0.999744 11.605 1.0602 12.0052 1.17934 12.3897C1.3971 13.0943 1.24018 13.8789 1.10008 14.6186C1.08765 14.6818 1.09175 14.7472 1.11196 14.8084C1.13218 14.8696 1.16783 14.9245 1.21548 14.9679C1.26313 15.0113 1.32116 15.0416 1.38397 15.0561C1.44678 15.0705 1.51224 15.0684 1.57404 15.0501C2.25295 14.8644 2.92786 14.7059 3.62119 14.9605C4.06374 15.123 4.53157 15.206 5.00303 15.2055C5.62458 15.206 6.23769 15.0616 6.79362 14.7836C7.34955 14.5056 7.83298 14.1018 8.20546 13.6042M2.60121 8C2.60121 4.24916 4.90296 0.794541 9.00606 0.794541C10.0332 0.794361 11.0453 1.04122 11.957 1.51428C12.8688 1.98735 13.6533 2.67275 14.2446 3.51267C14.8358 4.35258 15.2164 5.32237 15.3541 6.34023C15.4919 7.35809 15.3829 8.39415 15.0362 9.36103C14.6551 10.4226 15.0659 11.8445 15.306 13.0182C15.32 13.0807 15.3172 13.1458 15.2977 13.2068C15.2783 13.2678 15.2429 13.3226 15.1953 13.3654C15.1478 13.4083 15.0896 13.4377 15.0269 13.4507C14.9642 13.4637 14.8992 13.4598 14.8385 13.4393C13.7881 13.1111 12.5552 12.6499 11.568 13.0662C10.5 13.5162 9.37755 13.6042 8.20546 13.6042" stroke="black" stroke-width="1.2" stroke-linecap="round" stroke-linejoin="round"/>
</svg>
