<svg width="175" height="190" viewBox="0 0 175 190" fill="none" xmlns="http://www.w3.org/2000/svg">
<path opacity="0.25" d="M6.53535 157.558C6.53535 156.606 6.75002 155.752 7.17935 154.996C7.60868 154.231 8.19202 153.633 8.92935 153.204C9.67602 152.775 10.502 152.56 11.4074 152.56C12.4713 152.56 13.4 152.817 14.1934 153.33C14.9867 153.843 15.5653 154.571 15.9294 155.514H14.4033C14.1327 154.926 13.7407 154.473 13.2273 154.156C12.7233 153.839 12.1167 153.68 11.4074 153.68C10.726 153.68 10.1147 153.839 9.57335 154.156C9.03202 154.473 8.60735 154.926 8.29935 155.514C7.99135 156.093 7.83735 156.774 7.83735 157.558C7.83735 158.333 7.99135 159.014 8.29935 159.602C8.60735 160.181 9.03202 160.629 9.57335 160.946C10.1147 161.263 10.726 161.422 11.4074 161.422C12.1167 161.422 12.7233 161.268 13.2273 160.96C13.7407 160.643 14.1327 160.19 14.4033 159.602H15.9294C15.5653 160.535 14.9867 161.259 14.1934 161.772C13.4 162.276 12.4713 162.528 11.4074 162.528C10.502 162.528 9.67602 162.318 8.92935 161.898C8.19202 161.469 7.60868 160.876 7.17935 160.12C6.75002 159.364 6.53535 158.51 6.53535 157.558ZM19.0998 156.018C19.3238 155.579 19.6411 155.239 20.0518 154.996C20.4718 154.753 20.9805 154.632 21.5778 154.632V155.948H21.2418C19.8138 155.948 19.0998 156.723 19.0998 158.272V162.444H17.8258V154.772H19.0998V156.018ZM30.0485 158.314C30.0485 158.557 30.0345 158.813 30.0065 159.084H23.8745C23.9211 159.84 24.1778 160.433 24.6445 160.862C25.1205 161.282 25.6945 161.492 26.3665 161.492C26.9171 161.492 27.3745 161.366 27.7385 161.114C28.1118 160.853 28.3731 160.507 28.5225 160.078H29.8945C29.6891 160.815 29.2785 161.417 28.6625 161.884C28.0465 162.341 27.2811 162.57 26.3665 162.57C25.6385 162.57 24.9851 162.407 24.4065 162.08C23.8371 161.753 23.3891 161.291 23.0625 160.694C22.7358 160.087 22.5725 159.387 22.5725 158.594C22.5725 157.801 22.7311 157.105 23.0485 156.508C23.3658 155.911 23.8091 155.453 24.3785 155.136C24.9571 154.809 25.6198 154.646 26.3665 154.646C27.0945 154.646 27.7385 154.805 28.2985 155.122C28.8585 155.439 29.2878 155.878 29.5865 156.438C29.8945 156.989 30.0485 157.614 30.0485 158.314ZM28.7325 158.048C28.7325 157.563 28.6251 157.147 28.4105 156.802C28.1958 156.447 27.9018 156.181 27.5285 156.004C27.1645 155.817 26.7585 155.724 26.3105 155.724C25.6665 155.724 25.1158 155.929 24.6585 156.34C24.2105 156.751 23.9538 157.32 23.8885 158.048H28.7325ZM31.2541 158.58C31.2541 157.796 31.4128 157.11 31.7301 156.522C32.0474 155.925 32.4814 155.463 33.0321 155.136C33.5921 154.809 34.2128 154.646 34.8941 154.646C35.5661 154.646 36.1494 154.791 36.6441 155.08C37.1388 155.369 37.5074 155.733 37.7501 156.172V154.772H39.0381V162.444H37.7501V161.016C37.4981 161.464 37.1201 161.837 36.6161 162.136C36.1214 162.425 35.5428 162.57 34.8801 162.57C34.1988 162.57 33.5828 162.402 33.0321 162.066C32.4814 161.73 32.0474 161.259 31.7301 160.652C31.4128 160.045 31.2541 159.355 31.2541 158.58ZM37.7501 158.594C37.7501 158.015 37.6334 157.511 37.4001 157.082C37.1668 156.653 36.8494 156.326 36.4481 156.102C36.0561 155.869 35.6221 155.752 35.1461 155.752C34.6701 155.752 34.2361 155.864 33.8441 156.088C33.4521 156.312 33.1394 156.639 32.9061 157.068C32.6728 157.497 32.5561 158.001 32.5561 158.58C32.5561 159.168 32.6728 159.681 32.9061 160.12C33.1394 160.549 33.4521 160.881 33.8441 161.114C34.2361 161.338 34.6701 161.45 35.1461 161.45C35.6221 161.45 36.0561 161.338 36.4481 161.114C36.8494 160.881 37.1668 160.549 37.4001 160.12C37.6334 159.681 37.7501 159.173 37.7501 158.594ZM42.745 155.822V160.344C42.745 160.717 42.8244 160.983 42.983 161.142C43.1417 161.291 43.417 161.366 43.809 161.366H44.747V162.444H43.599C42.8897 162.444 42.3577 162.281 42.003 161.954C41.6484 161.627 41.471 161.091 41.471 160.344V155.822H40.477V154.772H41.471V152.84H42.745V154.772H44.747V155.822H42.745ZM53.2906 158.314C53.2906 158.557 53.2766 158.813 53.2486 159.084H47.1166C47.1633 159.84 47.42 160.433 47.8866 160.862C48.3626 161.282 48.9366 161.492 49.6086 161.492C50.1593 161.492 50.6166 161.366 50.9806 161.114C51.354 160.853 51.6153 160.507 51.7646 160.078H53.1366C52.9313 160.815 52.5206 161.417 51.9046 161.884C51.2886 162.341 50.5233 162.57 49.6086 162.57C48.8806 162.57 48.2273 162.407 47.6486 162.08C47.0793 161.753 46.6313 161.291 46.3046 160.694C45.978 160.087 45.8146 159.387 45.8146 158.594C45.8146 157.801 45.9733 157.105 46.2906 156.508C46.608 155.911 47.0513 155.453 47.6206 155.136C48.1993 154.809 48.862 154.646 49.6086 154.646C50.3366 154.646 50.9806 154.805 51.5406 155.122C52.1006 155.439 52.53 155.878 52.8286 156.438C53.1366 156.989 53.2906 157.614 53.2906 158.314ZM51.9746 158.048C51.9746 157.563 51.8673 157.147 51.6526 156.802C51.438 156.447 51.144 156.181 50.7706 156.004C50.4066 155.817 50.0006 155.724 49.5526 155.724C48.9086 155.724 48.358 155.929 47.9006 156.34C47.4526 156.751 47.196 157.32 47.1306 158.048H51.9746ZM58.2287 158.58C58.2287 157.796 58.3874 157.11 58.7047 156.522C59.022 155.925 59.456 155.463 60.0067 155.136C60.5667 154.809 61.1874 154.646 61.8687 154.646C62.5407 154.646 63.124 154.791 63.6187 155.08C64.1134 155.369 64.482 155.733 64.7247 156.172V154.772H66.0127V162.444H64.7247V161.016C64.4727 161.464 64.0947 161.837 63.5907 162.136C63.096 162.425 62.5174 162.57 61.8547 162.57C61.1734 162.57 60.5574 162.402 60.0067 162.066C59.456 161.73 59.022 161.259 58.7047 160.652C58.3874 160.045 58.2287 159.355 58.2287 158.58ZM64.7247 158.594C64.7247 158.015 64.608 157.511 64.3747 157.082C64.1414 156.653 63.824 156.326 63.4227 156.102C63.0307 155.869 62.5967 155.752 62.1207 155.752C61.6447 155.752 61.2107 155.864 60.8187 156.088C60.4267 156.312 60.114 156.639 59.8807 157.068C59.6474 157.497 59.5307 158.001 59.5307 158.58C59.5307 159.168 59.6474 159.681 59.8807 160.12C60.114 160.549 60.4267 160.881 60.8187 161.114C61.2107 161.338 61.6447 161.45 62.1207 161.45C62.5967 161.45 63.0307 161.338 63.4227 161.114C63.824 160.881 64.1414 160.549 64.3747 160.12C64.608 159.681 64.7247 159.173 64.7247 158.594ZM71.4221 158.594C71.4221 157.801 71.5807 157.11 71.8981 156.522C72.2154 155.925 72.6541 155.463 73.2141 155.136C73.7834 154.809 74.4321 154.646 75.1601 154.646C76.1027 154.646 76.8774 154.875 77.4841 155.332C78.1001 155.789 78.5061 156.424 78.7021 157.236H77.3301C77.1994 156.769 76.9427 156.401 76.5601 156.13C76.1867 155.859 75.7201 155.724 75.1601 155.724C74.4321 155.724 73.8441 155.976 73.3961 156.48C72.9481 156.975 72.7241 157.679 72.7241 158.594C72.7241 159.518 72.9481 160.232 73.3961 160.736C73.8441 161.24 74.4321 161.492 75.1601 161.492C75.7201 161.492 76.1867 161.361 76.5601 161.1C76.9334 160.839 77.1901 160.465 77.3301 159.98H78.7021C78.4967 160.764 78.0861 161.394 77.4701 161.87C76.8541 162.337 76.0841 162.57 75.1601 162.57C74.4321 162.57 73.7834 162.407 73.2141 162.08C72.6541 161.753 72.2154 161.291 71.8981 160.694C71.5807 160.097 71.4221 159.397 71.4221 158.594ZM84.21 154.632C84.7886 154.632 85.3113 154.758 85.778 155.01C86.2446 155.253 86.6086 155.621 86.87 156.116C87.1406 156.611 87.276 157.213 87.276 157.922V162.444H86.016V158.104C86.016 157.339 85.8246 156.755 85.442 156.354C85.0593 155.943 84.5366 155.738 83.874 155.738C83.202 155.738 82.6653 155.948 82.264 156.368C81.872 156.788 81.676 157.399 81.676 158.202V162.444H80.402V152.084H81.676V155.864C81.928 155.472 82.2733 155.169 82.712 154.954C83.16 154.739 83.6593 154.632 84.21 154.632ZM96.3571 158.314C96.3571 158.557 96.3431 158.813 96.3151 159.084H90.1831C90.2297 159.84 90.4864 160.433 90.9531 160.862C91.4291 161.282 92.0031 161.492 92.6751 161.492C93.2257 161.492 93.6831 161.366 94.0471 161.114C94.4204 160.853 94.6817 160.507 94.8311 160.078H96.2031C95.9977 160.815 95.5871 161.417 94.9711 161.884C94.3551 162.341 93.5897 162.57 92.6751 162.57C91.9471 162.57 91.2937 162.407 90.7151 162.08C90.1457 161.753 89.6977 161.291 89.3711 160.694C89.0444 160.087 88.8811 159.387 88.8811 158.594C88.8811 157.801 89.0397 157.105 89.3571 156.508C89.6744 155.911 90.1177 155.453 90.6871 155.136C91.2657 154.809 91.9284 154.646 92.6751 154.646C93.4031 154.646 94.0471 154.805 94.6071 155.122C95.1671 155.439 95.5964 155.878 95.8951 156.438C96.2031 156.989 96.3571 157.614 96.3571 158.314ZM95.0411 158.048C95.0411 157.563 94.9337 157.147 94.7191 156.802C94.5044 156.447 94.2104 156.181 93.8371 156.004C93.4731 155.817 93.0671 155.724 92.6191 155.724C91.9751 155.724 91.4244 155.929 90.9671 156.34C90.5191 156.751 90.2624 157.32 90.1971 158.048H95.0411ZM97.5627 158.594C97.5627 157.801 97.7214 157.11 98.0387 156.522C98.356 155.925 98.7947 155.463 99.3547 155.136C99.924 154.809 100.573 154.646 101.301 154.646C102.243 154.646 103.018 154.875 103.625 155.332C104.241 155.789 104.647 156.424 104.843 157.236H103.471C103.34 156.769 103.083 156.401 102.701 156.13C102.327 155.859 101.861 155.724 101.301 155.724C100.573 155.724 99.9847 155.976 99.5367 156.48C99.0887 156.975 98.8647 157.679 98.8647 158.594C98.8647 159.518 99.0887 160.232 99.5367 160.736C99.9847 161.24 100.573 161.492 101.301 161.492C101.861 161.492 102.327 161.361 102.701 161.1C103.074 160.839 103.331 160.465 103.471 159.98H104.843C104.637 160.764 104.227 161.394 103.611 161.87C102.995 162.337 102.225 162.57 101.301 162.57C100.573 162.57 99.924 162.407 99.3547 162.08C98.7947 161.753 98.356 161.291 98.0387 160.694C97.7214 160.097 97.5627 159.397 97.5627 158.594ZM110.827 162.444L107.817 159.056V162.444H106.543V152.084H107.817V158.174L110.771 154.772H112.549L108.937 158.594L112.563 162.444H110.827ZM119.068 156.774V157.852H113.482V156.774H119.068ZM122.117 153.526C121.874 153.526 121.669 153.442 121.501 153.274C121.333 153.106 121.249 152.901 121.249 152.658C121.249 152.415 121.333 152.21 121.501 152.042C121.669 151.874 121.874 151.79 122.117 151.79C122.35 151.79 122.546 151.874 122.705 152.042C122.873 152.21 122.957 152.415 122.957 152.658C122.957 152.901 122.873 153.106 122.705 153.274C122.546 153.442 122.35 153.526 122.117 153.526ZM122.733 154.772V162.444H121.459V154.772H122.733ZM128.642 154.632C129.575 154.632 130.331 154.917 130.91 155.486C131.489 156.046 131.778 156.858 131.778 157.922V162.444H130.518V158.104C130.518 157.339 130.327 156.755 129.944 156.354C129.561 155.943 129.039 155.738 128.376 155.738C127.704 155.738 127.167 155.948 126.766 156.368C126.374 156.788 126.178 157.399 126.178 158.202V162.444H124.904V154.772H126.178V155.864C126.43 155.472 126.771 155.169 127.2 154.954C127.639 154.739 128.119 154.632 128.642 154.632ZM140.713 155.822H139.103V162.444H137.829V155.822H136.835V154.772H137.829V154.226C137.829 153.367 138.049 152.742 138.487 152.35C138.935 151.949 139.649 151.748 140.629 151.748V152.812C140.069 152.812 139.673 152.924 139.439 153.148C139.215 153.363 139.103 153.722 139.103 154.226V154.772H140.713V155.822ZM145.545 162.57C144.826 162.57 144.173 162.407 143.585 162.08C143.006 161.753 142.549 161.291 142.213 160.694C141.886 160.087 141.723 159.387 141.723 158.594C141.723 157.81 141.891 157.119 142.227 156.522C142.572 155.915 143.039 155.453 143.627 155.136C144.215 154.809 144.873 154.646 145.601 154.646C146.329 154.646 146.987 154.809 147.575 155.136C148.163 155.453 148.625 155.911 148.961 156.508C149.306 157.105 149.479 157.801 149.479 158.594C149.479 159.387 149.302 160.087 148.947 160.694C148.602 161.291 148.13 161.753 147.533 162.08C146.936 162.407 146.273 162.57 145.545 162.57ZM145.545 161.45C146.002 161.45 146.432 161.343 146.833 161.128C147.234 160.913 147.556 160.591 147.799 160.162C148.051 159.733 148.177 159.21 148.177 158.594C148.177 157.978 148.056 157.455 147.813 157.026C147.57 156.597 147.253 156.279 146.861 156.074C146.469 155.859 146.044 155.752 145.587 155.752C145.12 155.752 144.691 155.859 144.299 156.074C143.916 156.279 143.608 156.597 143.375 157.026C143.142 157.455 143.025 157.978 143.025 158.594C143.025 159.219 143.137 159.747 143.361 160.176C143.594 160.605 143.902 160.927 144.285 161.142C144.668 161.347 145.088 161.45 145.545 161.45ZM152.428 156.018C152.652 155.579 152.969 155.239 153.38 154.996C153.8 154.753 154.309 154.632 154.906 154.632V155.948H154.57C153.142 155.948 152.428 156.723 152.428 158.272V162.444H151.154V154.772H152.428V156.018ZM165.603 154.632C166.2 154.632 166.732 154.758 167.199 155.01C167.665 155.253 168.034 155.621 168.305 156.116C168.575 156.611 168.711 157.213 168.711 157.922V162.444H167.451V158.104C167.451 157.339 167.259 156.755 166.877 156.354C166.503 155.943 165.995 155.738 165.351 155.738C164.688 155.738 164.161 155.953 163.769 156.382C163.377 156.802 163.181 157.413 163.181 158.216V162.444H161.921V158.104C161.921 157.339 161.729 156.755 161.347 156.354C160.973 155.943 160.465 155.738 159.821 155.738C159.158 155.738 158.631 155.953 158.239 156.382C157.847 156.802 157.651 157.413 157.651 158.216V162.444H156.377V154.772H157.651V155.878C157.903 155.477 158.239 155.169 158.659 154.954C159.088 154.739 159.559 154.632 160.073 154.632C160.717 154.632 161.286 154.777 161.781 155.066C162.275 155.355 162.644 155.78 162.887 156.34C163.101 155.799 163.456 155.379 163.951 155.08C164.445 154.781 164.996 154.632 165.603 154.632ZM2.26972 179.594C2.26972 178.801 2.42839 178.11 2.74572 177.522C3.06306 176.925 3.50172 176.463 4.06172 176.136C4.63106 175.809 5.27972 175.646 6.00772 175.646C6.95039 175.646 7.72506 175.875 8.33172 176.332C8.94773 176.789 9.35373 177.424 9.54972 178.236H8.17773C8.04706 177.769 7.79039 177.401 7.40772 177.13C7.03439 176.859 6.56772 176.724 6.00772 176.724C5.27972 176.724 4.69172 176.976 4.24372 177.48C3.79572 177.975 3.57172 178.679 3.57172 179.594C3.57172 180.518 3.79572 181.232 4.24372 181.736C4.69172 182.24 5.27972 182.492 6.00772 182.492C6.56772 182.492 7.03439 182.361 7.40772 182.1C7.78106 181.839 8.03772 181.465 8.17773 180.98H9.54972C9.34439 181.764 8.93372 182.394 8.31772 182.87C7.70172 183.337 6.93172 183.57 6.00772 183.57C5.27972 183.57 4.63106 183.407 4.06172 183.08C3.50172 182.753 3.06306 182.291 2.74572 181.694C2.42839 181.097 2.26972 180.397 2.26972 179.594ZM14.5956 183.57C13.877 183.57 13.2236 183.407 12.6356 183.08C12.057 182.753 11.5996 182.291 11.2636 181.694C10.937 181.087 10.7736 180.387 10.7736 179.594C10.7736 178.81 10.9416 178.119 11.2776 177.522C11.623 176.915 12.0896 176.453 12.6776 176.136C13.2656 175.809 13.9236 175.646 14.6516 175.646C15.3796 175.646 16.0376 175.809 16.6256 176.136C17.2136 176.453 17.6756 176.911 18.0116 177.508C18.357 178.105 18.5296 178.801 18.5296 179.594C18.5296 180.387 18.3523 181.087 17.9976 181.694C17.6523 182.291 17.181 182.753 16.5836 183.08C15.9863 183.407 15.3236 183.57 14.5956 183.57ZM14.5956 182.45C15.053 182.45 15.4823 182.343 15.8836 182.128C16.285 181.913 16.607 181.591 16.8496 181.162C17.1016 180.733 17.2276 180.21 17.2276 179.594C17.2276 178.978 17.1063 178.455 16.8636 178.026C16.621 177.597 16.3036 177.279 15.9116 177.074C15.5196 176.859 15.095 176.752 14.6376 176.752C14.171 176.752 13.7416 176.859 13.3496 177.074C12.967 177.279 12.659 177.597 12.4256 178.026C12.1923 178.455 12.0756 178.978 12.0756 179.594C12.0756 180.219 12.1876 180.747 12.4116 181.176C12.645 181.605 12.953 181.927 13.3356 182.142C13.7183 182.347 14.1383 182.45 14.5956 182.45ZM29.4307 175.632C30.028 175.632 30.56 175.758 31.0267 176.01C31.4934 176.253 31.862 176.621 32.1327 177.116C32.4034 177.611 32.5387 178.213 32.5387 178.922V183.444H31.2787V179.104C31.2787 178.339 31.0874 177.755 30.7047 177.354C30.3314 176.943 29.8227 176.738 29.1787 176.738C28.516 176.738 27.9887 176.953 27.5967 177.382C27.2047 177.802 27.0087 178.413 27.0087 179.216V183.444H25.7487V179.104C25.7487 178.339 25.5574 177.755 25.1747 177.354C24.8014 176.943 24.2927 176.738 23.6487 176.738C22.986 176.738 22.4587 176.953 22.0667 177.382C21.6747 177.802 21.4787 178.413 21.4787 179.216V183.444H20.2047V175.772H21.4787V176.878C21.7307 176.477 22.0667 176.169 22.4867 175.954C22.916 175.739 23.3874 175.632 23.9007 175.632C24.5447 175.632 25.114 175.777 25.6087 176.066C26.1034 176.355 26.472 176.78 26.7147 177.34C26.9294 176.799 27.284 176.379 27.7787 176.08C28.2734 175.781 28.824 175.632 29.4307 175.632ZM35.9025 177.186C36.1545 176.747 36.5279 176.383 37.0225 176.094C37.5265 175.795 38.1099 175.646 38.7725 175.646C39.4539 175.646 40.0699 175.809 40.6205 176.136C41.1805 176.463 41.6192 176.925 41.9365 177.522C42.2539 178.11 42.4125 178.796 42.4125 179.58C42.4125 180.355 42.2539 181.045 41.9365 181.652C41.6192 182.259 41.1805 182.73 40.6205 183.066C40.0699 183.402 39.4539 183.57 38.7725 183.57C38.1192 183.57 37.5405 183.425 37.0365 183.136C36.5419 182.837 36.1639 182.469 35.9025 182.03V187.084H34.6285V175.772H35.9025V177.186ZM41.1105 179.58C41.1105 179.001 40.9939 178.497 40.7605 178.068C40.5272 177.639 40.2099 177.312 39.8085 177.088C39.4165 176.864 38.9825 176.752 38.5065 176.752C38.0399 176.752 37.6059 176.869 37.2045 177.102C36.8125 177.326 36.4952 177.657 36.2525 178.096C36.0192 178.525 35.9025 179.025 35.9025 179.594C35.9025 180.173 36.0192 180.681 36.2525 181.12C36.4952 181.549 36.8125 181.881 37.2045 182.114C37.6059 182.338 38.0399 182.45 38.5065 182.45C38.9825 182.45 39.4165 182.338 39.8085 182.114C40.2099 181.881 40.5272 181.549 40.7605 181.12C40.9939 180.681 41.1105 180.168 41.1105 179.58ZM45.3635 173.084V183.444H44.0895V173.084H45.3635ZM54.5348 179.314C54.5348 179.557 54.5208 179.813 54.4928 180.084H48.3608C48.4075 180.84 48.6641 181.433 49.1308 181.862C49.6068 182.282 50.1808 182.492 50.8528 182.492C51.4035 182.492 51.8608 182.366 52.2248 182.114C52.5981 181.853 52.8595 181.507 53.0088 181.078H54.3808C54.1755 181.815 53.7648 182.417 53.1488 182.884C52.5328 183.341 51.7675 183.57 50.8528 183.57C50.1248 183.57 49.4715 183.407 48.8928 183.08C48.3235 182.753 47.8755 182.291 47.5488 181.694C47.2221 181.087 47.0588 180.387 47.0588 179.594C47.0588 178.801 47.2175 178.105 47.5348 177.508C47.8521 176.911 48.2955 176.453 48.8648 176.136C49.4435 175.809 50.1061 175.646 50.8528 175.646C51.5808 175.646 52.2248 175.805 52.7848 176.122C53.3448 176.439 53.7741 176.878 54.0728 177.438C54.3808 177.989 54.5348 178.614 54.5348 179.314ZM53.2188 179.048C53.2188 178.563 53.1115 178.147 52.8968 177.802C52.6821 177.447 52.3881 177.181 52.0148 177.004C51.6508 176.817 51.2448 176.724 50.7968 176.724C50.1528 176.724 49.6021 176.929 49.1448 177.34C48.6968 177.751 48.4401 178.32 48.3748 179.048H53.2188ZM57.7704 176.822V181.344C57.7704 181.717 57.8498 181.983 58.0084 182.142C58.1671 182.291 58.4424 182.366 58.8344 182.366H59.7724V183.444H58.6244C57.9151 183.444 57.3831 183.281 57.0284 182.954C56.6738 182.627 56.4964 182.091 56.4964 181.344V176.822H55.5024V175.772H56.4964V173.84H57.7704V175.772H59.7724V176.822H57.7704ZM68.316 179.314C68.316 179.557 68.302 179.813 68.274 180.084H62.142C62.1887 180.84 62.4454 181.433 62.912 181.862C63.388 182.282 63.962 182.492 64.634 182.492C65.1847 182.492 65.642 182.366 66.006 182.114C66.3794 181.853 66.6407 181.507 66.79 181.078H68.162C67.9567 181.815 67.546 182.417 66.93 182.884C66.314 183.341 65.5487 183.57 64.634 183.57C63.906 183.57 63.2527 183.407 62.674 183.08C62.1047 182.753 61.6567 182.291 61.33 181.694C61.0034 181.087 60.84 180.387 60.84 179.594C60.84 178.801 60.9987 178.105 61.316 177.508C61.6334 176.911 62.0767 176.453 62.646 176.136C63.2247 175.809 63.8874 175.646 64.634 175.646C65.362 175.646 66.006 175.805 66.566 176.122C67.126 176.439 67.5554 176.878 67.854 177.438C68.162 177.989 68.316 178.614 68.316 179.314ZM67 179.048C67 178.563 66.8927 178.147 66.678 177.802C66.4634 177.447 66.1694 177.181 65.796 177.004C65.432 176.817 65.026 176.724 64.578 176.724C63.934 176.724 63.3834 176.929 62.926 177.34C62.478 177.751 62.2214 178.32 62.156 179.048H67ZM71.2717 173.084V183.444H69.9977V173.084H71.2717ZM80.051 175.772L75.431 187.056H74.115L75.627 183.36L72.533 175.772H73.947L76.355 181.988L78.735 175.772H80.051ZM88.1861 176.822H86.5761V183.444H85.3021V176.822H84.3081V175.772H85.3021V175.226C85.3021 174.367 85.5214 173.742 85.9601 173.35C86.4081 172.949 87.1221 172.748 88.1021 172.748V173.812C87.5421 173.812 87.1454 173.924 86.9121 174.148C86.6881 174.363 86.5761 174.722 86.5761 175.226V175.772H88.1861V176.822ZM90.9455 177.018C91.1695 176.579 91.4868 176.239 91.8975 175.996C92.3175 175.753 92.8262 175.632 93.4235 175.632V176.948H93.0875C91.6595 176.948 90.9455 177.723 90.9455 179.272V183.444H89.6715V175.772H90.9455V177.018ZM98.2402 183.57C97.5215 183.57 96.8682 183.407 96.2802 183.08C95.7015 182.753 95.2442 182.291 94.9082 181.694C94.5815 181.087 94.4182 180.387 94.4182 179.594C94.4182 178.81 94.5862 178.119 94.9222 177.522C95.2675 176.915 95.7342 176.453 96.3222 176.136C96.9102 175.809 97.5682 175.646 98.2962 175.646C99.0242 175.646 99.6822 175.809 100.27 176.136C100.858 176.453 101.32 176.911 101.656 177.508C102.001 178.105 102.174 178.801 102.174 179.594C102.174 180.387 101.997 181.087 101.642 181.694C101.297 182.291 100.825 182.753 100.228 183.08C99.6308 183.407 98.9682 183.57 98.2402 183.57ZM98.2402 182.45C98.6975 182.45 99.1268 182.343 99.5282 182.128C99.9295 181.913 100.251 181.591 100.494 181.162C100.746 180.733 100.872 180.21 100.872 179.594C100.872 178.978 100.751 178.455 100.508 178.026C100.265 177.597 99.9482 177.279 99.5562 177.074C99.1642 176.859 98.7395 176.752 98.2822 176.752C97.8155 176.752 97.3862 176.859 96.9942 177.074C96.6115 177.279 96.3035 177.597 96.0702 178.026C95.8368 178.455 95.7202 178.978 95.7202 179.594C95.7202 180.219 95.8322 180.747 96.0562 181.176C96.2895 181.605 96.5975 181.927 96.9802 182.142C97.3628 182.347 97.7828 182.45 98.2402 182.45ZM113.075 175.632C113.673 175.632 114.205 175.758 114.671 176.01C115.138 176.253 115.507 176.621 115.777 177.116C116.048 177.611 116.183 178.213 116.183 178.922V183.444H114.923V179.104C114.923 178.339 114.732 177.755 114.349 177.354C113.976 176.943 113.467 176.738 112.823 176.738C112.161 176.738 111.633 176.953 111.241 177.382C110.849 177.802 110.653 178.413 110.653 179.216V183.444H109.393V179.104C109.393 178.339 109.202 177.755 108.819 177.354C108.446 176.943 107.937 176.738 107.293 176.738C106.631 176.738 106.103 176.953 105.711 177.382C105.319 177.802 105.123 178.413 105.123 179.216V183.444H103.849V175.772H105.123V176.878C105.375 176.477 105.711 176.169 106.131 175.954C106.561 175.739 107.032 175.632 107.545 175.632C108.189 175.632 108.759 175.777 109.253 176.066C109.748 176.355 110.117 176.78 110.359 177.34C110.574 176.799 110.929 176.379 111.423 176.08C111.918 175.781 112.469 175.632 113.075 175.632ZM124.721 183.57C124.133 183.57 123.606 183.472 123.139 183.276C122.673 183.071 122.304 182.791 122.033 182.436C121.763 182.072 121.613 181.657 121.585 181.19H122.901C122.939 181.573 123.116 181.885 123.433 182.128C123.76 182.371 124.185 182.492 124.707 182.492C125.193 182.492 125.575 182.385 125.855 182.17C126.135 181.955 126.275 181.685 126.275 181.358C126.275 181.022 126.126 180.775 125.827 180.616C125.529 180.448 125.067 180.285 124.441 180.126C123.872 179.977 123.405 179.827 123.041 179.678C122.687 179.519 122.379 179.291 122.117 178.992C121.865 178.684 121.739 178.283 121.739 177.788C121.739 177.396 121.856 177.037 122.089 176.71C122.323 176.383 122.654 176.127 123.083 175.94C123.513 175.744 124.003 175.646 124.553 175.646C125.403 175.646 126.089 175.861 126.611 176.29C127.134 176.719 127.414 177.307 127.451 178.054H126.177C126.149 177.653 125.986 177.331 125.687 177.088C125.398 176.845 125.006 176.724 124.511 176.724C124.054 176.724 123.69 176.822 123.419 177.018C123.149 177.214 123.013 177.471 123.013 177.788C123.013 178.04 123.093 178.25 123.251 178.418C123.419 178.577 123.625 178.707 123.867 178.81C124.119 178.903 124.465 179.011 124.903 179.132C125.454 179.281 125.902 179.431 126.247 179.58C126.593 179.72 126.887 179.935 127.129 180.224C127.381 180.513 127.512 180.891 127.521 181.358C127.521 181.778 127.405 182.156 127.171 182.492C126.938 182.828 126.607 183.094 126.177 183.29C125.757 183.477 125.272 183.57 124.721 183.57ZM128.844 179.594C128.844 178.801 129.003 178.11 129.32 177.522C129.637 176.925 130.076 176.463 130.636 176.136C131.205 175.809 131.854 175.646 132.582 175.646C133.525 175.646 134.299 175.875 134.906 176.332C135.522 176.789 135.928 177.424 136.124 178.236H134.752C134.621 177.769 134.365 177.401 133.982 177.13C133.609 176.859 133.142 176.724 132.582 176.724C131.854 176.724 131.266 176.976 130.818 177.48C130.37 177.975 130.146 178.679 130.146 179.594C130.146 180.518 130.37 181.232 130.818 181.736C131.266 182.24 131.854 182.492 132.582 182.492C133.142 182.492 133.609 182.361 133.982 182.1C134.355 181.839 134.612 181.465 134.752 180.98H136.124C135.919 181.764 135.508 182.394 134.892 182.87C134.276 183.337 133.506 183.57 132.582 183.57C131.854 183.57 131.205 183.407 130.636 183.08C130.076 182.753 129.637 182.291 129.32 181.694C129.003 181.097 128.844 180.397 128.844 179.594ZM139.098 177.018C139.322 176.579 139.639 176.239 140.05 175.996C140.47 175.753 140.979 175.632 141.576 175.632V176.948H141.24C139.812 176.948 139.098 177.723 139.098 179.272V183.444H137.824V175.772H139.098V177.018ZM142.571 179.58C142.571 178.796 142.729 178.11 143.047 177.522C143.364 176.925 143.798 176.463 144.349 176.136C144.909 175.809 145.529 175.646 146.211 175.646C146.883 175.646 147.466 175.791 147.961 176.08C148.455 176.369 148.824 176.733 149.067 177.172V175.772H150.355V183.444H149.067V182.016C148.815 182.464 148.437 182.837 147.933 183.136C147.438 183.425 146.859 183.57 146.197 183.57C145.515 183.57 144.899 183.402 144.349 183.066C143.798 182.73 143.364 182.259 143.047 181.652C142.729 181.045 142.571 180.355 142.571 179.58ZM149.067 179.594C149.067 179.015 148.95 178.511 148.717 178.082C148.483 177.653 148.166 177.326 147.765 177.102C147.373 176.869 146.939 176.752 146.463 176.752C145.987 176.752 145.553 176.864 145.161 177.088C144.769 177.312 144.456 177.639 144.223 178.068C143.989 178.497 143.873 179.001 143.873 179.58C143.873 180.168 143.989 180.681 144.223 181.12C144.456 181.549 144.769 181.881 145.161 182.114C145.553 182.338 145.987 182.45 146.463 182.45C146.939 182.45 147.373 182.338 147.765 182.114C148.166 181.881 148.483 181.549 148.717 181.12C148.95 180.681 149.067 180.173 149.067 179.594ZM154.061 176.822V181.344C154.061 181.717 154.141 181.983 154.299 182.142C154.458 182.291 154.733 182.366 155.125 182.366H156.063V183.444H154.915C154.206 183.444 153.674 183.281 153.319 182.954C152.965 182.627 152.787 182.091 152.787 181.344V176.822H151.793V175.772H152.787V173.84H154.061V175.772H156.063V176.822H154.061ZM157.131 179.594C157.131 178.801 157.29 178.11 157.607 177.522C157.924 176.925 158.363 176.463 158.923 176.136C159.492 175.809 160.141 175.646 160.869 175.646C161.812 175.646 162.586 175.875 163.193 176.332C163.809 176.789 164.215 177.424 164.411 178.236H163.039C162.908 177.769 162.652 177.401 162.269 177.13C161.896 176.859 161.429 176.724 160.869 176.724C160.141 176.724 159.553 176.976 159.105 177.48C158.657 177.975 158.433 178.679 158.433 179.594C158.433 180.518 158.657 181.232 159.105 181.736C159.553 182.24 160.141 182.492 160.869 182.492C161.429 182.492 161.896 182.361 162.269 182.1C162.642 181.839 162.899 181.465 163.039 180.98H164.411C164.206 181.764 163.795 182.394 163.179 182.87C162.563 183.337 161.793 183.57 160.869 183.57C160.141 183.57 159.492 183.407 158.923 183.08C158.363 182.753 157.924 182.291 157.607 181.694C157.29 181.097 157.131 180.397 157.131 179.594ZM169.919 175.632C170.498 175.632 171.02 175.758 171.487 176.01C171.954 176.253 172.318 176.621 172.579 177.116C172.85 177.611 172.985 178.213 172.985 178.922V183.444H171.725V179.104C171.725 178.339 171.534 177.755 171.151 177.354C170.768 176.943 170.246 176.738 169.583 176.738C168.911 176.738 168.374 176.948 167.973 177.368C167.581 177.788 167.385 178.399 167.385 179.202V183.444H166.111V173.084H167.385V176.864C167.637 176.472 167.982 176.169 168.421 175.954C168.869 175.739 169.368 175.632 169.919 175.632Z" fill="black"/>
<path fill-rule="evenodd" clip-rule="evenodd" d="M57.4571 6.26033C58.2631 5.45436 59.3867 4.93953 61.4673 4.65963C63.6059 4.37193 66.4372 4.36768 70.4821 4.36768H104.317C108.362 4.36768 111.194 4.37193 113.332 4.65963C115.413 4.93953 116.537 5.45436 117.342 6.26033C118.148 7.0663 118.663 8.18988 118.943 10.2705C119.231 12.4091 119.235 15.2404 119.235 19.2853V53.1207C119.235 59.1576 119.231 63.4852 118.788 66.7763C118.353 70.0101 117.529 71.9416 116.104 73.3645L116.102 73.3661C114.68 74.7907 112.748 75.6154 109.514 76.0503C107.485 76.3232 105.062 76.4295 102.088 76.4708V65.809C102.088 64.7044 101.192 63.809 100.088 63.809C98.9834 63.809 98.0879 64.7044 98.0879 65.809V76.4961C97.3717 76.4971 96.6291 76.4972 95.8586 76.4972H78.941C78.1704 76.4972 77.4277 76.4971 76.7114 76.4961V65.809C76.7114 64.7044 75.816 63.809 74.7114 63.809C73.6069 63.809 72.7114 64.7044 72.7114 65.809V76.4708C69.7371 76.4295 67.3143 76.3232 65.2853 76.0503C62.0516 75.6154 60.1201 74.7907 58.6971 73.3661L58.6955 73.3645C57.271 71.9416 56.4462 70.0101 56.0113 66.7763C55.5687 63.4852 55.5645 59.1576 55.5645 53.1207V19.2853C55.5645 15.2404 55.5687 12.4091 55.8564 10.2705C56.1363 8.18988 56.6511 7.0663 57.4571 6.26033ZM74.53 80.4891C70.6459 80.4655 67.4205 80.3735 64.7522 80.0146C61.0755 79.5202 58.1583 78.4863 55.8679 76.1938C53.5753 73.9034 52.5415 70.9861 52.047 67.3094C51.5644 63.7208 51.5644 59.1243 51.5645 53.2732L51.5645 19.138V19.1379C51.5644 15.2748 51.5644 12.1736 51.8921 9.73724C52.2318 7.21207 52.9562 5.10437 54.6287 3.4319C56.3011 1.75944 58.4088 1.03504 60.934 0.695339C63.3704 0.367583 66.4716 0.367625 70.3348 0.367677H104.465C108.328 0.367625 111.429 0.367583 113.866 0.695339C116.391 1.03504 118.498 1.75944 120.171 3.4319C121.843 5.10437 122.568 7.21207 122.907 9.73724C123.235 12.1736 123.235 15.2748 123.235 19.138V19.1381V53.2732C123.235 59.1243 123.235 63.7208 122.753 67.3094C122.258 70.9861 121.224 73.9034 118.932 76.1938C116.641 78.4863 113.724 79.5202 110.047 80.0146C107.379 80.3735 104.154 80.4655 100.269 80.4891C100.21 80.4945 100.149 80.4972 100.088 80.4972C100.034 80.4972 99.9814 80.4951 99.9289 80.491C98.6901 80.4972 97.3853 80.4972 96.0114 80.4972H78.7882C77.4142 80.4972 76.1093 80.4972 74.8705 80.491C74.818 80.4951 74.765 80.4972 74.7114 80.4972C74.6503 80.4972 74.5898 80.4945 74.53 80.4891ZM74.7114 21.5148C73.6069 21.5148 72.7114 22.4102 72.7114 23.5148C72.7114 24.6193 73.6069 25.5148 74.7114 25.5148H100.088C101.192 25.5148 102.088 24.6193 102.088 23.5148C102.088 22.4102 101.192 21.5148 100.088 21.5148H74.7114ZM74.7114 38.4324C73.6069 38.4324 72.7114 39.3279 72.7114 40.4324C72.7114 41.537 73.6069 42.4324 74.7114 42.4324H100.088C101.192 42.4324 102.088 41.537 102.088 40.4324C102.088 39.3279 101.192 38.4324 100.088 38.4324H74.7114Z" fill="#FEAFB1"/>
<path d="M57.6184 119.343H55.3784L50.3064 111.679V119.343H48.0664V108.159H50.3064L55.3784 115.839V108.159H57.6184V119.343ZM68.072 114.719C68.072 115.039 68.0507 115.327 68.008 115.583H61.528C61.5814 116.223 61.8054 116.725 62.2 117.087C62.5947 117.45 63.08 117.631 63.656 117.631C64.488 117.631 65.08 117.274 65.432 116.559H67.848C67.592 117.413 67.1014 118.117 66.376 118.671C65.6507 119.215 64.76 119.487 63.704 119.487C62.8507 119.487 62.0827 119.301 61.4 118.927C60.728 118.543 60.2 118.005 59.816 117.311C59.4427 116.618 59.256 115.818 59.256 114.911C59.256 113.994 59.4427 113.189 59.816 112.495C60.1894 111.802 60.712 111.269 61.384 110.895C62.056 110.522 62.8294 110.335 63.704 110.335C64.5467 110.335 65.2987 110.517 65.96 110.879C66.632 111.242 67.1494 111.759 67.512 112.431C67.8854 113.093 68.072 113.855 68.072 114.719ZM65.752 114.079C65.7414 113.503 65.5334 113.045 65.128 112.703C64.7227 112.351 64.2267 112.175 63.64 112.175C63.0854 112.175 62.616 112.346 62.232 112.687C61.8587 113.018 61.6294 113.482 61.544 114.079H65.752ZM81.995 110.479L79.403 119.343H76.987L75.371 113.151L73.755 119.343H71.323L68.715 110.479H70.987L72.555 117.231L74.251 110.479H76.619L78.283 117.215L79.851 110.479H81.995ZM93.9155 108.175V109.983H89.2595V112.847H92.8275V114.623H89.2595V119.343H87.0195V108.175H93.9155ZM99.4399 119.487C98.5866 119.487 97.8186 119.301 97.1359 118.927C96.4532 118.543 95.9146 118.005 95.5199 117.311C95.1359 116.618 94.9439 115.818 94.9439 114.911C94.9439 114.005 95.1412 113.205 95.5359 112.511C95.9412 111.818 96.4906 111.285 97.1839 110.911C97.8772 110.527 98.6506 110.335 99.5039 110.335C100.357 110.335 101.131 110.527 101.824 110.911C102.517 111.285 103.061 111.818 103.456 112.511C103.861 113.205 104.064 114.005 104.064 114.911C104.064 115.818 103.856 116.618 103.44 117.311C103.035 118.005 102.48 118.543 101.776 118.927C101.083 119.301 100.304 119.487 99.4399 119.487ZM99.4399 117.535C99.8452 117.535 100.224 117.439 100.576 117.247C100.939 117.045 101.227 116.746 101.44 116.351C101.653 115.957 101.76 115.477 101.76 114.911C101.76 114.069 101.536 113.423 101.088 112.975C100.651 112.517 100.112 112.287 99.4719 112.287C98.8319 112.287 98.2932 112.517 97.8559 112.975C97.4292 113.423 97.2159 114.069 97.2159 114.911C97.2159 115.754 97.4239 116.405 97.8399 116.863C98.2666 117.311 98.7999 117.535 99.4399 117.535ZM107.947 111.855C108.235 111.386 108.608 111.018 109.067 110.751C109.536 110.485 110.07 110.351 110.667 110.351V112.703H110.075C109.371 112.703 108.838 112.869 108.475 113.199C108.123 113.53 107.947 114.106 107.947 114.927V119.343H105.707V110.479H107.947V111.855ZM123.184 110.351C124.272 110.351 125.146 110.687 125.808 111.359C126.48 112.021 126.816 112.949 126.816 114.143V119.343H124.576V114.447C124.576 113.754 124.4 113.226 124.048 112.863C123.696 112.49 123.216 112.303 122.608 112.303C122 112.303 121.514 112.49 121.152 112.863C120.8 113.226 120.624 113.754 120.624 114.447V119.343H118.384V114.447C118.384 113.754 118.208 113.226 117.856 112.863C117.504 112.49 117.024 112.303 116.416 112.303C115.797 112.303 115.306 112.49 114.944 112.863C114.592 113.226 114.416 113.754 114.416 114.447V119.343H112.176V110.479H114.416V111.551C114.704 111.178 115.072 110.885 115.52 110.671C115.978 110.458 116.48 110.351 117.024 110.351C117.717 110.351 118.336 110.501 118.88 110.799C119.424 111.087 119.845 111.503 120.144 112.047C120.432 111.535 120.848 111.125 121.392 110.815C121.946 110.506 122.544 110.351 123.184 110.351Z" fill="black"/>
</svg>
