<svg width="247" height="162" viewBox="0 0 247 162" fill="none" xmlns="http://www.w3.org/2000/svg">
<path opacity="0.25" d="M39.5098 151.754H38.0538L32.1978 142.874V151.754H30.7418V140.586H32.1978L38.0538 149.45V140.586H39.5098V151.754ZM45.8158 151.898C44.9944 151.898 44.2478 151.711 43.5758 151.338C42.9144 150.965 42.3918 150.437 42.0078 149.754C41.6344 149.061 41.4478 148.261 41.4478 147.354C41.4478 146.458 41.6398 145.669 42.0238 144.986C42.4184 144.293 42.9518 143.765 43.6238 143.402C44.2958 143.029 45.0478 142.842 45.8798 142.842C46.7118 142.842 47.4638 143.029 48.1358 143.402C48.8078 143.765 49.3358 144.287 49.7198 144.97C50.1144 145.653 50.3118 146.447 50.3118 147.354C50.3118 148.261 50.1091 149.061 49.7038 149.754C49.3091 150.437 48.7704 150.965 48.0878 151.338C47.4051 151.711 46.6478 151.898 45.8158 151.898ZM45.8158 150.618C46.3384 150.618 46.8291 150.495 47.2878 150.25C47.7464 150.005 48.1144 149.637 48.3918 149.146C48.6798 148.655 48.8238 148.058 48.8238 147.354C48.8238 146.65 48.6851 146.053 48.4078 145.562C48.1304 145.071 47.7678 144.709 47.3198 144.474C46.8718 144.229 46.3864 144.106 45.8638 144.106C45.3304 144.106 44.8398 144.229 44.3918 144.474C43.9544 144.709 43.6024 145.071 43.3358 145.562C43.0691 146.053 42.9358 146.65 42.9358 147.354C42.9358 148.069 43.0638 148.671 43.3198 149.162C43.5864 149.653 43.9384 150.021 44.3758 150.266C44.8131 150.501 45.2931 150.618 45.8158 150.618ZM59.5958 151.898C58.9238 151.898 58.3211 151.786 57.7878 151.562C57.2544 151.327 56.8331 151.007 56.5238 150.602C56.2144 150.186 56.0438 149.711 56.0118 149.178H57.5158C57.5584 149.615 57.7611 149.973 58.1238 150.25C58.4971 150.527 58.9824 150.666 59.5798 150.666C60.1344 150.666 60.5718 150.543 60.8918 150.298C61.2118 150.053 61.3718 149.743 61.3718 149.37C61.3718 148.986 61.2011 148.703 60.8598 148.522C60.5184 148.33 59.9904 148.143 59.2758 147.962C58.6251 147.791 58.0918 147.621 57.6758 147.45C57.2704 147.269 56.9184 147.007 56.6198 146.666C56.3318 146.314 56.1878 145.855 56.1878 145.29C56.1878 144.842 56.3211 144.431 56.5878 144.058C56.8544 143.685 57.2331 143.391 57.7238 143.178C58.2144 142.954 58.7744 142.842 59.4038 142.842C60.3744 142.842 61.1584 143.087 61.7558 143.578C62.3531 144.069 62.6731 144.741 62.7158 145.594H61.2598C61.2278 145.135 61.0411 144.767 60.6998 144.49C60.3691 144.213 59.9211 144.074 59.3558 144.074C58.8331 144.074 58.4171 144.186 58.1078 144.41C57.7984 144.634 57.6438 144.927 57.6438 145.29C57.6438 145.578 57.7344 145.818 57.9158 146.01C58.1078 146.191 58.3424 146.341 58.6198 146.458C58.9078 146.565 59.3024 146.687 59.8038 146.826C60.4331 146.997 60.9451 147.167 61.3398 147.338C61.7344 147.498 62.0704 147.743 62.3478 148.074C62.6358 148.405 62.7851 148.837 62.7958 149.37C62.7958 149.85 62.6624 150.282 62.3958 150.666C62.1291 151.05 61.7504 151.354 61.2598 151.578C60.7798 151.791 60.2251 151.898 59.5958 151.898ZM72.6271 142.986V151.754H71.1711V150.458C70.8938 150.906 70.5045 151.258 70.0031 151.514C69.5125 151.759 68.9685 151.882 68.3711 151.882C67.6885 151.882 67.0751 151.743 66.5311 151.466C65.9871 151.178 65.5551 150.751 65.2351 150.186C64.9258 149.621 64.7711 148.933 64.7711 148.122V142.986H66.2111V147.93C66.2111 148.794 66.4298 149.461 66.8671 149.93C67.3045 150.389 67.9018 150.618 68.6591 150.618C69.4378 150.618 70.0511 150.378 70.4991 149.898C70.9471 149.418 71.1711 148.719 71.1711 147.802V142.986H72.6271ZM76.5415 144.618C76.8402 144.095 77.2775 143.669 77.8535 143.338C78.4295 143.007 79.0855 142.842 79.8215 142.842C80.6108 142.842 81.3202 143.029 81.9495 143.402C82.5788 143.775 83.0748 144.303 83.4375 144.986C83.8002 145.658 83.9815 146.442 83.9815 147.338C83.9815 148.223 83.8002 149.013 83.4375 149.706C83.0748 150.399 82.5735 150.938 81.9335 151.322C81.3042 151.706 80.6002 151.898 79.8215 151.898C79.0642 151.898 78.3975 151.733 77.8215 151.402C77.2562 151.071 76.8295 150.65 76.5415 150.138V151.754H75.0855V139.914H76.5415V144.618ZM82.4935 147.338C82.4935 146.677 82.3602 146.101 82.0935 145.61C81.8268 145.119 81.4642 144.746 81.0055 144.49C80.5575 144.234 80.0615 144.106 79.5175 144.106C78.9842 144.106 78.4882 144.239 78.0295 144.506C77.5815 144.762 77.2188 145.141 76.9415 145.642C76.6748 146.133 76.5415 146.703 76.5415 147.354C76.5415 148.015 76.6748 148.597 76.9415 149.098C77.2188 149.589 77.5815 149.967 78.0295 150.234C78.4882 150.49 78.9842 150.618 79.5175 150.618C80.0615 150.618 80.5575 150.49 81.0055 150.234C81.4642 149.967 81.8268 149.589 82.0935 149.098C82.3602 148.597 82.4935 148.01 82.4935 147.338ZM89.002 151.898C88.33 151.898 87.7273 151.786 87.194 151.562C86.6607 151.327 86.2393 151.007 85.93 150.602C85.6207 150.186 85.45 149.711 85.418 149.178H86.922C86.9647 149.615 87.1673 149.973 87.53 150.25C87.9033 150.527 88.3887 150.666 88.986 150.666C89.5407 150.666 89.978 150.543 90.298 150.298C90.618 150.053 90.778 149.743 90.778 149.37C90.778 148.986 90.6073 148.703 90.266 148.522C89.9247 148.33 89.3967 148.143 88.682 147.962C88.0313 147.791 87.498 147.621 87.082 147.45C86.6767 147.269 86.3247 147.007 86.026 146.666C85.738 146.314 85.594 145.855 85.594 145.29C85.594 144.842 85.7273 144.431 85.994 144.058C86.2607 143.685 86.6393 143.391 87.13 143.178C87.6207 142.954 88.1807 142.842 88.81 142.842C89.7807 142.842 90.5647 143.087 91.162 143.578C91.7593 144.069 92.0793 144.741 92.122 145.594H90.666C90.634 145.135 90.4473 144.767 90.106 144.49C89.7753 144.213 89.3273 144.074 88.762 144.074C88.2393 144.074 87.8233 144.186 87.514 144.41C87.2047 144.634 87.05 144.927 87.05 145.29C87.05 145.578 87.1407 145.818 87.322 146.01C87.514 146.191 87.7487 146.341 88.026 146.458C88.314 146.565 88.7087 146.687 89.21 146.826C89.8393 146.997 90.3513 147.167 90.746 147.338C91.1407 147.498 91.4767 147.743 91.754 148.074C92.042 148.405 92.1913 148.837 92.202 149.37C92.202 149.85 92.0687 150.282 91.802 150.666C91.5353 151.05 91.1567 151.354 90.666 151.578C90.186 151.791 89.6313 151.898 89.002 151.898ZM93.7134 147.354C93.7134 146.447 93.8947 145.658 94.2574 144.986C94.6201 144.303 95.1214 143.775 95.7614 143.402C96.4121 143.029 97.1534 142.842 97.9854 142.842C99.0627 142.842 99.9481 143.103 100.641 143.626C101.345 144.149 101.809 144.874 102.033 145.802H100.465C100.316 145.269 100.023 144.847 99.5854 144.538C99.1587 144.229 98.6254 144.074 97.9854 144.074C97.1534 144.074 96.4814 144.362 95.9694 144.938C95.4574 145.503 95.2014 146.309 95.2014 147.354C95.2014 148.41 95.4574 149.226 95.9694 149.802C96.4814 150.378 97.1534 150.666 97.9854 150.666C98.6254 150.666 99.1587 150.517 99.5854 150.218C100.012 149.919 100.305 149.493 100.465 148.938H102.033C101.799 149.834 101.329 150.554 100.625 151.098C99.9214 151.631 99.0414 151.898 97.9854 151.898C97.1534 151.898 96.4121 151.711 95.7614 151.338C95.1214 150.965 94.6201 150.437 94.2574 149.754C93.8947 149.071 93.7134 148.271 93.7134 147.354ZM105.432 144.41C105.688 143.909 106.051 143.519 106.52 143.242C107 142.965 107.581 142.826 108.264 142.826V144.33H107.88C106.248 144.33 105.432 145.215 105.432 146.986V151.754H103.976V142.986H105.432V144.41ZM110.697 141.562C110.42 141.562 110.185 141.466 109.993 141.274C109.801 141.082 109.705 140.847 109.705 140.57C109.705 140.293 109.801 140.058 109.993 139.866C110.185 139.674 110.42 139.578 110.697 139.578C110.964 139.578 111.188 139.674 111.369 139.866C111.561 140.058 111.657 140.293 111.657 140.57C111.657 140.847 111.561 141.082 111.369 141.274C111.188 141.466 110.964 141.562 110.697 141.562ZM111.401 142.986V151.754H109.945V142.986H111.401ZM115.338 144.618C115.637 144.095 116.074 143.669 116.65 143.338C117.226 143.007 117.882 142.842 118.618 142.842C119.408 142.842 120.117 143.029 120.746 143.402C121.376 143.775 121.872 144.303 122.234 144.986C122.597 145.658 122.778 146.442 122.778 147.338C122.778 148.223 122.597 149.013 122.234 149.706C121.872 150.399 121.37 150.938 120.73 151.322C120.101 151.706 119.397 151.898 118.618 151.898C117.861 151.898 117.194 151.733 116.618 151.402C116.053 151.071 115.626 150.65 115.338 150.138V151.754H113.882V139.914H115.338V144.618ZM121.29 147.338C121.29 146.677 121.157 146.101 120.89 145.61C120.624 145.119 120.261 144.746 119.802 144.49C119.354 144.234 118.858 144.106 118.314 144.106C117.781 144.106 117.285 144.239 116.826 144.506C116.378 144.762 116.016 145.141 115.738 145.642C115.472 146.133 115.338 146.703 115.338 147.354C115.338 148.015 115.472 148.597 115.738 149.098C116.016 149.589 116.378 149.967 116.826 150.234C117.285 150.49 117.781 150.618 118.314 150.618C118.858 150.618 119.354 150.49 119.802 150.234C120.261 149.967 120.624 149.589 120.89 149.098C121.157 148.597 121.29 148.01 121.29 147.338ZM132.695 147.034C132.695 147.311 132.679 147.605 132.647 147.914H125.639C125.692 148.778 125.986 149.455 126.519 149.946C127.063 150.426 127.719 150.666 128.487 150.666C129.116 150.666 129.639 150.522 130.055 150.234C130.482 149.935 130.78 149.541 130.951 149.05H132.519C132.284 149.893 131.815 150.581 131.111 151.114C130.407 151.637 129.532 151.898 128.487 151.898C127.655 151.898 126.908 151.711 126.247 151.338C125.596 150.965 125.084 150.437 124.711 149.754C124.338 149.061 124.151 148.261 124.151 147.354C124.151 146.447 124.332 145.653 124.695 144.97C125.058 144.287 125.564 143.765 126.215 143.402C126.876 143.029 127.634 142.842 128.487 142.842C129.319 142.842 130.055 143.023 130.695 143.386C131.335 143.749 131.826 144.25 132.167 144.89C132.519 145.519 132.695 146.234 132.695 147.034ZM131.191 146.73C131.191 146.175 131.068 145.701 130.823 145.306C130.578 144.901 130.242 144.597 129.815 144.394C129.399 144.181 128.935 144.074 128.423 144.074C127.687 144.074 127.058 144.309 126.535 144.778C126.023 145.247 125.73 145.898 125.655 146.73H131.191ZM136.073 144.41C136.329 143.909 136.691 143.519 137.161 143.242C137.641 142.965 138.222 142.826 138.905 142.826V144.33H138.521C136.889 144.33 136.073 145.215 136.073 146.986V151.754H134.617V142.986H136.073V144.41ZM143.69 151.898C143.018 151.898 142.415 151.786 141.882 151.562C141.348 151.327 140.927 151.007 140.618 150.602C140.308 150.186 140.138 149.711 140.106 149.178H141.61C141.652 149.615 141.855 149.973 142.218 150.25C142.591 150.527 143.076 150.666 143.674 150.666C144.228 150.666 144.666 150.543 144.986 150.298C145.306 150.053 145.466 149.743 145.466 149.37C145.466 148.986 145.295 148.703 144.954 148.522C144.612 148.33 144.084 148.143 143.37 147.962C142.719 147.791 142.186 147.621 141.77 147.45C141.364 147.269 141.012 147.007 140.714 146.666C140.426 146.314 140.282 145.855 140.282 145.29C140.282 144.842 140.415 144.431 140.682 144.058C140.948 143.685 141.327 143.391 141.818 143.178C142.308 142.954 142.868 142.842 143.498 142.842C144.468 142.842 145.252 143.087 145.85 143.578C146.447 144.069 146.767 144.741 146.81 145.594H145.354C145.322 145.135 145.135 144.767 144.794 144.49C144.463 144.213 144.015 144.074 143.45 144.074C142.927 144.074 142.511 144.186 142.202 144.41C141.892 144.634 141.738 144.927 141.738 145.29C141.738 145.578 141.828 145.818 142.01 146.01C142.202 146.191 142.436 146.341 142.714 146.458C143.002 146.565 143.396 146.687 143.898 146.826C144.527 146.997 145.039 147.167 145.434 147.338C145.828 147.498 146.164 147.743 146.442 148.074C146.73 148.405 146.879 148.837 146.89 149.37C146.89 149.85 146.756 150.282 146.49 150.666C146.223 151.05 145.844 151.354 145.354 151.578C144.874 151.791 144.319 151.898 143.69 151.898ZM154.987 144.186V149.354C154.987 149.781 155.077 150.085 155.259 150.266C155.44 150.437 155.755 150.522 156.203 150.522H157.275V151.754H155.963C155.152 151.754 154.544 151.567 154.139 151.194C153.733 150.821 153.531 150.207 153.531 149.354V144.186H152.395V142.986H153.531V140.778H154.987V142.986H157.275V144.186H154.987ZM162.863 151.898C162.041 151.898 161.295 151.711 160.623 151.338C159.961 150.965 159.439 150.437 159.055 149.754C158.681 149.061 158.495 148.261 158.495 147.354C158.495 146.458 158.687 145.669 159.071 144.986C159.465 144.293 159.999 143.765 160.671 143.402C161.343 143.029 162.095 142.842 162.927 142.842C163.759 142.842 164.511 143.029 165.183 143.402C165.855 143.765 166.383 144.287 166.767 144.97C167.161 145.653 167.359 146.447 167.359 147.354C167.359 148.261 167.156 149.061 166.751 149.754C166.356 150.437 165.817 150.965 165.135 151.338C164.452 151.711 163.695 151.898 162.863 151.898ZM162.863 150.618C163.385 150.618 163.876 150.495 164.335 150.25C164.793 150.005 165.161 149.637 165.439 149.146C165.727 148.655 165.871 148.058 165.871 147.354C165.871 146.65 165.732 146.053 165.455 145.562C165.177 145.071 164.815 144.709 164.367 144.474C163.919 144.229 163.433 144.106 162.911 144.106C162.377 144.106 161.887 144.229 161.439 144.474C161.001 144.709 160.649 145.071 160.383 145.562C160.116 146.053 159.983 146.65 159.983 147.354C159.983 148.069 160.111 148.671 160.367 149.162C160.633 149.653 160.985 150.021 161.423 150.266C161.86 150.501 162.34 150.618 162.863 150.618ZM176.643 151.898C175.971 151.898 175.368 151.786 174.835 151.562C174.301 151.327 173.88 151.007 173.571 150.602C173.261 150.186 173.091 149.711 173.059 149.178H174.563C174.605 149.615 174.808 149.973 175.171 150.25C175.544 150.527 176.029 150.666 176.627 150.666C177.181 150.666 177.619 150.543 177.939 150.298C178.259 150.053 178.419 149.743 178.419 149.37C178.419 148.986 178.248 148.703 177.907 148.522C177.565 148.33 177.037 148.143 176.323 147.962C175.672 147.791 175.139 147.621 174.723 147.45C174.317 147.269 173.965 147.007 173.667 146.666C173.379 146.314 173.235 145.855 173.235 145.29C173.235 144.842 173.368 144.431 173.635 144.058C173.901 143.685 174.28 143.391 174.771 143.178C175.261 142.954 175.821 142.842 176.451 142.842C177.421 142.842 178.205 143.087 178.803 143.578C179.4 144.069 179.72 144.741 179.763 145.594H178.307C178.275 145.135 178.088 144.767 177.747 144.49C177.416 144.213 176.968 144.074 176.403 144.074C175.88 144.074 175.464 144.186 175.155 144.41C174.845 144.634 174.691 144.927 174.691 145.29C174.691 145.578 174.781 145.818 174.963 146.01C175.155 146.191 175.389 146.341 175.667 146.458C175.955 146.565 176.349 146.687 176.851 146.826C177.48 146.997 177.992 147.167 178.387 147.338C178.781 147.498 179.117 147.743 179.395 148.074C179.683 148.405 179.832 148.837 179.843 149.37C179.843 149.85 179.709 150.282 179.443 150.666C179.176 151.05 178.797 151.354 178.307 151.578C177.827 151.791 177.272 151.898 176.643 151.898ZM186.25 142.826C186.911 142.826 187.509 142.97 188.042 143.258C188.575 143.535 188.991 143.957 189.29 144.522C189.599 145.087 189.754 145.775 189.754 146.586V151.754H188.314V146.794C188.314 145.919 188.095 145.253 187.658 144.794C187.221 144.325 186.623 144.09 185.866 144.09C185.098 144.09 184.485 144.33 184.026 144.81C183.578 145.29 183.354 145.989 183.354 146.906V151.754H181.898V139.914H183.354V144.234C183.642 143.786 184.037 143.439 184.538 143.194C185.05 142.949 185.621 142.826 186.25 142.826ZM195.956 151.898C195.135 151.898 194.388 151.711 193.716 151.338C193.055 150.965 192.532 150.437 192.148 149.754C191.775 149.061 191.588 148.261 191.588 147.354C191.588 146.458 191.78 145.669 192.164 144.986C192.559 144.293 193.092 143.765 193.764 143.402C194.436 143.029 195.188 142.842 196.02 142.842C196.852 142.842 197.604 143.029 198.276 143.402C198.948 143.765 199.476 144.287 199.86 144.97C200.255 145.653 200.452 146.447 200.452 147.354C200.452 148.261 200.25 149.061 199.844 149.754C199.45 150.437 198.911 150.965 198.228 151.338C197.546 151.711 196.788 151.898 195.956 151.898ZM195.956 150.618C196.479 150.618 196.97 150.495 197.428 150.25C197.887 150.005 198.255 149.637 198.532 149.146C198.82 148.655 198.964 148.058 198.964 147.354C198.964 146.65 198.826 146.053 198.548 145.562C198.271 145.071 197.908 144.709 197.46 144.474C197.012 144.229 196.527 144.106 196.004 144.106C195.471 144.106 194.98 144.229 194.532 144.474C194.095 144.709 193.743 145.071 193.476 145.562C193.21 146.053 193.076 146.65 193.076 147.354C193.076 148.069 193.204 148.671 193.46 149.162C193.727 149.653 194.079 150.021 194.516 150.266C194.954 150.501 195.434 150.618 195.956 150.618ZM214.047 142.986L211.311 151.754H209.807L207.695 144.794L205.583 151.754H204.079L201.327 142.986H202.815L204.831 150.346L207.007 142.986H208.495L210.623 150.362L212.607 142.986H214.047ZM215.956 151.85C215.678 151.85 215.444 151.754 215.252 151.562C215.06 151.37 214.964 151.135 214.964 150.858C214.964 150.581 215.06 150.346 215.252 150.154C215.444 149.962 215.678 149.866 215.956 149.866C216.222 149.866 216.446 149.962 216.628 150.154C216.82 150.346 216.916 150.581 216.916 150.858C216.916 151.135 216.82 151.37 216.628 151.562C216.446 151.754 216.222 151.85 215.956 151.85Z" fill="black"/>
<path opacity="0.12" d="M195.74 99.3101C190.963 91.9515 184.421 85.9057 176.709 81.7238C168.997 77.5416 160.36 75.3568 151.587 75.3683C150.701 75.368 149.852 75.016 149.226 74.3897C148.599 73.763 148.247 72.9131 148.247 72.027C148.247 71.1408 148.599 70.2909 149.226 69.6643C149.852 69.0377 150.702 68.6856 151.588 68.6856H151.59C155.972 68.6815 160.298 67.7097 164.26 65.8396C168.223 63.9696 171.723 61.2475 174.512 57.8677C177.3 54.488 179.308 50.5342 180.391 46.2887C181.474 42.0432 181.606 37.6108 180.778 33.3083C179.949 29.0058 178.181 24.9394 175.599 21.3996C173.017 17.8598 169.685 14.9339 165.841 12.8311C161.997 10.7284 157.736 9.50053 153.362 9.23539C148.989 8.97024 144.611 9.67432 140.541 11.2973L140.518 11.3066L140.495 11.3165C140.085 11.4937 139.644 11.5869 139.197 11.5907C138.751 11.5945 138.308 11.5087 137.895 11.3385C137.482 11.1682 137.108 10.917 136.794 10.5996C136.48 10.2822 136.233 9.90502 136.067 9.49042C135.901 9.07581 135.82 8.63218 135.828 8.18574C135.837 7.7393 135.935 7.29908 136.116 6.89111C136.298 6.48314 136.559 6.11569 136.885 5.81049C137.211 5.50528 137.595 5.2685 138.014 5.11413L138.036 5.10612L138.057 5.09753C146.422 1.7616 155.726 1.64155 164.174 4.76054C172.621 7.87954 179.615 14.0166 183.805 21.9877C187.995 29.9589 189.085 39.1993 186.864 47.9265C184.643 56.6536 179.269 64.2491 171.778 69.2476L168.918 71.1561L172.144 72.3452C184.133 76.764 194.372 84.941 201.333 95.6559L201.335 95.6584C201.819 96.4006 201.988 97.3047 201.806 98.1717C201.623 99.0387 201.104 99.7977 200.362 100.282L201.318 101.748L200.362 100.282C199.62 100.766 198.716 100.935 197.849 100.753C196.982 100.57 196.224 100.051 195.74 99.3101ZM195.74 99.3101C195.74 99.3108 195.74 99.3114 195.741 99.3121L194.273 100.265L195.739 99.3086C195.739 99.3091 195.739 99.3096 195.74 99.3101ZM115.775 69.2465L112.909 71.1545L116.139 72.3452C128.125 76.7627 138.361 84.9359 145.322 95.6458C145.787 96.3863 145.943 97.2797 145.757 98.1343C145.57 98.992 145.053 99.7417 144.318 100.221C143.582 100.701 142.688 100.872 141.828 100.697C140.971 100.523 140.217 100.021 139.727 99.298C134.946 91.9493 128.406 85.9104 120.7 81.7291C112.989 77.5454 104.356 75.354 95.5836 75.354C86.8112 75.354 78.1778 77.5454 70.4673 81.7291C62.7569 85.9128 56.2137 91.9564 51.4319 99.3109L51.4258 99.3204L51.4197 99.3299C51.1832 99.7042 50.8745 100.028 50.5118 100.282C50.1491 100.536 49.7395 100.715 49.3068 100.809C48.8742 100.904 48.4271 100.911 47.9916 100.831C47.556 100.751 47.1408 100.585 46.7699 100.343C46.399 100.101 46.0798 99.7882 45.8311 99.4219C45.5823 99.0556 45.4088 98.6434 45.3207 98.2095C45.2326 97.7755 45.2316 97.3284 45.3179 96.8941C45.4041 96.4597 45.5758 96.0468 45.823 95.6795L45.8309 95.6678L45.8385 95.6559C52.7996 84.941 63.0387 76.764 75.0279 72.3452L78.2585 71.1545L75.3925 69.2465C68.8815 64.9119 63.9383 58.597 61.2939 51.2357C58.6495 43.8745 58.4442 35.8576 60.7085 28.3706C62.9727 20.8836 67.5863 14.3241 73.8669 9.66197C80.1475 4.99985 87.7617 2.48267 95.5836 2.48267C103.405 2.48267 111.02 4.99985 117.3 9.66197C123.581 14.3241 128.194 20.8836 130.459 28.3706C132.723 35.8576 132.518 43.8745 129.873 51.2357C127.229 58.597 122.286 64.9119 115.775 69.2465ZM65.8312 38.9332L65.8312 38.9352C65.8402 46.8228 68.9774 54.3847 74.5548 59.9621C80.1321 65.5394 87.6941 68.6767 95.5816 68.6856H95.5836C101.468 68.6856 107.22 66.9407 112.113 63.6714C117.006 60.4022 120.819 55.7555 123.071 50.319C125.323 44.8824 125.912 38.9002 124.764 33.1288C123.616 27.3574 120.783 22.0561 116.622 17.8951C112.461 13.7342 107.159 10.9005 101.388 9.75253C95.6166 8.60453 89.6344 9.19373 84.1978 11.4456C78.7613 13.6975 74.1146 17.5109 70.8454 22.4037C67.5762 27.2964 65.8312 33.0488 65.8312 38.9332Z" fill="black" stroke="white" stroke-width="3.5"/>
</svg>
