<svg width="19" height="10" viewBox="0 0 19 10" fill="none" xmlns="http://www.w3.org/2000/svg">
<path fill-rule="evenodd" clip-rule="evenodd" d="M13.8839 0.0629469C13.9319 0.0629991 13.98 0.0629991 14.0281 0.0629469C14.3544 0.0629469 14.6377 0.062947 14.885 0.129059C15.2124 0.216753 15.5111 0.389069 15.7508 0.6287C15.9906 0.86833 16.1631 1.16684 16.251 1.49424L15.6483 1.65652L16.251 1.4951C16.318 1.74323 16.318 2.02486 16.3171 2.35198V2.6482C16.9045 2.70089 17.4508 2.97145 17.8488 3.40666C18.2467 3.84187 18.4673 4.41022 18.4673 4.99992C18.4673 5.58961 18.2467 6.15796 17.8488 6.59317C17.4508 7.02838 16.9045 7.29894 16.3171 7.35163V7.64785C16.3171 7.97412 16.3171 8.25746 16.251 8.5056C16.1632 8.83289 15.9908 9.13133 15.7512 9.37095C15.5116 9.61058 15.2131 9.78295 14.8858 9.87078C14.6369 9.93775 14.3552 9.93775 14.0272 9.93689H13.8839C13.5576 9.93689 13.2743 9.93689 13.027 9.87163C12.6994 9.78387 12.4007 9.61142 12.1609 9.37163C11.9211 9.13184 11.7487 8.83316 11.6609 8.5056C11.594 8.2566 11.594 7.97498 11.5948 7.64785V5.64387H6.8725V7.64785C6.8725 7.97412 6.8725 8.25746 6.80639 8.5056C6.71856 8.83289 6.54619 9.13133 6.30657 9.37095C6.06695 9.61058 5.76851 9.78295 5.44121 9.87078C5.19222 9.93775 4.91059 9.93775 4.58261 9.93689H4.43922C4.11295 9.93689 3.82961 9.93689 3.58233 9.87163C3.25477 9.78387 2.95609 9.61142 2.7163 9.37163C2.47651 9.13184 2.30406 8.83316 2.2163 8.5056C2.14932 8.2566 2.15018 7.97498 2.15018 7.64785V7.35163C1.56285 7.29894 1.01648 7.02838 0.618572 6.59317C0.220659 6.15796 0 5.58961 0 4.99992C0 4.41022 0.220659 3.84187 0.618572 3.40666C1.01648 2.97145 1.56285 2.70089 2.15018 2.6482V2.35198C2.15018 2.02572 2.15018 1.74238 2.2163 1.4951C2.30399 1.16764 2.47631 0.869026 2.71594 0.629244C2.95557 0.389463 3.25407 0.216959 3.58147 0.129059C3.83047 0.0620884 4.11209 0.0629469 4.44008 0.0629469C4.48787 0.0629986 4.53567 0.0629986 4.58347 0.0629469C4.90973 0.0629469 5.19307 0.062947 5.44035 0.129059C5.76781 0.216753 6.06642 0.389069 6.3062 0.6287C6.54599 0.86833 6.71849 1.16684 6.80639 1.49424C6.87336 1.74323 6.8725 2.02486 6.8725 2.35284V4.35596H11.5948V2.35198C11.5948 2.02572 11.5948 1.74238 11.6609 1.4951C11.7486 1.16764 11.9209 0.869026 12.1606 0.629244C12.4002 0.389463 12.6987 0.216959 13.0261 0.129059C13.2751 0.0620884 13.5559 0.0629469 13.8839 0.0629469ZM2.15018 3.94813C1.90757 3.99739 1.68944 4.12902 1.53277 4.32071C1.37609 4.51239 1.2905 4.75235 1.2905 4.99992C1.2905 5.24749 1.37609 5.48744 1.53277 5.67913C1.68944 5.87081 1.90757 6.00244 2.15018 6.05171V3.94813ZM16.3171 6.05171C16.5598 6.00244 16.7779 5.87081 16.9346 5.67913C17.0912 5.48744 17.1768 5.24749 17.1768 4.99992C17.1768 4.75235 17.0912 4.51239 16.9346 4.32071C16.7779 4.12902 16.5598 3.99739 16.3171 3.94813V6.05171ZM13.956 1.35085C13.5155 1.35085 13.4211 1.35686 13.3601 1.37318C13.251 1.40245 13.1515 1.45991 13.0717 1.53978C12.9918 1.61966 12.9343 1.71914 12.9051 1.82824C12.8879 1.8892 12.8827 1.98278 12.8827 2.42411V7.57573C12.8827 8.01619 12.8879 8.11064 12.9051 8.1716C12.9343 8.2807 12.9918 8.38018 13.0717 8.46005C13.1515 8.53993 13.251 8.59739 13.3601 8.62666C13.4211 8.64383 13.5147 8.64898 13.956 8.64898C14.3964 8.64898 14.4909 8.64383 14.5519 8.62752C14.661 8.59824 14.7604 8.54079 14.8403 8.46091C14.9202 8.38104 14.9776 8.28156 15.0069 8.17246C15.0241 8.11064 15.0292 8.01619 15.0292 7.57573V2.42411C15.0292 1.98364 15.0241 1.8892 15.0069 1.82824C14.9776 1.71914 14.9202 1.61966 14.8403 1.53978C14.7604 1.45991 14.661 1.40245 14.5519 1.37318C14.4909 1.356 14.3973 1.35085 13.956 1.35085ZM4.51134 1.35085C4.07088 1.35085 3.97643 1.35686 3.91547 1.37318C3.80637 1.40245 3.70689 1.45991 3.62702 1.53978C3.54715 1.61966 3.48969 1.71914 3.46041 1.82824C3.44324 1.8892 3.43809 1.98278 3.43809 2.42411V7.57573C3.43809 8.01619 3.44324 8.11064 3.46041 8.1716C3.48969 8.2807 3.54715 8.38018 3.62702 8.46005C3.70689 8.53993 3.80637 8.59739 3.91547 8.62666C3.97643 8.64297 4.07002 8.64898 4.51134 8.64898C4.95181 8.64898 5.04625 8.64383 5.10721 8.62752C5.21631 8.59824 5.31579 8.54079 5.39567 8.46091C5.47554 8.38104 5.533 8.28156 5.56227 8.17246C5.57945 8.11064 5.5846 8.01619 5.5846 7.57573V2.42411C5.5846 1.98364 5.57945 1.8892 5.56227 1.82824C5.533 1.71914 5.47554 1.61966 5.39567 1.53978C5.31579 1.45991 5.21631 1.40245 5.10721 1.37318C5.04625 1.356 4.95266 1.35085 4.51134 1.35085Z" fill="black"/>
</svg>
