<svg width="18" height="16" viewBox="0 0 18 16" fill="none" xmlns="http://www.w3.org/2000/svg">
<path d="M6.07909 3.13746C6.07909 2.49345 6.33492 1.87582 6.79031 1.42043C7.24569 0.965052 7.86332 0.709221 8.50733 0.709221C9.15134 0.709221 9.76897 0.965052 10.2243 1.42043C10.6797 1.87582 10.9356 2.49345 10.9356 3.13746C10.9356 3.78146 10.6797 4.39909 10.2243 4.85448C9.76897 5.30986 9.15134 5.56569 8.50733 5.56569C7.86332 5.56569 7.24569 5.30986 6.79031 4.85448C6.33492 4.39909 6.07909 3.78146 6.07909 3.13746ZM8.50733 1.92455C8.34805 1.92455 8.19033 1.95593 8.04317 2.01688C7.89601 2.07783 7.76231 2.16718 7.64968 2.2798C7.53705 2.39243 7.44771 2.52614 7.38675 2.6733C7.3258 2.82045 7.29443 2.97817 7.29443 3.13746C7.29443 3.29674 7.3258 3.45446 7.38675 3.60161C7.44771 3.74877 7.53705 3.88248 7.64968 3.99511C7.76231 4.10774 7.89601 4.19708 8.04317 4.25803C8.19033 4.31898 8.34805 4.35036 8.50733 4.35036C8.82901 4.35036 9.13752 4.22257 9.36498 3.99511C9.59244 3.76764 9.72023 3.45914 9.72023 3.13746C9.72023 2.81577 9.59244 2.50727 9.36498 2.2798C9.13752 2.05234 8.82901 1.92455 8.50733 1.92455ZM12.1533 3.74512C12.1533 3.50572 12.2005 3.26867 12.2921 3.04749C12.3837 2.82631 12.518 2.62535 12.6873 2.45607C12.8566 2.28679 13.0575 2.1525 13.2787 2.06089C13.4999 1.96928 13.7369 1.92212 13.9763 1.92212C14.2157 1.92212 14.4528 1.96928 14.674 2.06089C14.8951 2.1525 15.0961 2.28679 15.2654 2.45607C15.4347 2.62535 15.5689 2.82631 15.6606 3.04749C15.7522 3.26867 15.7993 3.50572 15.7993 3.74512C15.7993 4.22861 15.6073 4.6923 15.2654 5.03418C14.9235 5.37606 14.4598 5.56812 13.9763 5.56812C13.4928 5.56812 13.0291 5.37606 12.6873 5.03418C12.3454 4.6923 12.1533 4.22861 12.1533 3.74512ZM13.9763 3.13746C13.8152 3.13746 13.6606 3.20148 13.5466 3.31544C13.4327 3.4294 13.3687 3.58396 13.3687 3.74512C13.3687 3.90628 13.4327 4.06085 13.5466 4.17481C13.6606 4.28877 13.8152 4.35279 13.9763 4.35279C14.1375 4.35279 14.2921 4.28877 14.406 4.17481C14.52 4.06085 14.584 3.90628 14.584 3.74512C14.584 3.58396 14.52 3.4294 14.406 3.31544C14.2921 3.20148 14.1375 3.13746 13.9763 3.13746ZM3.03833 1.92212C2.55484 1.92212 2.09116 2.11419 1.74928 2.45607C1.4074 2.79795 1.21533 3.26163 1.21533 3.74512C1.21533 4.22861 1.4074 4.6923 1.74928 5.03418C2.09116 5.37606 2.55484 5.56812 3.03833 5.56812C3.52182 5.56812 3.98551 5.37606 4.32739 5.03418C4.66927 4.6923 4.86133 4.22861 4.86133 3.74512C4.86133 3.26163 4.66927 2.79795 4.32739 2.45607C3.98551 2.11419 3.52182 1.92212 3.03833 1.92212ZM2.43067 3.74512C2.43067 3.58396 2.49469 3.4294 2.60865 3.31544C2.72261 3.20148 2.87717 3.13746 3.03833 3.13746C3.19949 3.13746 3.35406 3.20148 3.46802 3.31544C3.58198 3.4294 3.646 3.58396 3.646 3.74512C3.646 3.90628 3.58198 4.06085 3.46802 4.17481C3.35406 4.28877 3.19949 4.35279 3.03833 4.35279C2.87717 4.35279 2.72261 4.28877 2.60865 4.17481C2.49469 4.06085 2.43067 3.90628 2.43067 3.74512ZM3.97171 6.78345C3.75835 7.15296 3.64602 7.57211 3.646 7.99879H1.21533V11.0371C1.21523 11.3394 1.29031 11.637 1.43381 11.9031C1.57731 12.1691 1.78472 12.3953 2.03737 12.5613C2.29002 12.7273 2.57999 12.8279 2.88116 12.8539C3.18233 12.88 3.48526 12.8307 3.76267 12.7106C3.8526 13.1129 3.99358 13.497 4.17588 13.8555C3.71462 14.0417 3.21469 14.1119 2.71998 14.0597C2.22528 14.0076 1.75094 13.8348 1.33862 13.5565C0.926298 13.2783 0.588609 12.903 0.355209 12.4637C0.121808 12.0244 -0.000165343 11.5346 1.68218e-07 11.0371V7.99879C1.68218e-07 7.67646 0.128044 7.36734 0.355963 7.13942C0.583882 6.9115 0.893006 6.78345 1.21533 6.78345H3.97171ZM12.8388 13.8555C13.3 14.0417 13.8 14.1119 14.2947 14.0597C14.7894 14.0076 15.2637 13.8348 15.676 13.5565C16.0884 13.2783 16.426 12.903 16.6594 12.4637C16.8928 12.0244 17.0148 11.5346 17.0147 11.0371V7.99879C17.0147 7.67646 16.8866 7.36734 16.6587 7.13942C16.4308 6.9115 16.1217 6.78345 15.7993 6.78345H13.0429C13.2496 7.14076 13.3687 7.55519 13.3687 7.99879H15.7993V11.0371C15.7994 11.3394 15.7243 11.637 15.5808 11.9031C15.4374 12.1691 15.2299 12.3953 14.9773 12.5613C14.7246 12.7273 14.4347 12.8279 14.1335 12.8539C13.8323 12.88 13.5294 12.8307 13.252 12.7106C13.1596 13.1141 13.0219 13.4957 12.8388 13.8555ZM6.07666 6.78224C5.75434 6.78224 5.44521 6.91028 5.21729 7.1382C4.98937 7.36612 4.86133 7.67524 4.86133 7.99757V11.6448C4.86133 12.6118 5.24546 13.5391 5.92922 14.2229C6.61298 14.9067 7.54035 15.2908 8.50733 15.2908C9.47431 15.2908 10.4017 14.9067 11.0854 14.2229C11.7692 13.5391 12.1533 12.6118 12.1533 11.6448V7.99879C12.1533 7.67646 12.0253 7.36734 11.7974 7.13942C11.5694 6.9115 11.2603 6.78345 10.938 6.78345L6.07666 6.78224ZM6.07666 7.99757H10.938V11.6448C10.938 12.2894 10.6819 12.9077 10.2261 13.3635C9.77023 13.8194 9.15198 14.0754 8.50733 14.0754C7.86268 14.0754 7.24443 13.8194 6.78859 13.3635C6.33275 12.9077 6.07666 12.2894 6.07666 11.6448V7.99757Z" fill="black"/>
</svg>
