<svg width="192" height="189" viewBox="0 0 192 189" fill="none" xmlns="http://www.w3.org/2000/svg">
<path opacity="0.25" d="M6.69178 161.542C6.04778 161.542 5.46911 161.43 4.95578 161.206C4.45178 160.973 4.05511 160.655 3.76578 160.254C3.47644 159.843 3.32711 159.372 3.31778 158.84H4.67578C4.72244 159.297 4.90911 159.685 5.23578 160.002C5.57178 160.31 6.05711 160.464 6.69178 160.464C7.29844 160.464 7.77444 160.315 8.11978 160.016C8.47444 159.708 8.65178 159.316 8.65178 158.84C8.65178 158.467 8.54911 158.163 8.34378 157.93C8.13844 157.697 7.88178 157.519 7.57378 157.398C7.26578 157.277 6.85044 157.146 6.32778 157.006C5.68378 156.838 5.16578 156.67 4.77378 156.502C4.39111 156.334 4.05978 156.073 3.77978 155.718C3.50911 155.354 3.37378 154.869 3.37378 154.262C3.37378 153.73 3.50911 153.259 3.77978 152.848C4.05044 152.437 4.42844 152.12 4.91378 151.896C5.40844 151.672 5.97311 151.56 6.60778 151.56C7.52244 151.56 8.26911 151.789 8.84778 152.246C9.43578 152.703 9.76711 153.31 9.84178 154.066H8.44178C8.39511 153.693 8.19911 153.366 7.85378 153.086C7.50844 152.797 7.05111 152.652 6.48178 152.652C5.94978 152.652 5.51578 152.792 5.17978 153.072C4.84378 153.343 4.67578 153.725 4.67578 154.22C4.67578 154.575 4.77378 154.864 4.96978 155.088C5.17511 155.312 5.42244 155.485 5.71178 155.606C6.01044 155.718 6.42578 155.849 6.95778 155.998C7.60178 156.175 8.11978 156.353 8.51178 156.53C8.90378 156.698 9.23978 156.964 9.51978 157.328C9.79978 157.683 9.93978 158.168 9.93978 158.784C9.93978 159.26 9.81378 159.708 9.56178 160.128C9.30978 160.548 8.93644 160.889 8.44178 161.15C7.94711 161.411 7.36378 161.542 6.69178 161.542ZM18.8146 157.314C18.8146 157.557 18.8006 157.813 18.7726 158.084H12.6406C12.6872 158.84 12.9439 159.433 13.4106 159.862C13.8866 160.282 14.4606 160.492 15.1326 160.492C15.6832 160.492 16.1406 160.366 16.5046 160.114C16.8779 159.853 17.1392 159.507 17.2886 159.078H18.6606C18.4552 159.815 18.0446 160.417 17.4286 160.884C16.8126 161.341 16.0472 161.57 15.1326 161.57C14.4046 161.57 13.7512 161.407 13.1726 161.08C12.6032 160.753 12.1552 160.291 11.8286 159.694C11.5019 159.087 11.3386 158.387 11.3386 157.594C11.3386 156.801 11.4972 156.105 11.8146 155.508C12.1319 154.911 12.5752 154.453 13.1446 154.136C13.7232 153.809 14.3859 153.646 15.1326 153.646C15.8606 153.646 16.5046 153.805 17.0646 154.122C17.6246 154.439 18.0539 154.878 18.3526 155.438C18.6606 155.989 18.8146 156.614 18.8146 157.314ZM17.4986 157.048C17.4986 156.563 17.3912 156.147 17.1766 155.802C16.9619 155.447 16.6679 155.181 16.2946 155.004C15.9306 154.817 15.5246 154.724 15.0766 154.724C14.4326 154.724 13.8819 154.929 13.4246 155.34C12.9766 155.751 12.7199 156.32 12.6546 157.048H17.4986ZM21.7702 151.084V161.444H20.4962V151.084H21.7702ZM30.9415 157.314C30.9415 157.557 30.9275 157.813 30.8995 158.084H24.7675C24.8142 158.84 25.0709 159.433 25.5375 159.862C26.0135 160.282 26.5875 160.492 27.2595 160.492C27.8102 160.492 28.2675 160.366 28.6315 160.114C29.0049 159.853 29.2662 159.507 29.4155 159.078H30.7875C30.5822 159.815 30.1715 160.417 29.5555 160.884C28.9395 161.341 28.1742 161.57 27.2595 161.57C26.5315 161.57 25.8782 161.407 25.2995 161.08C24.7302 160.753 24.2822 160.291 23.9555 159.694C23.6289 159.087 23.4655 158.387 23.4655 157.594C23.4655 156.801 23.6242 156.105 23.9415 155.508C24.2589 154.911 24.7022 154.453 25.2715 154.136C25.8502 153.809 26.5129 153.646 27.2595 153.646C27.9875 153.646 28.6315 153.805 29.1915 154.122C29.7515 154.439 30.1809 154.878 30.4795 155.438C30.7875 155.989 30.9415 156.614 30.9415 157.314ZM29.6255 157.048C29.6255 156.563 29.5182 156.147 29.3035 155.802C29.0889 155.447 28.7949 155.181 28.4215 155.004C28.0575 154.817 27.6515 154.724 27.2035 154.724C26.5595 154.724 26.0089 154.929 25.5515 155.34C25.1035 155.751 24.8469 156.32 24.7815 157.048H29.6255ZM32.1472 157.594C32.1472 156.801 32.3058 156.11 32.6232 155.522C32.9405 154.925 33.3792 154.463 33.9392 154.136C34.5085 153.809 35.1572 153.646 35.8852 153.646C36.8278 153.646 37.6025 153.875 38.2092 154.332C38.8252 154.789 39.2312 155.424 39.4272 156.236H38.0552C37.9245 155.769 37.6678 155.401 37.2852 155.13C36.9118 154.859 36.4452 154.724 35.8852 154.724C35.1572 154.724 34.5692 154.976 34.1212 155.48C33.6732 155.975 33.4492 156.679 33.4492 157.594C33.4492 158.518 33.6732 159.232 34.1212 159.736C34.5692 160.24 35.1572 160.492 35.8852 160.492C36.4452 160.492 36.9118 160.361 37.2852 160.1C37.6585 159.839 37.9152 159.465 38.0552 158.98H39.4272C39.2218 159.764 38.8112 160.394 38.1952 160.87C37.5792 161.337 36.8092 161.57 35.8852 161.57C35.1572 161.57 34.5085 161.407 33.9392 161.08C33.3792 160.753 32.9405 160.291 32.6232 159.694C32.3058 159.097 32.1472 158.397 32.1472 157.594ZM42.6811 154.822V159.344C42.6811 159.717 42.7604 159.983 42.9191 160.142C43.0777 160.291 43.3531 160.366 43.7451 160.366H44.6831V161.444H43.5351C42.8257 161.444 42.2937 161.281 41.9391 160.954C41.5844 160.627 41.4071 160.091 41.4071 159.344V154.822H40.4131V153.772H41.4071V151.84H42.6811V153.772H44.6831V154.822H42.6811ZM49.4831 157.58C49.4831 156.796 49.6418 156.11 49.9591 155.522C50.2764 154.925 50.7104 154.463 51.2611 154.136C51.8211 153.809 52.4418 153.646 53.1231 153.646C53.7951 153.646 54.3784 153.791 54.8731 154.08C55.3678 154.369 55.7364 154.733 55.9791 155.172V153.772H57.2671V161.444H55.9791V160.016C55.7271 160.464 55.3491 160.837 54.8451 161.136C54.3504 161.425 53.7718 161.57 53.1091 161.57C52.4278 161.57 51.8118 161.402 51.2611 161.066C50.7104 160.73 50.2764 160.259 49.9591 159.652C49.6418 159.045 49.4831 158.355 49.4831 157.58ZM55.9791 157.594C55.9791 157.015 55.8624 156.511 55.6291 156.082C55.3958 155.653 55.0784 155.326 54.6771 155.102C54.2851 154.869 53.8511 154.752 53.3751 154.752C52.8991 154.752 52.4651 154.864 52.0731 155.088C51.6811 155.312 51.3684 155.639 51.1351 156.068C50.9018 156.497 50.7851 157.001 50.7851 157.58C50.7851 158.168 50.9018 158.681 51.1351 159.12C51.3684 159.549 51.6811 159.881 52.0731 160.114C52.4651 160.338 52.8991 160.45 53.3751 160.45C53.8511 160.45 54.2851 160.338 54.6771 160.114C55.0784 159.881 55.3958 159.549 55.6291 159.12C55.8624 158.681 55.9791 158.173 55.9791 157.594ZM63.158 153.632C64.0914 153.632 64.8474 153.917 65.426 154.486C66.0047 155.046 66.294 155.858 66.294 156.922V161.444H65.034V157.104C65.034 156.339 64.8427 155.755 64.46 155.354C64.0774 154.943 63.5547 154.738 62.892 154.738C62.22 154.738 61.6834 154.948 61.282 155.368C60.89 155.788 60.694 156.399 60.694 157.202V161.444H59.42V153.772H60.694V154.864C60.946 154.472 61.2867 154.169 61.716 153.954C62.1547 153.739 62.6354 153.632 63.158 153.632ZM79.1075 157.314C79.1075 157.557 79.0935 157.813 79.0655 158.084H72.9335C72.9802 158.84 73.2369 159.433 73.7035 159.862C74.1795 160.282 74.7535 160.492 75.4255 160.492C75.9762 160.492 76.4335 160.366 76.7975 160.114C77.1709 159.853 77.4322 159.507 77.5815 159.078H78.9535C78.7482 159.815 78.3375 160.417 77.7215 160.884C77.1055 161.341 76.3402 161.57 75.4255 161.57C74.6975 161.57 74.0442 161.407 73.4655 161.08C72.8962 160.753 72.4482 160.291 72.1215 159.694C71.7949 159.087 71.6315 158.387 71.6315 157.594C71.6315 156.801 71.7902 156.105 72.1075 155.508C72.4249 154.911 72.8682 154.453 73.4375 154.136C74.0162 153.809 74.6789 153.646 75.4255 153.646C76.1535 153.646 76.7975 153.805 77.3575 154.122C77.9175 154.439 78.3469 154.878 78.6455 155.438C78.9535 155.989 79.1075 156.614 79.1075 157.314ZM77.7915 157.048C77.7915 156.563 77.6842 156.147 77.4695 155.802C77.2549 155.447 76.9609 155.181 76.5875 155.004C76.2235 154.817 75.8175 154.724 75.3695 154.724C74.7255 154.724 74.1749 154.929 73.7175 155.34C73.2695 155.751 73.0129 156.32 72.9475 157.048H77.7915ZM84.7932 161.444L82.9732 158.588L81.2232 161.444H79.8932L82.3712 157.636L79.8932 153.772H81.3352L83.1552 156.614L84.8912 153.772H86.2212L83.7572 157.566L86.2352 161.444H84.7932ZM88.1464 152.526C87.9037 152.526 87.6984 152.442 87.5304 152.274C87.3624 152.106 87.2784 151.901 87.2784 151.658C87.2784 151.415 87.3624 151.21 87.5304 151.042C87.6984 150.874 87.9037 150.79 88.1464 150.79C88.3797 150.79 88.5757 150.874 88.7344 151.042C88.9024 151.21 88.9864 151.415 88.9864 151.658C88.9864 151.901 88.9024 152.106 88.7344 152.274C88.5757 152.442 88.3797 152.526 88.1464 152.526ZM88.7624 153.772V161.444H87.4884V153.772H88.7624ZM93.6497 161.57C93.0617 161.57 92.5344 161.472 92.0677 161.276C91.601 161.071 91.2324 160.791 90.9617 160.436C90.691 160.072 90.5417 159.657 90.5137 159.19H91.8297C91.867 159.573 92.0444 159.885 92.3617 160.128C92.6884 160.371 93.113 160.492 93.6357 160.492C94.121 160.492 94.5037 160.385 94.7837 160.17C95.0637 159.955 95.2037 159.685 95.2037 159.358C95.2037 159.022 95.0544 158.775 94.7557 158.616C94.457 158.448 93.995 158.285 93.3697 158.126C92.8004 157.977 92.3337 157.827 91.9697 157.678C91.615 157.519 91.307 157.291 91.0457 156.992C90.7937 156.684 90.6677 156.283 90.6677 155.788C90.6677 155.396 90.7844 155.037 91.0177 154.71C91.251 154.383 91.5824 154.127 92.0117 153.94C92.441 153.744 92.931 153.646 93.4817 153.646C94.331 153.646 95.017 153.861 95.5397 154.29C96.0624 154.719 96.3424 155.307 96.3797 156.054H95.1057C95.0777 155.653 94.9144 155.331 94.6157 155.088C94.3264 154.845 93.9344 154.724 93.4397 154.724C92.9824 154.724 92.6184 154.822 92.3477 155.018C92.077 155.214 91.9417 155.471 91.9417 155.788C91.9417 156.04 92.021 156.25 92.1797 156.418C92.3477 156.577 92.553 156.707 92.7957 156.81C93.0477 156.903 93.393 157.011 93.8317 157.132C94.3824 157.281 94.8304 157.431 95.1757 157.58C95.521 157.72 95.815 157.935 96.0577 158.224C96.3097 158.513 96.4404 158.891 96.4497 159.358C96.4497 159.778 96.333 160.156 96.0997 160.492C95.8664 160.828 95.535 161.094 95.1057 161.29C94.6857 161.477 94.2004 161.57 93.6497 161.57ZM99.8022 154.822V159.344C99.8022 159.717 99.8815 159.983 100.04 160.142C100.199 160.291 100.474 160.366 100.866 160.366H101.804V161.444H100.656C99.9468 161.444 99.4148 161.281 99.0602 160.954C98.7055 160.627 98.5282 160.091 98.5282 159.344V154.822H97.5342V153.772H98.5282V151.84H99.8022V153.772H101.804V154.822H99.8022ZM104.006 152.526C103.763 152.526 103.558 152.442 103.39 152.274C103.222 152.106 103.138 151.901 103.138 151.658C103.138 151.415 103.222 151.21 103.39 151.042C103.558 150.874 103.763 150.79 104.006 150.79C104.239 150.79 104.435 150.874 104.594 151.042C104.762 151.21 104.846 151.415 104.846 151.658C104.846 151.901 104.762 152.106 104.594 152.274C104.435 152.442 104.239 152.526 104.006 152.526ZM104.622 153.772V161.444H103.348V153.772H104.622ZM110.531 153.632C111.464 153.632 112.22 153.917 112.799 154.486C113.378 155.046 113.667 155.858 113.667 156.922V161.444H112.407V157.104C112.407 156.339 112.216 155.755 111.833 155.354C111.45 154.943 110.928 154.738 110.265 154.738C109.593 154.738 109.056 154.948 108.655 155.368C108.263 155.788 108.067 156.399 108.067 157.202V161.444H106.793V153.772H108.067V154.864C108.319 154.472 108.66 154.169 109.089 153.954C109.528 153.739 110.008 153.632 110.531 153.632ZM118.912 153.646C119.575 153.646 120.153 153.791 120.648 154.08C121.152 154.369 121.525 154.733 121.768 155.172V153.772H123.056V161.612C123.056 162.312 122.907 162.933 122.608 163.474C122.309 164.025 121.88 164.454 121.32 164.762C120.769 165.07 120.125 165.224 119.388 165.224C118.38 165.224 117.54 164.986 116.868 164.51C116.196 164.034 115.799 163.385 115.678 162.564H116.938C117.078 163.031 117.367 163.404 117.806 163.684C118.245 163.973 118.772 164.118 119.388 164.118C120.088 164.118 120.657 163.899 121.096 163.46C121.544 163.021 121.768 162.405 121.768 161.612V160.002C121.516 160.45 121.143 160.823 120.648 161.122C120.153 161.421 119.575 161.57 118.912 161.57C118.231 161.57 117.61 161.402 117.05 161.066C116.499 160.73 116.065 160.259 115.748 159.652C115.431 159.045 115.272 158.355 115.272 157.58C115.272 156.796 115.431 156.11 115.748 155.522C116.065 154.925 116.499 154.463 117.05 154.136C117.61 153.809 118.231 153.646 118.912 153.646ZM121.768 157.594C121.768 157.015 121.651 156.511 121.418 156.082C121.185 155.653 120.867 155.326 120.466 155.102C120.074 154.869 119.64 154.752 119.164 154.752C118.688 154.752 118.254 154.864 117.862 155.088C117.47 155.312 117.157 155.639 116.924 156.068C116.691 156.497 116.574 157.001 116.574 157.58C116.574 158.168 116.691 158.681 116.924 159.12C117.157 159.549 117.47 159.881 117.862 160.114C118.254 160.338 118.688 160.45 119.164 160.45C119.64 160.45 120.074 160.338 120.466 160.114C120.867 159.881 121.185 159.549 121.418 159.12C121.651 158.681 121.768 158.173 121.768 157.594ZM128.466 157.594C128.466 156.801 128.624 156.11 128.942 155.522C129.259 154.925 129.698 154.463 130.258 154.136C130.827 153.809 131.476 153.646 132.204 153.646C133.146 153.646 133.921 153.875 134.528 154.332C135.144 154.789 135.55 155.424 135.746 156.236H134.374C134.243 155.769 133.986 155.401 133.604 155.13C133.23 154.859 132.764 154.724 132.204 154.724C131.476 154.724 130.888 154.976 130.44 155.48C129.992 155.975 129.768 156.679 129.768 157.594C129.768 158.518 129.992 159.232 130.44 159.736C130.888 160.24 131.476 160.492 132.204 160.492C132.764 160.492 133.23 160.361 133.604 160.1C133.977 159.839 134.234 159.465 134.374 158.98H135.746C135.54 159.764 135.13 160.394 134.514 160.87C133.898 161.337 133.128 161.57 132.204 161.57C131.476 161.57 130.827 161.407 130.258 161.08C129.698 160.753 129.259 160.291 128.942 159.694C128.624 159.097 128.466 158.397 128.466 157.594ZM141.253 153.632C141.832 153.632 142.355 153.758 142.821 154.01C143.288 154.253 143.652 154.621 143.913 155.116C144.184 155.611 144.319 156.213 144.319 156.922V161.444H143.059V157.104C143.059 156.339 142.868 155.755 142.485 155.354C142.103 154.943 141.58 154.738 140.917 154.738C140.245 154.738 139.709 154.948 139.307 155.368C138.915 155.788 138.719 156.399 138.719 157.202V161.444H137.445V151.084H138.719V154.864C138.971 154.472 139.317 154.169 139.755 153.954C140.203 153.739 140.703 153.632 141.253 153.632ZM153.401 157.314C153.401 157.557 153.387 157.813 153.359 158.084H147.227C147.273 158.84 147.53 159.433 147.997 159.862C148.473 160.282 149.047 160.492 149.719 160.492C150.269 160.492 150.727 160.366 151.091 160.114C151.464 159.853 151.725 159.507 151.875 159.078H153.247C153.041 159.815 152.631 160.417 152.015 160.884C151.399 161.341 150.633 161.57 149.719 161.57C148.991 161.57 148.337 161.407 147.759 161.08C147.189 160.753 146.741 160.291 146.415 159.694C146.088 159.087 145.925 158.387 145.925 157.594C145.925 156.801 146.083 156.105 146.401 155.508C146.718 154.911 147.161 154.453 147.731 154.136C148.309 153.809 148.972 153.646 149.719 153.646C150.447 153.646 151.091 153.805 151.651 154.122C152.211 154.439 152.64 154.878 152.939 155.438C153.247 155.989 153.401 156.614 153.401 157.314ZM152.085 157.048C152.085 156.563 151.977 156.147 151.763 155.802C151.548 155.447 151.254 155.181 150.881 155.004C150.517 154.817 150.111 154.724 149.663 154.724C149.019 154.724 148.468 154.929 148.011 155.34C147.563 155.751 147.306 156.32 147.241 157.048H152.085ZM154.606 157.594C154.606 156.801 154.765 156.11 155.082 155.522C155.399 154.925 155.838 154.463 156.398 154.136C156.967 153.809 157.616 153.646 158.344 153.646C159.287 153.646 160.061 153.875 160.668 154.332C161.284 154.789 161.69 155.424 161.886 156.236H160.514C160.383 155.769 160.127 155.401 159.744 155.13C159.371 154.859 158.904 154.724 158.344 154.724C157.616 154.724 157.028 154.976 156.58 155.48C156.132 155.975 155.908 156.679 155.908 157.594C155.908 158.518 156.132 159.232 156.58 159.736C157.028 160.24 157.616 160.492 158.344 160.492C158.904 160.492 159.371 160.361 159.744 160.1C160.117 159.839 160.374 159.465 160.514 158.98H161.886C161.681 159.764 161.27 160.394 160.654 160.87C160.038 161.337 159.268 161.57 158.344 161.57C157.616 161.57 156.967 161.407 156.398 161.08C155.838 160.753 155.399 160.291 155.082 159.694C154.765 159.097 154.606 158.397 154.606 157.594ZM167.87 161.444L164.86 158.056V161.444H163.586V151.084H164.86V157.174L167.814 153.772H169.592L165.98 157.594L169.606 161.444H167.87ZM176.111 155.774V156.852H170.525V155.774H176.111ZM179.16 152.526C178.917 152.526 178.712 152.442 178.544 152.274C178.376 152.106 178.292 151.901 178.292 151.658C178.292 151.415 178.376 151.21 178.544 151.042C178.712 150.874 178.917 150.79 179.16 150.79C179.393 150.79 179.589 150.874 179.748 151.042C179.916 151.21 180 151.415 180 151.658C180 151.901 179.916 152.106 179.748 152.274C179.589 152.442 179.393 152.526 179.16 152.526ZM179.776 153.772V161.444H178.502V153.772H179.776ZM185.685 153.632C186.619 153.632 187.375 153.917 187.953 154.486C188.532 155.046 188.821 155.858 188.821 156.922V161.444H187.561V157.104C187.561 156.339 187.37 155.755 186.987 155.354C186.605 154.943 186.082 154.738 185.419 154.738C184.747 154.738 184.211 154.948 183.809 155.368C183.417 155.788 183.221 156.399 183.221 157.202V161.444H181.947V153.772H183.221V154.864C183.473 154.472 183.814 154.169 184.243 153.954C184.682 153.739 185.163 153.632 185.685 153.632ZM28.6905 175.822H27.0805V182.444H25.8065V175.822H24.8125V174.772H25.8065V174.226C25.8065 173.367 26.0258 172.742 26.4645 172.35C26.9125 171.949 27.6265 171.748 28.6065 171.748V172.812C28.0465 172.812 27.6498 172.924 27.4165 173.148C27.1925 173.363 27.0805 173.722 27.0805 174.226V174.772H28.6905V175.822ZM31.4499 176.018C31.6739 175.579 31.9912 175.239 32.4019 174.996C32.8219 174.753 33.3306 174.632 33.9279 174.632V175.948H33.5919C32.1639 175.948 31.4499 176.723 31.4499 178.272V182.444H30.1759V174.772H31.4499V176.018ZM38.7446 182.57C38.0259 182.57 37.3726 182.407 36.7846 182.08C36.2059 181.753 35.7486 181.291 35.4126 180.694C35.0859 180.087 34.9226 179.387 34.9226 178.594C34.9226 177.81 35.0906 177.119 35.4266 176.522C35.7719 175.915 36.2386 175.453 36.8266 175.136C37.4146 174.809 38.0726 174.646 38.8006 174.646C39.5286 174.646 40.1866 174.809 40.7746 175.136C41.3626 175.453 41.8246 175.911 42.1606 176.508C42.5059 177.105 42.6786 177.801 42.6786 178.594C42.6786 179.387 42.5012 180.087 42.1466 180.694C41.8012 181.291 41.3299 181.753 40.7326 182.08C40.1352 182.407 39.4726 182.57 38.7446 182.57ZM38.7446 181.45C39.2019 181.45 39.6312 181.343 40.0326 181.128C40.4339 180.913 40.7559 180.591 40.9986 180.162C41.2506 179.733 41.3766 179.21 41.3766 178.594C41.3766 177.978 41.2552 177.455 41.0126 177.026C40.7699 176.597 40.4526 176.279 40.0606 176.074C39.6686 175.859 39.2439 175.752 38.7866 175.752C38.3199 175.752 37.8906 175.859 37.4986 176.074C37.1159 176.279 36.8079 176.597 36.5746 177.026C36.3412 177.455 36.2246 177.978 36.2246 178.594C36.2246 179.219 36.3366 179.747 36.5606 180.176C36.7939 180.605 37.1019 180.927 37.4846 181.142C37.8672 181.347 38.2872 181.45 38.7446 181.45ZM53.5796 174.632C54.177 174.632 54.709 174.758 55.1756 175.01C55.6423 175.253 56.011 175.621 56.2816 176.116C56.5523 176.611 56.6876 177.213 56.6876 177.922V182.444H55.4276V178.104C55.4276 177.339 55.2363 176.755 54.8536 176.354C54.4803 175.943 53.9716 175.738 53.3276 175.738C52.665 175.738 52.1376 175.953 51.7456 176.382C51.3536 176.802 51.1576 177.413 51.1576 178.216V182.444H49.8976V178.104C49.8976 177.339 49.7063 176.755 49.3236 176.354C48.9503 175.943 48.4416 175.738 47.7976 175.738C47.135 175.738 46.6076 175.953 46.2156 176.382C45.8236 176.802 45.6276 177.413 45.6276 178.216V182.444H44.3536V174.772H45.6276V175.878C45.8796 175.477 46.2156 175.169 46.6356 174.954C47.065 174.739 47.5363 174.632 48.0496 174.632C48.6936 174.632 49.263 174.777 49.7576 175.066C50.2523 175.355 50.621 175.78 50.8636 176.34C51.0783 175.799 51.433 175.379 51.9276 175.08C52.4223 174.781 52.973 174.632 53.5796 174.632ZM69.1179 174.772L64.4979 186.056H63.1819L64.6939 182.36L61.5999 174.772H63.0139L65.4219 180.988L67.8019 174.772H69.1179ZM73.7446 182.57C73.0259 182.57 72.3726 182.407 71.7846 182.08C71.2059 181.753 70.7486 181.291 70.4126 180.694C70.0859 180.087 69.9226 179.387 69.9226 178.594C69.9226 177.81 70.0906 177.119 70.4266 176.522C70.7719 175.915 71.2386 175.453 71.8266 175.136C72.4146 174.809 73.0726 174.646 73.8006 174.646C74.5286 174.646 75.1866 174.809 75.7746 175.136C76.3626 175.453 76.8246 175.911 77.1606 176.508C77.5059 177.105 77.6786 177.801 77.6786 178.594C77.6786 179.387 77.5012 180.087 77.1466 180.694C76.8012 181.291 76.3299 181.753 75.7326 182.08C75.1352 182.407 74.4726 182.57 73.7446 182.57ZM73.7446 181.45C74.2019 181.45 74.6312 181.343 75.0326 181.128C75.4339 180.913 75.7559 180.591 75.9986 180.162C76.2506 179.733 76.3766 179.21 76.3766 178.594C76.3766 177.978 76.2552 177.455 76.0126 177.026C75.7699 176.597 75.4526 176.279 75.0606 176.074C74.6686 175.859 74.2439 175.752 73.7866 175.752C73.3199 175.752 72.8906 175.859 72.4986 176.074C72.1159 176.279 71.8079 176.597 71.5746 177.026C71.3412 177.455 71.2246 177.978 71.2246 178.594C71.2246 179.219 71.3366 179.747 71.5606 180.176C71.7939 180.605 72.1019 180.927 72.4846 181.142C72.8672 181.347 73.2872 181.45 73.7446 181.45ZM86.1576 174.772V182.444H84.8836V181.31C84.641 181.702 84.3003 182.01 83.8616 182.234C83.4323 182.449 82.9563 182.556 82.4336 182.556C81.8363 182.556 81.2996 182.435 80.8236 182.192C80.3476 181.94 79.9696 181.567 79.6896 181.072C79.419 180.577 79.2836 179.975 79.2836 179.266V174.772H80.5436V179.098C80.5436 179.854 80.735 180.437 81.1176 180.848C81.5003 181.249 82.023 181.45 82.6856 181.45C83.367 181.45 83.9036 181.24 84.2956 180.82C84.6876 180.4 84.8836 179.789 84.8836 178.986V174.772H86.1576ZM89.5827 176.018C89.8067 175.579 90.124 175.239 90.5347 174.996C90.9547 174.753 91.4634 174.632 92.0607 174.632V175.948H91.7247C90.2967 175.948 89.5827 176.723 89.5827 178.272V182.444H88.3087V174.772H89.5827V176.018ZM98.8178 175.822V180.344C98.8178 180.717 98.8971 180.983 99.0558 181.142C99.2145 181.291 99.4898 181.366 99.8818 181.366H100.82V182.444H99.6718C98.9625 182.444 98.4305 182.281 98.0758 181.954C97.7211 181.627 97.5438 181.091 97.5438 180.344V175.822H96.5498V174.772H97.5438V172.84H98.8178V174.772H100.82V175.822H98.8178ZM109.363 178.314C109.363 178.557 109.349 178.813 109.321 179.084H103.189C103.236 179.84 103.493 180.433 103.959 180.862C104.435 181.282 105.009 181.492 105.681 181.492C106.232 181.492 106.689 181.366 107.053 181.114C107.427 180.853 107.688 180.507 107.837 180.078H109.209C109.004 180.815 108.593 181.417 107.977 181.884C107.361 182.341 106.596 182.57 105.681 182.57C104.953 182.57 104.3 182.407 103.721 182.08C103.152 181.753 102.704 181.291 102.377 180.694C102.051 180.087 101.887 179.387 101.887 178.594C101.887 177.801 102.046 177.105 102.363 176.508C102.681 175.911 103.124 175.453 103.693 175.136C104.272 174.809 104.935 174.646 105.681 174.646C106.409 174.646 107.053 174.805 107.613 175.122C108.173 175.439 108.603 175.878 108.901 176.438C109.209 176.989 109.363 177.614 109.363 178.314ZM108.047 178.048C108.047 177.563 107.94 177.147 107.725 176.802C107.511 176.447 107.217 176.181 106.843 176.004C106.479 175.817 106.073 175.724 105.625 175.724C104.981 175.724 104.431 175.929 103.973 176.34C103.525 176.751 103.269 177.32 103.203 178.048H108.047ZM120.271 174.632C120.868 174.632 121.4 174.758 121.867 175.01C122.334 175.253 122.702 175.621 122.973 176.116C123.244 176.611 123.379 177.213 123.379 177.922V182.444H122.119V178.104C122.119 177.339 121.928 176.755 121.545 176.354C121.172 175.943 120.663 175.738 120.019 175.738C119.356 175.738 118.829 175.953 118.437 176.382C118.045 176.802 117.849 177.413 117.849 178.216V182.444H116.589V178.104C116.589 177.339 116.398 176.755 116.015 176.354C115.642 175.943 115.133 175.738 114.489 175.738C113.826 175.738 113.299 175.953 112.907 176.382C112.515 176.802 112.319 177.413 112.319 178.216V182.444H111.045V174.772H112.319V175.878C112.571 175.477 112.907 175.169 113.327 174.954C113.756 174.739 114.228 174.632 114.741 174.632C115.385 174.632 115.954 174.777 116.449 175.066C116.944 175.355 117.312 175.78 117.555 176.34C117.77 175.799 118.124 175.379 118.619 175.08C119.114 174.781 119.664 174.632 120.271 174.632ZM126.743 176.186C126.995 175.747 127.368 175.383 127.863 175.094C128.367 174.795 128.95 174.646 129.613 174.646C130.294 174.646 130.91 174.809 131.461 175.136C132.021 175.463 132.46 175.925 132.777 176.522C133.094 177.11 133.253 177.796 133.253 178.58C133.253 179.355 133.094 180.045 132.777 180.652C132.46 181.259 132.021 181.73 131.461 182.066C130.91 182.402 130.294 182.57 129.613 182.57C128.96 182.57 128.381 182.425 127.877 182.136C127.382 181.837 127.004 181.469 126.743 181.03V186.084H125.469V174.772H126.743V176.186ZM131.951 178.58C131.951 178.001 131.834 177.497 131.601 177.068C131.368 176.639 131.05 176.312 130.649 176.088C130.257 175.864 129.823 175.752 129.347 175.752C128.88 175.752 128.446 175.869 128.045 176.102C127.653 176.326 127.336 176.657 127.093 177.096C126.86 177.525 126.743 178.025 126.743 178.594C126.743 179.173 126.86 179.681 127.093 180.12C127.336 180.549 127.653 180.881 128.045 181.114C128.446 181.338 128.88 181.45 129.347 181.45C129.823 181.45 130.257 181.338 130.649 181.114C131.05 180.881 131.368 180.549 131.601 180.12C131.834 179.681 131.951 179.168 131.951 178.58ZM136.204 172.084V182.444H134.93V172.084H136.204ZM137.899 178.58C137.899 177.796 138.058 177.11 138.375 176.522C138.692 175.925 139.126 175.463 139.677 175.136C140.237 174.809 140.858 174.646 141.539 174.646C142.211 174.646 142.794 174.791 143.289 175.08C143.784 175.369 144.152 175.733 144.395 176.172V174.772H145.683V182.444H144.395V181.016C144.143 181.464 143.765 181.837 143.261 182.136C142.766 182.425 142.188 182.57 141.525 182.57C140.844 182.57 140.228 182.402 139.677 182.066C139.126 181.73 138.692 181.259 138.375 180.652C138.058 180.045 137.899 179.355 137.899 178.58ZM144.395 178.594C144.395 178.015 144.278 177.511 144.045 177.082C143.812 176.653 143.494 176.326 143.093 176.102C142.701 175.869 142.267 175.752 141.791 175.752C141.315 175.752 140.881 175.864 140.489 176.088C140.097 176.312 139.784 176.639 139.551 177.068C139.318 177.497 139.201 178.001 139.201 178.58C139.201 179.168 139.318 179.681 139.551 180.12C139.784 180.549 140.097 180.881 140.489 181.114C140.881 181.338 141.315 181.45 141.791 181.45C142.267 181.45 142.701 181.338 143.093 181.114C143.494 180.881 143.812 180.549 144.045 180.12C144.278 179.681 144.395 179.173 144.395 178.594ZM149.39 175.822V180.344C149.39 180.717 149.469 180.983 149.628 181.142C149.787 181.291 150.062 181.366 150.454 181.366H151.392V182.444H150.244C149.535 182.444 149.003 182.281 148.648 181.954C148.293 181.627 148.116 181.091 148.116 180.344V175.822H147.122V174.772H148.116V172.84H149.39V174.772H151.392V175.822H149.39ZM159.936 178.314C159.936 178.557 159.922 178.813 159.894 179.084H153.762C153.808 179.84 154.065 180.433 154.532 180.862C155.008 181.282 155.582 181.492 156.254 181.492C156.804 181.492 157.262 181.366 157.626 181.114C157.999 180.853 158.26 180.507 158.41 180.078H159.782C159.576 180.815 159.166 181.417 158.55 181.884C157.934 182.341 157.168 182.57 156.254 182.57C155.526 182.57 154.872 182.407 154.294 182.08C153.724 181.753 153.276 181.291 152.95 180.694C152.623 180.087 152.46 179.387 152.46 178.594C152.46 177.801 152.618 177.105 152.936 176.508C153.253 175.911 153.696 175.453 154.266 175.136C154.844 174.809 155.507 174.646 156.254 174.646C156.982 174.646 157.626 174.805 158.186 175.122C158.746 175.439 159.175 175.878 159.474 176.438C159.782 176.989 159.936 177.614 159.936 178.314ZM158.62 178.048C158.62 177.563 158.512 177.147 158.298 176.802C158.083 176.447 157.789 176.181 157.416 176.004C157.052 175.817 156.646 175.724 156.198 175.724C155.554 175.724 155.003 175.929 154.546 176.34C154.098 176.751 153.841 177.32 153.776 178.048H158.62ZM164.333 182.57C163.745 182.57 163.218 182.472 162.751 182.276C162.285 182.071 161.916 181.791 161.645 181.436C161.375 181.072 161.225 180.657 161.197 180.19H162.513C162.551 180.573 162.728 180.885 163.045 181.128C163.372 181.371 163.797 181.492 164.319 181.492C164.805 181.492 165.187 181.385 165.467 181.17C165.747 180.955 165.887 180.685 165.887 180.358C165.887 180.022 165.738 179.775 165.439 179.616C165.141 179.448 164.679 179.285 164.053 179.126C163.484 178.977 163.017 178.827 162.653 178.678C162.299 178.519 161.991 178.291 161.729 177.992C161.477 177.684 161.351 177.283 161.351 176.788C161.351 176.396 161.468 176.037 161.701 175.71C161.935 175.383 162.266 175.127 162.695 174.94C163.125 174.744 163.615 174.646 164.165 174.646C165.015 174.646 165.701 174.861 166.223 175.29C166.746 175.719 167.026 176.307 167.063 177.054H165.789C165.761 176.653 165.598 176.331 165.299 176.088C165.01 175.845 164.618 175.724 164.123 175.724C163.666 175.724 163.302 175.822 163.031 176.018C162.761 176.214 162.625 176.471 162.625 176.788C162.625 177.04 162.705 177.25 162.863 177.418C163.031 177.577 163.237 177.707 163.479 177.81C163.731 177.903 164.077 178.011 164.515 178.132C165.066 178.281 165.514 178.431 165.859 178.58C166.205 178.72 166.499 178.935 166.741 179.224C166.993 179.513 167.124 179.891 167.133 180.358C167.133 180.778 167.017 181.156 166.783 181.492C166.55 181.828 166.219 182.094 165.789 182.29C165.369 182.477 164.884 182.57 164.333 182.57Z" fill="black"/>
<path fill-rule="evenodd" clip-rule="evenodd" d="M61.2663 4.69864C62.8146 3.15034 64.9145 2.28052 67.1041 2.28052H124.896C127.086 2.28052 129.185 3.15034 130.734 4.69864C132.282 6.24693 133.152 8.34687 133.152 10.5365V18.7925C133.152 20.9821 132.282 23.082 130.734 24.6303C129.185 26.1786 127.086 27.0484 124.896 27.0484H67.1041C64.9145 27.0484 62.8146 26.1786 61.2663 24.6303C59.718 23.082 58.8481 20.9821 58.8481 18.7925V10.5365C58.8481 8.34686 59.718 6.24693 61.2663 4.69864ZM124.896 10.5365H67.1041L67.1041 18.7925H124.896V10.5365ZM61.2663 37.7225C62.8146 36.1742 64.9145 35.3044 67.1041 35.3044H91.872C94.0616 35.3044 96.1616 36.1742 97.7099 37.7225C99.2582 39.2708 100.128 41.3707 100.128 43.5604V68.3283C100.128 70.5179 99.2582 72.6178 97.7099 74.1661C96.1616 75.7144 94.0616 76.5842 91.872 76.5842H67.1041C64.9145 76.5842 62.8146 75.7144 61.2663 74.1661C59.718 72.6178 58.8481 70.5179 58.8481 68.3283V43.5604C58.8481 41.3707 59.718 39.2708 61.2663 37.7225ZM91.872 43.5604H67.1041L67.1041 68.3283H91.872V43.5604ZM110.802 37.7225C112.35 36.1742 114.45 35.3044 116.64 35.3044H124.896C127.086 35.3044 129.185 36.1742 130.734 37.7225C132.282 39.2708 133.152 41.3707 133.152 43.5604V68.3283C133.152 70.5179 132.282 72.6178 130.734 74.1661C129.185 75.7144 127.085 76.5842 124.896 76.5842H116.64C114.45 76.5842 112.35 75.7144 110.802 74.1661C109.254 72.6178 108.384 70.5179 108.384 68.3283V43.5604C108.384 41.3707 109.254 39.2708 110.802 37.7225ZM124.896 43.5604H116.64L116.64 68.3283H124.896V43.5604Z" fill="#FEAFB1" stroke="white" stroke-width="4" stroke-linecap="round" stroke-linejoin="round"/>
<path d="M41.7047 107.175L37.9287 114.455V118.343H35.6887V114.455L31.8967 107.175H34.4247L36.8247 112.279L39.2087 107.175H41.7047ZM46.9326 118.487C46.0792 118.487 45.3112 118.3 44.6286 117.927C43.9459 117.543 43.4072 117.004 43.0126 116.311C42.6286 115.618 42.4366 114.818 42.4366 113.911C42.4366 113.004 42.6339 112.204 43.0286 111.511C43.4339 110.818 43.9832 110.284 44.6766 109.911C45.3699 109.527 46.1432 109.335 46.9966 109.335C47.8499 109.335 48.6232 109.527 49.3166 109.911C50.0099 110.284 50.5539 110.818 50.9486 111.511C51.3539 112.204 51.5566 113.004 51.5566 113.911C51.5566 114.818 51.3486 115.618 50.9326 116.311C50.5272 117.004 49.9726 117.543 49.2686 117.927C48.5752 118.3 47.7966 118.487 46.9326 118.487ZM46.9326 116.535C47.3379 116.535 47.7166 116.439 48.0686 116.247C48.4312 116.044 48.7192 115.746 48.9326 115.351C49.1459 114.956 49.2526 114.476 49.2526 113.911C49.2526 113.068 49.0286 112.423 48.5806 111.975C48.1432 111.516 47.6046 111.287 46.9646 111.287C46.3246 111.287 45.7859 111.516 45.3486 111.975C44.9219 112.423 44.7086 113.068 44.7086 113.911C44.7086 114.754 44.9166 115.404 45.3326 115.863C45.7592 116.311 46.2926 116.535 46.9326 116.535ZM61.5677 109.479V118.343H59.3117V117.223C59.0237 117.607 58.645 117.911 58.1757 118.135C57.717 118.348 57.2157 118.455 56.6717 118.455C55.9784 118.455 55.365 118.311 54.8317 118.023C54.2984 117.724 53.877 117.292 53.5677 116.727C53.269 116.151 53.1197 115.468 53.1197 114.679V109.479H55.3597V114.359C55.3597 115.063 55.5357 115.607 55.8877 115.991C56.2397 116.364 56.7197 116.551 57.3277 116.551C57.9464 116.551 58.4317 116.364 58.7837 115.991C59.1357 115.607 59.3117 115.063 59.3117 114.359V109.479H61.5677ZM66.0178 110.855C66.3058 110.386 66.6792 110.018 67.1378 109.751C67.6072 109.484 68.1405 109.351 68.7378 109.351V111.703H68.1458C67.4418 111.703 66.9085 111.868 66.5458 112.199C66.1938 112.53 66.0178 113.106 66.0178 113.927V118.343H63.7778V109.479H66.0178V110.855ZM81.6591 107.175V108.983H78.6831V118.343H76.4431V108.983H73.4671V107.175H81.6591ZM91.5335 113.719C91.5335 114.039 91.5121 114.327 91.4695 114.583H84.9895C85.0428 115.223 85.2668 115.724 85.6615 116.087C86.0561 116.45 86.5415 116.631 87.1175 116.631C87.9495 116.631 88.5415 116.274 88.8935 115.559H91.3095C91.0535 116.412 90.5628 117.116 89.8375 117.671C89.1121 118.215 88.2215 118.487 87.1655 118.487C86.3121 118.487 85.5441 118.3 84.8615 117.927C84.1895 117.543 83.6615 117.004 83.2775 116.311C82.9041 115.618 82.7175 114.818 82.7175 113.911C82.7175 112.994 82.9041 112.188 83.2775 111.495C83.6508 110.802 84.1735 110.268 84.8455 109.895C85.5175 109.522 86.2908 109.335 87.1655 109.335C88.0081 109.335 88.7601 109.516 89.4215 109.879C90.0935 110.242 90.6108 110.759 90.9735 111.431C91.3468 112.092 91.5335 112.855 91.5335 113.719ZM89.2135 113.079C89.2028 112.503 88.9948 112.044 88.5895 111.703C88.1841 111.351 87.6881 111.175 87.1015 111.175C86.5468 111.175 86.0775 111.346 85.6935 111.687C85.3201 112.018 85.0908 112.482 85.0055 113.079H89.2135ZM104.176 109.351C105.264 109.351 106.139 109.687 106.8 110.359C107.472 111.02 107.808 111.948 107.808 113.143V118.343H105.568V113.447C105.568 112.754 105.392 112.226 105.04 111.863C104.688 111.49 104.208 111.303 103.6 111.303C102.992 111.303 102.507 111.49 102.144 111.863C101.792 112.226 101.616 112.754 101.616 113.447V118.343H99.3765V113.447C99.3765 112.754 99.2005 112.226 98.8485 111.863C98.4965 111.49 98.0165 111.303 97.4085 111.303C96.7898 111.303 96.2991 111.49 95.9365 111.863C95.5845 112.226 95.4085 112.754 95.4085 113.447V118.343H93.1685V109.479H95.4085V110.551C95.6965 110.178 96.0645 109.884 96.5125 109.671C96.9711 109.458 97.4725 109.351 98.0165 109.351C98.7098 109.351 99.3285 109.5 99.8725 109.799C100.416 110.087 100.838 110.503 101.136 111.047C101.424 110.535 101.84 110.124 102.384 109.815C102.939 109.506 103.536 109.351 104.176 109.351ZM112.174 110.759C112.462 110.354 112.857 110.018 113.358 109.751C113.87 109.474 114.451 109.335 115.102 109.335C115.859 109.335 116.542 109.522 117.15 109.895C117.769 110.268 118.254 110.802 118.606 111.495C118.969 112.178 119.15 112.972 119.15 113.879C119.15 114.786 118.969 115.591 118.606 116.295C118.254 116.988 117.769 117.527 117.15 117.911C116.542 118.295 115.859 118.487 115.102 118.487C114.451 118.487 113.875 118.354 113.374 118.087C112.883 117.82 112.483 117.484 112.174 117.079V122.567H109.934V109.479H112.174V110.759ZM116.862 113.879C116.862 113.346 116.75 112.887 116.526 112.503C116.313 112.108 116.025 111.81 115.662 111.607C115.31 111.404 114.926 111.303 114.51 111.303C114.105 111.303 113.721 111.41 113.358 111.623C113.006 111.826 112.718 112.124 112.494 112.519C112.281 112.914 112.174 113.378 112.174 113.911C112.174 114.444 112.281 114.908 112.494 115.303C112.718 115.698 113.006 116.002 113.358 116.215C113.721 116.418 114.105 116.519 114.51 116.519C114.926 116.519 115.31 116.412 115.662 116.199C116.025 115.986 116.313 115.682 116.526 115.287C116.75 114.892 116.862 114.423 116.862 113.879ZM123.018 106.503V118.343H120.778V106.503H123.018ZM124.655 113.879C124.655 112.983 124.831 112.188 125.183 111.495C125.546 110.802 126.031 110.268 126.639 109.895C127.258 109.522 127.946 109.335 128.703 109.335C129.364 109.335 129.94 109.468 130.431 109.735C130.932 110.002 131.332 110.338 131.631 110.743V109.479H133.887V118.343H131.631V117.047C131.343 117.463 130.943 117.81 130.431 118.087C129.93 118.354 129.348 118.487 128.687 118.487C127.94 118.487 127.258 118.295 126.639 117.911C126.031 117.527 125.546 116.988 125.183 116.295C124.831 115.591 124.655 114.786 124.655 113.879ZM131.631 113.911C131.631 113.367 131.524 112.903 131.311 112.519C131.098 112.124 130.81 111.826 130.447 111.623C130.084 111.41 129.695 111.303 129.279 111.303C128.863 111.303 128.479 111.404 128.127 111.607C127.775 111.81 127.487 112.108 127.263 112.503C127.05 112.887 126.943 113.346 126.943 113.879C126.943 114.412 127.05 114.882 127.263 115.287C127.487 115.682 127.775 115.986 128.127 116.199C128.49 116.412 128.874 116.519 129.279 116.519C129.695 116.519 130.084 116.418 130.447 116.215C130.81 116.002 131.098 115.703 131.311 115.319C131.524 114.924 131.631 114.455 131.631 113.911ZM138.683 111.319V115.607C138.683 115.906 138.752 116.124 138.891 116.263C139.04 116.391 139.285 116.455 139.627 116.455H140.667V118.343H139.259C137.371 118.343 136.427 117.426 136.427 115.591V111.319H135.371V109.479H136.427V107.287H138.683V109.479H140.667V111.319H138.683ZM150.518 113.719C150.518 114.039 150.496 114.327 150.454 114.583H143.974C144.027 115.223 144.251 115.724 144.646 116.087C145.04 116.45 145.526 116.631 146.102 116.631C146.934 116.631 147.526 116.274 147.878 115.559H150.294C150.038 116.412 149.547 117.116 148.822 117.671C148.096 118.215 147.206 118.487 146.15 118.487C145.296 118.487 144.528 118.3 143.846 117.927C143.174 117.543 142.646 117.004 142.262 116.311C141.888 115.618 141.702 114.818 141.702 113.911C141.702 112.994 141.888 112.188 142.262 111.495C142.635 110.802 143.158 110.268 143.83 109.895C144.502 109.522 145.275 109.335 146.15 109.335C146.992 109.335 147.744 109.516 148.406 109.879C149.078 110.242 149.595 110.759 149.958 111.431C150.331 112.092 150.518 112.855 150.518 113.719ZM148.198 113.079C148.187 112.503 147.979 112.044 147.574 111.703C147.168 111.351 146.672 111.175 146.086 111.175C145.531 111.175 145.062 111.346 144.678 111.687C144.304 112.018 144.075 112.482 143.99 113.079H148.198ZM155.545 118.487C154.819 118.487 154.169 118.359 153.593 118.103C153.017 117.836 152.558 117.479 152.217 117.031C151.886 116.583 151.705 116.087 151.673 115.543H153.929C153.971 115.884 154.137 116.167 154.425 116.391C154.723 116.615 155.091 116.727 155.529 116.727C155.955 116.727 156.286 116.642 156.521 116.471C156.766 116.3 156.889 116.082 156.889 115.815C156.889 115.527 156.739 115.314 156.441 115.175C156.153 115.026 155.689 114.866 155.049 114.695C154.387 114.535 153.843 114.37 153.417 114.199C153.001 114.028 152.638 113.767 152.329 113.415C152.03 113.063 151.881 112.588 151.881 111.991C151.881 111.5 152.019 111.052 152.297 110.647C152.585 110.242 152.99 109.922 153.513 109.687C154.046 109.452 154.67 109.335 155.385 109.335C156.441 109.335 157.283 109.602 157.913 110.135C158.542 110.658 158.889 111.367 158.953 112.263H156.809C156.777 111.911 156.627 111.634 156.361 111.431C156.105 111.218 155.758 111.111 155.321 111.111C154.915 111.111 154.601 111.186 154.377 111.335C154.163 111.484 154.057 111.692 154.057 111.959C154.057 112.258 154.206 112.487 154.505 112.647C154.803 112.796 155.267 112.951 155.897 113.111C156.537 113.271 157.065 113.436 157.481 113.607C157.897 113.778 158.254 114.044 158.553 114.407C158.862 114.759 159.022 115.228 159.033 115.815C159.033 116.327 158.889 116.786 158.601 117.191C158.323 117.596 157.918 117.916 157.385 118.151C156.862 118.375 156.249 118.487 155.545 118.487Z" fill="black"/>
</svg>
