<svg width="22" height="22" viewBox="0 0 22 22" fill="none" xmlns="http://www.w3.org/2000/svg">
<path d="M11.1963 17.6353L15.4181 13.4148L14.5145 12.5112L11.8344 15.1913V9.19298H10.5582V15.1913L7.87805 12.5112L6.97447 13.4148L11.1963 17.6353ZM2.26257 5.65906V19.1579C2.26257 19.3868 2.33617 19.5748 2.48336 19.722C2.63056 19.8692 2.81902 19.9428 3.04874 19.9428H19.3451C19.574 19.9428 19.762 19.8692 19.9092 19.722C20.0564 19.5748 20.13 19.3868 20.13 19.1579V5.65906H2.26257ZM3.24528 21.219C2.67352 21.219 2.15409 20.9855 1.68699 20.5184C1.21988 20.0513 0.986328 19.5323 0.986328 18.9614V5.24811C0.986328 4.99967 1.02589 4.76569 1.10502 4.54617C1.18415 4.32666 1.30326 4.12459 1.46237 3.93996L3.45076 1.55338C3.63539 1.30409 3.86639 1.11605 4.14376 0.989279C4.42113 0.862505 4.71849 0.799118 5.03585 0.799118H17.3082C17.6247 0.799118 17.9259 0.862505 18.2118 0.989279C18.4977 1.11605 18.7329 1.30366 18.9176 1.5521L20.9302 3.98973C21.0893 4.17436 21.2084 4.38069 21.2876 4.60871C21.3667 4.83588 21.4062 5.07411 21.4062 5.32341V18.9601C21.4062 19.531 21.1727 20.05 20.7056 20.5171C20.2385 20.9842 19.7195 21.2178 19.1486 21.2178L3.24528 21.219ZM2.74755 4.38281H19.6195L17.9221 2.34337C17.8396 2.2617 17.7451 2.19661 17.6388 2.14811C17.5324 2.09961 17.4218 2.07536 17.307 2.07536H5.0601C4.94609 2.07536 4.83548 2.10004 4.72828 2.14939C4.62107 2.19873 4.52748 2.26425 4.4475 2.34593L2.74755 4.38281Z" fill="black"/>
</svg>
