<svg width="17" height="17" viewBox="0 0 17 17" fill="none" xmlns="http://www.w3.org/2000/svg">
<path d="M10.6011 8.40386L3.84422 15.1607C3.52319 15.4818 3.08776 15.6621 2.63375 15.6621C2.17973 15.6621 1.74431 15.4818 1.42327 15.1607C1.10223 14.8397 0.921875 14.4043 0.921875 13.9503C0.921875 13.4963 1.10223 13.0608 1.42327 12.7398L8.18015 5.98291M13.0221 10.8248L16.25 7.59688" stroke="black" stroke-width="1.5" stroke-linecap="round" stroke-linejoin="round"/>
<path d="M15.849 8.00054L14.3045 6.45597C14.0018 6.15336 13.8317 5.74291 13.8316 5.31489V4.3691L12.0078 2.54532C11.1076 1.64568 9.88945 1.13661 8.61683 1.12825L5.76172 1.10889L6.50414 1.77061C7.03147 2.23817 7.45372 2.81219 7.74304 3.45483C8.03237 4.09746 8.1822 4.79412 8.18267 5.49888V6.79006L9.79664 8.40403H10.7424C11.1704 8.40412 11.5809 8.57422 11.8835 8.87692L13.4281 10.4215" stroke="black" stroke-width="1.5" stroke-linecap="round" stroke-linejoin="round"/>
</svg>
