<svg width="18" height="18" viewBox="0 0 18 18" fill="none" xmlns="http://www.w3.org/2000/svg">
<path fill-rule="evenodd" clip-rule="evenodd" d="M2.86886 3.03659C2.21795 3.03659 1.69029 3.56425 1.69029 4.21516V14.8223C1.69029 15.4732 2.21795 16.0009 2.86886 16.0009H14.6546C15.3055 16.0009 15.8331 15.4732 15.8331 14.8223V4.21516C15.8331 3.56425 15.3055 3.03659 14.6546 3.03659H2.86886ZM0.511719 4.21516C0.511719 2.91334 1.56705 1.85802 2.86886 1.85802H14.6546C15.9564 1.85802 17.0117 2.91334 17.0117 4.21516V14.8223C17.0117 16.1241 15.9564 17.1794 14.6546 17.1794H2.86886C1.56705 17.1794 0.511719 16.1241 0.511719 14.8223V4.21516Z" fill="black"/>
<path d="M10.2355 8.92944C10.7237 8.92944 11.1194 8.5337 11.1194 8.04552C11.1194 7.55734 10.7237 7.16159 10.2355 7.16159C9.74731 7.16159 9.35156 7.55734 9.35156 8.04552C9.35156 8.5337 9.74731 8.92944 10.2355 8.92944Z" fill="black"/>
<path d="M13.1808 8.92944C13.669 8.92944 14.0647 8.5337 14.0647 8.04552C14.0647 7.55734 13.669 7.16159 13.1808 7.16159C12.6926 7.16159 12.2969 7.55734 12.2969 8.04552C12.2969 8.5337 12.6926 8.92944 13.1808 8.92944Z" fill="black"/>
<path d="M10.2355 11.8759C10.7237 11.8759 11.1194 11.4801 11.1194 10.9919C11.1194 10.5038 10.7237 10.108 10.2355 10.108C9.74731 10.108 9.35156 10.5038 9.35156 10.9919C9.35156 11.4801 9.74731 11.8759 10.2355 11.8759Z" fill="black"/>
<path d="M13.1808 11.8759C13.669 11.8759 14.0647 11.4801 14.0647 10.9919C14.0647 10.5038 13.669 10.108 13.1808 10.108C12.6926 10.108 12.2969 10.5038 12.2969 10.9919C12.2969 11.4801 12.6926 11.8759 13.1808 11.8759Z" fill="black"/>
<path d="M4.34487 11.8759C4.83305 11.8759 5.22879 11.4801 5.22879 10.9919C5.22879 10.5038 4.83305 10.108 4.34487 10.108C3.85669 10.108 3.46094 10.5038 3.46094 10.9919C3.46094 11.4801 3.85669 11.8759 4.34487 11.8759Z" fill="black"/>
<path d="M7.29018 11.8759C7.77836 11.8759 8.17411 11.4801 8.17411 10.9919C8.17411 10.5038 7.77836 10.108 7.29018 10.108C6.802 10.108 6.40625 10.5038 6.40625 10.9919C6.40625 11.4801 6.802 11.8759 7.29018 11.8759Z" fill="black"/>
<path d="M4.34487 14.8223C4.83305 14.8223 5.22879 14.4266 5.22879 13.9384C5.22879 13.4502 4.83305 13.0544 4.34487 13.0544C3.85669 13.0544 3.46094 13.4502 3.46094 13.9384C3.46094 14.4266 3.85669 14.8223 4.34487 14.8223Z" fill="black"/>
<path d="M7.29018 14.8223C7.77836 14.8223 8.17411 14.4266 8.17411 13.9384C8.17411 13.4502 7.77836 13.0544 7.29018 13.0544C6.802 13.0544 6.40625 13.4502 6.40625 13.9384C6.40625 14.4266 6.802 14.8223 7.29018 14.8223Z" fill="black"/>
<path d="M10.2355 14.8223C10.7237 14.8223 11.1194 14.4266 11.1194 13.9384C11.1194 13.4502 10.7237 13.0544 10.2355 13.0544C9.74731 13.0544 9.35156 13.4502 9.35156 13.9384C9.35156 14.4266 9.74731 14.8223 10.2355 14.8223Z" fill="black"/>
<path fill-rule="evenodd" clip-rule="evenodd" d="M4.05022 0.679443C4.37568 0.679443 4.63951 0.943276 4.63951 1.26873V2.4473C4.63951 2.77275 4.37568 3.03659 4.05022 3.03659C3.72477 3.03659 3.46094 2.77275 3.46094 2.4473V1.26873C3.46094 0.943276 3.72477 0.679443 4.05022 0.679443ZM13.4788 0.679443C13.8042 0.679443 14.0681 0.943276 14.0681 1.26873V2.4473C14.0681 2.77275 13.8042 3.03659 13.4788 3.03659C13.1533 3.03659 12.8895 2.77275 12.8895 2.4473V1.26873C12.8895 0.943276 13.1533 0.679443 13.4788 0.679443Z" fill="black"/>
<path fill-rule="evenodd" clip-rule="evenodd" d="M1.10156 4.80444H16.423V5.98301H1.10156V4.80444Z" fill="black"/>
</svg>
