<svg width="17" height="17" viewBox="0 0 17 17" fill="none" xmlns="http://www.w3.org/2000/svg">
<path d="M7.3898 9.98508L12.1298 5.32808C12.1765 5.28102 12.232 5.24371 12.2932 5.2183C12.3544 5.19289 12.42 5.1799 12.4863 5.18009C12.5525 5.18027 12.6181 5.19362 12.6792 5.21937C12.7402 5.24511 12.7956 5.28273 12.8419 5.33005C12.8883 5.37736 12.9248 5.43343 12.9494 5.49498C12.9739 5.55654 12.986 5.62235 12.9848 5.68861C12.9837 5.75486 12.9694 5.82022 12.9428 5.88091C12.9162 5.94159 12.8778 5.99638 12.8298 6.04208L7.7398 11.0421C7.64629 11.134 7.52042 11.1855 7.3893 11.1855C7.25818 11.1855 7.13231 11.134 7.0388 11.0421L4.1288 8.18508C4.08192 8.13906 4.04456 8.08424 4.01887 8.02378C3.99317 7.96331 3.97963 7.89838 3.97903 7.83268C3.97842 7.76698 3.99076 7.70181 4.01535 7.64088C4.03993 7.57995 4.07627 7.52447 4.1223 7.47758C4.16833 7.4307 4.22314 7.39335 4.28361 7.36765C4.34407 7.34195 4.40901 7.32841 4.47471 7.32781C4.5404 7.3272 4.60558 7.33954 4.6665 7.36413C4.72743 7.38871 4.78292 7.42506 4.8298 7.47108L7.3898 9.98508Z" fill="black"/>
<path fill-rule="evenodd" clip-rule="evenodd" d="M8.47998 16.1851C6.35825 16.1851 4.32342 15.3422 2.82313 13.8419C1.32284 12.3417 0.47998 10.3068 0.47998 8.18509C0.47998 6.06336 1.32284 4.02853 2.82313 2.52823C4.32342 1.02794 6.35825 0.185089 8.47998 0.185089C10.6017 0.185089 12.6365 1.02794 14.1368 2.52823C15.6371 4.02853 16.48 6.06336 16.48 8.18509C16.48 10.3068 15.6371 12.3417 14.1368 13.8419C12.6365 15.3422 10.6017 16.1851 8.47998 16.1851ZM8.47998 15.1851C6.62347 15.1851 4.84299 14.4476 3.53023 13.1348C2.21748 11.8221 1.47998 10.0416 1.47998 8.18509C1.47998 6.32857 2.21748 4.5481 3.53023 3.23534C4.84299 1.92259 6.62347 1.18509 8.47998 1.18509C10.3365 1.18509 12.117 1.92259 13.4297 3.23534C14.7425 4.5481 15.48 6.32857 15.48 8.18509C15.48 10.0416 14.7425 11.8221 13.4297 13.1348C12.117 14.4476 10.3365 15.1851 8.47998 15.1851Z" fill="black"/>
</svg>
