<svg width="26" height="27" viewBox="0 0 26 27" fill="none" xmlns="http://www.w3.org/2000/svg">
<path d="M11.8926 9.5544L13.1377 10.2733L10.981 14.0089C10.5997 14.6694 10.4963 15.4543 10.6937 16.191C10.8911 16.9276 11.3731 17.5557 12.0336 17.9371L14.524 19.3749C15.1844 19.7562 15.9694 19.8596 16.706 19.6622C17.4427 19.4648 18.0708 18.9828 18.4522 18.3223L22.0467 12.0964C22.428 11.4359 22.5314 10.651 22.334 9.9143C22.1366 9.17762 21.6546 8.54953 20.9941 8.16819L18.5038 6.73037C18.0666 6.478 17.5707 6.34514 17.066 6.34515C16.5612 6.34515 16.0653 6.47802 15.6282 6.73041L14.261 5.94105C15.6115 4.78659 17.5952 4.54557 19.2214 5.48446L21.7118 6.92228C22.7025 7.49429 23.4255 8.43642 23.7216 9.54144C24.0177 10.6465 23.8626 11.8238 23.2906 12.8146L19.6961 19.0405C19.1241 20.0313 18.182 20.7542 17.0769 21.0503C15.9719 21.3464 14.7945 21.1914 13.8038 20.6194L11.3147 19.1823C10.3239 18.6103 9.601 17.6681 9.30492 16.5631C9.00883 15.4581 9.16383 14.2807 9.73583 13.29L11.8926 9.5544Z" fill="#FEAFB1"/>
<path d="M13.998 17.4106L12.7528 16.6917L14.9095 12.9561C15.2908 12.2956 15.3942 11.5107 15.1968 10.774C14.9994 10.0373 14.5174 9.40922 13.8569 9.02789L11.3666 7.59007C10.7061 7.20873 9.92115 7.1054 9.18447 7.30279C8.44779 7.50018 7.8197 7.98214 7.43836 8.64262L3.84381 14.8686C3.46248 15.5291 3.35914 16.314 3.55654 17.0507C3.75393 17.7873 4.23588 18.4154 4.89637 18.7968L7.38675 20.2346C7.8239 20.487 8.31977 20.6198 8.82454 20.6198C9.32931 20.6198 9.82518 20.4869 10.2623 20.2345L11.6295 21.0239C10.9512 21.6036 10.1097 21.9588 9.22114 22.0404C8.33254 22.122 7.44049 21.9262 6.66784 21.4798L4.17746 20.042C3.18673 19.47 2.4638 18.5278 2.16771 17.4228C1.87162 16.3178 2.02662 15.1404 2.59862 14.1497L6.19317 7.92371C6.76517 6.93298 7.70732 6.21005 8.81233 5.91396C9.91735 5.61787 11.0947 5.77288 12.0855 6.34488L14.5758 7.7827C15.5666 8.3547 16.2895 9.29684 16.5856 10.4019C16.8817 11.5069 16.7267 12.6843 16.1547 13.675L13.998 17.4106Z" fill="#FEAFB1"/>
</svg>
