<svg width="23" height="19" viewBox="0 0 23 19" fill="none" xmlns="http://www.w3.org/2000/svg">
<path d="M12.8187 11.3439C12.8187 11.4046 12.8553 11.4593 12.9113 11.4825C12.9674 11.5057 13.0319 11.4929 13.0748 11.45L15.3677 9.15708C15.6997 8.82513 16.2378 8.82513 16.5698 9.15708C16.9017 9.48902 16.9017 10.0272 16.5698 10.3592L12.5698 14.3592C12.2378 14.6911 11.6997 14.6911 11.3677 14.3592L7.36771 10.3592C7.03576 10.0272 7.03576 9.48902 7.36771 9.15708C7.69965 8.82513 8.23785 8.82513 8.56979 9.15708L10.8627 11.45C10.9056 11.4929 10.9701 11.5057 11.0262 11.4825C11.0822 11.4593 11.1188 11.4046 11.1188 11.3439V1.75812C11.1188 1.28868 11.4993 0.908118 11.9688 0.908118C12.4382 0.908118 12.8187 1.28868 12.8187 1.75812V11.3439Z" fill="#FEAFB1" stroke="#F6EAEC" stroke-width="0.3" stroke-linecap="round" stroke-linejoin="round"/>
<path d="M1.9535 3.74286C2.48797 3.20838 3.21288 2.90812 3.96875 2.90812H7.96875C8.43819 2.90812 8.81875 3.28868 8.81875 3.75812C8.81875 4.22756 8.43819 4.60812 7.96875 4.60812H3.96875C3.66375 4.60812 3.37124 4.72928 3.15558 4.94494C2.93991 5.16061 2.81875 5.45312 2.81875 5.75812V15.7581C2.81875 16.0631 2.93991 16.3556 3.15558 16.5713C3.37124 16.787 3.66375 16.9081 3.96875 16.9081H19.9688C20.2737 16.9081 20.5663 16.787 20.7819 16.5713C20.9976 16.3556 21.1187 16.0631 21.1187 15.7581V5.75812C21.1187 5.45312 20.9976 5.16061 20.7819 4.94494C20.5663 4.72928 20.2738 4.60812 19.9688 4.60812H15.9688C15.4993 4.60812 15.1187 4.22756 15.1187 3.75812C15.1187 3.28868 15.4993 2.90812 15.9688 2.90812H19.9688C20.7246 2.90812 21.4495 3.20838 21.984 3.74286C22.5185 4.27734 22.8188 5.00225 22.8188 5.75812V15.7581C22.8188 16.514 22.5185 17.2389 21.984 17.7734C21.4495 18.3078 20.7246 18.6081 19.9688 18.6081H3.96875C3.21288 18.6081 2.48797 18.3078 1.9535 17.7734C1.41902 17.2389 1.11875 16.514 1.11875 15.7581V5.75812C1.11875 5.00225 1.41902 4.27734 1.9535 3.74286Z" fill="#FEAFB1" stroke="#F6EAEC" stroke-width="0.3" stroke-linecap="round" stroke-linejoin="round"/>
</svg>
