<svg width="23" height="21" viewBox="0 0 23 21" fill="none" xmlns="http://www.w3.org/2000/svg">
<path d="M5.14249 9.58735L5.14244 9.58744L4.7723 10.2423L4.77223 10.2424L4.77185 10.2431L4.77178 10.2432L4.77163 10.2435L4.77159 10.2436L4.77152 10.2437L5.14249 9.58735ZM5.14249 9.58735C6.64418 6.92413 7.72185 5.01812 8.70843 3.76489C9.6844 2.52512 10.4224 2.11722 11.2051 2.11722C11.9872 2.11722 12.7252 2.52505 13.7014 3.76493C14.6881 5.01815 15.7664 6.92488 17.2681 9.58803L17.2681 9.58812M5.14249 9.58735L17.2681 9.58812M17.2681 9.58812L17.6386 10.2437L17.2681 9.58812ZM4.7232 10.1259C4.74415 10.134 4.76438 10.1465 4.77998 10.1652C4.78201 10.1767 4.78236 10.1896 4.78198 10.2007C4.77614 10.1793 4.75255 10.1498 4.7213 10.1293L4.7232 10.1259ZM4.73067 10.2832C4.70745 10.2858 4.68412 10.2797 4.66316 10.2689C4.69933 10.2786 4.73441 10.2763 4.74847 10.2701C4.74302 10.2746 4.73664 10.2795 4.73067 10.2832ZM4.76147 10.2583C4.76111 10.2587 4.76058 10.2593 4.75991 10.2599C4.76087 10.2588 4.76173 10.2578 4.76243 10.257L4.76147 10.2583ZM4.7659 10.2525L4.76548 10.2531L4.76625 10.252L4.7659 10.2525ZM4.77844 10.2284C4.77884 10.2271 4.77933 10.2255 4.77984 10.2237C4.77963 10.2248 4.77943 10.2257 4.77924 10.2263L4.77844 10.2284ZM4.77585 10.235L4.77643 10.2336L4.77613 10.2344L4.77585 10.235ZM19.1439 9.39391L19.1439 9.39383L18.773 8.73765L18.7729 8.73756L18.7421 8.68288L18.655 8.732L18.7421 8.68288L18.7375 8.67469C17.2827 6.09455 16.1398 4.06773 15.0595 2.69562C13.9601 1.29923 12.7772 0.388632 11.2051 0.388632C9.63247 0.388632 8.44956 1.29917 7.35021 2.69566C6.27094 4.06663 5.12933 6.09128 3.67626 8.66831L3.67166 8.67646L3.67162 8.67653L3.22694 9.46357L3.2269 9.46364L3.22211 9.47214C2.02285 11.5986 1.06929 13.2894 0.567126 14.6497C0.0524267 16.044 -0.0811518 17.3402 0.719265 18.4883C1.49372 19.5991 2.78097 20.044 4.36523 20.2526C5.94276 20.4602 8.06052 20.4602 10.7638 20.4602H10.7718H11.6383H11.6464C14.3496 20.4602 16.4674 20.4602 18.0449 20.2526C19.6292 20.044 20.9164 19.5991 21.6909 18.4883C22.4913 17.3402 22.3577 16.044 21.843 14.6497C21.3409 13.2894 20.3873 11.5986 19.1881 9.4722L19.1832 9.46362L19.1439 9.39391ZM2.18875 15.2484C2.63714 14.0337 3.52018 12.4625 4.77147 10.2438H17.6387C18.89 12.4627 19.773 14.0337 20.2214 15.2484C20.6631 16.4449 20.5896 17.0454 20.2729 17.4997C19.9304 17.9909 19.2773 18.3469 17.8193 18.5388C16.3681 18.7298 14.3644 18.7316 11.576 18.7316H10.8341C8.04573 18.7316 6.04208 18.7298 4.59083 18.5388C3.13287 18.3469 2.47972 17.9909 2.13724 17.4997C1.82053 17.0454 1.74704 16.4449 2.18875 15.2484Z" fill="#FEAFB1" stroke="#FEAFB1" stroke-width="0.2"/>
<path d="M12.07 6.63096C12.07 6.15363 11.683 5.76667 11.2057 5.76667C10.7284 5.76667 10.3414 6.15363 10.3414 6.63096V11.7262C10.3414 12.2036 10.7284 12.5905 11.2057 12.5905C11.683 12.5905 12.07 12.2036 12.07 11.7262V6.63096Z" fill="#FEAFB1" stroke="#FEAFB1" stroke-width="0.2" stroke-linecap="round"/>
<path d="M11.2046 16.2007C11.8226 16.2007 12.3237 15.6997 12.3237 15.0817C12.3237 14.4637 11.8226 13.9626 11.2046 13.9626C10.5866 13.9626 10.0855 14.4637 10.0855 15.0817C10.0855 15.6997 10.5866 16.2007 11.2046 16.2007Z" fill="#FEAFB1" stroke="#FEAFB1" stroke-width="0.2"/>
</svg>
