<svg width="25" height="25" viewBox="0 0 25 25" fill="none" xmlns="http://www.w3.org/2000/svg">
<path d="M0.47998 1.01038C0.47998 0.744415 0.585633 0.489347 0.773696 0.301284C0.961759 0.113221 1.21683 0.00756836 1.48279 0.00756836C1.74875 0.00756836 2.00382 0.113221 2.19188 0.301284C2.37994 0.489347 2.4856 0.744415 2.4856 1.01038V9.3778L7.36593 6.80794C7.51719 6.72846 7.68626 6.68895 7.85709 6.69316C8.02791 6.69737 8.19483 6.74517 8.34199 6.83201L13.4496 9.83508L20.9373 4.21936C21.0862 4.10762 21.2634 4.03958 21.4489 4.02285C21.6344 4.00613 21.8208 4.04138 21.9874 4.12467C22.154 4.20795 22.2941 4.33598 22.392 4.4944C22.4899 4.65282 22.5417 4.83537 22.5417 5.02161V22.0693H23.5446C23.8105 22.0693 24.0656 22.175 24.2536 22.3631C24.4417 22.5511 24.5474 22.8062 24.5474 23.0721C24.5474 23.3381 24.4417 23.5932 24.2536 23.7812C24.0656 23.9693 23.8105 24.075 23.5446 24.075H1.48279C1.21683 24.075 0.961759 23.9693 0.773696 23.7812C0.585633 23.5932 0.47998 23.3381 0.47998 23.0721V1.01038ZM2.4856 11.6441V22.0693H20.5361V7.02722L14.1182 11.8407C13.9599 11.9592 13.77 12.0283 13.5726 12.0393C13.3751 12.0502 13.1788 12.0025 13.0084 11.9022L7.80716 8.84431L2.4856 11.6441Z" fill="black"/>
</svg>
