<svg width="62" height="50" viewBox="0 0 62 50" fill="none" xmlns="http://www.w3.org/2000/svg">
<rect opacity="0.25" x="0.673828" y="0.717163" width="60.9307" height="48.4653" rx="18" fill="#EF7F66"/>
<path d="M37.6858 16.6729H35.0107V15.3353H33.6731V16.6729H28.3229V15.3353H26.9853V16.6729H24.3102C23.5746 16.6729 22.9727 17.2748 22.9727 18.0104V31.386C22.9727 32.1217 23.5746 32.7236 24.3102 32.7236H37.6858C38.4214 32.7236 39.0233 32.1217 39.0233 31.386V18.0104C39.0233 17.2748 38.4214 16.6729 37.6858 16.6729ZM37.6858 31.386H24.3102V22.0231H37.6858V31.386ZM37.6858 20.6856H24.3102V18.0104H26.9853V19.348H28.3229V18.0104H33.6731V19.348H35.0107V18.0104H37.6858V20.6856Z" fill="#EF7F67"/>
</svg>
