<svg width="21" height="24" viewBox="0 0 21 24" fill="none" xmlns="http://www.w3.org/2000/svg">
<path d="M18.4882 6.38959H18.2485L18.2384 6.62903L18.2352 6.70582L17.1789 21.5043L17.1788 21.5044C17.1427 22.0127 16.9152 22.4884 16.5423 22.8358C16.1693 23.1831 15.6786 23.3762 15.169 23.3762H5.95207C5.44244 23.3762 4.95174 23.1831 4.57881 22.8358C4.20587 22.4884 3.9784 22.0127 3.94222 21.5044L3.94222 21.5043L2.88579 6.70534C2.88577 6.70502 2.88575 6.7047 2.88573 6.70438C2.88442 6.68344 2.88385 6.66247 2.88401 6.6415L2.88594 6.38959H2.63402H1.50158C1.26754 6.38959 1.04309 6.29662 0.877601 6.13113C0.712112 5.96564 0.619141 5.74118 0.619141 5.50715C0.619141 5.27311 0.712112 5.04866 0.877601 4.88317C1.04309 4.71768 1.26754 4.62471 1.50158 4.62471H19.6206C19.8547 4.62471 20.0791 4.71768 20.2446 4.88317C20.4101 5.04866 20.5031 5.27311 20.5031 5.50715C20.5031 5.74118 20.4101 5.96564 20.2446 6.13113C20.0791 6.29662 19.8547 6.38959 19.6206 6.38959H18.4882ZM16.4693 6.65739L16.4884 6.38959H16.2199H4.9023H4.63382L4.65293 6.65739L5.70384 21.3791L5.72041 21.6113H5.9532H15.169H15.4018L15.4184 21.3791L16.4693 6.65739ZM12.826 1.22739C13.06 1.22739 13.2845 1.32036 13.45 1.48585C13.6155 1.65134 13.7084 1.87579 13.7084 2.10983C13.7084 2.34386 13.6155 2.56832 13.45 2.73381C13.2845 2.8993 13.06 2.99227 12.826 2.99227H8.29622C8.06218 2.99227 7.83773 2.8993 7.67224 2.73381C7.50675 2.56832 7.41378 2.34386 7.41378 2.10983C7.41378 1.87579 7.50675 1.65134 7.67224 1.48585C7.83773 1.32036 8.06218 1.22739 8.29622 1.22739H12.826Z" fill="black" stroke="white" stroke-width="0.5"/>
</svg>
