<svg width="28" height="28" viewBox="0 0 28 28" fill="none" xmlns="http://www.w3.org/2000/svg">
<mask id="path-1-inside-1_225_4863" fill="white">
<path fill-rule="evenodd" clip-rule="evenodd" d="M13.705 2.29079C13.7633 2.23263 13.8216 2.17439 13.8797 2.1161C14.2749 1.72096 14.618 1.37782 14.9976 1.15841C15.5003 0.868042 16.0707 0.715083 16.6513 0.7149C17.2319 0.714718 17.8023 0.867318 18.3053 1.15737L18.3063 1.15841C18.6879 1.37782 19.029 1.71888 19.4241 2.1161L19.7829 2.47484C20.558 1.82735 21.5474 1.49333 22.5563 1.5385C23.5653 1.58367 24.5209 2.00475 25.235 2.71892C25.9492 3.43308 26.3703 4.38863 26.4154 5.39761C26.4606 6.40658 26.1266 7.39594 25.4791 8.17106L25.8378 8.5298C26.233 8.92494 26.5761 9.26809 26.7966 9.64867C27.0866 10.1514 27.2393 10.7216 27.2393 11.302C27.2393 11.8824 27.0866 12.4526 26.7966 12.9553C26.5761 13.338 26.2351 13.6791 25.8368 14.0752L25.6631 14.2489C25.268 14.644 24.9249 14.9872 24.5464 15.2076C24.0434 15.498 23.4728 15.6509 22.892 15.6509C22.3112 15.6509 21.7406 15.498 21.2376 15.2076C20.8549 14.9872 20.5139 14.6461 20.1187 14.2489L17.6918 11.8219L11.9727 17.541L14.3997 19.968C14.7948 20.3631 15.1379 20.7063 15.3584 21.0868C15.6484 21.5896 15.8011 22.1598 15.8011 22.7402C15.8011 23.3206 15.6484 23.8908 15.3584 24.3935C15.1379 24.7762 14.7969 25.1172 14.3986 25.5134L14.225 25.6871C13.8298 26.0822 13.4867 26.4254 13.1082 26.6458C12.6052 26.9362 12.0346 27.0891 11.4538 27.0891C10.873 27.0891 10.3024 26.9362 9.79943 26.6458C9.41677 26.4254 9.07674 26.0833 8.68056 25.6871L8.32182 25.3283C7.5467 25.9758 6.55734 26.3098 5.54837 26.2647C4.5394 26.2195 3.58384 25.7984 2.86968 25.0843C2.15551 24.3701 1.73443 23.4145 1.68926 22.4056C1.64409 21.3966 1.97811 20.4072 2.6256 19.6321L2.26686 19.2734C1.87172 18.8782 1.52858 18.5351 1.30917 18.1556C1.0188 17.6528 0.865844 17.0824 0.865661 16.5018C0.865479 15.9212 1.01808 15.3508 1.30813 14.8478C1.52858 14.4652 1.87068 14.1252 2.2679 13.7279C2.32585 13.6701 2.38373 13.6122 2.44155 13.5543C2.83669 13.1591 3.17984 12.816 3.55938 12.5966C4.06215 12.3062 4.63249 12.1533 5.21309 12.1531C5.7937 12.1529 6.36413 12.3055 6.86709 12.5956C7.24975 12.816 7.58977 13.1581 7.98699 13.5553L10.4129 15.9813L16.132 10.2622L13.705 7.83519C13.3099 7.44006 12.9668 7.09691 12.7474 6.71737C12.457 6.21459 12.304 5.64426 12.3038 5.06365C12.3037 4.48305 12.4563 3.91262 12.7463 3.40966C12.9668 3.027 13.3078 2.68801 13.705 2.29079ZM4.19991 21.2064C3.96575 21.5599 3.86099 21.9835 3.9034 22.4054C3.9458 22.8273 4.13275 23.2215 4.43257 23.5214C4.7324 23.8212 5.12666 24.0081 5.54855 24.0505C5.97044 24.0929 6.39402 23.9882 6.74751 23.754L4.19991 21.2064ZM23.9048 6.59675C24.1389 6.24326 24.2437 5.81968 24.2013 5.39779C24.1589 4.9759 23.9719 4.58164 23.6721 4.28181C23.3723 3.98199 22.978 3.79504 22.5561 3.75264C22.1343 3.71023 21.7107 3.81499 21.3572 4.04915L23.9048 6.59675ZM15.3521 3.7632C14.8187 4.29663 14.7116 4.4183 14.6575 4.51188C14.5609 4.67946 14.51 4.86953 14.51 5.06299C14.51 5.25646 14.5609 5.44652 14.6575 5.61411C14.7106 5.70873 14.8177 5.82831 15.3521 6.36279L21.5912 12.6018C22.1246 13.1352 22.2452 13.2434 22.3398 13.2964C22.5074 13.3931 22.6975 13.444 22.8909 13.444C23.0844 13.444 23.2745 13.3931 23.4421 13.2964C23.5367 13.2434 23.6563 13.1363 24.1907 12.6018C24.7242 12.0684 24.8323 11.9477 24.8864 11.8542C24.9831 11.6866 25.0339 11.4965 25.034 11.303C25.034 11.1096 24.9831 10.9195 24.8864 10.7519C24.8323 10.6563 24.7242 10.5356 24.1907 10.0022L17.9517 3.7632C17.4183 3.22976 17.2977 3.12162 17.203 3.06859C17.0355 2.97192 16.8454 2.92103 16.6519 2.92103C16.4585 2.92103 16.2684 2.97192 16.1008 3.06859C16.0062 3.12162 15.8866 3.22872 15.3521 3.7632ZM3.91396 15.2014C3.38052 15.7348 3.27342 15.8565 3.21935 15.9501C3.12268 16.1176 3.07179 16.3077 3.07179 16.5012C3.07179 16.6946 3.12268 16.8847 3.21935 17.0523C3.27238 17.1469 3.37948 17.2665 3.91396 17.801L10.153 24.04C10.6864 24.5734 10.807 24.6816 10.9016 24.7346C11.0692 24.8313 11.2593 24.8821 11.4528 24.8821C11.6462 24.8821 11.8363 24.8313 12.0039 24.7346C12.0975 24.6805 12.2181 24.5745 12.7526 24.04C13.286 23.5065 13.3941 23.3859 13.4482 23.2923C13.5449 23.1248 13.5958 22.9347 13.5958 22.7412C13.5958 22.5478 13.5449 22.3577 13.4482 22.1901C13.3941 22.0944 13.286 21.9738 12.7526 21.4404L6.51355 15.2014C5.98011 14.6679 5.85949 14.5598 5.76486 14.5068C5.59728 14.4101 5.40722 14.3592 5.21375 14.3592C5.02029 14.3592 4.83022 14.4101 4.66264 14.5068C4.56801 14.5598 4.44843 14.6669 3.91396 15.2014Z"/>
</mask>
<path fill-rule="evenodd" clip-rule="evenodd" d="M13.705 2.29079C13.7633 2.23263 13.8216 2.17439 13.8797 2.1161C14.2749 1.72096 14.618 1.37782 14.9976 1.15841C15.5003 0.868042 16.0707 0.715083 16.6513 0.7149C17.2319 0.714718 17.8023 0.867318 18.3053 1.15737L18.3063 1.15841C18.6879 1.37782 19.029 1.71888 19.4241 2.1161L19.7829 2.47484C20.558 1.82735 21.5474 1.49333 22.5563 1.5385C23.5653 1.58367 24.5209 2.00475 25.235 2.71892C25.9492 3.43308 26.3703 4.38863 26.4154 5.39761C26.4606 6.40658 26.1266 7.39594 25.4791 8.17106L25.8378 8.5298C26.233 8.92494 26.5761 9.26809 26.7966 9.64867C27.0866 10.1514 27.2393 10.7216 27.2393 11.302C27.2393 11.8824 27.0866 12.4526 26.7966 12.9553C26.5761 13.338 26.2351 13.6791 25.8368 14.0752L25.6631 14.2489C25.268 14.644 24.9249 14.9872 24.5464 15.2076C24.0434 15.498 23.4728 15.6509 22.892 15.6509C22.3112 15.6509 21.7406 15.498 21.2376 15.2076C20.8549 14.9872 20.5139 14.6461 20.1187 14.2489L17.6918 11.8219L11.9727 17.541L14.3997 19.968C14.7948 20.3631 15.1379 20.7063 15.3584 21.0868C15.6484 21.5896 15.8011 22.1598 15.8011 22.7402C15.8011 23.3206 15.6484 23.8908 15.3584 24.3935C15.1379 24.7762 14.7969 25.1172 14.3986 25.5134L14.225 25.6871C13.8298 26.0822 13.4867 26.4254 13.1082 26.6458C12.6052 26.9362 12.0346 27.0891 11.4538 27.0891C10.873 27.0891 10.3024 26.9362 9.79943 26.6458C9.41677 26.4254 9.07674 26.0833 8.68056 25.6871L8.32182 25.3283C7.5467 25.9758 6.55734 26.3098 5.54837 26.2647C4.5394 26.2195 3.58384 25.7984 2.86968 25.0843C2.15551 24.3701 1.73443 23.4145 1.68926 22.4056C1.64409 21.3966 1.97811 20.4072 2.6256 19.6321L2.26686 19.2734C1.87172 18.8782 1.52858 18.5351 1.30917 18.1556C1.0188 17.6528 0.865844 17.0824 0.865661 16.5018C0.865479 15.9212 1.01808 15.3508 1.30813 14.8478C1.52858 14.4652 1.87068 14.1252 2.2679 13.7279C2.32585 13.6701 2.38373 13.6122 2.44155 13.5543C2.83669 13.1591 3.17984 12.816 3.55938 12.5966C4.06215 12.3062 4.63249 12.1533 5.21309 12.1531C5.7937 12.1529 6.36413 12.3055 6.86709 12.5956C7.24975 12.816 7.58977 13.1581 7.98699 13.5553L10.4129 15.9813L16.132 10.2622L13.705 7.83519C13.3099 7.44006 12.9668 7.09691 12.7474 6.71737C12.457 6.21459 12.304 5.64426 12.3038 5.06365C12.3037 4.48305 12.4563 3.91262 12.7463 3.40966C12.9668 3.027 13.3078 2.68801 13.705 2.29079ZM4.19991 21.2064C3.96575 21.5599 3.86099 21.9835 3.9034 22.4054C3.9458 22.8273 4.13275 23.2215 4.43257 23.5214C4.7324 23.8212 5.12666 24.0081 5.54855 24.0505C5.97044 24.0929 6.39402 23.9882 6.74751 23.754L4.19991 21.2064ZM23.9048 6.59675C24.1389 6.24326 24.2437 5.81968 24.2013 5.39779C24.1589 4.9759 23.9719 4.58164 23.6721 4.28181C23.3723 3.98199 22.978 3.79504 22.5561 3.75264C22.1343 3.71023 21.7107 3.81499 21.3572 4.04915L23.9048 6.59675ZM15.3521 3.7632C14.8187 4.29663 14.7116 4.4183 14.6575 4.51188C14.5609 4.67946 14.51 4.86953 14.51 5.06299C14.51 5.25646 14.5609 5.44652 14.6575 5.61411C14.7106 5.70873 14.8177 5.82831 15.3521 6.36279L21.5912 12.6018C22.1246 13.1352 22.2452 13.2434 22.3398 13.2964C22.5074 13.3931 22.6975 13.444 22.8909 13.444C23.0844 13.444 23.2745 13.3931 23.4421 13.2964C23.5367 13.2434 23.6563 13.1363 24.1907 12.6018C24.7242 12.0684 24.8323 11.9477 24.8864 11.8542C24.9831 11.6866 25.0339 11.4965 25.034 11.303C25.034 11.1096 24.9831 10.9195 24.8864 10.7519C24.8323 10.6563 24.7242 10.5356 24.1907 10.0022L17.9517 3.7632C17.4183 3.22976 17.2977 3.12162 17.203 3.06859C17.0355 2.97192 16.8454 2.92103 16.6519 2.92103C16.4585 2.92103 16.2684 2.97192 16.1008 3.06859C16.0062 3.12162 15.8866 3.22872 15.3521 3.7632ZM3.91396 15.2014C3.38052 15.7348 3.27342 15.8565 3.21935 15.9501C3.12268 16.1176 3.07179 16.3077 3.07179 16.5012C3.07179 16.6946 3.12268 16.8847 3.21935 17.0523C3.27238 17.1469 3.37948 17.2665 3.91396 17.801L10.153 24.04C10.6864 24.5734 10.807 24.6816 10.9016 24.7346C11.0692 24.8313 11.2593 24.8821 11.4528 24.8821C11.6462 24.8821 11.8363 24.8313 12.0039 24.7346C12.0975 24.6805 12.2181 24.5745 12.7526 24.04C13.286 23.5065 13.3941 23.3859 13.4482 23.2923C13.5449 23.1248 13.5958 22.9347 13.5958 22.7412C13.5958 22.5478 13.5449 22.3577 13.4482 22.1901C13.3941 22.0944 13.286 21.9738 12.7526 21.4404L6.51355 15.2014C5.98011 14.6679 5.85949 14.5598 5.76486 14.5068C5.59728 14.4101 5.40722 14.3592 5.21375 14.3592C5.02029 14.3592 4.83022 14.4101 4.66264 14.5068C4.56801 14.5598 4.44843 14.6669 3.91396 15.2014Z" fill="#FEAFB1" stroke="white" stroke-width="0.6" mask="url(#path-1-inside-1_225_4863)"/>
</svg>
