<svg width="15" height="18" viewBox="0 0 15 18" fill="none" xmlns="http://www.w3.org/2000/svg">
<path d="M1.79648 3.58647V12.8431C1.79634 13.759 2.14458 14.6406 2.77055 15.3092C3.39652 15.9778 4.25335 16.3832 5.16726 16.4433L5.40391 16.4505H11.7732C11.624 16.8725 11.3477 17.2378 10.9823 17.4962C10.6169 17.7546 10.1804 17.8934 9.73281 17.8935H4.68242C3.53432 17.8935 2.43325 17.4374 1.62142 16.6256C0.809596 15.8138 0.353516 14.7127 0.353516 13.5646V5.62827C0.353281 5.18048 0.491936 4.74364 0.750373 4.37795C1.00881 4.01226 1.3743 3.73573 1.79648 3.58647ZM12.6187 0.577881C13.1928 0.577881 13.7433 0.805921 14.1492 1.21183C14.5552 1.61775 14.7832 2.16829 14.7832 2.74233V12.8431C14.7832 13.4172 14.5552 13.9677 14.1492 14.3736C13.7433 14.7795 13.1928 15.0076 12.6187 15.0076H5.40391C4.82986 15.0076 4.27932 14.7795 3.87341 14.3736C3.46749 13.9677 3.23945 13.4172 3.23945 12.8431V2.74233C3.23945 2.16829 3.46749 1.61775 3.87341 1.21183C4.27932 0.805921 4.82986 0.577881 5.40391 0.577881H12.6187ZM12.6187 2.02085H5.40391C5.21256 2.02085 5.02904 2.09686 4.89374 2.23217C4.75844 2.36747 4.68242 2.55098 4.68242 2.74233V12.8431C4.68242 13.0345 4.75844 13.218 4.89374 13.3533C5.02904 13.4886 5.21256 13.5646 5.40391 13.5646H12.6187C12.8101 13.5646 12.9936 13.4886 13.1289 13.3533C13.2642 13.218 13.3402 13.0345 13.3402 12.8431V2.74233C13.3402 2.55098 13.2642 2.36747 13.1289 2.23217C12.9936 2.09686 12.8101 2.02085 12.6187 2.02085Z" fill="black"/>
</svg>
