<svg width="17" height="16" viewBox="0 0 17 16" fill="none" xmlns="http://www.w3.org/2000/svg">
<path d="M4.58575 2.66266C3.81419 3.423 3.22438 4.34783 2.86037 5.36808C2.49635 6.38832 2.36754 7.47763 2.48354 8.55464L2.48352 8.55464L2.48371 8.55606C2.50237 8.69252 2.57343 8.81635 2.68182 8.90132C2.79022 8.98628 2.92744 9.02571 3.0644 9.01124C3.20137 8.99677 3.32732 8.92955 3.41557 8.82381C3.50382 8.71807 3.54743 8.58212 3.53717 8.44478L3.53719 8.44477L3.53702 8.44314C3.43795 7.52463 3.54773 6.5956 3.85816 5.72548C4.16859 4.85535 4.67164 4.06663 5.32972 3.41824L5.32974 3.41822L7.78342 14.7449L7.77009 14.7931C8.44332 14.9792 9.13985 15.0674 9.83823 15.055M4.58575 2.66266L4.62084 2.69828M4.58575 2.66266L4.62084 2.69828M4.58575 2.66266C7.42454 -0.137468 12.0038 -0.0917844 14.8132 2.75723C17.6225 5.60528 17.6044 10.1845 14.7647 12.9846C13.4503 14.2832 11.6857 15.0248 9.83823 15.055M4.62084 2.69828C3.85465 3.45333 3.26894 4.37172 2.90746 5.38488C2.54598 6.39803 2.41806 7.47976 2.53325 8.54928L4.62084 2.69828ZM9.83823 15.055L9.83741 15.005L9.8383 15.055C9.83828 15.055 9.83825 15.055 9.83823 15.055Z" fill="black" stroke="black" stroke-width="0.1"/>
<path d="M3.40271 9.09128L3.40279 9.09119L3.3251 8.38036L3.35833 8.343L3.35828 8.34296L1.70839 6.87532C1.6574 6.82531 1.59684 6.78613 1.53032 6.76011C1.4634 6.73394 1.39185 6.72166 1.32003 6.724C1.24821 6.72635 1.17762 6.74328 1.11255 6.77376C1.04747 6.80424 0.989281 6.84764 0.941505 6.90131C0.89373 6.95499 0.85737 7.01782 0.834637 7.08599C0.811905 7.15415 0.803274 7.22623 0.80927 7.29784C0.815266 7.36945 0.835763 7.43909 0.869515 7.50253C0.903065 7.56558 0.949013 7.6212 1.0046 7.66605L2.65448 9.13367L2.68778 9.09638L2.65455 9.13374L2.6545 9.13369C2.70641 9.18003 2.76693 9.21569 2.83262 9.23864C2.89832 9.2616 2.96789 9.27138 3.03737 9.26745C3.10685 9.26351 3.17488 9.24593 3.23756 9.2157C3.30025 9.18547 3.35636 9.1432 3.40271 9.09128Z" fill="black" stroke="black" stroke-width="0.1"/>
<path d="M2.58137 9.02751C2.62313 9.08319 2.67544 9.13009 2.73531 9.16554C2.79519 9.201 2.86147 9.22431 2.93036 9.23415C2.99925 9.24399 3.0694 9.24017 3.13681 9.2229C3.20422 9.20563 3.26757 9.17525 3.32324 9.13349L5.24286 7.69378C5.35529 7.60946 5.42962 7.48392 5.4495 7.3448C5.46937 7.20567 5.43317 7.06434 5.34884 6.95191C5.26452 6.83948 5.13899 6.76515 4.99986 6.74528C4.86073 6.7254 4.71941 6.76161 4.60698 6.84593L2.68735 8.28565C2.57492 8.36997 2.50059 8.4955 2.48072 8.63463C2.46084 8.77376 2.49705 8.91508 2.58137 9.02751ZM9.88752 4.49563C9.78814 4.39625 9.65336 4.34042 9.51281 4.34042C9.37228 4.34042 9.23749 4.39625 9.13811 4.49563C9.03874 4.59501 8.98291 4.72979 8.98291 4.87033V8.22967C8.98291 8.37021 9.03874 8.50499 9.13811 8.60437C9.23749 8.70374 9.37228 8.75957 9.51281 8.75957C9.65335 8.75957 9.78814 8.70374 9.88752 8.60437C9.98689 8.50499 10.0427 8.37021 10.0427 8.22967V4.87033C10.0427 4.72979 9.98689 4.59501 9.88752 4.49563Z" fill="black" stroke="black" stroke-width="0.1"/>
<path d="M12.7692 8.60437C12.8686 8.50499 12.9244 8.37021 12.9244 8.22967C12.9244 8.08913 12.8686 7.95434 12.7692 7.85497C12.6698 7.75559 12.535 7.69976 12.3945 7.69976H9.51506C9.37452 7.69976 9.23974 7.75559 9.14036 7.85497C9.04098 7.95434 8.98516 8.08913 8.98516 8.22967C8.98516 8.37021 9.04098 8.50499 9.14036 8.60437C9.23974 8.70374 9.37452 8.75957 9.51506 8.75957H12.3945C12.535 8.75957 12.6698 8.70374 12.7692 8.60437Z" fill="black" stroke="black" stroke-width="0.1"/>
</svg>
