<svg width="17" height="16" viewBox="0 0 17 16" fill="none" xmlns="http://www.w3.org/2000/svg">
<path d="M4.20806 2.61421C3.43651 3.37455 2.8467 4.29937 2.48268 5.31962C2.11867 6.33987 1.98985 7.42917 2.10586 8.50618L2.10584 8.50618L2.10603 8.5076C2.12469 8.64406 2.19574 8.76789 2.30414 8.85286C2.41253 8.93783 2.54975 8.97725 2.68672 8.96279C2.82368 8.94832 2.94963 8.88109 3.03788 8.77535C3.12613 8.66961 3.16975 8.53367 3.15948 8.39632L3.15951 8.39632L3.15933 8.39469C3.06027 7.47617 3.17005 6.54715 3.48048 5.67702C3.79091 4.8069 4.29395 4.01817 4.95204 3.36978L4.95205 3.36977L7.40573 14.6964L7.39241 14.7446C8.06564 14.9307 8.76217 15.0189 9.46054 15.0065M4.20806 2.61421L4.24316 2.64982M4.20806 2.61421L4.24316 2.64982M4.20806 2.61421C7.04686 -0.185924 11.6261 -0.140241 14.4355 2.70877C17.2449 5.55682 17.2267 10.136 14.387 12.9362C13.0726 14.2347 11.308 14.9763 9.46054 15.0065M4.24316 2.64982C3.47697 3.40487 2.89126 4.32327 2.52977 5.33642C2.16829 6.34958 2.04037 7.4313 2.15557 8.50083L4.24316 2.64982ZM9.46054 15.0065L9.45973 14.9565L9.46062 15.0065C9.46059 15.0065 9.46057 15.0065 9.46054 15.0065Z" fill="black" stroke="black" stroke-width="0.1"/>
<path d="M3.02527 9.04281L3.02535 9.04272L2.94765 8.33189L2.98089 8.29453L2.98084 8.29449L1.33094 6.82685C1.27996 6.77684 1.2194 6.73766 1.15288 6.71165C1.08596 6.68547 1.01441 6.67319 0.942591 6.67553C0.870771 6.67788 0.800178 6.69481 0.735106 6.72529C0.670033 6.75577 0.61184 6.79917 0.564064 6.85284C0.516288 6.90652 0.479929 6.96935 0.457196 7.03752C0.434463 7.10569 0.425833 7.17776 0.431828 7.24937C0.437824 7.32098 0.458322 7.39062 0.492074 7.45406C0.525623 7.51711 0.571572 7.57273 0.627155 7.61758L2.27704 9.0852L2.31034 9.04791L2.27711 9.08527L2.27706 9.08522C2.32897 9.13156 2.38949 9.16722 2.45518 9.19017C2.52088 9.21313 2.59045 9.22292 2.65993 9.21898C2.72941 9.21504 2.79744 9.19746 2.86012 9.16723C2.92281 9.13701 2.97892 9.09473 3.02527 9.04281Z" fill="black" stroke="black" stroke-width="0.1"/>
<path d="M2.20466 8.97906C2.24642 9.03473 2.29873 9.08163 2.35861 9.11708C2.41848 9.15254 2.48476 9.17585 2.55365 9.18569C2.62254 9.19553 2.69269 9.19171 2.7601 9.17444C2.82751 9.15717 2.89086 9.12679 2.94653 9.08504L4.86615 7.64532C4.97859 7.561 5.05292 7.43546 5.07279 7.29634C5.09267 7.15721 5.05646 7.01589 4.97213 6.90345C4.88781 6.79102 4.76228 6.71669 4.62315 6.69682C4.48402 6.67694 4.3427 6.71315 4.23027 6.79747L2.31065 8.23719C2.19821 8.32151 2.12388 8.44705 2.10401 8.58617C2.08413 8.7253 2.12034 8.86662 2.20466 8.97906ZM9.51081 4.44717C9.41143 4.34779 9.27665 4.29196 9.13611 4.29196C8.99557 4.29196 8.86078 4.34779 8.76141 4.44717C8.66203 4.54655 8.6062 4.68133 8.6062 4.82187V8.18121C8.6062 8.32175 8.66203 8.45653 8.76141 8.55591C8.86078 8.65528 8.99557 8.71111 9.13611 8.71111C9.27665 8.71111 9.41143 8.65528 9.51081 8.55591C9.61018 8.45653 9.66601 8.32175 9.66601 8.18121V4.82187C9.66601 4.68133 9.61018 4.54655 9.51081 4.44717Z" fill="black" stroke="black" stroke-width="0.1"/>
<path d="M12.3908 8.55591C12.4902 8.45653 12.546 8.32175 12.546 8.18121C12.546 8.04067 12.4902 7.90588 12.3908 7.80651C12.2914 7.70713 12.1566 7.6513 12.0161 7.6513H9.13664C8.9961 7.6513 8.86132 7.70713 8.76194 7.80651C8.66257 7.90588 8.60674 8.04067 8.60674 8.18121C8.60674 8.32175 8.66257 8.45653 8.76194 8.55591C8.86132 8.65528 8.9961 8.71111 9.13664 8.71111H12.0161C12.1566 8.71111 12.2914 8.65528 12.3908 8.55591Z" fill="black" stroke="black" stroke-width="0.1"/>
</svg>
