<svg width="20" height="20" viewBox="0 0 20 20" fill="none" xmlns="http://www.w3.org/2000/svg">
<g opacity="0.25">
<path d="M17.0971 10.6344C17.0971 10.4302 17.1782 10.2344 17.3226 10.0899C17.4671 9.94553 17.6629 9.8644 17.8671 9.8644C18.0714 9.8644 18.2672 9.94553 18.4116 10.0899C18.5561 10.2344 18.6372 10.4302 18.6372 10.6344V19.1049C18.6372 19.3091 18.5561 19.505 18.4116 19.6494C18.2672 19.7938 18.0714 19.8749 17.8671 19.8749H0.926289C0.722062 19.8749 0.5262 19.7938 0.381789 19.6494C0.237379 19.505 0.15625 19.3091 0.15625 19.1049V2.16401C0.15625 1.95979 0.237379 1.76392 0.381789 1.61951C0.5262 1.4751 0.722062 1.39397 0.926289 1.39397H9.39672C9.60094 1.39397 9.79681 1.4751 9.94122 1.61951C10.0856 1.76392 10.1668 1.95979 10.1668 2.16401C10.1668 2.36824 10.0856 2.5641 9.94122 2.70851C9.79681 2.85292 9.60094 2.93405 9.39672 2.93405H1.69633V18.3348H17.0971V10.6344Z" fill="black"/>
<path d="M8.3843 11.6509L9.65486 11.4692L17.46 3.66559C17.5335 3.59455 17.5922 3.50958 17.6325 3.41564C17.6729 3.32169 17.6941 3.22064 17.695 3.1184C17.6959 3.01615 17.6764 2.91475 17.6377 2.82012C17.599 2.72548 17.5418 2.63951 17.4695 2.56721C17.3972 2.49491 17.3112 2.43773 17.2166 2.39901C17.122 2.36029 17.0206 2.34081 16.9183 2.3417C16.8161 2.34259 16.715 2.36383 16.6211 2.40419C16.5271 2.44454 16.4422 2.50321 16.3711 2.57675L8.56449 10.3803L8.38276 11.6509H8.3843ZM18.5488 1.48638C18.7635 1.70091 18.9338 1.95564 19.05 2.23601C19.1661 2.51639 19.226 2.81691 19.226 3.1204C19.226 3.42389 19.1661 3.72441 19.05 4.00478C18.9338 4.28516 18.7635 4.53989 18.5488 4.75442L10.5635 12.7397C10.4458 12.8579 10.2928 12.9347 10.1277 12.9584L7.58654 13.3219C7.46811 13.3389 7.34735 13.3281 7.23383 13.2903C7.12032 13.2525 7.01717 13.1888 6.93257 13.1042C6.84797 13.0196 6.78425 12.9164 6.74646 12.8029C6.70867 12.6894 6.69784 12.5686 6.71485 12.4502L7.07831 9.90906C7.10164 9.74412 7.17784 9.59119 7.29546 9.47322L15.2823 1.48792C15.7155 1.05484 16.303 0.811546 16.9156 0.811546C17.5281 0.811546 18.1156 1.05484 18.5488 1.48792V1.48638Z" fill="black"/>
</g>
</svg>
