<svg width="18" height="18" viewBox="0 0 18 18" fill="none" xmlns="http://www.w3.org/2000/svg">
<path fill-rule="evenodd" clip-rule="evenodd" d="M17.3016 3.13644C17.384 3.26161 17.4208 3.41141 17.4056 3.56053C17.3904 3.70966 17.3242 3.84898 17.2182 3.95496L9.23868 11.9336C9.15705 12.0152 9.0552 12.0736 8.94356 12.1029L5.61998 12.9709C5.51012 12.9996 5.39467 12.999 5.2851 12.9692C5.17553 12.9395 5.07565 12.8816 4.99536 12.8013C4.91508 12.721 4.85719 12.6211 4.82744 12.5116C4.79768 12.402 4.79711 12.2865 4.82576 12.1767L5.69376 8.85397C5.7191 8.75423 5.7669 8.6616 5.83351 8.58315L13.8426 0.579304C13.9646 0.457392 14.1301 0.388916 14.3026 0.388916C14.4751 0.388916 14.6406 0.457392 14.7627 0.579304L17.2182 3.03401C17.2494 3.06527 17.2773 3.09958 17.3016 3.13644ZM15.8372 3.49406L14.3026 1.9603L6.90897 9.35394L6.36646 11.4311L8.44359 10.8886L15.8372 3.49406Z" fill="black"/>
<path d="M15.7265 13.3302C15.9637 11.3025 16.0395 9.25917 15.953 7.21948C15.9511 7.17142 15.9592 7.1235 15.9767 7.07869C15.9941 7.03389 16.0207 6.99317 16.0546 6.95907L16.9087 6.10496C16.932 6.08149 16.9617 6.06526 16.994 6.05821C17.0263 6.05117 17.06 6.05362 17.091 6.06526C17.122 6.0769 17.149 6.09725 17.1687 6.12384C17.1884 6.15044 17.2 6.18216 17.2021 6.2152C17.3628 8.638 17.3018 11.0704 17.0198 13.4821C16.815 15.2372 15.4053 16.613 13.658 16.8083C10.6247 17.1442 7.56348 17.1442 4.53012 16.8083C2.7837 16.613 1.37319 15.2372 1.16834 13.4821C0.808469 10.4054 0.808469 7.29723 1.16834 4.22053C1.37319 2.46543 2.78283 1.08964 4.53012 0.894343C6.83238 0.639048 9.15199 0.577203 11.4646 0.709458C11.4977 0.711834 11.5294 0.723646 11.556 0.743494C11.5826 0.763342 11.6029 0.790395 11.6146 0.821448C11.6263 0.852502 11.6289 0.886255 11.622 0.918712C11.6151 0.951168 11.599 0.980967 11.5757 1.00458L10.7138 1.86564C10.68 1.89927 10.6397 1.92563 10.5954 1.9431C10.551 1.96057 10.5036 1.96877 10.456 1.96719C8.52619 1.90159 6.59419 1.97557 4.67507 2.18853C4.11429 2.2506 3.59081 2.49991 3.18919 2.89617C2.78756 3.29244 2.53126 3.81253 2.46167 4.37243C2.11364 7.34821 2.11364 10.3544 2.46167 13.3302C2.53126 13.8901 2.78756 14.4102 3.18919 14.8065C3.59081 15.2027 4.11429 15.452 4.67507 15.5141C7.58722 15.8396 10.6009 15.8396 13.5139 15.5141C14.0747 15.452 14.5982 15.2027 14.9998 14.8065C15.4014 14.4102 15.6569 13.8901 15.7265 13.3302Z" fill="black"/>
</svg>
