<svg width="20" height="21" viewBox="0 0 20 21" fill="none" xmlns="http://www.w3.org/2000/svg">
<path fill-rule="evenodd" clip-rule="evenodd" d="M19.4676 4.1184C19.5626 4.26261 19.6049 4.43519 19.5874 4.60699C19.57 4.7788 19.4937 4.9393 19.3716 5.0614L10.1786 14.2534C10.0845 14.3474 9.9672 14.4147 9.83859 14.4484L6.00959 15.4484C5.88302 15.4814 5.75002 15.4808 5.62378 15.4465C5.49755 15.4122 5.38248 15.3455 5.28998 15.253C5.19749 15.1605 5.1308 15.0454 5.09652 14.9192C5.06224 14.793 5.06158 14.66 5.09459 14.5334L6.09459 10.7054C6.12378 10.5905 6.17885 10.4838 6.25559 10.3934L15.4826 1.1724C15.6232 1.03195 15.8138 0.953064 16.0126 0.953064C16.2113 0.953064 16.402 1.03195 16.5426 1.1724L19.3716 4.0004C19.4075 4.03641 19.4396 4.07594 19.4676 4.1184ZM17.7806 4.5304L16.0126 2.7634L7.49459 11.2814L6.86959 13.6744L9.26259 13.0494L17.7806 4.5304Z" fill="#FEAFB1"/>
<path d="M17.6533 15.8624C17.9266 13.5264 18.0139 11.1723 17.9143 8.8224C17.9121 8.76704 17.9214 8.71183 17.9415 8.66021C17.9616 8.60859 17.9922 8.56168 18.0313 8.5224L19.0153 7.5384C19.0422 7.51136 19.0763 7.49266 19.1135 7.48455C19.1508 7.47643 19.1896 7.47925 19.2253 7.49266C19.261 7.50608 19.2921 7.52951 19.3148 7.56016C19.3375 7.5908 19.3508 7.62734 19.3533 7.6654C19.5385 10.4566 19.4682 13.259 19.1433 16.0374C18.9073 18.0594 17.2833 19.6444 15.2703 19.8694C11.7756 20.2564 8.24891 20.2564 4.75426 19.8694C2.74226 19.6444 1.11726 18.0594 0.881263 16.0374C0.466662 12.4928 0.466662 8.91199 0.881263 5.3674C1.11726 3.3454 2.74126 1.7604 4.75426 1.5354C7.40663 1.24128 10.079 1.17003 12.7433 1.3224C12.7814 1.32514 12.8179 1.33875 12.8486 1.36161C12.8792 1.38448 12.9026 1.41565 12.9161 1.45142C12.9296 1.4872 12.9325 1.52608 12.9246 1.56348C12.9166 1.60087 12.8981 1.6352 12.8713 1.6624L11.8783 2.6544C11.8394 2.69315 11.793 2.72352 11.7419 2.74364C11.6908 2.76377 11.6361 2.77321 11.5813 2.7714C9.35802 2.69583 7.13222 2.78105 4.92126 3.0264C4.2752 3.09791 3.67211 3.38512 3.20942 3.84165C2.74672 4.29818 2.45144 4.89736 2.37126 5.5424C1.97031 8.97072 1.97031 12.4341 2.37126 15.8624C2.45144 16.5074 2.74672 17.1066 3.20942 17.5632C3.67211 18.0197 4.2752 18.3069 4.92126 18.3784C8.27626 18.7534 11.7483 18.7534 15.1043 18.3784C15.7503 18.3069 16.3534 18.0197 16.8161 17.5632C17.2788 17.1066 17.5731 16.5074 17.6533 15.8624Z" fill="#FEAFB1"/>
</svg>
