<svg width="20" height="13" viewBox="0 0 20 13" fill="none" xmlns="http://www.w3.org/2000/svg">
<path fill-rule="evenodd" clip-rule="evenodd" d="M3.73711 3.29285C5.35573 1.95118 7.69981 0.512077 10.3672 0.512077C13.0346 0.512077 15.3786 1.95118 16.9973 3.29285C17.8178 3.97297 18.4798 4.65129 18.937 5.15954C19.1661 5.41417 19.345 5.62746 19.4678 5.77877C19.5292 5.85445 19.5768 5.91473 19.6096 5.95704C19.6261 5.9782 19.6389 5.99487 19.6479 6.00674L19.6586 6.0209L19.6618 6.02521L19.6629 6.02665C19.6631 6.02688 19.6637 6.02762 19.0306 6.50001C19.6637 6.97239 19.6635 6.97259 19.6633 6.97281L19.6618 6.9748L19.6586 6.97911L19.6479 6.99327C19.6389 7.00514 19.6261 7.02181 19.6096 7.04297C19.5768 7.08528 19.5292 7.14556 19.4678 7.22125C19.345 7.37255 19.1661 7.58584 18.937 7.84048C18.4798 8.34873 17.8178 9.02704 16.9973 9.70716C15.3786 11.0488 13.0346 12.4879 10.3672 12.4879C7.69981 12.4879 5.35573 11.0488 3.73711 9.70716C2.9166 9.02704 2.25456 8.34873 1.79735 7.84048C1.56828 7.58584 1.38942 7.37255 1.26658 7.22125C1.20513 7.14556 1.15761 7.08528 1.12474 7.04297C1.1083 7.02181 1.09553 7.00514 1.08649 6.99327L1.07577 6.97911L1.07253 6.9748L1.07144 6.97336C1.07128 6.97314 1.07072 6.97239 1.7038 6.50001C1.07072 6.02762 1.07087 6.02742 1.07104 6.0272L1.07253 6.02521L1.07577 6.0209L1.08649 6.00674C1.09553 5.99487 1.1083 5.9782 1.12474 5.95704C1.15761 5.91473 1.20513 5.85445 1.26658 5.77877C1.38942 5.62746 1.56828 5.41417 1.79735 5.15954C2.25456 4.65129 2.9166 3.97297 3.73711 3.29285ZM1.7038 6.50001L1.07104 6.0272C0.861949 6.30741 0.861632 6.69217 1.07072 6.97239L1.7038 6.50001ZM2.72238 6.5C2.79583 6.58567 2.87915 6.68089 2.97184 6.78392C3.39139 7.2503 3.99805 7.8715 4.74528 8.49088C6.26216 9.74823 8.24978 10.9081 10.3672 10.9081C12.4846 10.9081 14.4722 9.74823 15.9891 8.49088C16.7363 7.8715 17.343 7.2503 17.7625 6.78392C17.8552 6.68089 17.9385 6.58567 18.012 6.5C17.9385 6.41434 17.8552 6.31913 17.7625 6.21609C17.343 5.74971 16.7363 5.12851 15.9891 4.50913C14.4722 3.25178 12.4846 2.09187 10.3672 2.09187C8.24978 2.09187 6.26216 3.25178 4.74528 4.50913C3.99805 5.12851 3.39139 5.74971 2.97184 6.21609C2.87915 6.31913 2.79583 6.41434 2.72238 6.5ZM19.0306 6.50001L19.6633 6.97281C19.8724 6.6926 19.8727 6.30784 19.6637 6.02762L19.0306 6.50001Z" fill="white"/>
<path fill-rule="evenodd" clip-rule="evenodd" d="M8.27587 4.40997C8.83018 3.85567 9.58199 3.54426 10.3659 3.54426C11.1498 3.54426 11.9016 3.85567 12.4559 4.40997C13.0102 4.96428 13.3216 5.71609 13.3216 6.5C13.3216 7.28391 13.0102 8.03572 12.4559 8.59003C11.9016 9.14434 11.1498 9.45574 10.3659 9.45574C9.58199 9.45574 8.83018 9.14434 8.27587 8.59003C7.72156 8.03572 7.41016 7.28391 7.41016 6.5C7.41016 5.71609 7.72156 4.96428 8.27587 4.40997ZM10.3659 5.12405C10.001 5.12405 9.65099 5.26901 9.39295 5.52706C9.13491 5.7851 8.98995 6.13508 8.98995 6.5C8.98995 6.86493 9.13491 7.2149 9.39295 7.47295C9.65099 7.73099 10.001 7.87595 10.3659 7.87595C10.7308 7.87595 11.0808 7.73099 11.3388 7.47295C11.5969 7.2149 11.7419 6.86493 11.7419 6.5C11.7419 6.13508 11.5969 5.7851 11.3388 5.52706C11.0808 5.26901 10.7308 5.12405 10.3659 5.12405Z" fill="white"/>
</svg>
