<svg width="24" height="18" viewBox="0 0 24 18" fill="none" xmlns="http://www.w3.org/2000/svg">
<path fill-rule="evenodd" clip-rule="evenodd" d="M17.6572 12.8806L9.32138 15.1142C8.03175 15.4598 6.65767 15.2789 5.50142 14.6113C4.34517 13.9437 3.50147 12.8442 3.15591 11.5546C2.81036 10.265 2.99126 8.89087 3.65882 7.73462C4.32638 6.57837 5.42592 5.73467 6.71554 5.38911L15.0513 3.15554C16.341 2.80999 17.7151 2.99089 18.8713 3.65845C20.0276 4.32601 20.8713 5.42555 21.2168 6.71518C21.5624 8.0048 21.3815 9.37888 20.7139 10.5351C20.0463 11.6914 18.9468 12.5351 17.6572 12.8806ZM14.493 1.07159C16.3353 0.577941 18.2983 0.836371 19.95 1.79003C21.6018 2.74369 22.8071 4.31446 23.3008 6.15678C23.7944 7.99911 23.536 9.96208 22.5823 11.6139C21.6287 13.2657 20.0579 14.4709 18.2156 14.9646L9.87977 17.1982C8.03744 17.6918 6.07447 17.4334 4.42269 16.4797C2.7709 15.5261 1.56561 13.9553 1.07196 12.113C0.578309 10.2706 0.83674 8.30767 1.7904 6.65589C2.74406 5.00411 4.31483 3.79881 6.15715 3.30516L14.493 1.07159ZM5.23986 10.9962C5.43732 11.7331 5.91944 12.3614 6.58015 12.7429C7.24087 13.1244 8.02605 13.2277 8.76298 13.0303C9.49991 12.8328 10.1282 12.3507 10.5097 11.69C10.8911 11.0293 10.9945 10.2441 10.7971 9.50714C10.5996 8.77021 10.1175 8.1419 9.45677 7.76044C8.79606 7.37898 8.01087 7.2756 7.27394 7.47306C6.53701 7.67052 5.9087 8.15264 5.52724 8.81335C5.14577 9.47407 5.0424 10.2593 5.23986 10.9962Z" fill="#FEAFB1"/>
</svg>
