<svg width="30" height="36" viewBox="0 0 30 36" fill="none" xmlns="http://www.w3.org/2000/svg">
<path d="M8.54688 19.4892V7.08964C8.54687 6.43193 8.80815 5.80116 9.27322 5.33608C9.7383 4.87101 10.3691 4.60974 11.0268 4.60974C11.6845 4.60974 12.3153 4.87101 12.7803 5.33608C13.2454 5.80116 13.5067 6.43193 13.5067 7.08964M13.5067 7.08964V17.8359M13.5067 7.08964V3.7831C13.5067 3.45743 13.5708 3.13496 13.6955 2.83408C13.8201 2.5332 14.0028 2.25982 14.233 2.02954C14.4633 1.79926 14.7367 1.61659 15.0376 1.49196C15.3385 1.36734 15.6609 1.30319 15.9866 1.30319C16.3123 1.30319 16.6347 1.36734 16.9356 1.49196C17.2365 1.61659 17.5099 1.79926 17.7402 2.02954C17.9704 2.25982 18.1531 2.5332 18.2777 2.83408C18.4024 3.13496 18.4665 3.45743 18.4665 3.7831V17.8359M18.4665 7.08964C18.4665 6.43193 18.7278 5.80116 19.1929 5.33608C19.6579 4.87101 20.2887 4.60974 20.9464 4.60974C21.6041 4.60974 22.2349 4.87101 22.7 5.33608C23.165 5.80116 23.4263 6.43193 23.4263 7.08964V17.8359" stroke="white" stroke-width="2" stroke-linecap="round" stroke-linejoin="round"/>
<path d="M23.4207 10.3962C23.4207 9.73847 23.682 9.1077 24.147 8.64262C24.6121 8.17755 25.2429 7.91628 25.9006 7.91628C26.5583 7.91628 27.1891 8.17755 27.6541 8.64262C28.1192 9.1077 28.3805 9.73847 28.3805 10.3962V24.449C28.3805 27.0798 27.3354 29.6029 25.4751 31.4632C23.6148 33.3235 21.0917 34.3686 18.4609 34.3686H15.1543H15.4982C13.8554 34.3689 12.2383 33.9612 10.792 33.1821C9.34568 32.4029 8.11553 31.2768 7.212 29.9048L6.88795 29.4088C6.37213 28.6174 4.56125 25.4608 1.4553 19.9389C1.13862 19.376 1.05403 18.7118 1.21952 18.0875C1.38501 17.4632 1.78752 16.9281 2.34146 16.596C2.93173 16.2428 3.62292 16.0965 4.30565 16.1804C4.98837 16.2642 5.62364 16.5734 6.11092 17.0589L8.54123 19.4892" stroke="white" stroke-width="2" stroke-linecap="round" stroke-linejoin="round"/>
</svg>
