<svg width="26" height="26" viewBox="0 0 26 26" fill="none" xmlns="http://www.w3.org/2000/svg">
<path d="M12.6128 7.95119V12.9441L15.7334 16.0647" stroke="black" stroke-width="2.5" stroke-linecap="round" stroke-linejoin="round"/>
<path d="M6.10612 5.49516L5.60344 5.49278C9.56433 1.76913 15.8391 1.864 19.7666 5.79027C19.7668 5.79049 19.7671 5.79071 19.7673 5.79093C23.7679 9.79351 23.7897 16.2334 19.8465 20.1779C15.9124 24.1107 9.49616 24.0993 5.49135 20.1303C5.48051 20.1195 5.46968 20.1088 5.45887 20.098L5.45744 20.0965C5.44725 20.0864 5.43709 20.0762 5.42694 20.066C4.31891 18.9536 3.48109 17.6014 2.97836 16.1136C2.48154 14.6432 2.32522 13.0797 2.52066 11.5409L2.53461 11.4457C2.5378 11.424 2.5403 11.4022 2.54213 11.3804L2.55047 11.3194L2.54549 11.3187C2.54797 11.2216 2.53709 11.1244 2.513 11.0298C2.4784 10.8939 2.41723 10.7663 2.33303 10.6543C2.24883 10.5422 2.14326 10.4479 2.02242 10.3769C1.90158 10.3059 1.76786 10.2595 1.62899 10.2404C1.49012 10.2213 1.34885 10.23 1.21334 10.2658C1.07782 10.3017 0.950755 10.364 0.839469 10.4492C0.72818 10.5344 0.63488 10.6409 0.564956 10.7624C0.516274 10.8469 0.479594 10.9376 0.455796 11.0319L0.44791 11.0308L0.430966 11.1547C0.171888 13.0494 0.355534 14.9784 0.967484 16.7902C1.56626 18.5629 2.55915 20.1763 3.87086 21.5092L3.87059 21.5095L3.92363 21.5625C3.93503 21.574 3.94646 21.5854 3.95791 21.5968L3.95898 21.5979C3.97104 21.6099 3.98312 21.622 3.99522 21.634L4.04629 21.6849L4.04654 21.6846C8.83917 26.3852 16.493 26.4364 21.2576 21.7657L21.258 21.7662L21.3441 21.6801C21.3449 21.6793 21.3456 21.6785 21.3464 21.6778C21.3472 21.677 21.3479 21.6763 21.3487 21.6755L21.4348 21.5894L21.4343 21.5889C26.1034 16.8248 26.0538 9.1719 21.3545 4.37918L21.3549 4.37875L21.2665 4.29036C21.2665 4.29035 21.2665 4.29034 21.2665 4.29033L21.1781 4.20197L21.1777 4.2024C16.428 -0.454752 8.86936 -0.546451 4.097 3.99781L4.09437 3.48327L4.0944 3.48327L4.09373 3.3583V3.35827C4.09373 3.35815 4.09373 3.35803 4.09373 3.35791L4.09309 3.23327L4.08568 3.23331C4.07372 3.13695 4.04858 3.04248 4.01079 2.95261C3.95677 2.82415 3.87798 2.70758 3.77892 2.60957C3.67985 2.51155 3.56245 2.43401 3.43342 2.38137C3.30439 2.32873 3.16625 2.30202 3.0269 2.30276C2.88754 2.3035 2.7497 2.33169 2.62123 2.3857C2.49277 2.43972 2.37621 2.51851 2.27819 2.61757C2.18018 2.71664 2.10264 2.83403 2.04999 2.96307C2.01317 3.05334 1.98903 3.14807 1.9781 3.24455L1.97075 3.24459L1.97138 3.36911C1.97138 3.36927 1.97138 3.36943 1.97138 3.36959L1.97138 3.36971L1.98761 6.54618L1.98761 6.54632L1.98762 6.54856L1.98825 6.67126L1.9955 6.67123C2.02417 6.90482 2.12993 7.1236 2.29791 7.29181C2.46591 7.46003 2.68458 7.56609 2.91817 7.59506L2.91813 7.60252L3.04313 7.60311L3.0432 7.60311L3.04331 7.60311L3.16812 7.60377L3.16812 7.60369L6.09621 7.6175L6.22121 7.61808L6.34621 7.61867L6.34624 7.61128C6.44272 7.60029 6.53743 7.57609 6.62768 7.5392C6.75668 7.48647 6.87402 7.40885 6.97302 7.31078C7.07202 7.2127 7.15073 7.09608 7.20466 6.96758C7.25859 6.83908 7.28668 6.70122 7.28734 6.56186C7.28799 6.42251 7.26118 6.28439 7.20845 6.15539C7.15573 6.0264 7.07811 5.90905 6.98003 5.81005C6.88195 5.71105 6.76533 5.63234 6.63683 5.57841C6.54693 5.54068 6.45245 5.5156 6.35608 5.50371L6.35611 5.49633L6.23122 5.49574C6.23119 5.49574 6.23115 5.49574 6.23111 5.49574L6.10612 5.49516Z" fill="black" stroke="black" stroke-width="0.25"/>
</svg>
