<svg width="26" height="26" viewBox="0 0 26 26" fill="none" xmlns="http://www.w3.org/2000/svg">
<path fill-rule="evenodd" clip-rule="evenodd" d="M1.41406 5.24918C1.96635 5.24918 2.41406 5.69689 2.41406 6.24918V22.0939C2.41406 22.429 2.54718 22.7503 2.78414 22.9873C3.0211 23.2243 3.34248 23.3574 3.67759 23.3574H19.5223C20.0746 23.3574 20.5223 23.8051 20.5223 24.3574C20.5223 24.9097 20.0746 25.3574 19.5223 25.3574H3.67759C2.81205 25.3574 1.98196 25.0135 1.36993 24.4015C0.757897 23.7895 0.414062 22.9594 0.414062 22.0939V6.24918C0.414062 5.69689 0.861778 5.24918 1.41406 5.24918Z" fill="black"/>
<path fill-rule="evenodd" clip-rule="evenodd" d="M18.0184 11.9976C18.7174 11.2987 19.6654 10.906 20.654 10.906C21.6425 10.906 22.5905 11.2987 23.2895 11.9976L24.7563 13.4644C25.1469 13.8549 25.1469 14.4881 24.7563 14.8786C24.3658 15.2692 23.7327 15.2692 23.3421 14.8786L21.8754 13.4119C21.5515 13.088 21.1121 12.906 20.654 12.906C20.1958 12.906 19.7565 13.088 19.4325 13.4119L12.307 20.5374C11.9164 20.928 11.2833 20.928 10.8927 20.5374C10.5022 20.1469 10.5022 19.5138 10.8927 19.1232L18.0184 11.9976Z" fill="black"/>
<path fill-rule="evenodd" clip-rule="evenodd" d="M12.7318 7.24918C12.034 7.24918 11.4683 7.81488 11.4683 8.5127C11.4683 9.21053 12.034 9.77623 12.7318 9.77623C13.4296 9.77623 13.9953 9.21053 13.9953 8.5127C13.9953 7.81488 13.4296 7.24918 12.7318 7.24918ZM9.46826 8.5127C9.46826 6.71031 10.9294 5.24918 12.7318 5.24918C14.5342 5.24918 15.9953 6.71031 15.9953 8.5127C15.9953 10.3151 14.5342 11.7762 12.7318 11.7762C10.9294 11.7762 9.46826 10.3151 9.46826 8.5127Z" fill="black"/>
<path fill-rule="evenodd" clip-rule="evenodd" d="M8.20469 2.72212C7.50686 2.72212 6.94116 3.28782 6.94116 3.98565V17.5668C6.94116 18.2646 7.50686 18.8303 8.20469 18.8303H21.7858C22.4837 18.8303 23.0494 18.2646 23.0494 17.5668V3.98565C23.0494 3.28782 22.4837 2.72212 21.7858 2.72212H8.20469ZM4.94116 3.98565C4.94116 2.18325 6.40229 0.722122 8.20469 0.722122H21.7858C23.5882 0.722122 25.0494 2.18325 25.0494 3.98565V17.5668C25.0494 19.3692 23.5882 20.8303 21.7858 20.8303H8.20469C6.40229 20.8303 4.94116 19.3692 4.94116 17.5668V3.98565Z" fill="black"/>
</svg>
