<svg width="19" height="20" viewBox="0 0 19 20" fill="none" xmlns="http://www.w3.org/2000/svg">
<path d="M12.5391 13.7129C12.1001 14.1389 10.3701 15.2745 10.3701 15.8819M10.3701 15.8819C10.3701 16.4892 12.1001 17.6248 12.5391 18.0508M10.3701 15.8819H17.3108" stroke="#FEAFB1" stroke-width="1.5" stroke-linecap="round" stroke-linejoin="round"/>
<path d="M8.63595 18.9184H8.3991C5.57079 18.9184 4.1549 18.9184 3.1728 18.2261C2.89331 18.0301 2.64349 17.7948 2.43102 17.5277C1.69531 16.6028 1.69531 15.272 1.69531 12.6085V10.4005C1.69531 7.82985 1.69531 6.54409 2.10221 5.51775C2.75636 3.86674 4.13929 2.56537 5.89353 1.94939C6.98321 1.56679 8.34792 1.56679 11.0808 1.56679C12.6407 1.56679 13.4215 1.56679 14.0444 1.78542C15.0465 2.13766 15.8369 2.88117 16.2108 3.82423C16.4442 4.41072 16.4442 5.14556 16.4442 6.61437V11.1102" stroke="#FEAFB1" stroke-width="1.5" stroke-linecap="round" stroke-linejoin="round"/>
<path d="M1.69531 10.2426C1.69531 9.47568 1.99997 8.74018 2.54226 8.19789C3.08454 7.6556 3.82005 7.35094 4.58696 7.35094C5.16477 7.35094 5.84582 7.45158 6.40714 7.30149C6.65241 7.23548 6.87602 7.10616 7.05555 6.92648C7.23508 6.7468 7.36422 6.52308 7.43002 6.27775C7.58011 5.71642 7.47947 5.03537 7.47947 4.45756C7.4797 3.6908 7.78445 2.95552 8.32672 2.41342C8.86898 1.87132 9.60435 1.56679 10.3711 1.56679" stroke="#FEAFB1" stroke-width="1.5" stroke-linecap="round" stroke-linejoin="round"/>
</svg>
