<svg width="27" height="27" viewBox="0 0 27 27" fill="none" xmlns="http://www.w3.org/2000/svg">
<path d="M13.8743 1.11751H13.874C11.3733 1.11751 8.92868 1.85907 6.84937 3.24841C4.77007 4.63776 3.14945 6.61249 2.19246 8.92288C1.23546 11.2333 0.985065 13.7756 1.47294 16.2283C1.96081 18.681 3.16504 20.9339 4.93334 22.7022C6.70164 24.4705 8.95459 25.6748 11.4073 26.1626C13.86 26.6505 16.4023 26.4001 18.7127 25.4431C21.0231 24.4861 22.9978 22.8655 24.3872 20.7862C25.7765 18.7069 26.5181 16.2623 26.5181 13.7615V13.7613C26.5144 10.4091 25.1811 7.19522 22.8107 4.82485C20.4404 2.45448 17.2265 1.12119 13.8743 1.11751ZM15.3929 20.238C15.5327 20.0982 15.6113 19.9085 15.6113 19.7107C15.6113 19.5129 15.5327 19.3232 15.3929 19.1834C15.253 19.0435 15.0633 18.9649 14.8655 18.9649C14.8004 18.9649 14.7379 18.939 14.6918 18.8929C14.6457 18.8469 14.6198 18.7843 14.6198 18.7192V13.7615C14.6198 13.3008 14.4368 12.8589 14.1109 12.5331C13.7851 12.2073 13.3433 12.0243 12.8825 12.0243C12.6847 12.0243 12.495 12.1028 12.3552 12.2427C12.2153 12.3826 12.1367 12.5722 12.1367 12.77C12.1367 12.9678 12.2153 13.1575 12.3552 13.2974C12.495 13.4372 12.6847 13.5158 12.8825 13.5158C12.9477 13.5158 13.0102 13.5417 13.0563 13.5878C13.1024 13.6339 13.1283 13.6964 13.1283 13.7615V18.7192C13.1283 19.1799 13.3113 19.6218 13.6371 19.9476C13.9629 20.2734 14.4048 20.4564 14.8655 20.4564C15.0633 20.4564 15.253 20.3779 15.3929 20.238ZM13.3783 9.54969C13.6238 9.54969 13.8639 9.47688 14.068 9.34046C14.2722 9.20404 14.4313 9.01014 14.5253 8.78328C14.6192 8.55642 14.6438 8.30679 14.5959 8.06596C14.548 7.82513 14.4298 7.60391 14.2562 7.43028C14.0825 7.25665 13.8613 7.13841 13.6205 7.0905C13.3796 7.0426 13.13 7.06718 12.9032 7.16115C12.6763 7.25512 12.4824 7.41425 12.346 7.61842C12.2096 7.82258 12.1367 8.06262 12.1367 8.30817C12.1367 8.63744 12.2675 8.95323 12.5004 9.18606C12.7332 9.41889 13.049 9.54969 13.3783 9.54969ZM23.147 7.56554C24.3724 9.39949 25.0265 11.5556 25.0265 13.7613C25.0233 16.7182 23.8473 19.5531 21.7564 21.6439C19.6656 23.7348 16.8307 24.9109 13.8738 24.9141C11.6681 24.914 9.51197 24.2599 7.67802 23.0345C5.844 21.8091 4.41455 20.0673 3.57044 18.0294C2.72634 15.9916 2.50548 13.7492 2.9358 11.5858C3.36612 9.42242 4.4283 7.43524 5.98801 5.87553C7.54771 4.31582 9.5349 3.25365 11.6983 2.82332C13.8617 2.393 16.1041 2.61386 18.1419 3.45797C20.1798 4.30207 21.9216 5.73152 23.147 7.56554Z" fill="black" stroke="black" stroke-width="0.5"/>
</svg>
