<svg width="22" height="23" viewBox="0 0 22 23" fill="none" xmlns="http://www.w3.org/2000/svg">
<path d="M5.79215 19.4887C7.30841 20.6831 9.18318 21.3313 11.1134 21.3284C13.1218 21.3284 14.97 20.6412 16.4346 19.4887M8.57946 4.47626C5.05782 5.55824 2.49805 8.83663 2.49805 12.713C2.49805 13.6886 2.66022 14.6261 2.95922 15.5003M13.6473 4.47626C17.1689 5.55824 19.7287 8.83663 19.7287 12.713C19.7287 13.6886 19.5665 14.6261 19.2675 15.5003" stroke="#FEAFB1" stroke-width="1.8"/>
<path d="M20.7383 17.7809C20.7383 18.461 20.4707 19.0782 20.0349 19.5333C19.6279 19.9585 19.0855 20.2288 18.501 20.2977C17.9164 20.3666 17.3261 20.2298 16.8314 19.9109C16.3367 19.592 15.9684 19.1108 15.7899 18.5499C15.6113 17.9891 15.6335 17.3835 15.8528 16.8373C16.0721 16.291 16.4746 15.8382 16.9914 15.5564C17.5082 15.2747 18.107 15.1816 18.6849 15.2932C19.2628 15.4048 19.7838 15.7142 20.1585 16.1681C20.5332 16.622 20.7382 17.1923 20.7383 17.7809ZM6.54831 17.7809C6.54831 18.461 6.28073 19.0782 5.8449 19.5333C5.43789 19.9585 4.89556 20.2288 4.311 20.2977C3.72645 20.3666 3.13614 20.2298 2.64143 19.9109C2.14672 19.592 1.77847 19.1108 1.59989 18.5499C1.42132 17.9891 1.44358 17.3835 1.66283 16.8373C1.88209 16.291 2.28466 15.8382 2.80145 15.5564C3.31824 15.2747 3.91699 15.1816 4.49491 15.2932C5.07283 15.4048 5.59387 15.7142 5.96856 16.1681C6.34326 16.622 6.54824 17.1923 6.54831 17.7809ZM13.6433 4.09768C13.6433 4.77778 13.3757 5.39504 12.9399 5.85014C12.5329 6.27534 11.9905 6.54559 11.406 6.61449C10.8214 6.68339 10.2311 6.54664 9.73641 6.22772C9.2417 5.9088 8.87345 5.4276 8.69488 4.86673C8.51631 4.30587 8.53856 3.70034 8.75781 3.1541C8.97707 2.60786 9.37965 2.15499 9.89643 1.87324C10.4132 1.59148 11.012 1.49843 11.5899 1.61005C12.1678 1.72167 12.6889 2.03099 13.0635 2.48493C13.4382 2.93886 13.6432 3.50907 13.6433 4.09768Z" stroke="#FEAFB1" stroke-width="1.8" stroke-linecap="round" stroke-linejoin="round"/>
</svg>
