<svg width="17" height="16" viewBox="0 0 17 16" fill="none" xmlns="http://www.w3.org/2000/svg">
<path d="M4.4659 14.0224C5.60971 14.9234 7.02397 15.4123 8.48003 15.4101C9.99508 15.4101 11.3893 14.8917 12.4942 14.0224M6.56854 2.69755C3.91195 3.51376 1.98096 5.98684 1.98096 8.91105C1.98096 9.64697 2.10329 10.3542 2.32885 11.0137M10.3915 2.69755C13.0481 3.51376 14.9791 5.98684 14.9791 8.91105C14.9791 9.64697 14.8568 10.3542 14.6312 11.0137" stroke="black"/>
<path d="M15.7437 12.734C15.7437 13.2471 15.5418 13.7127 15.213 14.056C14.906 14.3768 14.4969 14.5806 14.0559 14.6326C13.6149 14.6846 13.1696 14.5814 12.7965 14.3408C12.4233 14.1003 12.1455 13.7373 12.0108 13.3142C11.8761 12.8911 11.8928 12.4343 12.0582 12.0222C12.2236 11.6102 12.5273 11.2685 12.9172 11.056C13.307 10.8434 13.7587 10.7732 14.1946 10.8574C14.6306 10.9417 15.0237 11.175 15.3063 11.5174C15.589 11.8599 15.7436 12.29 15.7437 12.734ZM5.03929 12.734C5.03929 13.2471 4.83744 13.7127 4.50866 14.056C4.20164 14.3768 3.79252 14.5806 3.35155 14.6326C2.91059 14.6846 2.46528 14.5814 2.09209 14.3408C1.7189 14.1003 1.44111 13.7373 1.3064 13.3142C1.17169 12.8911 1.18848 12.4343 1.35388 12.0222C1.51927 11.6102 1.82296 11.2685 2.21281 11.056C2.60265 10.8434 3.05432 10.7732 3.49028 10.8574C3.92625 10.9417 4.3193 11.175 4.60195 11.5174C4.88461 11.8599 5.03924 12.29 5.03929 12.734ZM10.3915 2.41196C10.3915 2.925 10.1896 3.39064 9.86084 3.73395C9.55382 4.05471 9.1447 4.25857 8.70373 4.31055C8.26277 4.36252 7.81746 4.25937 7.44427 4.01878C7.07108 3.7782 6.79328 3.4152 6.65858 2.99211C6.52387 2.56902 6.54066 2.11223 6.70605 1.70017C6.87145 1.2881 7.17514 0.946472 7.56498 0.733929C7.95483 0.521386 8.4065 0.451189 8.84246 0.535389C9.27843 0.61959 9.67147 0.852936 9.95413 1.19536C10.2368 1.53779 10.3914 1.96794 10.3915 2.41196Z" stroke="black" stroke-linecap="round" stroke-linejoin="round"/>
</svg>
