<svg width="15" height="15" viewBox="0 0 15 15" fill="none" xmlns="http://www.w3.org/2000/svg">
<path d="M14.6613 13.5004C13.5986 11.6631 11.9609 10.3457 10.0497 9.72121C10.995 9.15842 11.7295 8.30086 12.1404 7.28023C12.5512 6.2596 12.6156 5.13233 12.3238 4.07153C12.0319 3.01073 11.3999 2.07507 10.5248 1.40822C9.64974 0.741373 8.57995 0.380219 7.47974 0.380219C6.37953 0.380219 5.30973 0.741373 4.43464 1.40822C3.55955 2.07507 2.92756 3.01073 2.63571 4.07153C2.34386 5.13233 2.40829 6.2596 2.81911 7.28023C3.22994 8.30086 3.96444 9.15842 4.90981 9.72121C2.99859 10.345 1.3609 11.6624 0.298184 13.5004C0.259212 13.5639 0.233362 13.6346 0.22216 13.7083C0.210957 13.782 0.214629 13.8572 0.232958 13.9295C0.251287 14.0017 0.283903 14.0696 0.32888 14.129C0.373858 14.1885 0.430286 14.2383 0.494836 14.2756C0.559385 14.3129 0.630749 14.3369 0.704716 14.3461C0.778683 14.3554 0.853755 14.3497 0.925503 14.3295C0.997251 14.3093 1.06422 14.2749 1.12246 14.2284C1.1807 14.1818 1.22904 14.1241 1.26461 14.0586C2.57923 11.7866 4.90283 10.4302 7.47974 10.4302C10.0566 10.4302 12.3802 11.7866 13.6949 14.0586C13.7304 14.1241 13.7788 14.1818 13.837 14.2284C13.8953 14.2749 13.9622 14.3093 14.034 14.3295C14.1057 14.3497 14.1808 14.3554 14.2548 14.3461C14.3287 14.3369 14.4001 14.3129 14.4646 14.2756C14.5292 14.2383 14.5856 14.1885 14.6306 14.129C14.6756 14.0696 14.7082 14.0017 14.7265 13.9295C14.7448 13.8572 14.7485 13.782 14.7373 13.7083C14.7261 13.6346 14.7003 13.5639 14.6613 13.5004ZM3.57217 5.40613C3.57217 4.63329 3.80134 3.8778 4.23071 3.2352C4.66008 2.59261 5.27036 2.09177 5.98437 1.79601C6.69839 1.50026 7.48407 1.42287 8.24207 1.57365C9.00006 1.72442 9.69632 2.09658 10.2428 2.64307C10.7893 3.18955 11.1614 3.88581 11.3122 4.64381C11.463 5.4018 11.3856 6.18748 11.0899 6.9015C10.7941 7.61551 10.2933 8.22579 9.65067 8.65516C9.00807 9.08453 8.25258 9.3137 7.47974 9.3137C6.44373 9.31259 5.45046 8.90055 4.71789 8.16798C3.98532 7.43541 3.57328 6.44215 3.57217 5.40613Z" fill="black"/>
</svg>
