<svg width="23" height="23" viewBox="0 0 23 23" fill="none" xmlns="http://www.w3.org/2000/svg">
<path d="M18.6952 4.5464C19.7945 5.64245 20.6241 6.97882 21.1188 8.45019C21.6135 9.92156 21.7597 11.4877 21.5458 13.0252C21.332 14.5627 20.764 16.0295 19.8865 17.3101C19.0091 18.5906 17.8463 19.6499 16.4897 20.4043C15.1383 21.1345 13.6386 21.5478 12.104 21.6129C10.5694 21.6781 9.04008 21.3934 7.63173 20.7804C6.22337 20.1674 4.97286 19.2421 3.97479 18.0746C2.97673 16.907 2.25725 15.5278 1.87078 14.0412C1.46865 12.3659 1.50035 10.6158 1.96289 8.95617C2.42543 7.29655 3.30352 5.78229 4.51419 4.5565C5.08325 3.97608 4.19118 3.08275 3.62212 3.66443C1.77662 5.51193 0.628764 7.94216 0.374124 10.5411C0.119485 13.14 0.77381 15.7468 2.22562 17.9174C3.67744 20.0879 5.83692 21.688 8.33616 22.445C10.8354 23.2019 13.5198 23.0689 15.932 22.0686C17.6475 21.3582 19.1613 20.2355 20.3391 18.8001C21.517 17.3647 22.3226 15.6609 22.6844 13.8397C23.0463 12.0185 22.9534 10.1362 22.4138 8.35949C21.8742 6.58281 20.9047 4.96668 19.5911 3.65433C19.022 3.07266 18.13 3.96599 18.699 4.5464H18.6952Z" fill="black"/>
<path d="M15.8415 9.86728L12.0562 13.6526C11.9397 13.7715 11.7809 13.8395 11.6145 13.8419C11.53 13.8424 11.4462 13.8259 11.3682 13.7933C11.2902 13.7608 11.2195 13.713 11.1603 13.6526L7.37499 9.86728C7.25619 9.74849 7.18945 9.58736 7.18945 9.41935C7.18945 9.25135 7.25619 9.09022 7.37499 8.97143C7.49379 8.85263 7.65491 8.78589 7.82292 8.78589C7.99093 8.78589 8.15205 8.85263 8.27085 8.97143L10.971 11.6716V0.978107C10.9743 0.811797 11.0418 0.653199 11.1594 0.535578C11.277 0.417957 11.4356 0.350452 11.6019 0.347221C11.7692 0.347221 11.9297 0.413689 12.048 0.532003C12.1663 0.650317 12.2328 0.810786 12.2328 0.978107V11.6905L14.9456 8.96512C15.0044 8.90629 15.0743 8.85963 15.1511 8.8278C15.228 8.79596 15.3104 8.77958 15.3935 8.77958C15.4767 8.77958 15.5591 8.79596 15.636 8.8278C15.7128 8.85963 15.7827 8.90629 15.8415 8.96512C15.9003 9.02394 15.947 9.09377 15.9788 9.17063C16.0106 9.24748 16.027 9.32986 16.027 9.41304C16.027 9.49623 16.0106 9.57861 15.9788 9.65546C15.947 9.73232 15.9003 9.80215 15.8415 9.86097V9.86728Z" fill="black"/>
</svg>
