<svg width="26" height="26" viewBox="0 0 26 26" fill="none" xmlns="http://www.w3.org/2000/svg">
<path fill-rule="evenodd" clip-rule="evenodd" d="M8.23513 0.557922C8.71075 0.557922 9.09632 0.943491 9.09632 1.41911V4.00384H16.56V1.41911C16.56 0.943491 16.9456 0.557922 17.4212 0.557922C17.8968 0.557922 18.2824 0.943491 18.2824 1.41911V11.4883C18.9032 11.5414 19.4935 11.7072 19.9293 12.1539C20.4928 12.7316 20.5789 13.5585 20.5789 14.337C20.5789 15.0599 20.4977 15.7926 20.0786 16.3457C20.5085 16.9088 20.5789 17.6521 20.5789 18.3559C20.5789 19.0788 20.4977 19.8115 20.0786 20.3646C20.5085 20.9277 20.5789 21.671 20.5789 22.3748C20.5789 23.1946 20.4745 24.0269 19.8913 24.5958C19.3136 25.1593 18.4867 25.2454 17.7082 25.2454H7.94807C7.12826 25.2454 6.29595 25.141 5.72705 24.5578C5.16351 23.9801 5.07743 23.1532 5.07743 22.3748C5.07743 21.6518 5.15859 20.9192 5.57768 20.366C5.14779 19.803 5.07743 19.0596 5.07743 18.3559C5.07743 17.633 5.15859 16.9003 5.57768 16.3471C5.14779 15.7841 5.07743 15.0408 5.07743 14.337C5.07743 13.5172 5.1818 12.6849 5.765 12.116C6.20176 11.6899 6.78094 11.5368 7.37394 11.4874V1.41911C7.37394 0.943491 7.75951 0.557922 8.23513 0.557922ZM9.09632 5.72622V11.4663H16.56V5.72622H9.09632ZM7.94807 13.1887C7.18787 13.1887 7.01003 13.3076 6.96769 13.3489C6.93084 13.3849 6.79981 13.5573 6.79981 14.337C6.79981 15.0972 6.91869 15.275 6.95999 15.3174C6.99594 15.3542 7.16835 15.4852 7.94807 15.4852H17.7082C18.4684 15.4852 18.6463 15.3664 18.6886 15.3251C18.7255 15.2891 18.8565 15.1167 18.8565 14.337C18.8565 13.5768 18.7376 13.399 18.6963 13.3566C18.6604 13.3198 18.488 13.1887 17.7082 13.1887H7.94807ZM17.7082 17.2076H7.94807C7.18787 17.2076 7.01003 17.3265 6.96769 17.3678C6.93084 17.4038 6.79981 17.5762 6.79981 18.3559C6.79981 19.1161 6.91869 19.2939 6.95999 19.3363C6.99594 19.3731 7.16835 19.5041 7.94807 19.5041H17.7082C18.4684 19.5041 18.6463 19.3853 18.6886 19.344C18.7255 19.308 18.8565 19.1356 18.8565 18.3559C18.8565 17.5957 18.7376 17.4178 18.6963 17.3755C18.6604 17.3386 18.488 17.2076 17.7082 17.2076ZM17.7082 21.2265H7.94807C7.18787 21.2265 7.01003 21.3454 6.96769 21.3867C6.93084 21.4227 6.79981 21.5951 6.79981 22.3748C6.79981 23.135 6.91869 23.3128 6.95999 23.3552C6.99594 23.392 7.16835 23.523 7.94807 23.523H17.7082C18.4684 23.523 18.6463 23.4042 18.6886 23.3628C18.7255 23.3269 18.8565 23.1545 18.8565 22.3748C18.8565 21.6146 18.7376 21.4367 18.6963 21.3944C18.6604 21.3575 18.488 21.2265 17.7082 21.2265ZM6.22567 4.85991C6.2285 5.33552 5.84523 5.72338 5.36961 5.7262C4.5752 5.73093 4.32093 5.77252 4.12547 5.86684L4.12343 5.86783C3.87039 5.98911 3.66495 6.21425 2.93553 7.1254C2.93547 7.12547 2.93558 7.12533 2.93553 7.1254L2.0184 8.27324C1.72151 8.64482 1.17961 8.70537 0.808027 8.40847C0.436446 8.11158 0.3759 7.56967 0.672793 7.19809L1.59025 6.04984C1.62483 6.00664 1.65945 5.96329 1.69316 5.92109C2.26901 5.20008 2.72635 4.62745 3.37896 4.31464C3.97291 4.02868 4.60909 4.00831 5.35937 4.00385C5.83499 4.00102 6.22284 4.3843 6.22567 4.85991ZM19.4306 4.85991C19.4335 4.3843 19.8213 4.00102 20.2969 4.00385C21.0476 4.00831 21.6841 4.0287 22.2784 4.31513C22.9304 4.62805 23.3876 5.20046 23.9631 5.92109C23.9969 5.96329 24.031 6.00601 24.0656 6.04921L24.9833 7.19662C25.2803 7.56805 25.22 8.10999 24.8486 8.40706C24.4772 8.70414 23.9352 8.64385 23.6382 8.27242L22.721 7.12562C21.9914 6.21428 21.7859 5.98912 21.5329 5.86782L21.5308 5.86684C21.3354 5.77252 21.0811 5.73093 20.2867 5.7262C19.8111 5.72338 19.4278 5.33552 19.4306 4.85991Z" fill="#FEAFB1"/>
</svg>
