<svg width="24" height="25" viewBox="0 0 24 25" fill="none" xmlns="http://www.w3.org/2000/svg">
<path d="M5.77434 7.70189V1.94926C5.77434 1.69497 5.87536 1.45111 6.05516 1.2713C6.23497 1.0915 6.47883 0.990486 6.73311 0.990486C6.9874 0.990486 7.23126 1.0915 7.41107 1.2713C7.59087 1.45111 7.69189 1.69497 7.69189 1.94926V7.70189C7.69189 7.95617 7.59087 8.20003 7.41107 8.37984C7.23126 8.55964 6.9874 8.66066 6.73311 8.66066C6.47883 8.66066 6.23497 8.55964 6.05516 8.37984C5.87536 8.20003 5.77434 7.95617 5.77434 7.70189ZM23.0322 1.94926V24.001C23.0322 24.2553 22.9312 24.4991 22.7514 24.679C22.5716 24.8588 22.3277 24.9598 22.0735 24.9598C21.8192 24.9598 21.5753 24.8588 21.3955 24.679C21.2157 24.4991 21.1147 24.2553 21.1147 24.001V18.2484H15.3621C15.1078 18.2484 14.8639 18.1474 14.6841 17.9676C14.5043 17.7877 14.4033 17.5439 14.4033 17.2896C14.4479 14.993 14.7379 12.7077 15.2686 10.4727C16.4407 5.62015 18.6626 2.36752 21.6959 1.06839C21.8417 1.00593 22.0007 0.980627 22.1587 0.994733C22.3167 1.00884 22.4687 1.06192 22.6011 1.14921C22.7336 1.2365 22.8423 1.35528 22.9175 1.49491C22.9927 1.63454 23.0322 1.79065 23.0322 1.94926ZM21.1147 3.61512C17.2592 6.55975 16.5042 13.7326 16.3568 16.3308H21.1147V3.61512ZM11.5138 1.79226C11.495 1.66636 11.4514 1.54547 11.3854 1.43663C11.3194 1.32778 11.2324 1.23317 11.1294 1.15831C11.0265 1.08344 10.9097 1.02982 10.7858 1.00058C10.6619 0.971333 10.5334 0.967049 10.4079 0.987975C10.2823 1.0089 10.1622 1.05462 10.0545 1.12246C9.9468 1.1903 9.85369 1.27891 9.78059 1.38311C9.70749 1.48732 9.65588 1.60503 9.62876 1.7294C9.60163 1.85376 9.59954 1.98228 9.62261 2.10745L10.5682 7.77739C10.5682 8.79452 10.1641 9.76999 9.44493 10.4892C8.72571 11.2084 7.75024 11.6125 6.73311 11.6125C5.71599 11.6125 4.74052 11.2084 4.0213 10.4892C3.30208 9.76999 2.89803 8.79452 2.89803 7.77739L3.84242 2.10745C3.86549 1.98228 3.8634 1.85376 3.83627 1.7294C3.80915 1.60503 3.75753 1.48732 3.68444 1.38311C3.61134 1.27891 3.51823 1.1903 3.41053 1.12246C3.30283 1.05462 3.1827 1.0089 3.05714 0.987975C2.93159 0.967049 2.80313 0.971333 2.67924 1.00058C2.55536 1.02982 2.43855 1.08344 2.33561 1.15831C2.23266 1.23317 2.14566 1.32778 2.07967 1.43663C2.01368 1.54547 1.97002 1.66636 1.95124 1.79226L0.992471 7.54489C0.984178 7.5968 0.98017 7.64931 0.980486 7.70189C0.982402 9.06072 1.46457 10.3751 2.34178 11.4129C3.219 12.4506 4.4348 13.1449 5.77434 13.373V24.001C5.77434 24.2553 5.87536 24.4991 6.05516 24.679C6.23497 24.8588 6.47883 24.9598 6.73311 24.9598C6.9874 24.9598 7.23126 24.8588 7.41107 24.679C7.59087 24.4991 7.69189 24.2553 7.69189 24.001V13.373C9.03143 13.1449 10.2472 12.4506 11.1244 11.4129C12.0017 10.3751 12.4838 9.06072 12.4857 7.70189C12.4857 7.64928 12.4813 7.59677 12.4726 7.54489L11.5138 1.79226Z" fill="black"/>
</svg>
