<svg width="23" height="23" viewBox="0 0 23 23" fill="none" xmlns="http://www.w3.org/2000/svg">
<path d="M21.8003 0.103426L1.55374 6.85228C1.39504 6.90516 1.25502 7.00279 1.15052 7.13342C1.04602 7.26404 0.981509 7.42208 0.964751 7.58852C0.950589 7.7493 0.981557 7.91086 1.05418 8.05501C1.12679 8.19916 1.23818 8.3202 1.37582 8.40452L9.79961 13.1962L14.5484 21.6261C14.616 21.7438 14.7103 21.844 14.8238 21.9186C14.9372 21.9932 15.0665 22.0401 15.2014 22.0557C15.3363 22.0712 15.4729 22.0548 15.6003 22.0079C15.7277 21.961 15.8423 21.8849 15.9349 21.7857C16.0304 21.689 16.1019 21.5713 16.1435 21.4421L22.8924 1.19551C22.9414 1.04353 22.9475 0.880968 22.9101 0.72573C22.8726 0.570492 22.7931 0.428602 22.6801 0.315684C22.5672 0.202766 22.4253 0.123199 22.2701 0.0857483C22.1148 0.0482977 21.9523 0.0544154 21.8003 0.103426ZM15.1128 19.0616L11.493 12.7299L17.162 7.06088L15.9349 5.83382L10.2659 11.5029L3.93425 7.88301L20.6959 2.29987L15.1128 19.0616Z" fill="white"/>
</svg>
