<svg width="25" height="25" viewBox="0 0 25 25" fill="none" xmlns="http://www.w3.org/2000/svg">
<path d="M22.8254 0.945787L1.17975 8.161C1.01009 8.21754 0.860385 8.32192 0.748666 8.46157C0.636947 8.60122 0.567978 8.77018 0.550062 8.94812C0.534921 9.12002 0.568029 9.29273 0.645665 9.44684C0.723301 9.60096 0.842387 9.73036 0.989534 9.8205L9.99544 14.9433L15.0723 23.9558C15.1447 24.0816 15.2455 24.1887 15.3668 24.2685C15.488 24.3482 15.6263 24.3984 15.7705 24.415C15.9147 24.4316 16.0608 24.4141 16.197 24.364C16.3332 24.3138 16.4557 24.2324 16.5547 24.1263C16.6568 24.023 16.7332 23.8972 16.7777 23.759L23.993 2.11334C24.0454 1.95085 24.0519 1.77706 24.0119 1.61109C23.9718 1.44513 23.8868 1.29343 23.766 1.17271C23.6453 1.05199 23.4936 0.966926 23.3277 0.926887C23.1617 0.886848 22.9879 0.893388 22.8254 0.945787ZM15.6758 21.214L11.8058 14.4448L17.8666 8.38402L16.5547 7.07216L10.4939 13.1329L3.72476 9.26296L21.6447 3.29401L15.6758 21.214Z" fill="black"/>
</svg>
