<svg width="23" height="23" viewBox="0 0 23 23" fill="none" xmlns="http://www.w3.org/2000/svg">
<path d="M2.25669 8.8496V8.68392V1.08449C2.25669 0.869459 2.17127 0.663237 2.01922 0.511189C1.86717 0.359141 1.66095 0.273721 1.44592 0.273721C1.23089 0.273721 1.02467 0.359141 0.872624 0.511189C0.720576 0.663237 0.635156 0.869459 0.635156 1.08449V21.1214C0.635156 21.3364 0.720576 21.5426 0.872624 21.6947C1.02467 21.8467 1.23089 21.9321 1.44592 21.9321H21.4828C21.6978 21.9321 21.904 21.8467 22.0561 21.6947C22.2081 21.5426 22.2936 21.3364 22.2936 21.1214C22.2936 20.9063 22.2081 20.7001 22.0561 20.5481C21.904 20.396 21.6978 20.3106 21.4828 20.3106H20.572H20.472V20.2106V4.72755C20.472 4.57698 20.4301 4.42939 20.3509 4.30131C20.2718 4.17323 20.1585 4.06972 20.0238 4.00238C19.8892 3.93505 19.7384 3.90654 19.5884 3.92006C19.4385 3.93359 19.2952 3.9886 19.1748 4.07894L12.3744 9.17923L12.3211 9.21919L12.2637 9.18544L7.62488 6.458L7.62475 6.45792C7.50576 6.38771 7.37081 6.34906 7.2327 6.34566C7.09462 6.34225 6.95796 6.37418 6.83568 6.43842L2.25669 8.8496ZM2.25669 8.8496L2.40328 8.77241L6.8356 6.43846L2.25669 8.8496ZM2.31013 10.6538L2.25669 10.6819V10.7423V20.2106V20.3106H2.35669H18.7505H18.8505V20.2106V6.54909V6.34909L18.6905 6.46909L12.8616 10.8407C12.7337 10.9366 12.5802 10.9924 12.4205 11.0013C12.2609 11.0101 12.1022 10.9716 11.9644 10.8904L11.9643 10.8904L7.24051 8.11319L7.19252 8.08498L7.14326 8.1109L2.31013 10.6538Z" fill="black" stroke="white" stroke-width="0.2"/>
</svg>
