<svg width="22" height="31" viewBox="0 0 22 31" fill="none" xmlns="http://www.w3.org/2000/svg">
<path d="M11.8442 26.1306L11.7054 26.141L11.7053 26.2801L11.7038 29.6582C11.7038 29.9033 11.6107 30.1391 11.4434 30.3182C11.2761 30.4972 11.0471 30.6061 10.8027 30.6228C10.5582 30.6395 10.3165 30.5628 10.1264 30.4082C9.93764 30.2546 9.81374 30.0355 9.77936 29.7947L9.76965 29.6532V26.2802V26.1409L9.63075 26.1306C7.19737 25.9499 4.91635 24.8772 3.22512 23.1183C1.53421 21.3597 0.551892 19.0389 0.466461 16.6008L0.460547 16.2519V15.5085C0.460547 15.5085 0.460547 15.5085 0.460547 15.5085C0.460634 15.2635 0.553713 15.0276 0.720981 14.8486C0.88826 14.6695 1.11727 14.5607 1.36172 14.544C1.60618 14.5273 1.84786 14.604 2.03794 14.7586C2.22674 14.9122 2.35063 15.1313 2.38502 15.3721L2.39473 15.5136V16.2532C2.39456 18.3102 3.18975 20.2876 4.61399 21.7719C6.03823 23.2561 7.98119 24.1321 10.0365 24.2167L10.0365 24.2168L10.0399 24.2169L10.3616 24.2228V24.2228H10.3644H11.1091C13.1661 24.223 15.1435 23.4278 16.6278 22.0036C18.112 20.5793 18.988 18.6364 19.0727 16.5811L19.0727 16.5811L19.0728 16.5777L19.0787 16.256H19.0787V16.2532V15.5085C19.0787 15.252 19.1806 15.006 19.362 14.8246C19.5434 14.6433 19.7893 14.5414 20.0458 14.5414C20.2795 14.5414 20.5053 14.626 20.6814 14.7796C20.8563 14.9321 20.9705 15.1424 21.0032 15.3721L21.0129 15.5136V16.2532C21.0132 18.7528 20.0682 21.16 18.3677 22.9919C16.6672 24.8239 14.3369 25.9451 11.8442 26.1306ZM10.7367 1.13627C12.2771 1.13627 13.7543 1.74816 14.8435 2.83734C15.9327 3.92652 16.5446 5.40376 16.5446 6.94409V15.8808C16.5446 17.4212 15.9327 18.8984 14.8435 19.9876C13.7543 21.0768 12.2771 21.6886 10.7367 21.6886C9.19641 21.6886 7.71916 21.0768 6.62999 19.9876C5.54081 18.8984 4.92891 17.4212 4.92891 15.8808V6.94409C4.92891 5.40376 5.54081 3.92652 6.62999 2.83734C7.71916 1.74816 9.19641 1.13627 10.7367 1.13627ZM10.7367 3.07045C9.70938 3.07045 8.72411 3.47857 7.99766 4.20501C7.27121 4.93146 6.8631 5.91674 6.8631 6.94409V15.8808C6.8631 16.9082 7.27121 17.8935 7.99766 18.6199C8.72411 19.3464 9.70938 19.7545 10.7367 19.7545C11.7641 19.7545 12.7494 19.3464 13.4758 18.6199C14.2023 17.8935 14.6104 16.9082 14.6104 15.8808V6.94409C14.6104 5.91674 14.2023 4.93146 13.4758 4.20501C12.7494 3.47857 11.7641 3.07045 10.7367 3.07045Z" fill="white" stroke="#FEAFB1" stroke-width="0.3"/>
</svg>
