<svg width="271" height="203" viewBox="0 0 271 203" fill="none" xmlns="http://www.w3.org/2000/svg">
<g opacity="0.12">
<path d="M127.568 47.2039L155.051 54.5667M123.147 63.6933L139.637 68.1087M176.132 62.2652C172.69 75.096 170.971 81.5142 167.074 85.6735C163.998 88.9576 160.018 91.2564 155.637 92.2796C155.085 92.4104 154.527 92.5072 153.958 92.5754C148.752 93.2184 142.396 91.5171 130.834 88.4218C118.004 84.9794 111.585 83.261 107.426 79.3634C104.141 76.2864 101.842 72.3044 100.82 67.921C99.5228 62.3676 101.241 55.955 104.684 43.1242L107.625 32.1313L109.014 26.9819C111.603 17.5025 113.344 12.2848 116.684 8.71723C119.76 5.43527 123.74 3.13848 128.12 2.11691C133.674 0.819602 140.092 2.53796 152.928 5.98037C165.754 9.41709 172.172 11.1354 176.331 15.0274C179.617 18.1059 181.916 22.09 182.937 26.4755C183.853 30.4016 183.262 34.76 181.623 41.514" stroke="black" stroke-width="2" stroke-linecap="round"/>
<path d="M79.1747 85.0249C82.6114 97.8557 84.3355 104.274 88.2331 108.433C91.3086 111.717 95.2884 114.016 99.6699 115.039C105.223 116.331 111.641 114.613 124.478 111.176C137.303 107.739 143.721 106.021 147.881 102.123C150.678 99.503 152.768 96.2189 153.957 92.5754M109.013 26.9762C107.01 27.494 104.808 28.0858 102.384 28.7401C89.5532 32.1768 83.1349 33.8952 78.9756 37.7871C75.6896 40.8657 73.3906 44.8497 72.3696 49.2352C71.4535 53.1613 72.0452 57.5198 73.6839 64.2737" stroke="black" stroke-width="2" stroke-linecap="round" stroke-linejoin="round"/>
</g>
<path opacity="0.25" d="M10.231 172.898H8.77496L2.91896 164.018V172.898H1.46296V161.73H2.91896L8.77496 170.594V161.73H10.231V172.898ZM16.537 173.042C15.7156 173.042 14.969 172.855 14.297 172.482C13.6356 172.109 13.113 171.581 12.729 170.898C12.3556 170.205 12.169 169.405 12.169 168.498C12.169 167.602 12.361 166.813 12.745 166.13C13.1396 165.437 13.673 164.909 14.345 164.546C15.017 164.173 15.769 163.986 16.601 163.986C17.433 163.986 18.185 164.173 18.857 164.546C19.529 164.909 20.057 165.431 20.441 166.114C20.8356 166.797 21.033 167.591 21.033 168.498C21.033 169.405 20.8303 170.205 20.425 170.898C20.0303 171.581 19.4916 172.109 18.809 172.482C18.1263 172.855 17.369 173.042 16.537 173.042ZM16.537 171.762C17.0596 171.762 17.5503 171.639 18.009 171.394C18.4676 171.149 18.8356 170.781 19.113 170.29C19.401 169.799 19.545 169.202 19.545 168.498C19.545 167.794 19.4063 167.197 19.129 166.706C18.8516 166.215 18.489 165.853 18.041 165.618C17.593 165.373 17.1076 165.25 16.585 165.25C16.0516 165.25 15.561 165.373 15.113 165.618C14.6756 165.853 14.3236 166.215 14.057 166.706C13.7903 167.197 13.657 167.794 13.657 168.498C13.657 169.213 13.785 169.815 14.041 170.306C14.3076 170.797 14.6596 171.165 15.097 171.41C15.5343 171.645 16.0143 171.762 16.537 171.762ZM31.485 163.97C32.5516 163.97 33.4156 164.295 34.077 164.946C34.7383 165.586 35.069 166.514 35.069 167.73V172.898H33.629V167.938C33.629 167.063 33.4103 166.397 32.973 165.938C32.5356 165.469 31.9383 165.234 31.181 165.234C30.413 165.234 29.7996 165.474 29.341 165.954C28.893 166.434 28.669 167.133 28.669 168.05V172.898H27.213V164.13H28.669V165.378C28.957 164.93 29.3463 164.583 29.837 164.338C30.3383 164.093 30.8876 163.97 31.485 163.97ZM41.2713 173.042C40.45 173.042 39.7033 172.855 39.0313 172.482C38.37 172.109 37.8473 171.581 37.4633 170.898C37.09 170.205 36.9033 169.405 36.9033 168.498C36.9033 167.602 37.0953 166.813 37.4793 166.13C37.874 165.437 38.4073 164.909 39.0793 164.546C39.7513 164.173 40.5033 163.986 41.3353 163.986C42.1673 163.986 42.9193 164.173 43.5913 164.546C44.2633 164.909 44.7913 165.431 45.1753 166.114C45.57 166.797 45.7673 167.591 45.7673 168.498C45.7673 169.405 45.5647 170.205 45.1593 170.898C44.7647 171.581 44.226 172.109 43.5433 172.482C42.8607 172.855 42.1033 173.042 41.2713 173.042ZM41.2713 171.762C41.794 171.762 42.2847 171.639 42.7433 171.394C43.202 171.149 43.57 170.781 43.8473 170.29C44.1353 169.799 44.2793 169.202 44.2793 168.498C44.2793 167.794 44.1407 167.197 43.8633 166.706C43.586 166.215 43.2233 165.853 42.7753 165.618C42.3273 165.373 41.842 165.25 41.3193 165.25C40.786 165.25 40.2953 165.373 39.8473 165.618C39.41 165.853 39.058 166.215 38.7913 166.706C38.5247 167.197 38.3913 167.794 38.3913 168.498C38.3913 169.213 38.5193 169.815 38.7753 170.306C39.042 170.797 39.394 171.165 39.8313 171.41C40.2687 171.645 40.7487 171.762 41.2713 171.762ZM49.4577 165.33V170.498C49.4577 170.925 49.5484 171.229 49.7297 171.41C49.911 171.581 50.2257 171.666 50.6737 171.666H51.7457V172.898H50.4337C49.623 172.898 49.015 172.711 48.6097 172.338C48.2044 171.965 48.0017 171.351 48.0017 170.498V165.33H46.8657V164.13H48.0017V161.922H49.4577V164.13H51.7457V165.33H49.4577ZM61.5098 168.178C61.5098 168.455 61.4938 168.749 61.4618 169.058H54.4538C54.5072 169.922 54.8005 170.599 55.3338 171.09C55.8778 171.57 56.5338 171.81 57.3018 171.81C57.9312 171.81 58.4538 171.666 58.8698 171.378C59.2965 171.079 59.5952 170.685 59.7658 170.194H61.3338C61.0992 171.037 60.6298 171.725 59.9258 172.258C59.2218 172.781 58.3472 173.042 57.3018 173.042C56.4698 173.042 55.7232 172.855 55.0618 172.482C54.4112 172.109 53.8992 171.581 53.5258 170.898C53.1525 170.205 52.9658 169.405 52.9658 168.498C52.9658 167.591 53.1472 166.797 53.5098 166.114C53.8725 165.431 54.3792 164.909 55.0298 164.546C55.6912 164.173 56.4485 163.986 57.3018 163.986C58.1338 163.986 58.8698 164.167 59.5098 164.53C60.1498 164.893 60.6405 165.394 60.9818 166.034C61.3338 166.663 61.5098 167.378 61.5098 168.178ZM60.0058 167.874C60.0058 167.319 59.8832 166.845 59.6378 166.45C59.3925 166.045 59.0565 165.741 58.6298 165.538C58.2138 165.325 57.7498 165.218 57.2378 165.218C56.5018 165.218 55.8725 165.453 55.3498 165.922C54.8378 166.391 54.5445 167.042 54.4698 167.874H60.0058ZM66.5357 173.042C65.8637 173.042 65.261 172.93 64.7277 172.706C64.1944 172.471 63.773 172.151 63.4637 171.746C63.1544 171.33 62.9837 170.855 62.9517 170.322H64.4557C64.4984 170.759 64.701 171.117 65.0637 171.394C65.437 171.671 65.9224 171.81 66.5197 171.81C67.0744 171.81 67.5117 171.687 67.8317 171.442C68.1517 171.197 68.3117 170.887 68.3117 170.514C68.3117 170.13 68.141 169.847 67.7997 169.666C67.4584 169.474 66.9304 169.287 66.2157 169.106C65.565 168.935 65.0317 168.765 64.6157 168.594C64.2104 168.413 63.8584 168.151 63.5597 167.81C63.2717 167.458 63.1277 166.999 63.1277 166.434C63.1277 165.986 63.261 165.575 63.5277 165.202C63.7944 164.829 64.173 164.535 64.6637 164.322C65.1544 164.098 65.7144 163.986 66.3437 163.986C67.3144 163.986 68.0984 164.231 68.6957 164.722C69.293 165.213 69.613 165.885 69.6557 166.738H68.1997C68.1677 166.279 67.981 165.911 67.6397 165.634C67.309 165.357 66.861 165.218 66.2957 165.218C65.773 165.218 65.357 165.33 65.0477 165.554C64.7384 165.778 64.5837 166.071 64.5837 166.434C64.5837 166.722 64.6744 166.962 64.8557 167.154C65.0477 167.335 65.2824 167.485 65.5597 167.602C65.8477 167.709 66.2424 167.831 66.7437 167.97C67.373 168.141 67.885 168.311 68.2797 168.482C68.6744 168.642 69.0104 168.887 69.2877 169.218C69.5757 169.549 69.725 169.981 69.7357 170.514C69.7357 170.994 69.6024 171.426 69.3357 171.81C69.069 172.194 68.6904 172.498 68.1997 172.722C67.7197 172.935 67.165 173.042 66.5357 173.042ZM75.5127 168.482C75.5127 167.586 75.694 166.802 76.0567 166.13C76.4194 165.447 76.9154 164.919 77.5447 164.546C78.1847 164.173 78.894 163.986 79.6727 163.986C80.4407 163.986 81.1074 164.151 81.6727 164.482C82.238 164.813 82.6594 165.229 82.9367 165.73V164.13H84.4087V172.898H82.9367V171.266C82.6487 171.778 82.2167 172.205 81.6407 172.546C81.0754 172.877 80.414 173.042 79.6567 173.042C78.878 173.042 78.174 172.85 77.5447 172.466C76.9154 172.082 76.4194 171.543 76.0567 170.85C75.694 170.157 75.5127 169.367 75.5127 168.482ZM82.9367 168.498C82.9367 167.837 82.8034 167.261 82.5367 166.77C82.27 166.279 81.9074 165.906 81.4487 165.65C81.0007 165.383 80.5047 165.25 79.9607 165.25C79.4167 165.25 78.9207 165.378 78.4727 165.634C78.0247 165.89 77.6674 166.263 77.4007 166.754C77.134 167.245 77.0007 167.821 77.0007 168.482C77.0007 169.154 77.134 169.741 77.4007 170.242C77.6674 170.733 78.0247 171.111 78.4727 171.378C78.9207 171.634 79.4167 171.762 79.9607 171.762C80.5047 171.762 81.0007 171.634 81.4487 171.378C81.9074 171.111 82.27 170.733 82.5367 170.242C82.8034 169.741 82.9367 169.159 82.9367 168.498ZM86.3252 168.482C86.3252 167.586 86.5065 166.802 86.8692 166.13C87.2319 165.447 87.7279 164.919 88.3572 164.546C88.9972 164.173 89.7119 163.986 90.5012 163.986C91.1839 163.986 91.8185 164.146 92.4052 164.466C92.9919 164.775 93.4399 165.186 93.7492 165.698V161.058H95.2212V172.898H93.7492V171.25C93.4612 171.773 93.0345 172.205 92.4692 172.546C91.9039 172.877 91.2425 173.042 90.4852 173.042C89.7065 173.042 88.9972 172.85 88.3572 172.466C87.7279 172.082 87.2319 171.543 86.8692 170.85C86.5065 170.157 86.3252 169.367 86.3252 168.482ZM93.7492 168.498C93.7492 167.837 93.6159 167.261 93.3492 166.77C93.0825 166.279 92.7199 165.906 92.2612 165.65C91.8132 165.383 91.3172 165.25 90.7732 165.25C90.2292 165.25 89.7332 165.378 89.2852 165.634C88.8372 165.89 88.4799 166.263 88.2132 166.754C87.9465 167.245 87.8132 167.821 87.8132 168.482C87.8132 169.154 87.9465 169.741 88.2132 170.242C88.4799 170.733 88.8372 171.111 89.2852 171.378C89.7332 171.634 90.2292 171.762 90.7732 171.762C91.3172 171.762 91.8132 171.634 92.2612 171.378C92.7199 171.111 93.0825 170.733 93.3492 170.242C93.6159 169.741 93.7492 169.159 93.7492 168.498ZM97.1377 168.482C97.1377 167.586 97.319 166.802 97.6817 166.13C98.0444 165.447 98.5404 164.919 99.1697 164.546C99.8097 164.173 100.524 163.986 101.314 163.986C101.996 163.986 102.631 164.146 103.218 164.466C103.804 164.775 104.252 165.186 104.562 165.698V161.058H106.034V172.898H104.562V171.25C104.274 171.773 103.847 172.205 103.282 172.546C102.716 172.877 102.055 173.042 101.298 173.042C100.519 173.042 99.8097 172.85 99.1697 172.466C98.5404 172.082 98.0444 171.543 97.6817 170.85C97.319 170.157 97.1377 169.367 97.1377 168.482ZM104.562 168.498C104.562 167.837 104.428 167.261 104.162 166.77C103.895 166.279 103.532 165.906 103.074 165.65C102.626 165.383 102.13 165.25 101.586 165.25C101.042 165.25 100.546 165.378 100.098 165.634C99.6497 165.89 99.2924 166.263 99.0257 166.754C98.759 167.245 98.6257 167.821 98.6257 168.482C98.6257 169.154 98.759 169.741 99.0257 170.242C99.2924 170.733 99.6497 171.111 100.098 171.378C100.546 171.634 101.042 171.762 101.586 171.762C102.13 171.762 102.626 171.634 103.074 171.378C103.532 171.111 103.895 170.733 104.162 170.242C104.428 169.741 104.562 169.159 104.562 168.498ZM116.494 168.178C116.494 168.455 116.478 168.749 116.446 169.058H109.438C109.492 169.922 109.785 170.599 110.318 171.09C110.862 171.57 111.518 171.81 112.286 171.81C112.916 171.81 113.438 171.666 113.854 171.378C114.281 171.079 114.58 170.685 114.75 170.194H116.318C116.084 171.037 115.614 171.725 114.91 172.258C114.206 172.781 113.332 173.042 112.286 173.042C111.454 173.042 110.708 172.855 110.046 172.482C109.396 172.109 108.884 171.581 108.51 170.898C108.137 170.205 107.95 169.405 107.95 168.498C107.95 167.591 108.132 166.797 108.494 166.114C108.857 165.431 109.364 164.909 110.014 164.546C110.676 164.173 111.433 163.986 112.286 163.986C113.118 163.986 113.854 164.167 114.494 164.53C115.134 164.893 115.625 165.394 115.966 166.034C116.318 166.663 116.494 167.378 116.494 168.178ZM114.99 167.874C114.99 167.319 114.868 166.845 114.622 166.45C114.377 166.045 114.041 165.741 113.614 165.538C113.198 165.325 112.734 165.218 112.222 165.218C111.486 165.218 110.857 165.453 110.334 165.922C109.822 166.391 109.529 167.042 109.454 167.874H114.99ZM117.872 168.482C117.872 167.586 118.053 166.802 118.416 166.13C118.779 165.447 119.275 164.919 119.904 164.546C120.544 164.173 121.259 163.986 122.048 163.986C122.731 163.986 123.365 164.146 123.952 164.466C124.539 164.775 124.987 165.186 125.296 165.698V161.058H126.768V172.898H125.296V171.25C125.008 171.773 124.581 172.205 124.016 172.546C123.451 172.877 122.789 173.042 122.032 173.042C121.253 173.042 120.544 172.85 119.904 172.466C119.275 172.082 118.779 171.543 118.416 170.85C118.053 170.157 117.872 169.367 117.872 168.482ZM125.296 168.498C125.296 167.837 125.163 167.261 124.896 166.77C124.629 166.279 124.267 165.906 123.808 165.65C123.36 165.383 122.864 165.25 122.32 165.25C121.776 165.25 121.28 165.378 120.832 165.634C120.384 165.89 120.027 166.263 119.76 166.754C119.493 167.245 119.36 167.821 119.36 168.482C119.36 169.154 119.493 169.741 119.76 170.242C120.027 170.733 120.384 171.111 120.832 171.378C121.28 171.634 121.776 171.762 122.32 171.762C122.864 171.762 123.36 171.634 123.808 171.378C124.267 171.111 124.629 170.733 124.896 170.242C125.163 169.741 125.296 169.159 125.296 168.498ZM141.046 164.13L135.766 177.026H134.262L135.99 172.802L132.454 164.13H134.07L136.822 171.234L139.542 164.13H141.046ZM150.51 168.178C150.51 168.455 150.494 168.749 150.462 169.058H143.454C143.507 169.922 143.8 170.599 144.334 171.09C144.878 171.57 145.534 171.81 146.302 171.81C146.931 171.81 147.454 171.666 147.87 171.378C148.296 171.079 148.595 170.685 148.766 170.194H150.334C150.099 171.037 149.63 171.725 148.926 172.258C148.222 172.781 147.347 173.042 146.302 173.042C145.47 173.042 144.723 172.855 144.062 172.482C143.411 172.109 142.899 171.581 142.526 170.898C142.152 170.205 141.966 169.405 141.966 168.498C141.966 167.591 142.147 166.797 142.51 166.114C142.872 165.431 143.379 164.909 144.03 164.546C144.691 164.173 145.448 163.986 146.302 163.986C147.134 163.986 147.87 164.167 148.51 164.53C149.15 164.893 149.64 165.394 149.982 166.034C150.334 166.663 150.51 167.378 150.51 168.178ZM149.006 167.874C149.006 167.319 148.883 166.845 148.638 166.45C148.392 166.045 148.056 165.741 147.63 165.538C147.214 165.325 146.75 165.218 146.238 165.218C145.502 165.218 144.872 165.453 144.35 165.922C143.838 166.391 143.544 167.042 143.47 167.874H149.006ZM154.208 165.33V170.498C154.208 170.925 154.298 171.229 154.48 171.41C154.661 171.581 154.976 171.666 155.424 171.666H156.496V172.898H155.184C154.373 172.898 153.765 172.711 153.36 172.338C152.954 171.965 152.752 171.351 152.752 170.498V165.33H151.616V164.13H152.752V161.922H154.208V164.13H156.496V165.33H154.208ZM158.724 172.994C158.446 172.994 158.212 172.898 158.02 172.706C157.828 172.514 157.732 172.279 157.732 172.002C157.732 171.725 157.828 171.49 158.02 171.298C158.212 171.106 158.446 171.01 158.724 171.01C158.99 171.01 159.214 171.106 159.396 171.298C159.588 171.49 159.684 171.725 159.684 172.002C159.684 172.279 159.588 172.514 159.396 172.706C159.214 172.898 158.99 172.994 158.724 172.994ZM173.693 161.746L170.061 168.69V172.898H168.605V168.69L164.957 161.746H166.573L169.325 167.394L172.077 161.746H173.693ZM179.053 173.042C178.231 173.042 177.485 172.855 176.813 172.482C176.151 172.109 175.629 171.581 175.245 170.898C174.871 170.205 174.685 169.405 174.685 168.498C174.685 167.602 174.877 166.813 175.261 166.13C175.655 165.437 176.189 164.909 176.861 164.546C177.533 164.173 178.285 163.986 179.117 163.986C179.949 163.986 180.701 164.173 181.373 164.546C182.045 164.909 182.573 165.431 182.957 166.114C183.351 166.797 183.549 167.591 183.549 168.498C183.549 169.405 183.346 170.205 182.941 170.898C182.546 171.581 182.007 172.109 181.325 172.482C180.642 172.855 179.885 173.042 179.053 173.042ZM179.053 171.762C179.575 171.762 180.066 171.639 180.525 171.394C180.983 171.149 181.351 170.781 181.629 170.29C181.917 169.799 182.061 169.202 182.061 168.498C182.061 167.794 181.922 167.197 181.645 166.706C181.367 166.215 181.005 165.853 180.557 165.618C180.109 165.373 179.623 165.25 179.101 165.25C178.567 165.25 178.077 165.373 177.629 165.618C177.191 165.853 176.839 166.215 176.573 166.706C176.306 167.197 176.173 167.794 176.173 168.498C176.173 169.213 176.301 169.815 176.557 170.306C176.823 170.797 177.175 171.165 177.613 171.41C178.05 171.645 178.53 171.762 179.053 171.762ZM193.239 164.13V172.898H191.783V171.602C191.506 172.05 191.116 172.402 190.615 172.658C190.124 172.903 189.58 173.026 188.983 173.026C188.3 173.026 187.687 172.887 187.143 172.61C186.599 172.322 186.167 171.895 185.847 171.33C185.538 170.765 185.383 170.077 185.383 169.266V164.13H186.823V169.074C186.823 169.938 187.042 170.605 187.479 171.074C187.916 171.533 188.514 171.762 189.271 171.762C190.05 171.762 190.663 171.522 191.111 171.042C191.559 170.562 191.783 169.863 191.783 168.946V164.13H193.239ZM204.315 163.97C204.976 163.97 205.574 164.114 206.107 164.402C206.64 164.679 207.056 165.101 207.355 165.666C207.664 166.231 207.819 166.919 207.819 167.73V172.898H206.379V167.938C206.379 167.063 206.16 166.397 205.723 165.938C205.286 165.469 204.688 165.234 203.931 165.234C203.163 165.234 202.55 165.474 202.091 165.954C201.643 166.434 201.419 167.133 201.419 168.05V172.898H199.963V161.058H201.419V165.378C201.707 164.93 202.102 164.583 202.603 164.338C203.115 164.093 203.686 163.97 204.315 163.97ZM209.653 168.482C209.653 167.586 209.835 166.802 210.197 166.13C210.56 165.447 211.056 164.919 211.685 164.546C212.325 164.173 213.035 163.986 213.813 163.986C214.581 163.986 215.248 164.151 215.813 164.482C216.379 164.813 216.8 165.229 217.077 165.73V164.13H218.549V172.898H217.077V171.266C216.789 171.778 216.357 172.205 215.781 172.546C215.216 172.877 214.555 173.042 213.797 173.042C213.019 173.042 212.315 172.85 211.685 172.466C211.056 172.082 210.56 171.543 210.197 170.85C209.835 170.157 209.653 169.367 209.653 168.482ZM217.077 168.498C217.077 167.837 216.944 167.261 216.677 166.77C216.411 166.279 216.048 165.906 215.589 165.65C215.141 165.383 214.645 165.25 214.101 165.25C213.557 165.25 213.061 165.378 212.613 165.634C212.165 165.89 211.808 166.263 211.541 166.754C211.275 167.245 211.141 167.821 211.141 168.482C211.141 169.154 211.275 169.741 211.541 170.242C211.808 170.733 212.165 171.111 212.613 171.378C213.061 171.634 213.557 171.762 214.101 171.762C214.645 171.762 215.141 171.634 215.589 171.378C216.048 171.111 216.411 170.733 216.677 170.242C216.944 169.741 217.077 169.159 217.077 168.498ZM224.274 171.554L226.994 164.13H228.546L225.106 172.898H223.41L219.97 164.13H221.538L224.274 171.554ZM237.979 168.178C237.979 168.455 237.963 168.749 237.931 169.058H230.923C230.976 169.922 231.269 170.599 231.803 171.09C232.347 171.57 233.003 171.81 233.771 171.81C234.4 171.81 234.923 171.666 235.339 171.378C235.765 171.079 236.064 170.685 236.235 170.194H237.803C237.568 171.037 237.099 171.725 236.395 172.258C235.691 172.781 234.816 173.042 233.771 173.042C232.939 173.042 232.192 172.855 231.531 172.482C230.88 172.109 230.368 171.581 229.995 170.898C229.621 170.205 229.435 169.405 229.435 168.498C229.435 167.591 229.616 166.797 229.979 166.114C230.341 165.431 230.848 164.909 231.499 164.546C232.16 164.173 232.917 163.986 233.771 163.986C234.603 163.986 235.339 164.167 235.979 164.53C236.619 164.893 237.109 165.394 237.451 166.034C237.803 166.663 237.979 167.378 237.979 168.178ZM236.475 167.874C236.475 167.319 236.352 166.845 236.107 166.45C235.861 166.045 235.525 165.741 235.099 165.538C234.683 165.325 234.219 165.218 233.707 165.218C232.971 165.218 232.341 165.453 231.819 165.922C231.307 166.391 231.013 167.042 230.939 167.874H236.475ZM247.782 163.986C248.539 163.986 249.201 164.151 249.766 164.482C250.342 164.813 250.769 165.229 251.046 165.73V164.13H252.518V173.09C252.518 173.89 252.347 174.599 252.006 175.218C251.665 175.847 251.174 176.338 250.534 176.69C249.905 177.042 249.169 177.218 248.326 177.218C247.174 177.218 246.214 176.946 245.446 176.402C244.678 175.858 244.225 175.117 244.086 174.178H245.526C245.686 174.711 246.017 175.138 246.518 175.458C247.019 175.789 247.622 175.954 248.326 175.954C249.126 175.954 249.777 175.703 250.278 175.202C250.79 174.701 251.046 173.997 251.046 173.09V171.25C250.758 171.762 250.331 172.189 249.766 172.53C249.201 172.871 248.539 173.042 247.782 173.042C247.003 173.042 246.294 172.85 245.654 172.466C245.025 172.082 244.529 171.543 244.166 170.85C243.803 170.157 243.622 169.367 243.622 168.482C243.622 167.586 243.803 166.802 244.166 166.13C244.529 165.447 245.025 164.919 245.654 164.546C246.294 164.173 247.003 163.986 247.782 163.986ZM251.046 168.498C251.046 167.837 250.913 167.261 250.646 166.77C250.379 166.279 250.017 165.906 249.558 165.65C249.11 165.383 248.614 165.25 248.07 165.25C247.526 165.25 247.03 165.378 246.582 165.634C246.134 165.89 245.777 166.263 245.51 166.754C245.243 167.245 245.11 167.821 245.11 168.482C245.11 169.154 245.243 169.741 245.51 170.242C245.777 170.733 246.134 171.111 246.582 171.378C247.03 171.634 247.526 171.762 248.07 171.762C248.614 171.762 249.11 171.634 249.558 171.378C250.017 171.111 250.379 170.733 250.646 170.242C250.913 169.741 251.046 169.159 251.046 168.498ZM258.803 173.042C257.981 173.042 257.235 172.855 256.563 172.482C255.901 172.109 255.379 171.581 254.995 170.898C254.621 170.205 254.435 169.405 254.435 168.498C254.435 167.602 254.627 166.813 255.011 166.13C255.405 165.437 255.939 164.909 256.611 164.546C257.283 164.173 258.035 163.986 258.867 163.986C259.699 163.986 260.451 164.173 261.123 164.546C261.795 164.909 262.323 165.431 262.707 166.114C263.101 166.797 263.299 167.591 263.299 168.498C263.299 169.405 263.096 170.205 262.691 170.898C262.296 171.581 261.757 172.109 261.075 172.482C260.392 172.855 259.635 173.042 258.803 173.042ZM258.803 171.762C259.325 171.762 259.816 171.639 260.275 171.394C260.733 171.149 261.101 170.781 261.379 170.29C261.667 169.799 261.811 169.202 261.811 168.498C261.811 167.794 261.672 167.197 261.395 166.706C261.117 166.215 260.755 165.853 260.307 165.618C259.859 165.373 259.373 165.25 258.851 165.25C258.317 165.25 257.827 165.373 257.379 165.618C256.941 165.853 256.589 166.215 256.323 166.706C256.056 167.197 255.923 167.794 255.923 168.498C255.923 169.213 256.051 169.815 256.307 170.306C256.573 170.797 256.925 171.165 257.363 171.41C257.8 171.645 258.28 171.762 258.803 171.762ZM266.989 165.33V170.498C266.989 170.925 267.08 171.229 267.261 171.41C267.442 171.581 267.757 171.666 268.205 171.666H269.277V172.898H267.965C267.154 172.898 266.546 172.711 266.141 172.338C265.736 171.965 265.533 171.351 265.533 170.498V165.33H264.397V164.13H265.533V161.922H266.989V164.13H269.277V165.33H266.989ZM66.5049 192.482C66.5049 191.586 66.6862 190.802 67.0489 190.13C67.4116 189.447 67.9076 188.919 68.5369 188.546C69.1769 188.173 69.8862 187.986 70.6649 187.986C71.4329 187.986 72.0996 188.151 72.6649 188.482C73.2302 188.813 73.6516 189.229 73.9289 189.73V188.13H75.4009V196.898H73.9289V195.266C73.6409 195.778 73.2089 196.205 72.6329 196.546C72.0676 196.877 71.4062 197.042 70.6489 197.042C69.8702 197.042 69.1662 196.85 68.5369 196.466C67.9076 196.082 67.4116 195.543 67.0489 194.85C66.6862 194.157 66.5049 193.367 66.5049 192.482ZM73.9289 192.498C73.9289 191.837 73.7956 191.261 73.5289 190.77C73.2622 190.279 72.8996 189.906 72.4409 189.65C71.9929 189.383 71.4969 189.25 70.9529 189.25C70.4089 189.25 69.9129 189.378 69.4649 189.634C69.0169 189.89 68.6596 190.263 68.3929 190.754C68.1262 191.245 67.9929 191.821 67.9929 192.482C67.9929 193.154 68.1262 193.741 68.3929 194.242C68.6596 194.733 69.0169 195.111 69.4649 195.378C69.9129 195.634 70.4089 195.762 70.9529 195.762C71.4969 195.762 71.9929 195.634 72.4409 195.378C72.8996 195.111 73.2622 194.733 73.5289 194.242C73.7956 193.741 73.9289 193.159 73.9289 192.498ZM85.231 197.042C84.559 197.042 83.9564 196.93 83.423 196.706C82.8897 196.471 82.4684 196.151 82.159 195.746C81.8497 195.33 81.679 194.855 81.647 194.322H83.151C83.1937 194.759 83.3964 195.117 83.759 195.394C84.1324 195.671 84.6177 195.81 85.215 195.81C85.7697 195.81 86.207 195.687 86.527 195.442C86.847 195.197 87.007 194.887 87.007 194.514C87.007 194.13 86.8364 193.847 86.495 193.666C86.1537 193.474 85.6257 193.287 84.911 193.106C84.2604 192.935 83.727 192.765 83.311 192.594C82.9057 192.413 82.5537 192.151 82.255 191.81C81.967 191.458 81.823 190.999 81.823 190.434C81.823 189.986 81.9564 189.575 82.223 189.202C82.4897 188.829 82.8684 188.535 83.359 188.322C83.8497 188.098 84.4097 187.986 85.039 187.986C86.0097 187.986 86.7937 188.231 87.391 188.722C87.9884 189.213 88.3084 189.885 88.351 190.738H86.895C86.863 190.279 86.6764 189.911 86.335 189.634C86.0044 189.357 85.5564 189.218 84.991 189.218C84.4684 189.218 84.0524 189.33 83.743 189.554C83.4337 189.778 83.279 190.071 83.279 190.434C83.279 190.722 83.3697 190.962 83.551 191.154C83.743 191.335 83.9777 191.485 84.255 191.602C84.543 191.709 84.9377 191.831 85.439 191.97C86.0684 192.141 86.5804 192.311 86.975 192.482C87.3697 192.642 87.7057 192.887 87.983 193.218C88.271 193.549 88.4204 193.981 88.431 194.514C88.431 194.994 88.2977 195.426 88.031 195.81C87.7644 196.194 87.3857 196.498 86.895 196.722C86.415 196.935 85.8604 197.042 85.231 197.042ZM94.8384 187.97C95.4997 187.97 96.0971 188.114 96.6304 188.402C97.1637 188.679 97.5797 189.101 97.8784 189.666C98.1877 190.231 98.3424 190.919 98.3424 191.73V196.898H96.9024V191.938C96.9024 191.063 96.6837 190.397 96.2464 189.938C95.8091 189.469 95.2117 189.234 94.4544 189.234C93.6864 189.234 93.0731 189.474 92.6144 189.954C92.1664 190.434 91.9424 191.133 91.9424 192.05V196.898H90.4864V185.058H91.9424V189.378C92.2304 188.93 92.6251 188.583 93.1264 188.338C93.6384 188.093 94.2091 187.97 94.8384 187.97ZM100.177 192.482C100.177 191.586 100.358 190.802 100.721 190.13C101.083 189.447 101.579 188.919 102.209 188.546C102.849 188.173 103.558 187.986 104.337 187.986C105.105 187.986 105.771 188.151 106.337 188.482C106.902 188.813 107.323 189.229 107.601 189.73V188.13H109.073V196.898H107.601V195.266C107.313 195.778 106.881 196.205 106.305 196.546C105.739 196.877 105.078 197.042 104.321 197.042C103.542 197.042 102.838 196.85 102.209 196.466C101.579 196.082 101.083 195.543 100.721 194.85C100.358 194.157 100.177 193.367 100.177 192.482ZM107.601 192.498C107.601 191.837 107.467 191.261 107.201 190.77C106.934 190.279 106.571 189.906 106.113 189.65C105.665 189.383 105.169 189.25 104.625 189.25C104.081 189.25 103.585 189.378 103.137 189.634C102.689 189.89 102.331 190.263 102.065 190.754C101.798 191.245 101.665 191.821 101.665 192.482C101.665 193.154 101.798 193.741 102.065 194.242C102.331 194.733 102.689 195.111 103.137 195.378C103.585 195.634 104.081 195.762 104.625 195.762C105.169 195.762 105.665 195.634 106.113 195.378C106.571 195.111 106.934 194.733 107.201 194.242C107.467 193.741 107.601 193.159 107.601 192.498ZM112.989 189.554C113.245 189.053 113.608 188.663 114.077 188.386C114.557 188.109 115.139 187.97 115.821 187.97V189.474H115.437C113.805 189.474 112.989 190.359 112.989 192.13V196.898H111.533V188.13H112.989V189.554ZM118.958 189.746C119.246 189.245 119.673 188.829 120.238 188.498C120.814 188.157 121.481 187.986 122.238 187.986C123.017 187.986 123.721 188.173 124.35 188.546C124.99 188.919 125.491 189.447 125.854 190.13C126.217 190.802 126.398 191.586 126.398 192.482C126.398 193.367 126.217 194.157 125.854 194.85C125.491 195.543 124.99 196.082 124.35 196.466C123.721 196.85 123.017 197.042 122.238 197.042C121.491 197.042 120.83 196.877 120.254 196.546C119.689 196.205 119.257 195.783 118.958 195.282V201.058H117.502V188.13H118.958V189.746ZM124.91 192.482C124.91 191.821 124.777 191.245 124.51 190.754C124.243 190.263 123.881 189.89 123.422 189.634C122.974 189.378 122.478 189.25 121.934 189.25C121.401 189.25 120.905 189.383 120.446 189.65C119.998 189.906 119.635 190.285 119.358 190.786C119.091 191.277 118.958 191.847 118.958 192.498C118.958 193.159 119.091 193.741 119.358 194.242C119.635 194.733 119.998 195.111 120.446 195.378C120.905 195.634 121.401 195.762 121.934 195.762C122.478 195.762 122.974 195.634 123.422 195.378C123.881 195.111 124.243 194.733 124.51 194.242C124.777 193.741 124.91 193.154 124.91 192.482ZM143.124 187.97C143.807 187.97 144.415 188.114 144.948 188.402C145.481 188.679 145.903 189.101 146.212 189.666C146.521 190.231 146.676 190.919 146.676 191.73V196.898H145.236V191.938C145.236 191.063 145.017 190.397 144.58 189.938C144.153 189.469 143.572 189.234 142.836 189.234C142.079 189.234 141.476 189.479 141.028 189.97C140.58 190.45 140.356 191.149 140.356 192.066V196.898H138.916V191.938C138.916 191.063 138.697 190.397 138.26 189.938C137.833 189.469 137.252 189.234 136.516 189.234C135.759 189.234 135.156 189.479 134.708 189.97C134.26 190.45 134.036 191.149 134.036 192.066V196.898H132.58V188.13H134.036V189.394C134.324 188.935 134.708 188.583 135.188 188.338C135.679 188.093 136.217 187.97 136.804 187.97C137.54 187.97 138.191 188.135 138.756 188.466C139.321 188.797 139.743 189.282 140.02 189.922C140.265 189.303 140.671 188.823 141.236 188.482C141.801 188.141 142.431 187.97 143.124 187.97ZM157.065 192.178C157.065 192.455 157.049 192.749 157.017 193.058H150.009C150.062 193.922 150.355 194.599 150.889 195.09C151.433 195.57 152.089 195.81 152.857 195.81C153.486 195.81 154.009 195.666 154.425 195.378C154.851 195.079 155.15 194.685 155.321 194.194H156.889C156.654 195.037 156.185 195.725 155.481 196.258C154.777 196.781 153.902 197.042 152.857 197.042C152.025 197.042 151.278 196.855 150.617 196.482C149.966 196.109 149.454 195.581 149.081 194.898C148.707 194.205 148.521 193.405 148.521 192.498C148.521 191.591 148.702 190.797 149.065 190.114C149.427 189.431 149.934 188.909 150.585 188.546C151.246 188.173 152.003 187.986 152.857 187.986C153.689 187.986 154.425 188.167 155.065 188.53C155.705 188.893 156.195 189.394 156.537 190.034C156.889 190.663 157.065 191.378 157.065 192.178ZM155.561 191.874C155.561 191.319 155.438 190.845 155.193 190.45C154.947 190.045 154.611 189.741 154.185 189.538C153.769 189.325 153.305 189.218 152.793 189.218C152.057 189.218 151.427 189.453 150.905 189.922C150.393 190.391 150.099 191.042 150.025 191.874H155.561ZM169.53 187.97C170.213 187.97 170.821 188.114 171.354 188.402C171.888 188.679 172.309 189.101 172.618 189.666C172.928 190.231 173.082 190.919 173.082 191.73V196.898H171.642V191.938C171.642 191.063 171.424 190.397 170.986 189.938C170.56 189.469 169.978 189.234 169.242 189.234C168.485 189.234 167.882 189.479 167.434 189.97C166.986 190.45 166.762 191.149 166.762 192.066V196.898H165.322V191.938C165.322 191.063 165.104 190.397 164.666 189.938C164.24 189.469 163.658 189.234 162.922 189.234C162.165 189.234 161.562 189.479 161.114 189.97C160.666 190.45 160.442 191.149 160.442 192.066V196.898H158.986V188.13H160.442V189.394C160.73 188.935 161.114 188.583 161.594 188.338C162.085 188.093 162.624 187.97 163.21 187.97C163.946 187.97 164.597 188.135 165.162 188.466C165.728 188.797 166.149 189.282 166.426 189.922C166.672 189.303 167.077 188.823 167.642 188.482C168.208 188.141 168.837 187.97 169.53 187.97ZM179.295 197.042C178.473 197.042 177.727 196.855 177.055 196.482C176.393 196.109 175.871 195.581 175.487 194.898C175.113 194.205 174.927 193.405 174.927 192.498C174.927 191.602 175.119 190.813 175.503 190.13C175.897 189.437 176.431 188.909 177.103 188.546C177.775 188.173 178.527 187.986 179.359 187.986C180.191 187.986 180.943 188.173 181.615 188.546C182.287 188.909 182.815 189.431 183.199 190.114C183.593 190.797 183.791 191.591 183.791 192.498C183.791 193.405 183.588 194.205 183.183 194.898C182.788 195.581 182.249 196.109 181.567 196.482C180.884 196.855 180.127 197.042 179.295 197.042ZM179.295 195.762C179.817 195.762 180.308 195.639 180.767 195.394C181.225 195.149 181.593 194.781 181.871 194.29C182.159 193.799 182.303 193.202 182.303 192.498C182.303 191.794 182.164 191.197 181.887 190.706C181.609 190.215 181.247 189.853 180.799 189.618C180.351 189.373 179.865 189.25 179.343 189.25C178.809 189.25 178.319 189.373 177.871 189.618C177.433 189.853 177.081 190.215 176.815 190.706C176.548 191.197 176.415 191.794 176.415 192.498C176.415 193.213 176.543 193.815 176.799 194.306C177.065 194.797 177.417 195.165 177.855 195.41C178.292 195.645 178.772 195.762 179.295 195.762ZM187.161 189.554C187.417 189.053 187.78 188.663 188.249 188.386C188.729 188.109 189.31 187.97 189.993 187.97V189.474H189.609C187.977 189.474 187.161 190.359 187.161 192.13V196.898H185.705V188.13H187.161V189.554ZM199.226 188.13L193.946 201.026H192.442L194.17 196.802L190.634 188.13H192.25L195.002 195.234L197.722 188.13H199.226ZM202.578 185.746L202.402 193.746H201.186L201.01 185.746H202.578ZM201.858 196.994C201.58 196.994 201.346 196.898 201.154 196.706C200.962 196.514 200.866 196.279 200.866 196.002C200.866 195.725 200.962 195.49 201.154 195.298C201.346 195.106 201.58 195.01 201.858 195.01C202.124 195.01 202.348 195.106 202.53 195.298C202.722 195.49 202.818 195.725 202.818 196.002C202.818 196.279 202.722 196.514 202.53 196.706C202.348 196.898 202.124 196.994 201.858 196.994Z" fill="black"/>
</svg>
