<svg width="296" height="172" viewBox="0 0 296 172" fill="none" xmlns="http://www.w3.org/2000/svg">
<g opacity="0.12">
<path d="M174.938 1.80676L95.0094 23.2235C92.3341 23.9404 90.7464 26.6903 91.4633 29.3656L110.816 101.592C111.533 104.267 114.283 105.855 116.958 105.138L196.887 83.7212C199.562 83.0044 201.15 80.2544 200.433 77.5791L181.08 5.35292C180.363 2.67757 177.613 1.0899 174.938 1.80676Z" stroke="black" stroke-width="2" stroke-linecap="round" stroke-linejoin="round"/>
<path d="M118.624 91.0367C125.742 39.1053 160.124 60.0941 182.735 74.336C184.478 75.4344 187.747 69.3432 187.747 69.3432" stroke="black" stroke-width="2" stroke-linecap="round" stroke-linejoin="round"/>
<path d="M162.855 41.3307C166.705 40.2991 168.99 36.342 167.958 32.4921C166.927 28.6423 162.969 26.3577 159.12 27.3892C155.27 28.4208 152.985 32.3779 154.017 36.2277C155.048 40.0776 159.005 42.3622 162.855 41.3307Z" stroke="black" stroke-width="2" stroke-linecap="round" stroke-linejoin="round"/>
</g>
<path opacity="0.25" d="M10.0513 165.328H8.59527L2.73927 156.448V165.328H1.28327V154.16H2.73927L8.59527 163.024V154.16H10.0513V165.328ZM16.3573 165.472C15.5359 165.472 14.7893 165.286 14.1173 164.912C13.4559 164.539 12.9333 164.011 12.5493 163.328C12.1759 162.635 11.9893 161.835 11.9893 160.928C11.9893 160.032 12.1813 159.243 12.5653 158.56C12.9599 157.867 13.4933 157.339 14.1653 156.976C14.8373 156.603 15.5893 156.416 16.4213 156.416C17.2533 156.416 18.0053 156.603 18.6773 156.976C19.3493 157.339 19.8773 157.862 20.2613 158.544C20.6559 159.227 20.8533 160.022 20.8533 160.928C20.8533 161.835 20.6506 162.635 20.2453 163.328C19.8506 164.011 19.3119 164.539 18.6293 164.912C17.9466 165.286 17.1893 165.472 16.3573 165.472ZM16.3573 164.192C16.8799 164.192 17.3706 164.07 17.8293 163.824C18.2879 163.579 18.6559 163.211 18.9333 162.72C19.2213 162.23 19.3653 161.632 19.3653 160.928C19.3653 160.224 19.2266 159.627 18.9493 159.136C18.6719 158.646 18.3093 158.283 17.8613 158.048C17.4133 157.803 16.9279 157.68 16.4053 157.68C15.8719 157.68 15.3813 157.803 14.9333 158.048C14.4959 158.283 14.1439 158.646 13.8773 159.136C13.6106 159.627 13.4773 160.224 13.4773 160.928C13.4773 161.643 13.6053 162.246 13.8613 162.736C14.1279 163.227 14.4799 163.595 14.9173 163.84C15.3546 164.075 15.8346 164.192 16.3573 164.192ZM28.4893 158.176C28.7773 157.675 29.2039 157.259 29.7693 156.928C30.3453 156.587 31.0119 156.416 31.7693 156.416C32.5479 156.416 33.2519 156.603 33.8813 156.976C34.5213 157.35 35.0226 157.878 35.3853 158.56C35.7479 159.232 35.9293 160.016 35.9293 160.912C35.9293 161.798 35.7479 162.587 35.3853 163.28C35.0226 163.974 34.5213 164.512 33.8813 164.896C33.2519 165.28 32.5479 165.472 31.7693 165.472C31.0226 165.472 30.3613 165.307 29.7853 164.976C29.2199 164.635 28.7879 164.214 28.4893 163.712V169.488H27.0333V156.56H28.4893V158.176ZM34.4413 160.912C34.4413 160.251 34.3079 159.675 34.0413 159.184C33.7746 158.694 33.4119 158.32 32.9533 158.064C32.5053 157.808 32.0093 157.68 31.4653 157.68C30.9319 157.68 30.4359 157.814 29.9773 158.08C29.5293 158.336 29.1666 158.715 28.8893 159.216C28.6226 159.707 28.4893 160.278 28.4893 160.928C28.4893 161.59 28.6226 162.171 28.8893 162.672C29.1666 163.163 29.5293 163.542 29.9773 163.808C30.4359 164.064 30.9319 164.192 31.4653 164.192C32.0093 164.192 32.5053 164.064 32.9533 163.808C33.4119 163.542 33.7746 163.163 34.0413 162.672C34.3079 162.171 34.4413 161.584 34.4413 160.912ZM42.1978 156.4C42.8591 156.4 43.4564 156.544 43.9898 156.832C44.5231 157.11 44.9391 157.531 45.2378 158.096C45.5471 158.662 45.7018 159.35 45.7018 160.16V165.328H44.2618V160.368C44.2618 159.494 44.0431 158.827 43.6058 158.368C43.1684 157.899 42.5711 157.664 41.8138 157.664C41.0458 157.664 40.4324 157.904 39.9738 158.384C39.5258 158.864 39.3018 159.563 39.3018 160.48V165.328H37.8458V153.488H39.3018V157.808C39.5898 157.36 39.9844 157.014 40.4858 156.768C40.9978 156.523 41.5684 156.4 42.1978 156.4ZM51.9041 165.472C51.0828 165.472 50.3361 165.286 49.6641 164.912C49.0028 164.539 48.4801 164.011 48.0961 163.328C47.7228 162.635 47.5361 161.835 47.5361 160.928C47.5361 160.032 47.7281 159.243 48.1121 158.56C48.5068 157.867 49.0401 157.339 49.7121 156.976C50.3841 156.603 51.1361 156.416 51.9681 156.416C52.8001 156.416 53.5521 156.603 54.2241 156.976C54.8961 157.339 55.4241 157.862 55.8081 158.544C56.2028 159.227 56.4001 160.022 56.4001 160.928C56.4001 161.835 56.1975 162.635 55.7921 163.328C55.3975 164.011 54.8588 164.539 54.1761 164.912C53.4935 165.286 52.7361 165.472 51.9041 165.472ZM51.9041 164.192C52.4268 164.192 52.9175 164.07 53.3761 163.824C53.8348 163.579 54.2028 163.211 54.4801 162.72C54.7681 162.23 54.9121 161.632 54.9121 160.928C54.9121 160.224 54.7735 159.627 54.4961 159.136C54.2188 158.646 53.8561 158.283 53.4081 158.048C52.9601 157.803 52.4748 157.68 51.9521 157.68C51.4188 157.68 50.9281 157.803 50.4801 158.048C50.0428 158.283 49.6908 158.646 49.4241 159.136C49.1575 159.627 49.0241 160.224 49.0241 160.928C49.0241 161.643 49.1521 162.246 49.4081 162.736C49.6748 163.227 50.0268 163.595 50.4641 163.84C50.9015 164.075 51.3815 164.192 51.9041 164.192ZM60.0905 157.76V162.928C60.0905 163.355 60.1812 163.659 60.3625 163.84C60.5439 164.011 60.8585 164.096 61.3065 164.096H62.3785V165.328H61.0665C60.2559 165.328 59.6479 165.142 59.2425 164.768C58.8372 164.395 58.6345 163.782 58.6345 162.928V157.76H57.4985V156.56H58.6345V154.352H60.0905V156.56H62.3785V157.76H60.0905ZM67.9666 165.472C67.1453 165.472 66.3986 165.286 65.7266 164.912C65.0653 164.539 64.5426 164.011 64.1586 163.328C63.7853 162.635 63.5986 161.835 63.5986 160.928C63.5986 160.032 63.7906 159.243 64.1746 158.56C64.5693 157.867 65.1026 157.339 65.7746 156.976C66.4466 156.603 67.1986 156.416 68.0306 156.416C68.8626 156.416 69.6146 156.603 70.2866 156.976C70.9586 157.339 71.4866 157.862 71.8706 158.544C72.2653 159.227 72.4626 160.022 72.4626 160.928C72.4626 161.835 72.26 162.635 71.8546 163.328C71.46 164.011 70.9213 164.539 70.2386 164.912C69.556 165.286 68.7986 165.472 67.9666 165.472ZM67.9666 164.192C68.4893 164.192 68.98 164.07 69.4386 163.824C69.8973 163.579 70.2653 163.211 70.5426 162.72C70.8306 162.23 70.9746 161.632 70.9746 160.928C70.9746 160.224 70.836 159.627 70.5586 159.136C70.2813 158.646 69.9186 158.283 69.4706 158.048C69.0226 157.803 68.5373 157.68 68.0146 157.68C67.4813 157.68 66.9906 157.803 66.5426 158.048C66.1053 158.283 65.7533 158.646 65.4866 159.136C65.22 159.627 65.0866 160.224 65.0866 160.928C65.0866 161.643 65.2146 162.246 65.4706 162.736C65.7373 163.227 66.0893 163.595 66.5266 163.84C66.964 164.075 67.444 164.192 67.9666 164.192ZM77.481 165.472C76.809 165.472 76.2064 165.36 75.673 165.136C75.1397 164.902 74.7184 164.582 74.409 164.176C74.0997 163.76 73.929 163.286 73.897 162.752H75.401C75.4437 163.19 75.6464 163.547 76.009 163.824C76.3824 164.102 76.8677 164.24 77.465 164.24C78.0197 164.24 78.457 164.118 78.777 163.872C79.097 163.627 79.257 163.318 79.257 162.944C79.257 162.56 79.0864 162.278 78.745 162.096C78.4037 161.904 77.8757 161.718 77.161 161.536C76.5104 161.366 75.977 161.195 75.561 161.024C75.1557 160.843 74.8037 160.582 74.505 160.24C74.217 159.888 74.073 159.43 74.073 158.864C74.073 158.416 74.2064 158.006 74.473 157.632C74.7397 157.259 75.1184 156.966 75.609 156.752C76.0997 156.528 76.6597 156.416 77.289 156.416C78.2597 156.416 79.0437 156.662 79.641 157.152C80.2384 157.643 80.5584 158.315 80.601 159.168H79.145C79.113 158.71 78.9264 158.342 78.585 158.064C78.2544 157.787 77.8064 157.648 77.241 157.648C76.7184 157.648 76.3024 157.76 75.993 157.984C75.6837 158.208 75.529 158.502 75.529 158.864C75.529 159.152 75.6197 159.392 75.801 159.584C75.993 159.766 76.2277 159.915 76.505 160.032C76.793 160.139 77.1877 160.262 77.689 160.4C78.3184 160.571 78.8304 160.742 79.225 160.912C79.6197 161.072 79.9557 161.318 80.233 161.648C80.521 161.979 80.6704 162.411 80.681 162.944C80.681 163.424 80.5477 163.856 80.281 164.24C80.0144 164.624 79.6357 164.928 79.145 165.152C78.665 165.366 78.1104 165.472 77.481 165.472ZM86.458 160.912C86.458 160.016 86.6394 159.232 87.002 158.56C87.3647 157.878 87.8607 157.35 88.49 156.976C89.13 156.603 89.8394 156.416 90.618 156.416C91.386 156.416 92.0527 156.582 92.618 156.912C93.1834 157.243 93.6047 157.659 93.882 158.16V156.56H95.354V165.328H93.882V163.696C93.594 164.208 93.162 164.635 92.586 164.976C92.0207 165.307 91.3594 165.472 90.602 165.472C89.8234 165.472 89.1194 165.28 88.49 164.896C87.8607 164.512 87.3647 163.974 87.002 163.28C86.6394 162.587 86.458 161.798 86.458 160.912ZM93.882 160.928C93.882 160.267 93.7487 159.691 93.482 159.2C93.2154 158.71 92.8527 158.336 92.394 158.08C91.946 157.814 91.45 157.68 90.906 157.68C90.362 157.68 89.866 157.808 89.418 158.064C88.97 158.32 88.6127 158.694 88.346 159.184C88.0794 159.675 87.946 160.251 87.946 160.912C87.946 161.584 88.0794 162.171 88.346 162.672C88.6127 163.163 88.97 163.542 89.418 163.808C89.866 164.064 90.362 164.192 90.906 164.192C91.45 164.192 91.946 164.064 92.394 163.808C92.8527 163.542 93.2154 163.163 93.482 162.672C93.7487 162.171 93.882 161.59 93.882 160.928ZM97.2705 160.912C97.2705 160.016 97.4519 159.232 97.8145 158.56C98.1772 157.878 98.6732 157.35 99.3025 156.976C99.9425 156.603 100.657 156.416 101.447 156.416C102.129 156.416 102.764 156.576 103.351 156.896C103.937 157.206 104.385 157.616 104.695 158.128V153.488H106.167V165.328H104.695V163.68C104.407 164.203 103.98 164.635 103.415 164.976C102.849 165.307 102.188 165.472 101.431 165.472C100.652 165.472 99.9425 165.28 99.3025 164.896C98.6732 164.512 98.1772 163.974 97.8145 163.28C97.4519 162.587 97.2705 161.798 97.2705 160.912ZM104.695 160.928C104.695 160.267 104.561 159.691 104.295 159.2C104.028 158.71 103.665 158.336 103.207 158.08C102.759 157.814 102.263 157.68 101.719 157.68C101.175 157.68 100.679 157.808 100.231 158.064C99.7825 158.32 99.4252 158.694 99.1585 159.184C98.8919 159.675 98.7585 160.251 98.7585 160.912C98.7585 161.584 98.8919 162.171 99.1585 162.672C99.4252 163.163 99.7825 163.542 100.231 163.808C100.679 164.064 101.175 164.192 101.719 164.192C102.263 164.192 102.759 164.064 103.207 163.808C103.665 163.542 104.028 163.163 104.295 162.672C104.561 162.171 104.695 161.59 104.695 160.928ZM108.083 160.912C108.083 160.016 108.264 159.232 108.627 158.56C108.99 157.878 109.486 157.35 110.115 156.976C110.755 156.603 111.47 156.416 112.259 156.416C112.942 156.416 113.576 156.576 114.163 156.896C114.75 157.206 115.198 157.616 115.507 158.128V153.488H116.979V165.328H115.507V163.68C115.219 164.203 114.792 164.635 114.227 164.976C113.662 165.307 113 165.472 112.243 165.472C111.464 165.472 110.755 165.28 110.115 164.896C109.486 164.512 108.99 163.974 108.627 163.28C108.264 162.587 108.083 161.798 108.083 160.912ZM115.507 160.928C115.507 160.267 115.374 159.691 115.107 159.2C114.84 158.71 114.478 158.336 114.019 158.08C113.571 157.814 113.075 157.68 112.531 157.68C111.987 157.68 111.491 157.808 111.043 158.064C110.595 158.32 110.238 158.694 109.971 159.184C109.704 159.675 109.571 160.251 109.571 160.912C109.571 161.584 109.704 162.171 109.971 162.672C110.238 163.163 110.595 163.542 111.043 163.808C111.491 164.064 111.987 164.192 112.531 164.192C113.075 164.192 113.571 164.064 114.019 163.808C114.478 163.542 114.84 163.163 115.107 162.672C115.374 162.171 115.507 161.59 115.507 160.928ZM127.44 160.608C127.44 160.886 127.424 161.179 127.392 161.488H120.384C120.437 162.352 120.73 163.03 121.264 163.52C121.808 164 122.464 164.24 123.232 164.24C123.861 164.24 124.384 164.096 124.8 163.808C125.226 163.51 125.525 163.115 125.696 162.624H127.264C127.029 163.467 126.56 164.155 125.856 164.688C125.152 165.211 124.277 165.472 123.232 165.472C122.4 165.472 121.653 165.286 120.992 164.912C120.341 164.539 119.829 164.011 119.456 163.328C119.082 162.635 118.896 161.835 118.896 160.928C118.896 160.022 119.077 159.227 119.44 158.544C119.802 157.862 120.309 157.339 120.96 156.976C121.621 156.603 122.378 156.416 123.232 156.416C124.064 156.416 124.8 156.598 125.44 156.96C126.08 157.323 126.57 157.824 126.912 158.464C127.264 159.094 127.44 159.808 127.44 160.608ZM125.936 160.304C125.936 159.75 125.813 159.275 125.568 158.88C125.322 158.475 124.986 158.171 124.56 157.968C124.144 157.755 123.68 157.648 123.168 157.648C122.432 157.648 121.802 157.883 121.28 158.352C120.768 158.822 120.474 159.472 120.4 160.304H125.936ZM128.817 160.912C128.817 160.016 128.999 159.232 129.361 158.56C129.724 157.878 130.22 157.35 130.849 156.976C131.489 156.603 132.204 156.416 132.993 156.416C133.676 156.416 134.311 156.576 134.897 156.896C135.484 157.206 135.932 157.616 136.241 158.128V153.488H137.713V165.328H136.241V163.68C135.953 164.203 135.527 164.635 134.961 164.976C134.396 165.307 133.735 165.472 132.977 165.472C132.199 165.472 131.489 165.28 130.849 164.896C130.22 164.512 129.724 163.974 129.361 163.28C128.999 162.587 128.817 161.798 128.817 160.912ZM136.241 160.928C136.241 160.267 136.108 159.691 135.841 159.2C135.575 158.71 135.212 158.336 134.753 158.08C134.305 157.814 133.809 157.68 133.265 157.68C132.721 157.68 132.225 157.808 131.777 158.064C131.329 158.32 130.972 158.694 130.705 159.184C130.439 159.675 130.305 160.251 130.305 160.912C130.305 161.584 130.439 162.171 130.705 162.672C130.972 163.163 131.329 163.542 131.777 163.808C132.225 164.064 132.721 164.192 133.265 164.192C133.809 164.192 134.305 164.064 134.753 163.808C135.212 163.542 135.575 163.163 135.841 162.672C136.108 162.171 136.241 161.59 136.241 160.928ZM151.992 156.56L146.712 169.456H145.208L146.936 165.232L143.4 156.56H145.016L147.768 163.664L150.488 156.56H151.992ZM161.455 160.608C161.455 160.886 161.439 161.179 161.407 161.488H154.399C154.452 162.352 154.746 163.03 155.279 163.52C155.823 164 156.479 164.24 157.247 164.24C157.876 164.24 158.399 164.096 158.815 163.808C159.242 163.51 159.54 163.115 159.711 162.624H161.279C161.044 163.467 160.575 164.155 159.871 164.688C159.167 165.211 158.292 165.472 157.247 165.472C156.415 165.472 155.668 165.286 155.007 164.912C154.356 164.539 153.844 164.011 153.471 163.328C153.098 162.635 152.911 161.835 152.911 160.928C152.911 160.022 153.092 159.227 153.455 158.544C153.818 157.862 154.324 157.339 154.975 156.976C155.636 156.603 156.394 156.416 157.247 156.416C158.079 156.416 158.815 156.598 159.455 156.96C160.095 157.323 160.586 157.824 160.927 158.464C161.279 159.094 161.455 159.808 161.455 160.608ZM159.951 160.304C159.951 159.75 159.828 159.275 159.583 158.88C159.338 158.475 159.002 158.171 158.575 157.968C158.159 157.755 157.695 157.648 157.183 157.648C156.447 157.648 155.818 157.883 155.295 158.352C154.783 158.822 154.49 159.472 154.415 160.304H159.951ZM165.153 157.76V162.928C165.153 163.355 165.244 163.659 165.425 163.84C165.606 164.011 165.921 164.096 166.369 164.096H167.441V165.328H166.129C165.318 165.328 164.71 165.142 164.305 164.768C163.9 164.395 163.697 163.782 163.697 162.928V157.76H162.561V156.56H163.697V154.352H165.153V156.56H167.441V157.76H165.153ZM169.669 165.424C169.392 165.424 169.157 165.328 168.965 165.136C168.773 164.944 168.677 164.71 168.677 164.432C168.677 164.155 168.773 163.92 168.965 163.728C169.157 163.536 169.392 163.44 169.669 163.44C169.936 163.44 170.16 163.536 170.341 163.728C170.533 163.92 170.629 164.155 170.629 164.432C170.629 164.71 170.533 164.944 170.341 165.136C170.16 165.328 169.936 165.424 169.669 165.424ZM178.286 154.176V165.328H176.83V154.176H178.286ZM182.544 157.76V162.928C182.544 163.355 182.634 163.659 182.816 163.84C182.997 164.011 183.312 164.096 183.76 164.096H184.832V165.328H183.52C182.709 165.328 182.101 165.142 181.696 164.768C181.29 164.395 181.088 163.782 181.088 162.928V157.76H179.952V156.56H181.088V154.352H182.544V156.56H184.832V157.76H182.544ZM186.82 154.176H188.436L186.9 157.808H185.876L186.82 154.176ZM193.2 165.472C192.528 165.472 191.925 165.36 191.392 165.136C190.858 164.902 190.437 164.582 190.128 164.176C189.818 163.76 189.648 163.286 189.616 162.752H191.12C191.162 163.19 191.365 163.547 191.728 163.824C192.101 164.102 192.586 164.24 193.184 164.24C193.738 164.24 194.176 164.118 194.496 163.872C194.816 163.627 194.976 163.318 194.976 162.944C194.976 162.56 194.805 162.278 194.464 162.096C194.122 161.904 193.594 161.718 192.88 161.536C192.229 161.366 191.696 161.195 191.28 161.024C190.874 160.843 190.522 160.582 190.224 160.24C189.936 159.888 189.792 159.43 189.792 158.864C189.792 158.416 189.925 158.006 190.192 157.632C190.458 157.259 190.837 156.966 191.328 156.752C191.818 156.528 192.378 156.416 193.008 156.416C193.978 156.416 194.762 156.662 195.36 157.152C195.957 157.643 196.277 158.315 196.32 159.168H194.864C194.832 158.71 194.645 158.342 194.304 158.064C193.973 157.787 193.525 157.648 192.96 157.648C192.437 157.648 192.021 157.76 191.712 157.984C191.402 158.208 191.248 158.502 191.248 158.864C191.248 159.152 191.338 159.392 191.52 159.584C191.712 159.766 191.946 159.915 192.224 160.032C192.512 160.139 192.906 160.262 193.408 160.4C194.037 160.571 194.549 160.742 194.944 160.912C195.338 161.072 195.674 161.318 195.952 161.648C196.24 161.979 196.389 162.411 196.4 162.944C196.4 163.424 196.266 163.856 196 164.24C195.733 164.624 195.354 164.928 194.864 165.152C194.384 165.366 193.829 165.472 193.2 165.472ZM205.825 165.472C205.153 165.472 204.55 165.36 204.017 165.136C203.483 164.902 203.062 164.582 202.753 164.176C202.443 163.76 202.273 163.286 202.241 162.752H203.745C203.787 163.19 203.99 163.547 204.353 163.824C204.726 164.102 205.211 164.24 205.809 164.24C206.363 164.24 206.801 164.118 207.121 163.872C207.441 163.627 207.601 163.318 207.601 162.944C207.601 162.56 207.43 162.278 207.089 162.096C206.747 161.904 206.219 161.718 205.505 161.536C204.854 161.366 204.321 161.195 203.905 161.024C203.499 160.843 203.147 160.582 202.849 160.24C202.561 159.888 202.417 159.43 202.417 158.864C202.417 158.416 202.55 158.006 202.817 157.632C203.083 157.259 203.462 156.966 203.953 156.752C204.443 156.528 205.003 156.416 205.633 156.416C206.603 156.416 207.387 156.662 207.985 157.152C208.582 157.643 208.902 158.315 208.945 159.168H207.489C207.457 158.71 207.27 158.342 206.929 158.064C206.598 157.787 206.15 157.648 205.585 157.648C205.062 157.648 204.646 157.76 204.337 157.984C204.027 158.208 203.873 158.502 203.873 158.864C203.873 159.152 203.963 159.392 204.145 159.584C204.337 159.766 204.571 159.915 204.849 160.032C205.137 160.139 205.531 160.262 206.033 160.4C206.662 160.571 207.174 160.742 207.569 160.912C207.963 161.072 208.299 161.318 208.577 161.648C208.865 161.979 209.014 162.411 209.025 162.944C209.025 163.424 208.891 163.856 208.625 164.24C208.358 164.624 207.979 164.928 207.489 165.152C207.009 165.366 206.454 165.472 205.825 165.472ZM210.536 160.912C210.536 160.016 210.717 159.232 211.08 158.56C211.443 157.878 211.939 157.35 212.568 156.976C213.208 156.603 213.917 156.416 214.696 156.416C215.464 156.416 216.131 156.582 216.696 156.912C217.261 157.243 217.683 157.659 217.96 158.16V156.56H219.432V165.328H217.96V163.696C217.672 164.208 217.24 164.635 216.664 164.976C216.099 165.307 215.437 165.472 214.68 165.472C213.901 165.472 213.197 165.28 212.568 164.896C211.939 164.512 211.443 163.974 211.08 163.28C210.717 162.587 210.536 161.798 210.536 160.912ZM217.96 160.928C217.96 160.267 217.827 159.691 217.56 159.2C217.293 158.71 216.931 158.336 216.472 158.08C216.024 157.814 215.528 157.68 214.984 157.68C214.44 157.68 213.944 157.808 213.496 158.064C213.048 158.32 212.691 158.694 212.424 159.184C212.157 159.675 212.024 160.251 212.024 160.912C212.024 161.584 212.157 162.171 212.424 162.672C212.691 163.163 213.048 163.542 213.496 163.808C213.944 164.064 214.44 164.192 214.984 164.192C215.528 164.192 216.024 164.064 216.472 163.808C216.931 163.542 217.293 163.163 217.56 162.672C217.827 162.171 217.96 161.59 217.96 160.928ZM221.349 160.912C221.349 160.016 221.53 159.232 221.893 158.56C222.255 157.878 222.751 157.35 223.381 156.976C224.021 156.603 224.735 156.416 225.525 156.416C226.207 156.416 226.842 156.576 227.429 156.896C228.015 157.206 228.463 157.616 228.773 158.128V153.488H230.245V165.328H228.773V163.68C228.485 164.203 228.058 164.635 227.493 164.976C226.927 165.307 226.266 165.472 225.509 165.472C224.73 165.472 224.021 165.28 223.381 164.896C222.751 164.512 222.255 163.974 221.893 163.28C221.53 162.587 221.349 161.798 221.349 160.912ZM228.773 160.928C228.773 160.267 228.639 159.691 228.373 159.2C228.106 158.71 227.743 158.336 227.285 158.08C226.837 157.814 226.341 157.68 225.797 157.68C225.253 157.68 224.757 157.808 224.309 158.064C223.861 158.32 223.503 158.694 223.237 159.184C222.97 159.675 222.837 160.251 222.837 160.912C222.837 161.584 222.97 162.171 223.237 162.672C223.503 163.163 223.861 163.542 224.309 163.808C224.757 164.064 225.253 164.192 225.797 164.192C226.341 164.192 226.837 164.064 227.285 163.808C227.743 163.542 228.106 163.163 228.373 162.672C228.639 162.171 228.773 161.59 228.773 160.928ZM237.723 155.136C237.445 155.136 237.211 155.04 237.019 154.848C236.827 154.656 236.731 154.422 236.731 154.144C236.731 153.867 236.827 153.632 237.019 153.44C237.211 153.248 237.445 153.152 237.723 153.152C237.989 153.152 238.213 153.248 238.395 153.44C238.587 153.632 238.683 153.867 238.683 154.144C238.683 154.422 238.587 154.656 238.395 154.848C238.213 155.04 237.989 155.136 237.723 155.136ZM238.427 156.56V165.328H236.971V156.56H238.427ZM245.18 156.4C246.247 156.4 247.111 156.726 247.772 157.376C248.434 158.016 248.764 158.944 248.764 160.16V165.328H247.324V160.368C247.324 159.494 247.106 158.827 246.668 158.368C246.231 157.899 245.634 157.664 244.876 157.664C244.108 157.664 243.495 157.904 243.036 158.384C242.588 158.864 242.364 159.563 242.364 160.48V165.328H240.908V156.56H242.364V157.808C242.652 157.36 243.042 157.014 243.532 156.768C244.034 156.523 244.583 156.4 245.18 156.4ZM259.76 156.4C260.422 156.4 261.019 156.544 261.552 156.832C262.086 157.11 262.502 157.531 262.8 158.096C263.11 158.662 263.264 159.35 263.264 160.16V165.328H261.824V160.368C261.824 159.494 261.606 158.827 261.168 158.368C260.731 157.899 260.134 157.664 259.376 157.664C258.608 157.664 257.995 157.904 257.536 158.384C257.088 158.864 256.864 159.563 256.864 160.48V165.328H255.408V153.488H256.864V157.808C257.152 157.36 257.547 157.014 258.048 156.768C258.56 156.523 259.131 156.4 259.76 156.4ZM273.643 160.608C273.643 160.886 273.627 161.179 273.595 161.488H266.587C266.64 162.352 266.933 163.03 267.467 163.52C268.011 164 268.667 164.24 269.435 164.24C270.064 164.24 270.587 164.096 271.003 163.808C271.429 163.51 271.728 163.115 271.899 162.624H273.467C273.232 163.467 272.763 164.155 272.059 164.688C271.355 165.211 270.48 165.472 269.435 165.472C268.603 165.472 267.856 165.286 267.195 164.912C266.544 164.539 266.032 164.011 265.659 163.328C265.285 162.635 265.099 161.835 265.099 160.928C265.099 160.022 265.28 159.227 265.643 158.544C266.005 157.862 266.512 157.339 267.163 156.976C267.824 156.603 268.581 156.416 269.435 156.416C270.267 156.416 271.003 156.598 271.643 156.96C272.283 157.323 272.773 157.824 273.115 158.464C273.467 159.094 273.643 159.808 273.643 160.608ZM272.139 160.304C272.139 159.75 272.016 159.275 271.771 158.88C271.525 158.475 271.189 158.171 270.763 157.968C270.347 157.755 269.883 157.648 269.371 157.648C268.635 157.648 268.005 157.883 267.483 158.352C266.971 158.822 266.677 159.472 266.603 160.304H272.139ZM277.021 157.984C277.277 157.483 277.639 157.094 278.109 156.816C278.589 156.539 279.17 156.4 279.853 156.4V157.904H279.469C277.837 157.904 277.021 158.79 277.021 160.56V165.328H275.565V156.56H277.021V157.984ZM289.533 160.608C289.533 160.886 289.517 161.179 289.485 161.488H282.477C282.531 162.352 282.824 163.03 283.357 163.52C283.901 164 284.557 164.24 285.325 164.24C285.955 164.24 286.477 164.096 286.893 163.808C287.32 163.51 287.619 163.115 287.789 162.624H289.357C289.123 163.467 288.653 164.155 287.949 164.688C287.245 165.211 286.371 165.472 285.325 165.472C284.493 165.472 283.747 165.286 283.085 164.912C282.435 164.539 281.923 164.011 281.549 163.328C281.176 162.635 280.989 161.835 280.989 160.928C280.989 160.022 281.171 159.227 281.533 158.544C281.896 157.862 282.403 157.339 283.053 156.976C283.715 156.603 284.472 156.416 285.325 156.416C286.157 156.416 286.893 156.598 287.533 156.96C288.173 157.323 288.664 157.824 289.005 158.464C289.357 159.094 289.533 159.808 289.533 160.608ZM288.029 160.304C288.029 159.75 287.907 159.275 287.661 158.88C287.416 158.475 287.08 158.171 286.653 157.968C286.237 157.755 285.773 157.648 285.261 157.648C284.525 157.648 283.896 157.883 283.373 158.352C282.861 158.822 282.568 159.472 282.493 160.304H288.029ZM293.343 154.176L293.167 162.176H291.951L291.775 154.176H293.343ZM292.623 165.424C292.346 165.424 292.111 165.328 291.919 165.136C291.727 164.944 291.631 164.71 291.631 164.432C291.631 164.155 291.727 163.92 291.919 163.728C292.111 163.536 292.346 163.44 292.623 163.44C292.89 163.44 293.114 163.536 293.295 163.728C293.487 163.92 293.583 164.155 293.583 164.432C293.583 164.71 293.487 164.944 293.295 165.136C293.114 165.328 292.89 165.424 292.623 165.424Z" fill="black"/>
</svg>
