<svg width="21" height="28" viewBox="0 0 21 28" fill="none" xmlns="http://www.w3.org/2000/svg">
<path fill-rule="evenodd" clip-rule="evenodd" d="M8.40112 0.937073C8.81534 0.937073 9.15112 1.27286 9.15112 1.68707V6.32233C9.15112 6.73654 8.81534 7.07233 8.40112 7.07233C7.98691 7.07233 7.65112 6.73654 7.65112 6.32233V4.7547H3.76587C3.35011 4.7547 2.95138 4.91986 2.65739 5.21385C2.3634 5.50783 2.19824 5.90657 2.19824 6.32233V23.7045C2.19824 24.1203 2.3634 24.519 2.65739 24.813C2.95138 25.107 3.35011 25.2722 3.76587 25.2722H17.6716C18.0874 25.2722 18.4861 25.107 18.7801 24.813C19.0741 24.519 19.2393 24.1203 19.2393 23.7045V6.32233C19.2393 5.90657 19.0741 5.50783 18.7801 5.21385C18.4861 4.91986 18.0874 4.7547 17.6716 4.7547H13.6158C13.2016 4.7547 12.8658 4.41891 12.8658 4.0047C12.8658 3.59049 13.2016 3.2547 13.6158 3.2547H17.6716C18.4852 3.2547 19.2655 3.5779 19.8408 4.15319C20.4161 4.72848 20.7393 5.50874 20.7393 6.32233V23.7045C20.7393 24.5181 20.4161 25.2984 19.8408 25.8737C19.2655 26.449 18.4852 26.7722 17.6716 26.7722H3.76587C2.95228 26.7722 2.17202 26.449 1.59673 25.8737C1.02144 25.2984 0.698242 24.5181 0.698242 23.7045V6.32233C0.698242 5.50874 1.02144 4.72848 1.59673 4.15319C2.17202 3.5779 2.95228 3.2547 3.76587 3.2547H7.65112V1.68707C7.65112 1.27286 7.98691 0.937073 8.40112 0.937073ZM5.3335 12.1164C5.3335 11.7022 5.66928 11.3664 6.0835 11.3664H8.40112C8.81534 11.3664 9.15112 11.7022 9.15112 12.1164C9.15112 12.5306 8.81534 12.8664 8.40112 12.8664H6.0835C5.66928 12.8664 5.3335 12.5306 5.3335 12.1164ZM5.3335 16.7516C5.3335 16.3374 5.66928 16.0016 6.0835 16.0016H15.354C15.7682 16.0016 16.104 16.3374 16.104 16.7516C16.104 17.1659 15.7682 17.5016 15.354 17.5016H6.0835C5.66928 17.5016 5.3335 17.1659 5.3335 16.7516ZM5.3335 21.3869C5.3335 20.9727 5.66928 20.6369 6.0835 20.6369H10.7188C11.133 20.6369 11.4688 20.9727 11.4688 21.3869C11.4688 21.8011 11.133 22.1369 10.7188 22.1369H6.0835C5.66928 22.1369 5.3335 21.8011 5.3335 21.3869Z" fill="black" stroke="black" stroke-width="0.5" stroke-linecap="round" stroke-linejoin="round"/>
</svg>
