<svg width="62" height="49" viewBox="0 0 62 49" fill="none" xmlns="http://www.w3.org/2000/svg">
<rect opacity="0.25" x="0.421875" y="0.534668" width="60.9307" height="48.4653" rx="18" fill="#71C98A"/>
<path d="M18.9627 21.1673V19.1033H22.8187V30.7673H20.5147V21.1673H18.9627ZM25.7356 28.2393C26.7596 27.386 27.5756 26.6767 28.1836 26.1113C28.7916 25.5353 29.2983 24.938 29.7036 24.3193C30.1089 23.7007 30.3116 23.0927 30.3116 22.4953C30.3116 21.9513 30.1836 21.5247 29.9276 21.2153C29.6716 20.906 29.2769 20.7513 28.7436 20.7513C28.2103 20.7513 27.7996 20.9327 27.5116 21.2953C27.2236 21.6473 27.0743 22.1327 27.0636 22.7513H24.8876C24.9303 21.4713 25.3089 20.5007 26.0236 19.8393C26.7489 19.178 27.6663 18.8473 28.7756 18.8473C29.9916 18.8473 30.9249 19.1727 31.5756 19.8233C32.2263 20.4633 32.5516 21.3113 32.5516 22.3673C32.5516 23.1993 32.3276 23.994 31.8796 24.7513C31.4316 25.5087 30.9196 26.17 30.3436 26.7353C29.7676 27.29 29.0156 27.962 28.0876 28.7513H32.8076V30.6073H24.9036V28.9433L25.7356 28.2393ZM34.2511 22.1753C34.3044 21.1087 34.6778 20.2873 35.3711 19.7113C36.0751 19.1247 36.9978 18.8313 38.1391 18.8313C38.9178 18.8313 39.5844 18.97 40.1391 19.2473C40.6938 19.514 41.1098 19.882 41.3871 20.3513C41.6751 20.81 41.8191 21.3327 41.8191 21.9193C41.8191 22.5913 41.6431 23.162 41.2911 23.6313C40.9498 24.09 40.5391 24.3993 40.0591 24.5593V24.6233C40.6778 24.8153 41.1578 25.1567 41.4991 25.6473C41.8511 26.138 42.0271 26.7673 42.0271 27.5353C42.0271 28.1753 41.8778 28.746 41.5791 29.2473C41.2911 29.7487 40.8591 30.1433 40.2831 30.4313C39.7178 30.7087 39.0351 30.8473 38.2351 30.8473C37.0298 30.8473 36.0484 30.5433 35.2911 29.9353C34.5338 29.3273 34.1338 28.4313 34.0911 27.2473H36.2671C36.2884 27.77 36.4644 28.1913 36.7951 28.5113C37.1364 28.8207 37.6004 28.9753 38.1871 28.9753C38.7311 28.9753 39.1471 28.826 39.4351 28.5273C39.7338 28.218 39.8831 27.8233 39.8831 27.3433C39.8831 26.7033 39.6804 26.2447 39.2751 25.9673C38.8698 25.69 38.2404 25.5513 37.3871 25.5513H36.9231V23.7113H37.3871C38.9018 23.7113 39.6591 23.2047 39.6591 22.1913C39.6591 21.7327 39.5204 21.3753 39.2431 21.1193C38.9764 20.8633 38.5871 20.7353 38.0751 20.7353C37.5738 20.7353 37.1844 20.874 36.9071 21.1513C36.6404 21.418 36.4858 21.7593 36.4431 22.1753H34.2511Z" fill="#71C98A"/>
</svg>
