<svg width="19" height="21" viewBox="0 0 19 21" fill="none" xmlns="http://www.w3.org/2000/svg">
<path d="M4.69944 6.22931V1.56499C4.69944 1.35882 4.78135 1.16109 4.92713 1.0153C5.07292 0.86951 5.27065 0.787607 5.47683 0.787607C5.683 0.787607 5.88073 0.86951 6.02652 1.0153C6.17231 1.16109 6.25421 1.35882 6.25421 1.56499V6.22931C6.25421 6.43548 6.17231 6.63321 6.02652 6.779C5.88073 6.92479 5.683 7.00669 5.47683 7.00669C5.27065 7.00669 5.07292 6.92479 4.92713 6.779C4.78135 6.63321 4.69944 6.43548 4.69944 6.22931ZM18.6924 1.56499V19.4449C18.6924 19.651 18.6105 19.8488 18.4647 19.9946C18.3189 20.1403 18.1212 20.2222 17.915 20.2222C17.7088 20.2222 17.5111 20.1403 17.3653 19.9946C17.2195 19.8488 17.1376 19.651 17.1376 19.4449V14.7805H12.4733C12.2671 14.7805 12.0694 14.6986 11.9236 14.5529C11.7778 14.4071 11.6959 14.2093 11.6959 14.0032C11.732 12.141 11.9672 10.2881 12.3975 8.47595C13.3479 4.54141 15.1494 1.90413 17.6089 0.850769C17.7271 0.800133 17.856 0.779613 17.9841 0.79105C18.1122 0.802487 18.2355 0.845523 18.3428 0.916302C18.4502 0.98708 18.5384 1.08339 18.5994 1.1966C18.6604 1.30981 18.6923 1.43639 18.6924 1.56499ZM17.1376 2.9157C14.0115 5.30325 13.3994 11.1191 13.2798 13.2258H17.1376V2.9157ZM9.35307 1.4377C9.33784 1.33562 9.30244 1.2376 9.24894 1.14935C9.19543 1.06109 9.12489 0.984379 9.04142 0.923677C8.95795 0.862975 8.86324 0.819501 8.76279 0.795789C8.66235 0.772078 8.55819 0.768604 8.45639 0.785571C8.35458 0.802538 8.25718 0.839606 8.16986 0.894612C8.08253 0.949618 8.00703 1.02146 7.94777 1.10595C7.8885 1.19044 7.84665 1.28589 7.82466 1.38673C7.80266 1.48756 7.80097 1.59176 7.81967 1.69326L8.58637 6.29052C8.58637 7.11523 8.25876 7.90615 7.67561 8.4893C7.09245 9.07246 6.30153 9.40007 5.47683 9.40007C4.65213 9.40007 3.8612 9.07246 3.27805 8.4893C2.6949 7.90615 2.36729 7.11523 2.36729 6.29052L3.13301 1.69326C3.15171 1.59176 3.15002 1.48756 3.12803 1.38673C3.10604 1.28589 3.06419 1.19044 3.00492 1.10595C2.94565 1.02146 2.87015 0.949618 2.78283 0.894612C2.6955 0.839606 2.5981 0.802538 2.4963 0.785571C2.3945 0.768604 2.29034 0.772078 2.18989 0.795789C2.08945 0.819501 1.99473 0.862975 1.91126 0.923677C1.8278 0.984379 1.75725 1.06109 1.70375 1.14935C1.65024 1.2376 1.61484 1.33562 1.59962 1.4377L0.822231 6.10201C0.815507 6.1441 0.812258 6.18668 0.812514 6.22931C0.814067 7.33107 1.20501 8.39681 1.91627 9.23823C2.62753 10.0797 3.61332 10.6426 4.69944 10.8275V19.4449C4.69944 19.651 4.78135 19.8488 4.92713 19.9946C5.07292 20.1403 5.27065 20.2222 5.47683 20.2222C5.683 20.2222 5.88073 20.1403 6.02652 19.9946C6.17231 19.8488 6.25421 19.651 6.25421 19.4449V10.8275C7.34034 10.6426 8.32612 10.0797 9.03738 9.23823C9.74864 8.39681 10.1396 7.33107 10.1411 6.22931C10.1411 6.18665 10.1375 6.14408 10.1305 6.10201L9.35307 1.4377Z" fill="black"/>
</svg>
