<svg width="21" height="18" viewBox="0 0 21 18" fill="none" xmlns="http://www.w3.org/2000/svg">
<path d="M20.1641 4.10216C20.1641 3.838 20.032 3.63987 19.8339 3.50779L15.2109 0.866121C15.0789 0.800079 15.0128 0.800079 14.8807 0.800079C14.7486 0.800079 14.6826 0.800079 14.5505 0.866121L10.2578 3.30966L5.9651 0.866121C5.83302 0.800079 5.76698 0.800079 5.6349 0.800079C5.50281 0.800079 5.43677 0.800079 5.30469 0.866121L0.681771 3.50779C0.483646 3.63987 0.351562 3.838 0.351562 4.10216V17.3105C0.351562 17.7067 0.615729 17.9709 1.01198 17.9709C1.14406 17.9709 1.2101 17.9049 1.34219 17.9049L5.6349 15.4613L9.9276 17.9049C10.0597 17.9709 10.1257 17.9709 10.2578 17.9709C10.3899 17.9709 10.4559 17.9709 10.588 17.9049L14.8807 15.4613L19.1734 17.9049C19.2395 17.9709 19.3716 17.9709 19.5036 17.9709C19.8999 17.9709 20.1641 17.7067 20.1641 17.3105V4.10216ZM1.6724 4.49841L4.97448 2.5832V14.2726L1.6724 16.1878V4.49841ZM9.5974 16.1878L6.29531 14.2726V2.5832L9.5974 4.49841V16.1878ZM14.2203 14.2726L10.9182 16.1878V4.49841L14.2203 2.5832V14.2726ZM15.5411 14.2726V2.5832L18.8432 4.49841V16.1878L15.5411 14.2726Z" fill="black"/>
</svg>
