<svg width="21" height="18" viewBox="0 0 21 18" fill="none" xmlns="http://www.w3.org/2000/svg">
<path d="M20.7031 3.70076C20.7031 3.4366 20.571 3.23847 20.3729 3.10639L15.75 0.464723C15.6179 0.398682 15.5519 0.398682 15.4198 0.398682C15.2877 0.398682 15.2217 0.398682 15.0896 0.464723L10.7969 2.90827L6.50417 0.464723C6.37208 0.398682 6.30604 0.398682 6.17396 0.398682C6.04187 0.398682 5.97583 0.398682 5.84375 0.464723L1.22083 3.10639C1.02271 3.23847 0.890625 3.4366 0.890625 3.70076V16.9091C0.890625 17.3053 1.15479 17.5695 1.55104 17.5695C1.68313 17.5695 1.74917 17.5035 1.88125 17.5035L6.17396 15.0599L10.4667 17.5035C10.5987 17.5695 10.6648 17.5695 10.7969 17.5695C10.929 17.5695 10.995 17.5695 11.1271 17.5035L15.4198 15.0599L19.7125 17.5035C19.7785 17.5695 19.9106 17.5695 20.0427 17.5695C20.439 17.5695 20.7031 17.3053 20.7031 16.9091V3.70076ZM2.21146 4.09702L5.51354 2.18181V13.8712L2.21146 15.7864V4.09702ZM10.1365 15.7864L6.83437 13.8712V2.18181L10.1365 4.09702V15.7864ZM14.7594 13.8712L11.4573 15.7864V4.09702L14.7594 2.18181V13.8712ZM16.0802 13.8712V2.18181L19.3823 4.09702V15.7864L16.0802 13.8712Z" fill="#FEAFB1"/>
</svg>
