<svg width="24" height="24" viewBox="0 0 24 24" fill="none" xmlns="http://www.w3.org/2000/svg">
<path fill-rule="evenodd" clip-rule="evenodd" d="M1.24601 4.73601C1.75725 4.73601 2.1717 5.15045 2.1717 5.6617V20.329C2.1717 20.6392 2.29493 20.9367 2.51428 21.1561C2.73363 21.3754 3.03113 21.4986 3.34134 21.4986H18.0086C18.5199 21.4986 18.9343 21.9131 18.9343 22.4243C18.9343 22.9356 18.5199 23.35 18.0086 23.35H3.34134C2.54011 23.35 1.7717 23.0317 1.20515 22.4652C0.638598 21.8986 0.320312 21.1302 0.320312 20.329V5.6617C0.320312 5.15045 0.734759 4.73601 1.24601 4.73601Z" fill="black" stroke="white" stroke-width="0.5" stroke-linecap="round" stroke-linejoin="round"/>
<path fill-rule="evenodd" clip-rule="evenodd" d="M16.6153 10.983C17.2624 10.336 18.14 9.97252 19.0551 9.97252C19.9701 9.97252 20.8477 10.336 21.4948 10.983L22.8526 12.3408C23.2141 12.7023 23.2141 13.2884 22.8526 13.6499C22.4911 14.0114 21.905 14.0114 21.5435 13.6499L20.1858 12.2922C19.8859 11.9924 19.4791 11.8239 19.0551 11.8239C18.631 11.8239 18.2243 11.9924 17.9244 12.2922L11.3283 18.8883C10.9668 19.2498 10.3807 19.2498 10.0192 18.8883C9.65767 18.5268 9.65767 17.9406 10.0192 17.5791L16.6153 10.983Z" fill="black" stroke="white" stroke-width="0.5" stroke-linecap="round" stroke-linejoin="round"/>
<path fill-rule="evenodd" clip-rule="evenodd" d="M11.7241 6.58739C11.0782 6.58739 10.5545 7.11106 10.5545 7.75703C10.5545 8.403 11.0782 8.92667 11.7241 8.92667C12.3701 8.92667 12.8938 8.403 12.8938 7.75703C12.8938 7.11106 12.3701 6.58739 11.7241 6.58739ZM8.70312 7.75703C8.70312 6.08857 10.0557 4.73601 11.7241 4.73601C13.3926 4.73601 14.7452 6.08857 14.7452 7.75703C14.7452 9.4255 13.3926 10.7781 11.7241 10.7781C10.0557 10.7781 8.70312 9.4255 8.70312 7.75703Z" fill="black" stroke="white" stroke-width="0.5" stroke-linecap="round" stroke-linejoin="round"/>
<path fill-rule="evenodd" clip-rule="evenodd" d="M7.53274 2.39674C6.88677 2.39674 6.36311 2.9204 6.36311 3.56637V16.1384C6.36311 16.7843 6.88677 17.308 7.53274 17.308H20.1047C20.7507 17.308 21.2744 16.7843 21.2744 16.1384V3.56637C21.2744 2.9204 20.7507 2.39674 20.1047 2.39674H7.53274ZM4.51172 3.56637C4.51172 1.89791 5.86428 0.545349 7.53274 0.545349H20.1047C21.7732 0.545349 23.1257 1.89791 23.1257 3.56637V16.1384C23.1257 17.8068 21.7732 19.1594 20.1047 19.1594H7.53274C5.86428 19.1594 4.51172 17.8068 4.51172 16.1384V3.56637Z" fill="black" stroke="white" stroke-width="0.5" stroke-linecap="round" stroke-linejoin="round"/>
</svg>
