<svg width="18" height="17" viewBox="0 0 18 17" fill="none" xmlns="http://www.w3.org/2000/svg">
<path d="M17.3287 4.5298C17.2632 4.59534 17.1855 4.64733 17.0999 4.6828C17.0143 4.71829 16.9225 4.73656 16.8298 4.73656C16.7372 4.73656 16.6454 4.71829 16.5598 4.6828C16.4742 4.64732 16.3964 4.59532 16.3309 4.52976C16.3309 4.52975 16.3309 4.52974 16.3309 4.52973L13.91 2.10884C13.7777 1.97652 13.7034 1.79706 13.7034 1.60993C13.7034 1.4228 13.7777 1.24334 13.91 1.11102C14.0423 0.9787 14.2218 0.904364 14.4089 0.904364C14.596 0.904364 14.7755 0.9787 14.9078 1.11102L17.3287 3.5319C17.3287 3.53192 17.3287 3.53193 17.3288 3.53194C17.3943 3.59743 17.4463 3.6752 17.4818 3.76079C17.5173 3.84641 17.5355 3.93818 17.5355 4.03085C17.5355 4.12353 17.5173 4.2153 17.4818 4.30092C17.4463 4.38653 17.3943 4.46431 17.3287 4.5298ZM17.3287 4.5298L17.258 4.45905M17.3287 4.5298L17.258 4.45905M17.3287 4.5298C17.3287 4.52978 17.3288 4.52975 17.3288 4.52973L17.258 4.45905M17.3287 4.5298L17.258 4.45905M8.96196 2.11516H8.96184C7.50563 2.11516 6.08211 2.54698 4.87131 3.35601C3.66051 4.16504 2.71681 5.31495 2.15954 6.66032C1.60227 8.00569 1.45646 9.4861 1.74055 10.9143C2.02465 12.3426 2.72588 13.6545 3.75558 14.6842C4.78528 15.7139 6.0972 16.4151 7.52544 16.6992C8.95368 16.9833 10.4341 16.8375 11.7795 16.2802C13.1248 15.723 14.2747 14.7793 15.0838 13.5685C15.8928 12.3577 16.3246 10.9341 16.3246 9.47793V9.47781C16.3224 7.5258 15.546 5.65438 14.1657 4.2741C12.7854 2.89382 10.914 2.11739 8.96196 2.11516ZM8.96173 15.4302C7.78452 15.4302 6.63374 15.0811 5.65492 14.4271C4.67607 13.773 3.91315 12.8434 3.46263 11.7558C3.01212 10.6681 2.89424 9.47132 3.12391 8.31669C3.35358 7.16206 3.92048 6.10146 4.75293 5.26901C5.58537 4.43657 6.64597 3.86967 7.80061 3.63999C8.95524 3.41032 10.1521 3.5282 11.2397 3.97871C12.3273 4.42923 13.257 5.19215 13.911 6.171C14.565 7.14982 14.9141 8.3006 14.9141 9.47781C14.9124 11.056 14.2847 12.5689 13.1688 13.6849C12.0529 14.8008 10.5399 15.4285 8.96173 15.4302ZM1.59276 4.52976L4.01368 2.10884C4.0792 2.04332 4.13117 1.96554 4.16663 1.87994C4.20209 1.79434 4.22034 1.70259 4.22034 1.60993C4.22034 1.51727 4.20209 1.42553 4.16663 1.33992C4.13117 1.25432 4.0792 1.17654 4.01368 1.11102C3.94816 1.0455 3.87038 0.99353 3.78478 0.958072C3.69918 0.922614 3.60743 0.904364 3.51477 0.904364C3.42211 0.904364 3.33036 0.922614 3.24476 0.958072C3.15916 0.99353 3.08138 1.0455 3.01586 1.11102L0.594937 3.53194C0.462618 3.66426 0.388281 3.84372 0.388281 4.03085C0.388281 4.21798 0.462618 4.39744 0.594937 4.52976C0.727257 4.66208 0.90672 4.73642 1.09385 4.73642C1.28098 4.73642 1.46044 4.66208 1.59276 4.52976ZM13.6971 8.97925C13.5649 8.847 13.3855 8.7727 13.1985 8.7727H9.66708V5.24131C9.66708 5.05428 9.59277 4.8749 9.46052 4.74264C9.32826 4.61038 9.14888 4.53608 8.96184 4.53608C8.77481 4.53608 8.59543 4.61038 8.46317 4.74264C8.33091 4.8749 8.25661 5.05428 8.25661 5.24131V9.47793C8.25661 9.66497 8.33091 9.84435 8.46317 9.9766C8.59543 10.1089 8.77481 10.1832 8.96184 10.1832H13.1985C13.3855 10.1832 13.5649 10.1089 13.6971 9.9766C13.8294 9.84435 13.9037 9.66497 13.9037 9.47793C13.9037 9.29089 13.8294 9.11151 13.6971 8.97925Z" fill="white" stroke="white" stroke-width="0.2"/>
</svg>
