<svg width="35" height="32" viewBox="0 0 35 32" fill="none" xmlns="http://www.w3.org/2000/svg">
<path fill-rule="evenodd" clip-rule="evenodd" d="M4.79382 5.14187C4.87882 4.82543 5.08595 4.55566 5.36972 4.39183C5.65348 4.228 5.99068 4.1835 6.30723 4.26811L10.8113 5.47498C11.0474 5.53838 11.2593 5.6703 11.4204 5.85408C11.5815 6.03787 11.6845 6.26527 11.7164 6.50756C11.7484 6.74986 11.7078 6.99618 11.5998 7.21543C11.4918 7.43467 11.3213 7.617 11.1098 7.73938L8.25426 9.388C5.88762 10.7544 4.16071 13.0049 3.45342 15.6446C2.74613 18.2842 3.1164 21.0967 4.48278 23.4633C5.84916 25.83 8.09972 27.5569 10.7394 28.2642C13.379 28.9715 16.1915 28.6012 18.5581 27.2348L19.272 26.8227C19.556 26.6587 19.8935 26.6143 20.2103 26.6991C20.527 26.784 20.7971 26.9912 20.961 27.2752C21.125 27.5592 21.1694 27.8967 21.0846 28.2135C20.9997 28.5303 20.7925 28.8003 20.5085 28.9643L19.7946 29.3764C16.86 31.0708 13.3725 31.5299 10.0993 30.6528C6.82616 29.7758 4.03547 27.6344 2.34116 24.6998C0.646853 21.7652 0.187716 18.2777 1.06475 15.0045C1.94179 11.7314 4.08317 8.94069 7.01779 7.24638C7.1179 7.18858 7.09816 7.03861 6.9865 7.00869L5.66759 6.65528C5.35114 6.57028 5.08137 6.36315 4.91754 6.07938C4.75371 5.79562 4.70921 5.45843 4.79382 5.14187ZM14.4178 4.40172C14.2539 4.11772 14.2094 3.78022 14.2943 3.46346C14.3792 3.14671 14.5864 2.87664 14.8704 2.71268L15.5843 2.30052C18.5189 0.606212 22.0064 0.147073 25.2795 1.02411C28.5527 1.90115 31.3434 4.04252 33.0377 6.97715C34.732 9.91178 35.1911 13.3993 34.3141 16.6724C33.4371 19.9456 31.2957 22.7363 28.3611 24.4306C28.261 24.4884 28.2807 24.6384 28.3924 24.6683L29.7113 25.0217C29.8731 25.059 30.0257 25.1285 30.1601 25.226C30.2944 25.3236 30.4078 25.4472 30.4933 25.5895C30.5789 25.7318 30.6349 25.8899 30.658 26.0544C30.6811 26.2188 30.6709 26.3862 30.6279 26.5466C30.5849 26.707 30.5101 26.8571 30.4079 26.9879C30.3056 27.1187 30.1781 27.2276 30.0328 27.3081C29.8876 27.3886 29.7276 27.439 29.5625 27.4563C29.3973 27.4736 29.2304 27.4575 29.0716 27.4089L24.5675 26.202C24.3315 26.1386 24.1196 26.0067 23.9585 25.8229C23.7974 25.6391 23.6944 25.4117 23.6624 25.1694C23.6305 24.9271 23.6711 24.6808 23.7791 24.4615C23.887 24.2423 24.0576 24.06 24.2691 23.9376L27.1246 22.289C29.4912 20.9226 31.2182 18.672 31.9254 16.0324C32.6327 13.3928 32.2625 10.5803 30.8961 8.21362C29.5297 5.84698 27.2791 4.12007 24.6395 3.41278C21.9999 2.70549 19.1874 3.07576 16.8207 4.44214L16.1069 4.85429C15.8229 5.01826 15.4854 5.06269 15.1686 4.97782C14.8519 4.89294 14.5818 4.68571 14.4178 4.40172Z" fill="#FEAFB1"/>
</svg>
