<svg width="16" height="18" viewBox="0 0 16 18" fill="none" xmlns="http://www.w3.org/2000/svg">
<path d="M4.48828 9.81769V3.50101C4.48828 3.16595 4.62138 2.84461 4.8583 2.60769C5.09523 2.37077 5.41656 2.23767 5.75162 2.23767C6.08667 2.23767 6.40801 2.37077 6.64493 2.60769C6.88185 2.84461 7.01495 3.16595 7.01495 3.50101M7.01495 3.50101V8.97546M7.01495 3.50101V1.81656C7.01495 1.65066 7.04763 1.48638 7.11112 1.3331C7.17461 1.17983 7.26766 1.04056 7.38498 0.923245C7.50229 0.805934 7.64156 0.712877 7.79483 0.649388C7.94811 0.5859 8.11239 0.553223 8.27829 0.553223C8.44419 0.553223 8.60847 0.5859 8.76175 0.649388C8.91502 0.712877 9.05429 0.805934 9.1716 0.923245C9.28891 1.04056 9.38197 1.17983 9.44546 1.3331C9.50895 1.48638 9.54163 1.65066 9.54163 1.81656V8.97546M9.54163 3.50101C9.54163 3.16595 9.67473 2.84461 9.91165 2.60769C10.1486 2.37077 10.4699 2.23767 10.805 2.23767C11.14 2.23767 11.4614 2.37077 11.6983 2.60769C11.9352 2.84461 12.0683 3.16595 12.0683 3.50101V8.97546" stroke="#FEAFB1" stroke-linecap="round" stroke-linejoin="round"/>
<path d="M12.063 5.18546C12.063 4.8504 12.1961 4.52906 12.433 4.29214C12.67 4.05522 12.9913 3.92212 13.3264 3.92212C13.6614 3.92212 13.9828 4.05522 14.2197 4.29214C14.4566 4.52906 14.5897 4.8504 14.5897 5.18546V12.3444C14.5897 13.6846 14.0573 14.9699 13.1096 15.9176C12.1619 16.8653 10.8766 17.3977 9.53635 17.3977H7.8519H8.02709C7.1902 17.3978 6.36638 17.1901 5.6296 16.7932C4.89282 16.3963 4.26615 15.8226 3.80586 15.1237L3.64078 14.871C3.37801 14.4679 2.45549 12.8598 0.873233 10.0468C0.711905 9.76002 0.668811 9.42164 0.753117 9.10361C0.837423 8.78558 1.04248 8.51298 1.32467 8.3438C1.62537 8.16388 1.97748 8.08938 2.32528 8.1321C2.67308 8.17481 2.99671 8.33229 3.24494 8.57962L4.48301 9.81769" stroke="#FEAFB1" stroke-linecap="round" stroke-linejoin="round"/>
</svg>
