<svg width="62" height="50" viewBox="0 0 62 50" fill="none" xmlns="http://www.w3.org/2000/svg">
<rect opacity="0.25" x="0.759766" y="0.983398" width="60.9307" height="48.4653" rx="18" fill="#B271C9"/>
<path d="M28.0282 29.0881H23.5802L22.8442 31.2161H20.4922L24.5082 20.0321H27.1162L31.1322 31.2161H28.7642L28.0282 29.0881ZM27.4202 27.2961L25.8042 22.6241L24.1882 27.2961H27.4202ZM34.8733 23.6481C35.1613 23.2214 35.556 22.8747 36.0573 22.6081C36.5693 22.3414 37.1506 22.2081 37.8013 22.2081C38.5586 22.2081 39.2413 22.3947 39.8493 22.7681C40.468 23.1414 40.9533 23.6747 41.3053 24.3681C41.668 25.0507 41.8493 25.8454 41.8493 26.7521C41.8493 27.6587 41.668 28.4641 41.3053 29.1681C40.9533 29.8614 40.468 30.4001 39.8493 30.7841C39.2413 31.1681 38.5586 31.3601 37.8013 31.3601C37.14 31.3601 36.5586 31.2321 36.0573 30.9761C35.5666 30.7094 35.172 30.3681 34.8733 29.9521V31.2161H32.6333V19.3761H34.8733V23.6481ZM39.5613 26.7521C39.5613 26.2187 39.4493 25.7601 39.2253 25.3761C39.012 24.9814 38.724 24.6827 38.3613 24.4801C38.0093 24.2774 37.6253 24.1761 37.2093 24.1761C36.804 24.1761 36.42 24.2827 36.0573 24.4961C35.7053 24.6987 35.4173 24.9974 35.1933 25.3921C34.98 25.7867 34.8733 26.2507 34.8733 26.7841C34.8733 27.3174 34.98 27.7814 35.1933 28.1761C35.4173 28.5707 35.7053 28.8747 36.0573 29.0881C36.42 29.2907 36.804 29.3921 37.2093 29.3921C37.6253 29.3921 38.0093 29.2854 38.3613 29.0721C38.724 28.8587 39.012 28.5547 39.2253 28.1601C39.4493 27.7654 39.5613 27.2961 39.5613 26.7521Z" fill="#B271C9"/>
</svg>
