<svg width="22" height="22" viewBox="0 0 22 22" fill="none" xmlns="http://www.w3.org/2000/svg">
<path opacity="0.25" d="M5.32329 2.45294H5.44829V2.32794V0.414246H7.23698V2.32794V2.45294H7.36198H13.4781H13.6031V2.32794V0.414246H15.3917V2.32794V2.45294H15.5167H19.5941C19.8313 2.45294 20.0588 2.54716 20.2265 2.71488C20.3942 2.88261 20.4885 3.11009 20.4885 3.34728V8.31901H18.6998V4.36663V4.24163H18.5748H15.5167H15.3917V4.36663V6.28032H13.6031V4.36663V4.24163H13.4781H7.36198H7.23698V4.36663V6.28032H5.44829V4.36663V4.24163H5.32329H2.26525H2.14025V4.36663V18.6375V18.7625H2.26525H8.25632V20.5512H1.24591C1.00871 20.5512 0.781232 20.4569 0.61351 20.2892C0.445788 20.1215 0.351562 19.894 0.351562 19.6568V3.34728C0.351562 3.11009 0.445788 2.88261 0.61351 2.71488C0.781232 2.54716 1.00871 2.45294 1.24591 2.45294H5.32329ZM16.4111 15.1574V15.2092L16.4477 15.2458L18.0993 16.8974L16.8348 18.162L14.6224 15.9497V12.6464H16.4111V15.1574ZM15.5167 11.377C14.4022 11.377 13.3333 11.8198 12.5452 12.6079C11.7571 13.396 11.3144 14.4649 11.3144 15.5794C11.3144 16.694 11.7571 17.7629 12.5452 18.551C13.3333 19.3391 14.4022 19.7818 15.5167 19.7818C16.6313 19.7818 17.7002 19.3391 18.4883 18.551C19.2764 17.7629 19.7191 16.694 19.7191 15.5794C19.7191 14.4649 19.2764 13.396 18.4883 12.6079C17.7002 11.8198 16.6313 11.377 15.5167 11.377ZM9.52567 15.5794C9.52567 14.7927 9.68063 14.0136 9.98171 13.2867C10.2828 12.5599 10.7241 11.8994 11.2804 11.3431C11.8367 10.7868 12.4972 10.3455 13.2241 10.0444C13.9509 9.74332 14.73 9.58835 15.5167 9.58835C16.3035 9.58835 17.0826 9.74332 17.8094 10.0444C18.5363 10.3455 19.1967 10.7868 19.7531 11.3431C20.3094 11.8994 20.7507 12.5599 21.0518 13.2867C21.3528 14.0136 21.5078 14.7927 21.5078 15.5794C21.5078 17.1684 20.8766 18.6922 19.7531 19.8158C18.6295 20.9393 17.1057 21.5705 15.5167 21.5705C13.9278 21.5705 12.404 20.9393 11.2804 19.8158C10.1569 18.6922 9.52567 17.1684 9.52567 15.5794Z" fill="black" stroke="white" stroke-width="0.25"/>
</svg>
