<svg width="28" height="20" viewBox="0 0 28 20" fill="none" xmlns="http://www.w3.org/2000/svg">
<path d="M25.847 4.45389C25.8471 4.34557 25.8176 4.23929 25.7616 4.14655C25.7056 4.05381 25.6253 3.97815 25.5295 3.92776C25.4336 3.87737 25.3257 3.85417 25.2176 3.86068C25.1095 3.86719 25.0052 3.90315 24.916 3.96468L24.916 3.96469L19.7736 7.51544L19.7304 7.54526V7.59773V12.1675V12.22L19.7736 12.2498L24.916 15.7986C25.005 15.86 25.1091 15.8959 25.217 15.9025C25.3249 15.9091 25.4326 15.8862 25.5284 15.8361C25.6242 15.786 25.7045 15.7106 25.7607 15.6182C25.8168 15.5258 25.8467 15.4199 25.847 15.3117V15.3114V4.45389ZM25.847 4.45389L25.747 4.4538M25.847 4.45389V4.4538H25.747M25.747 4.4538V15.3114C25.7467 15.4013 25.7219 15.4895 25.6752 15.5663C25.6285 15.6431 25.5617 15.7058 25.4821 15.7474C25.4024 15.7891 25.3129 15.8082 25.2231 15.8027C25.1334 15.7972 25.0468 15.7673 24.9728 15.7163L19.8304 12.1675V7.59773L24.9728 4.04698C25.047 3.99582 25.1337 3.96591 25.2236 3.9605C25.3135 3.95509 25.4032 3.97438 25.4829 4.01628C25.5627 4.05818 25.6294 4.1211 25.676 4.19822C25.7225 4.27534 25.7471 4.36372 25.747 4.4538ZM19.8872 14.4846L19.7304 14.3764V14.5669V14.8177C19.7304 16.1006 19.2208 17.3309 18.3136 18.2381C17.4065 19.1452 16.1762 19.6548 14.8933 19.6548H5.01912C3.73624 19.6548 2.50591 19.1452 1.59878 18.2381C0.691651 17.3309 0.182031 16.1006 0.182031 14.8177V4.94356C0.182031 3.66068 0.691651 2.43035 1.59878 1.52322C2.50591 0.61609 3.73624 0.10647 5.01912 0.10647H14.8933C16.1762 0.10647 17.4065 0.61609 18.3136 1.52322C19.2208 2.43035 19.7304 3.66068 19.7304 4.94356V5.19831V5.38887L19.8872 5.2806L23.906 2.50597C24.2614 2.2607 24.677 2.11726 25.1081 2.09114C25.5391 2.06503 25.969 2.15724 26.3514 2.35781C26.7338 2.55837 27.0541 2.85966 27.2777 3.2291C27.5013 3.59853 27.6196 4.02205 27.6198 4.45386V15.3114C27.6196 15.7432 27.5013 16.1667 27.2777 16.5361C27.0541 16.9056 26.7338 17.2069 26.3514 17.4074C25.969 17.608 25.5391 17.7002 25.1081 17.6741C24.677 17.648 24.2614 17.5045 23.906 17.2593C23.906 17.2593 23.906 17.2593 23.906 17.2593L19.8872 14.4846ZM2.85378 2.77822C2.2795 3.3525 1.95687 4.1314 1.95687 4.94356V14.8177C1.95687 15.6299 2.2795 16.4088 2.85378 16.9831C3.42806 17.5574 4.20696 17.88 5.01912 17.88H14.8933C15.7055 17.88 16.4843 17.5574 17.0586 16.9831C17.6329 16.4088 17.9555 15.6299 17.9555 14.8177V4.94356C17.9555 4.1314 17.6329 3.3525 17.0586 2.77822C16.4843 2.20393 15.7055 1.8813 14.8933 1.8813H5.01912C4.20696 1.8813 3.42806 2.20393 2.85378 2.77822Z" fill="white" stroke="#FEAFB1" stroke-width="0.2"/>
</svg>
