<svg width="30" height="30" viewBox="0 0 30 30" fill="none" xmlns="http://www.w3.org/2000/svg">
<mask id="path-1-inside-1_225_3107" fill="white">
<path fill-rule="evenodd" clip-rule="evenodd" d="M14.9169 4.95628C14.9662 4.90703 15.0156 4.85772 15.0648 4.80836C15.3994 4.47379 15.6899 4.18324 16.0113 3.99746C16.437 3.7516 16.9199 3.62208 17.4115 3.62193C17.9032 3.62178 18.3862 3.75099 18.812 3.99658L18.8129 3.99746C19.136 4.18324 19.4248 4.47203 19.7594 4.80836L20.0632 5.11212C20.7195 4.56387 21.5572 4.28105 22.4115 4.31929C23.2658 4.35754 24.0749 4.71408 24.6796 5.31878C25.2843 5.92348 25.6409 6.73258 25.6791 7.5869C25.7174 8.44122 25.4345 9.27894 24.8863 9.93525L25.19 10.239C25.5246 10.5736 25.8152 10.8641 26.0018 11.1864C26.2474 11.6121 26.3767 12.0949 26.3767 12.5863C26.3767 13.0777 26.2474 13.5605 26.0018 13.9862C25.8152 14.3102 25.5264 14.599 25.1892 14.9345L25.0421 15.0815C24.7076 15.4161 24.417 15.7066 24.0965 15.8933C23.6706 16.1392 23.1875 16.2686 22.6957 16.2686C22.2039 16.2686 21.7208 16.1392 21.2949 15.8933C20.9709 15.7066 20.6821 15.4178 20.3475 15.0815L18.2926 13.0265L13.4501 17.869L15.505 19.924C15.8396 20.2586 16.1302 20.5491 16.3168 20.8714C16.5624 21.2971 16.6917 21.7799 16.6917 22.2713C16.6917 22.7627 16.5624 23.2455 16.3168 23.6712C16.1302 23.9952 15.8414 24.284 15.5042 24.6195L15.3571 24.7665C15.0225 25.1011 14.732 25.3916 14.4115 25.5783C13.9856 25.8242 13.5025 25.9536 13.0107 25.9536C12.5189 25.9536 12.0358 25.8242 11.6099 25.5783C11.2859 25.3916 10.998 25.102 10.6625 24.7665L10.3588 24.4628C9.70246 25.011 8.86475 25.2938 8.01042 25.2556C7.1561 25.2173 6.34701 24.8608 5.7423 24.2561C5.1376 23.6514 4.78106 22.8423 4.74281 21.988C4.70457 21.1337 4.98739 20.2959 5.53564 19.6396L5.23189 19.3359C4.89731 19.0013 4.60676 18.7107 4.42099 18.3894C4.17512 17.9637 4.04561 17.4807 4.04545 16.9891C4.0453 16.4975 4.17451 16.0145 4.42011 15.5887C4.60676 15.2646 4.89643 14.9767 5.23277 14.6404C5.28183 14.5914 5.33084 14.5424 5.3798 14.4934C5.71438 14.1588 6.00493 13.8682 6.32629 13.6825C6.75201 13.4366 7.23492 13.3071 7.72654 13.3069C8.21815 13.3068 8.70115 13.436 9.12702 13.6816C9.45103 13.8682 9.73893 14.1579 10.0753 14.4942L12.1294 16.5483L16.9719 11.7058L14.9169 9.65087C14.5823 9.31629 14.2918 9.02574 14.106 8.70438C13.8601 8.27866 13.7306 7.79574 13.7305 7.30413C13.7303 6.81252 13.8595 6.32952 14.1051 5.90365C14.2918 5.57964 14.5806 5.29261 14.9169 4.95628ZM6.86865 20.9726C6.67038 21.2719 6.58168 21.6306 6.61758 21.9878C6.65348 22.3451 6.81178 22.6789 7.06565 22.9328C7.31952 23.1866 7.65335 23.3449 8.01057 23.3808C8.3678 23.4167 8.72646 23.328 9.02577 23.1298L6.86865 20.9726ZM23.5533 8.60224C23.7515 8.30293 23.8402 7.94428 23.8043 7.58705C23.7684 7.22983 23.6101 6.896 23.3563 6.64213C23.1024 6.38826 22.7686 6.22996 22.4114 6.19406C22.0541 6.15816 21.6955 6.24685 21.3962 6.44513L23.5533 8.60224ZM16.3115 6.203C15.8599 6.65468 15.7692 6.75769 15.7234 6.83693C15.6415 6.97883 15.5984 7.13976 15.5984 7.30357C15.5984 7.46738 15.6415 7.62832 15.7234 7.77021C15.7683 7.85034 15.859 7.95159 16.3115 8.40414L21.5943 13.6869C22.0459 14.1385 22.1481 14.2301 22.2282 14.275C22.3701 14.3569 22.531 14.4 22.6948 14.4C22.8586 14.4 23.0196 14.3569 23.1615 14.275C23.2416 14.2301 23.3428 14.1394 23.7954 13.6869C24.2471 13.2352 24.3386 13.1331 24.3844 13.0538C24.4663 12.9119 24.5094 12.751 24.5094 12.5872C24.5094 12.4234 24.4663 12.2624 24.3844 12.1205C24.3386 12.0395 24.2471 11.9374 23.7954 11.4857L18.5127 6.203C18.061 5.75133 17.9589 5.65976 17.8787 5.61486C17.7368 5.533 17.5759 5.48991 17.4121 5.48991C17.2483 5.48991 17.0874 5.533 16.9455 5.61486C16.8653 5.65976 16.7641 5.75045 16.3115 6.203ZM6.62653 15.888C6.17485 16.3397 6.08417 16.4427 6.03838 16.5219C5.95653 16.6638 5.91344 16.8248 5.91344 16.9886C5.91344 17.1524 5.95653 17.3133 6.03838 17.4552C6.08329 17.5353 6.17397 17.6366 6.62653 18.0891L11.9093 23.3719C12.3609 23.8235 12.4631 23.9151 12.5432 23.96C12.6851 24.0419 12.846 24.085 13.0098 24.085C13.1736 24.085 13.3346 24.0419 13.4765 23.96C13.5557 23.9142 13.6578 23.8244 14.1104 23.3719C14.5621 22.9202 14.6536 22.8181 14.6994 22.7388C14.7813 22.5969 14.8244 22.436 14.8244 22.2722C14.8244 22.1084 14.7813 21.9474 14.6994 21.8055C14.6536 21.7245 14.5621 21.6224 14.1104 21.1707L8.82766 15.888C8.37599 15.4363 8.27386 15.3448 8.19374 15.2999C8.05184 15.218 7.89091 15.1749 7.7271 15.1749C7.56328 15.1749 7.40235 15.218 7.26045 15.2999C7.18033 15.3448 7.07908 15.4355 6.62653 15.888Z"/>
</mask>
<path fill-rule="evenodd" clip-rule="evenodd" d="M14.9169 4.95628C14.9662 4.90703 15.0156 4.85772 15.0648 4.80836C15.3994 4.47379 15.6899 4.18324 16.0113 3.99746C16.437 3.7516 16.9199 3.62208 17.4115 3.62193C17.9032 3.62178 18.3862 3.75099 18.812 3.99658L18.8129 3.99746C19.136 4.18324 19.4248 4.47203 19.7594 4.80836L20.0632 5.11212C20.7195 4.56387 21.5572 4.28105 22.4115 4.31929C23.2658 4.35754 24.0749 4.71408 24.6796 5.31878C25.2843 5.92348 25.6409 6.73258 25.6791 7.5869C25.7174 8.44122 25.4345 9.27894 24.8863 9.93525L25.19 10.239C25.5246 10.5736 25.8152 10.8641 26.0018 11.1864C26.2474 11.6121 26.3767 12.0949 26.3767 12.5863C26.3767 13.0777 26.2474 13.5605 26.0018 13.9862C25.8152 14.3102 25.5264 14.599 25.1892 14.9345L25.0421 15.0815C24.7076 15.4161 24.417 15.7066 24.0965 15.8933C23.6706 16.1392 23.1875 16.2686 22.6957 16.2686C22.2039 16.2686 21.7208 16.1392 21.2949 15.8933C20.9709 15.7066 20.6821 15.4178 20.3475 15.0815L18.2926 13.0265L13.4501 17.869L15.505 19.924C15.8396 20.2586 16.1302 20.5491 16.3168 20.8714C16.5624 21.2971 16.6917 21.7799 16.6917 22.2713C16.6917 22.7627 16.5624 23.2455 16.3168 23.6712C16.1302 23.9952 15.8414 24.284 15.5042 24.6195L15.3571 24.7665C15.0225 25.1011 14.732 25.3916 14.4115 25.5783C13.9856 25.8242 13.5025 25.9536 13.0107 25.9536C12.5189 25.9536 12.0358 25.8242 11.6099 25.5783C11.2859 25.3916 10.998 25.102 10.6625 24.7665L10.3588 24.4628C9.70246 25.011 8.86475 25.2938 8.01042 25.2556C7.1561 25.2173 6.34701 24.8608 5.7423 24.2561C5.1376 23.6514 4.78106 22.8423 4.74281 21.988C4.70457 21.1337 4.98739 20.2959 5.53564 19.6396L5.23189 19.3359C4.89731 19.0013 4.60676 18.7107 4.42099 18.3894C4.17512 17.9637 4.04561 17.4807 4.04545 16.9891C4.0453 16.4975 4.17451 16.0145 4.42011 15.5887C4.60676 15.2646 4.89643 14.9767 5.23277 14.6404C5.28183 14.5914 5.33084 14.5424 5.3798 14.4934C5.71438 14.1588 6.00493 13.8682 6.32629 13.6825C6.75201 13.4366 7.23492 13.3071 7.72654 13.3069C8.21815 13.3068 8.70115 13.436 9.12702 13.6816C9.45103 13.8682 9.73893 14.1579 10.0753 14.4942L12.1294 16.5483L16.9719 11.7058L14.9169 9.65087C14.5823 9.31629 14.2918 9.02574 14.106 8.70438C13.8601 8.27866 13.7306 7.79574 13.7305 7.30413C13.7303 6.81252 13.8595 6.32952 14.1051 5.90365C14.2918 5.57964 14.5806 5.29261 14.9169 4.95628ZM6.86865 20.9726C6.67038 21.2719 6.58168 21.6306 6.61758 21.9878C6.65348 22.3451 6.81178 22.6789 7.06565 22.9328C7.31952 23.1866 7.65335 23.3449 8.01057 23.3808C8.3678 23.4167 8.72646 23.328 9.02577 23.1298L6.86865 20.9726ZM23.5533 8.60224C23.7515 8.30293 23.8402 7.94428 23.8043 7.58705C23.7684 7.22983 23.6101 6.896 23.3563 6.64213C23.1024 6.38826 22.7686 6.22996 22.4114 6.19406C22.0541 6.15816 21.6955 6.24685 21.3962 6.44513L23.5533 8.60224ZM16.3115 6.203C15.8599 6.65468 15.7692 6.75769 15.7234 6.83693C15.6415 6.97883 15.5984 7.13976 15.5984 7.30357C15.5984 7.46738 15.6415 7.62832 15.7234 7.77021C15.7683 7.85034 15.859 7.95159 16.3115 8.40414L21.5943 13.6869C22.0459 14.1385 22.1481 14.2301 22.2282 14.275C22.3701 14.3569 22.531 14.4 22.6948 14.4C22.8586 14.4 23.0196 14.3569 23.1615 14.275C23.2416 14.2301 23.3428 14.1394 23.7954 13.6869C24.2471 13.2352 24.3386 13.1331 24.3844 13.0538C24.4663 12.9119 24.5094 12.751 24.5094 12.5872C24.5094 12.4234 24.4663 12.2624 24.3844 12.1205C24.3386 12.0395 24.2471 11.9374 23.7954 11.4857L18.5127 6.203C18.061 5.75133 17.9589 5.65976 17.8787 5.61486C17.7368 5.533 17.5759 5.48991 17.4121 5.48991C17.2483 5.48991 17.0874 5.533 16.9455 5.61486C16.8653 5.65976 16.7641 5.75045 16.3115 6.203ZM6.62653 15.888C6.17485 16.3397 6.08417 16.4427 6.03838 16.5219C5.95653 16.6638 5.91344 16.8248 5.91344 16.9886C5.91344 17.1524 5.95653 17.3133 6.03838 17.4552C6.08329 17.5353 6.17397 17.6366 6.62653 18.0891L11.9093 23.3719C12.3609 23.8235 12.4631 23.9151 12.5432 23.96C12.6851 24.0419 12.846 24.085 13.0098 24.085C13.1736 24.085 13.3346 24.0419 13.4765 23.96C13.5557 23.9142 13.6578 23.8244 14.1104 23.3719C14.5621 22.9202 14.6536 22.8181 14.6994 22.7388C14.7813 22.5969 14.8244 22.436 14.8244 22.2722C14.8244 22.1084 14.7813 21.9474 14.6994 21.8055C14.6536 21.7245 14.5621 21.6224 14.1104 21.1707L8.82766 15.888C8.37599 15.4363 8.27386 15.3448 8.19374 15.2999C8.05184 15.218 7.89091 15.1749 7.7271 15.1749C7.56328 15.1749 7.40235 15.218 7.26045 15.2999C7.18033 15.3448 7.07908 15.4355 6.62653 15.888Z" fill="black" stroke="white" stroke-width="0.6" mask="url(#path-1-inside-1_225_3107)"/>
</svg>
